<?xml version="1.0" standalone="no"?>
<!DOCTYPE svg PUBLIC "-//W3C//DTD SVG 1.1//EN" "http://www.w3.org/Graphics/SVG/1.1/DTD/svg11.dtd" >
<svg xmlns="http://www.w3.org/2000/svg" xmlns:xlink="http://www.w3.org/1999/xlink" version="1.1">
<metadata>
Created by FontForge 20170910 at Mon Aug 21 23:51:36 2017
 By jimmywarting
Holland (c) Lettersiro 2017. All Rights Reserved
</metadata>
<defs>
<font id="Holland" horiz-adv-x="657" >
  <font-face 
    font-family="Holland"
    font-weight="400"
    font-stretch="normal"
    units-per-em="2048"
    panose-1="2 0 5 0 0 0 0 0 0 0"
    ascent="1638"
    descent="-410"
    x-height="291"
    cap-height="1322"
    bbox="-1056.41 -990.846 2935.4 1943.12"
    underline-thickness="150"
    underline-position="-292"
    unicode-range="U+001D-E214"
  />
<missing-glyph horiz-adv-x="1024" 
d="M100 0v1434h824v-1434h-824zM150 50h724v1334h-724v-1334zM325 1148q31 28 58 43q53 30 112 30q92 0 148 -47.5t56 -127.5q0 -49 -23 -98.5t-87 -129.5q-63 -80 -99 -132t-36 -99q0 -38 24 -133h-32q-35 97 -35 148q0 76 81.5 218t81.5 217q0 57 -33 90t-91 33
q-38 0 -69 -17q-26 -15 -56 -40v45zM389 334l57 58q11 10 20 10q10 0 22 -11l56 -60q9 -11 9 -20q0 -11 -10 -22l-56 -62q-14 -14 -21 -14q-11 0 -20 10l-61 71q-7 9 -7 18q0 10 11 22z" />
    <glyph glyph-name="ee" unicode="ee" horiz-adv-x="1020" 
d="M323 310q-5 -14 -30.5 -27.5t-57.5 -23t-55 -13t-22 1.5q0 7 23.5 19t56 24.5t57.5 18.5t28 0v0v0zM794 298q-4 -12 -25.5 -23t-48 -18.5t-45.5 -10.5t-18 1q0 5 19.5 15.5t46.5 20.5t48 15t23 0v0v0zM1048 227q-7 -3 -20.5 -9.5t-26.5 -13.5q-14 -6 -22 -10
q-168 -79 -352 -107q-36 -6 -73 -1q-14 2 -19.5 12t-0.5 23q1 1 1 2l2 4q26 52 75 84q3 2 5 1t5 -2q3 -2 6 -3q21 -6 42 -4q85 7 156 55q3 2 5 4q15 16 10 37q-5 23 -22 37t-39 15q-27 0 -53 -8q-110 -31 -188 -111q-75 -65 -192 -111.5t-225 -64.5q-44 -7 -88 -1
q-16 2 -22.5 14t-0.5 28q0 1 1 3q0 2 1 4q16 32 39 56.5t52 44.5q3 2 6 1t6 -3q4 -1 8 -3q24 -7 49 -4q102 8 188 65l6 6q18 19 13 44q-7 28 -27.5 45t-47.5 17q-32 0 -63 -9q-143 -41 -243 -151q-16 -18 -28 -39q-21 -39 -14.5 -79t34.5 -69.5t72 -35.5q52 -6 127.5 10.5
t155 53.5t142.5 91q-3 -41 21.5 -73.5t68.5 -39.5q69 -7 170.5 22.5t195.5 75.5t138 89q-1 12 -12 12.5t-22 -4.5v0v0zM539 232v0v0v0v0z" />
    <glyph glyph-name="gg" unicode="gg" horiz-adv-x="1591" 
d="M662 -491v0v0q-1 0 -3 -1q-4 -3 -11 -7.5t-14.5 -8t-12 -4t-4.5 4.5q2 8 7.5 17t10.5 17q3 4 5 7q59 85 153 162t183 131q1 0 -3.5 -6t-10.5 -14.5t-12 -16t-8 -10.5q-8 -10 -16 -21q-22 -29 -45 -57q-71 -83 -158 -151q-29 -24 -61 -42zM-134 -554v0v0l-3 -2
q-4 -3 -12 -7.5t-16 -8.5t-13 -4.5t-5 5.5q2 8 8 18t12 19q3 4 5 7q42 63 105 122.5t133 111t134 90.5q0 1 -4.5 -6t-11.5 -16t-13.5 -17.5t-8.5 -12.5l-18 -22q-24 -33 -50 -64q-78 -92 -174 -167q-32 -26 -68 -46zM202 378v0v0q-174 -67 -264 -225q-19 -37 -21 -80
q-1 -12 3 -24q12 -37 39 -67q22 -24 53 -29q55 -9 101 10q1 0 3 1q56 20 106 48q62 37 121 77q24 16 47 31q10 7 19 13t17 12q2 1 4 1t4 -1q11 -3 5 -12l-12 -20q-40 -66 -79 -131q-22 -35 -58 -54q-103 -60 -203 -123q-113 -71 -209 -163q-44 -43 -82 -93q-24 -32 -38 -71
q-4 -10 -5.5 -22.5t1.5 -23.5q13 -38 38 -59t62 -16q23 4 44 13q55 25 101 62q87 69 159 151q115 129 210 273q21 27 100 80t156 100q63 39 86 55q-1 -7 -2 -15q0 -20 12.5 -44t25.5 -38q20 -22 47 -26q50 -8 92 9q1 0 3 1q50 18 96 43q56 34 110 70l42 28q9 6 17 12
q8 5 16 11h3h3q11 -3 5 -11l-10 -18q-36 -59 -72 -119q-20 -31 -53 -49q-93 -54 -184 -111q-102 -65 -188 -147q-41 -40 -75 -85q-21 -29 -34 -64q-4 -9 -5 -20.5t2 -21.5q11 -34 34 -53t56 -15q21 4 39 13q50 22 92 56q78 61 144 136q104 116 190 247q21 35 58 52
q14 7 27 14q7 5 15 9q1 1 4 2q23 11 84.5 43.5t180.5 105.5t170 113q14 47 -122 -27t-182 -96q-58 -28 -76 -37q-14 -5 -29 -9q-5 -2 -10 -3q-8 -2 -6 4l2 6q3 10 8 19q62 103 114 212q8 15 12 32q0 4 -1 10t-4 11q-12 15 -27 29q-6 5 -14 6t-13 -3l-33 -33
q-74 -76 -157 -142.5t-178 -118.5q-45 -24 -92 -43q-59 -22 -75.5 -10.5t-2.5 45t48 76t76.5 80t83.5 58.5q21 11 45 17q29 7 59.5 5t62.5 -22q1 -1 2.5 -1.5t2.5 -1t2 -0.5q0 1 1 1q2 3 3.5 5.5t0.5 4.5q-2 11 -10 20q-41 43 -96 49q-45 6 -85 -9q-83 -33 -145 -88
q-3 -3 -42.5 -35t-94.5 -74.5t-105 -76.5t-73.5 -40.5t0.5 34.5q69 113 126 234q9 17 13 35q1 5 -0.5 11.5t-4.5 11.5q-13 17 -30 32q-7 7 -16 7.5t-14 -4.5q-18 -17 -36 -36q-82 -84 -173.5 -157t-197.5 -131q-49 -26 -102 -47q-1 -1 -3 -1q-18 -8 -37.5 -12t-42.5 5
q-10 20 -6.5 35.5t11.5 29.5q5 10 9 21q1 3 2 5q1 1 1 2q78 124 210 190q24 12 50 18q33 8 66.5 6t68.5 -24q1 -1 2.5 -2t3 -1.5t1.5 0.5q1 0 2 1q2 2 3.5 5t1.5 5q-3 13 -11 23q-46 47 -107 53q-50 7 -93 -10z" />
    <glyph glyph-name="ll" unicode="ll" horiz-adv-x="982" 
d="M387 535v0v0q-14 -6 -7 6q2 2 3 5q2 4 5 8q165 182 363 328q20 14 41 25l16 8q1 1 3 0l4 -2q1 -2 2.5 -3.5t1.5 -2.5q-3 -8 -8 -14q-189 -201 -416 -356q-2 -1 -6 -1q-1 0 -2 -1zM863 488v0v0q-12 -6 -6 4q1 2 2 5q2 3 5 6q136 150 298 270q17 12 35 21q6 3 12 7
q1 0 3 -0.5t3 -1.5t2 -2.5t1 -2.5q-2 -7 -6 -12q-156 -165 -343 -293q-1 -1 -4 -1h-2zM526 -121v0v0q32 -1 57 9q12 5 23 9q18 7 35 15q160 80 295 199q9 8 35.5 33.5t51.5 51.5t31 34q5 5 7 12.5t-0.5 12.5t-11.5 3t-26 -14q-89 -72 -195 -146.5t-210 -126.5
q-40 -19 -82 -34q-14 -4 -29 -2h-5q-2 1 -5 3.5t-4 5.5q-1 14 2 27q17 60 48 114q52 89 114 171q17 22 40 38q116 79 231 161q168 120 313 268q44 43 79 94q26 40 -7 75q-18 19 -44 12q-39 -12 -74 -34q-98 -59 -183 -134q-192 -168 -349 -369q-5 -6 -10 -13
q-17 -25 -40 -43q-4 -2 -7.5 -6.5t-4.5 -8.5q-7 -25 -23 -44q-6 -8 -11 -15q-7 -12 -14 -23q-5 -6 -9 -13q-8 -4 -18 -12q-106 -84 -209.5 -152.5t-226.5 -129.5q-49 -24 -100 -41q-17 -5 -36 -3q-3 1 -5 1q-4 0 -7 3.5t-4 7.5q-2 16 2 32q21 73 59 138q62 109 138 209
q20 27 48 45q141 97 281 196q204 146 380 326q54 52 97 114q31 48 -10 91q-21 24 -52 15q-48 -15 -91 -41q-60 -35 -114.5 -76.5t-107.5 -86.5q-117 -102 -222.5 -214.5t-201.5 -233.5q-6 -8 -13 -17q-19 -29 -48 -51q-5 -4 -9 -9t-6 -10q-3 -16 -11 -28.5t-17 -24.5
q-7 -10 -13 -19q-9 -15 -18 -29q-25 -38 -49 -77q-38 -65 -63 -136q-14 -40 -14 -82q0 -34 17 -63q28 -49 77 -48q40 0 70 12q14 6 28 11q22 7 42 17q195 97 358 242q-9 -20 -16 -39q-11 -33 -11 -68q0 -28 14 -52q23 -40 64 -39z" />
    <glyph glyph-name="oo" unicode="oo" horiz-adv-x="1175" 
d="M301 226v0v0q-11 -30 -35 -52q-17 -16 -44 -1q-1 1 -2 3.5t-1 5t1 4.5q28 34 70 48q2 0 4 -0.5t3 -2.5q2 -1 3 -3q0 -1 1 -2zM822 235v0v0q-9 -26 -30 -45q-15 -14 -38 -1q-1 1 -1.5 3t-0.5 4.5t1 3.5q24 30 60 42q1 0 3 -0.5t3 -1.5l2 -4q1 0 1 -1zM712 268v0v0
q1 -1 1 -2t0.5 -2t-0.5 -2q-3 -7 -7 -13q-5 -8 -10 -17q-10 -20 -2 -40q8 -19 20 -37q14 -20 13.5 -28.5t-17.5 -20.5q-33 -26 -68.5 -47t-76.5 -32q-8 -2 -17 -3h-4q-8 -1 -14.5 6.5t-5.5 16.5q6 42 30 77q24 34 52 64q21 23 44 44.5t50 37.5q4 1 7 1l4 -2zM1201 235v0v0
q-31 -6 -69 -14q-62 -13 -127 -24t-118 -9q-4 1 -6.5 5.5t-2.5 9.5q2 7 3 13q4 18 5 35q0 30 -22 51t-58 12q-7 -3 -13 -5q-6 -3 -13 -5q-12 -5 -20 12q-1 2 -1 4q-1 1 -1 3q-8 17 -20.5 20.5t-25.5 -1.5q-23 -8 -44 -20q-20 -13 -38 -27v0q-20 -15 -39 -33
q-42 -35 -98 -63.5t-117 -26.5q-5 1 -8 6t-2 11q1 8 2 15q5 21 6 41q1 21 -11 41t-32.5 29.5t-48.5 1.5q-8 -3 -15 -6t-15 -5q-14 -6 -23 14l-2 4q0 2 -1 3q-8 20 -22.5 24.5t-29.5 -1.5q-27 -9 -51 -24q-104 -65 -173 -166q-23 -34 -37 -72q-26 -75 25 -136q37 -44 94 -32
q51 12 98 38q85 48 152 117q17 19 42 21q41 1 87.5 15.5t89.5 36.5q-8 -16 -14 -32q-23 -65 21 -118q32 -38 82 -28q44 10 84 33q73 41 132 102q15 16 36 18q22 1 68.5 7.5t103 16.5t108 22t82.5 25t26 25q-5 11 -10.5 14.5t-18.5 1.5zM174 264v0v0q0 -1 1 -3q0 -1 0.5 -2
t-0.5 -2q-4 -7 -9 -15q-6 -9 -11 -19q-12 -23 -2 -47q9 -22 22 -42q17 -23 16.5 -33t-20.5 -24q-38 -30 -79 -54t-89 -37q-9 -2 -19 -3q-2 0 -4 -1q-10 0 -17.5 8.5t-6.5 18.5q8 48 35 88q28 40 60 75q25 27 51.5 51t57.5 43q4 2 8 1q2 0 4 -2q1 -1 2 -1z" />
    <glyph glyph-name="tt" unicode="tt" horiz-adv-x="912" 
d="M80 655v0v0q94 -5 185 -3h42q43 1 43 -9.5t-28 -39.5q-4 -5 -9 -10q-31 -35 -62 -69q-68 -75 -134 -152q-61 -72 -116 -150q-24 -33 -44.5 -75t-22.5 -82q-1 -46 31 -79q21 -24 53 -26q43 -4 85 8q38 11 74 24q103 37 195 91q3 1 6 0q2 -2 2 -5v-3q-1 -42 28 -72
q19 -22 48 -24q40 -3 79 7q34 11 67 23q93 33 176.5 81t159.5 109q1 1 3 2q5 4 12 10t10.5 12.5t-0.5 12.5q-5 3 -19.5 0t-31.5 -13q-57 -34 -145 -74t-174.5 -70.5t-141.5 -36.5q-16 0 -16 12.5t8 30.5t17.5 33.5t12.5 20.5q1 2 14.5 20t31.5 42.5t32 43.5t16 22
q92 107 186 212q14 16 29 32q27 30 55 59q16 16 32 33v0v0q39 37 71 71q1 2 3 3q1 2 3 2q61 2 120 3q77 1 155 4q13 0 25 5q3 2 4.5 6.5t0.5 8.5q-11 31 -44 37q-21 3 -43 2q-34 -1 -67 -1t-66 -1h-5q-3 0 -6 -1q-3 0 -4 4q-1 3 1 5q72 67 144 135l46 42l13 13q14 12 27 25
q12 13 5 30q-6 15 -19 19.5t-25 -3.5q-20 -14 -38 -30q-138 -114 -266 -240q-1 -1 -3 -1q-13 -1 -37 -2q-35 -2 -84 -4t-96 -3h-11q-38 -1 -64 0q-38 2 -33 14.5t29 33.5q93 88 187 175q24 22 47 44q7 7 15 13q15 14 29 28q12 15 5 32t-21 22t-27 -4q-21 -16 -41 -32
q-154 -127 -296 -268q-6 -6 -13 -12l-36 -36q-16 -16 -39 -17q-8 -1 -16 -1q-9 0 -19 -1l-62 -2q-112 -5 -223 -10q-18 -1 -35 -6q-4 -1 -7 -2q-9 -3 -7 -14q4 -14 12 -23.5t22 -10.5zM609 670v0v0q79 2 157 4l60 2q4 0 5 -3t-1 -5l-104 -110v-1v0q-28 -31 -57 -63
q-62 -68 -122 -138q-56 -67 -106 -138q-15 -21 -28 -45q0 -2 -2 -2q-104 -51 -216.5 -92.5t-182.5 -49.5q-20 -1 -18 16t14 39t21 36q3 5 5 8q43 74 105 147q100 117 203 231l32 36q30 33 61 65q17 17 34 36q22 23 54 23l50 2z" />
    <glyph glyph-name="ss" unicode="ss" horiz-adv-x="757" 
d="M138 -164v0v0h-1q-1 1 -2.5 1.5t-1.5 1.5q-1 1 -0.5 3t1.5 3v0q4 6 10 9q45 27 91 54q21 12 41 24q4 2 7.5 2t5.5 -4q1 -3 0.5 -6.5t-2.5 -6.5q-32 -47 -85 -67q-2 -1 -5 -2q-14 -6 -28.5 -10t-30.5 -2zM-265 -199v0v0q-1 1 -2 1q-1 1 -2 1.5t-2 1.5t-0.5 3t1.5 3v1
q5 6 11 10l100 58l44 26q4 2 7.5 1.5t5.5 -4.5q1 -3 0.5 -7t-2.5 -7q-35 -50 -92 -72q-3 -1 -5 -2q-15 -7 -31 -11.5t-33 -2.5zM-267 -266v0v0h7q37 1 73 10q61 17 102 55.5t66 95.5q10 23 17 48q2 6 4 13q6 16 21 24q7 3 14 7q28 16 57 30q17 9 68 47t111 85q66 51 114 87
q-12 -35 -17.5 -60.5t-7.5 -45.5t-6 -40q-4 -19 -13.5 -33.5t-28.5 -23.5q-33 -15 -64 -34q-1 -1 -2 -1q-9 -6 -18 -11q-62 -35 -122 -73q-31 -20 -59 -46q-13 -14 -9 -34q12 -50 60 -58q13 -2 25 -2q6 0 12 -1q3 0 6 1q34 0 68 8q55 17 93 52.5t61 87.5q9 22 16 44l4 12
q5 15 19 22l14 8q25 14 52 27q23 11 99.5 48.5t152 76t94.5 53.5q1 30 -23 24q-56 -19 -141 -61q-61 -30 -116.5 -53.5t-87.5 -25.5t-24 33l2 6q12 48 28 93q22 59 52.5 87t63.5 37t65 11q4 2 5 8.5t0 14.5t-4 13q-6 14 -20 20q-22 9 -44 4q-65 -15 -108 -58
q-15 -15 -64.5 -58t-114.5 -93.5t-124 -89t-93.5 -45t-23.5 39.5l2 6q13 52 31 102q41 107 150 147q12 4 24 6q7 2 15 4q7 2 9.5 10.5t-1.5 16.5q-7 15 -22 22q-23 10 -47 4q-104 -24 -158 -116q-30 -53 -44 -112q-18 -66 -33 -133q-4 -21 -14.5 -36.5t-30.5 -25.5
q-35 -17 -69 -37q-1 0 -2 -1q-10 -6 -21 -12q-66 -39 -131 -79q-34 -22 -63 -49q-15 -15 -10 -38q12 -54 64 -62q14 -2 28 -3h12z" />
    <glyph glyph-name=".notdef" horiz-adv-x="1024" 
d="M100 0v1434h824v-1434h-824zM150 50h724v1334h-724v-1334zM325 1148q31 28 58 43q53 30 112 30q92 0 148 -47.5t56 -127.5q0 -49 -23 -98.5t-87 -129.5q-63 -80 -99 -132t-36 -99q0 -38 24 -133h-32q-35 97 -35 148q0 76 81.5 218t81.5 217q0 57 -33 90t-91 33
q-38 0 -69 -17q-26 -15 -56 -40v45zM389 334l57 58q11 10 20 10q10 0 22 -11l56 -60q9 -11 9 -20q0 -11 -10 -22l-56 -62q-14 -14 -21 -14q-11 0 -20 10l-61 71q-7 9 -7 18q0 10 11 22z" />
    <glyph glyph-name=".null" horiz-adv-x="0" 
 />
    <glyph glyph-name=".null" horiz-adv-x="0" 
 />
    <glyph glyph-name="nonmarkingreturn" horiz-adv-x="508" 
 />
    <glyph glyph-name="space" unicode=" " horiz-adv-x="508" 
 />
    <glyph glyph-name="space" unicode="&#xa0;" horiz-adv-x="508" 
 />
    <glyph glyph-name="exclam" unicode="!" horiz-adv-x="859" 
d="M1367 1381v0v0q2 3 0 15.5t-9 27t-21 22.5q-6 10 -16.5 12t-18.5 -6q-15 -16 -28 -32q-203 -249 -385 -513q-270 -392 -523 -796q-11 -17 -21 -36q-3 -4 -4 -10q0 -1 -1 -3q-2 -9 4 -20.5t15 -14.5q3 -1 14 1t21.5 4.5t13.5 4.5q148 229 300.5 456.5t315.5 450t343 437.5
zM262 -51v0v0q4 3 17 2.5t27 -3t22.5 -7.5t2.5 -12q-29 -34 -38.5 -53.5t-10.5 -29.5q-2 -7 -5 -11l-2 -2q-2 -4 -7 -7t-17 -0.5t-35 15.5q-18 13 -9 36.5t27.5 44.5t27.5 27z" />
    <glyph glyph-name="quotedbl" unicode="&#x22;" horiz-adv-x="507" 
d="M303 661q0 38 -12 61.5t-35 38.5q-21 14 -35 0q-21 -23 -8 -43q4 -5 8 -11q6 -7 10 -14q16 -28 20 -56t-12 -58q-3 -8 -4 -18v-4t1.5 -3.5l2.5 -2.5q2 -1 4.5 -1t3.5 1q24 14 36 36t17 48q2 9 2.5 16.5t0.5 9.5v0v0v0zM401 665q6 37 -2 62t-28 44q-19 17 -35 6
q-24 -20 -15 -41q3 -7 6 -13q5 -8 8 -16q12 -29 11 -57.5t-21 -55.5q-5 -7 -7 -17l-2 -4q0 -2 1 -4t3 -3t4 -1.5t4 -0.5q25 11 40.5 30.5t25.5 44.5q3 8 4.5 15.5t1.5 9.5l1 1v0v0z" />
    <glyph glyph-name="numbersign" unicode="#" horiz-adv-x="793" 
d="M306 173v0v0q-10 1 -19 1q-35 2 -69 5q-2 0 -3.5 0.5t-2.5 1t-1 1.5t-1 2v7t2 6q28 33 57 64q8 10 17 20q18 6 36.5 6t37.5 -1q15 -2 29 -2q32 -1 64 -6l16 -2q9 -1 11.5 -9t-2.5 -15q-12 -16 -25 -32q-12 -16 -24 -31q-17 -20 -43 -18h-56h-24v1v1zM572 94v0v0
q11 -1 23 -1q53 -2 102 -3q2 0 4 1t3 3v0q1 4 1 8t-1 7q-14 27 -44 32l-76 10q-29 4 -59 8q-6 1 -8 7.5t1 11.5q6 6 11 13q31 36 63 72q4 4 10 6.5t12 2.5q32 2 64 2q25 -1 50 -1h79q3 0 6.5 2.5t4.5 5.5q1 4 0.5 8t-2.5 8q-9 20 -30 24q-38 6 -77 11l-26 4q-25 5 -9 28
l20 26q15 19 29 37q19 29 -8 58q-7 7 -15.5 8.5t-13.5 -3.5q-5 -4 -9 -8q-25 -23 -49 -48l-30 -36q-15 -19 -32 -38q-5 -5 -13 -9t-15 -4q-66 2 -132 6q-19 1 -37 2q-3 0 -5.5 3.5t-3 7.5t1.5 8l26 32q12 15 24 31q8 9 16 19q27 35 53 70q9 13 6 29t-16 28q-5 4 -11.5 4.5
t-10.5 -2.5t-7 -6q-9 -7 -17 -16q-49 -55 -97 -111q-13 -14 -25 -28q-9 -10 -17 -20q-13 -14 -25 -29q-14 -16 -36 -17q-14 1 -27 2q-15 1 -29 2h-121q-4 0 -10.5 -3t-10.5 -7t-3 -7v-1q3 -12 10 -21q11 -12 26 -17q15 -3 31 -4q9 -1 17 -2q28 -4 55 -8q9 -2 11.5 -9.5
t-2.5 -15.5l-2 -2q-1 -2 -3 -4q-9 -11 -18 -23q-20 -27 -44 -51q-10 -8 -21.5 -10t-23.5 -1q-17 0 -33 -4q-7 -3 -11 -10.5t0 -15.5q6 -10 13 -20l4 -6q6 -9 6.5 -15t-4.5 -14q-6 -8 -12 -15l-16 -24q-13 -23 -1 -46q5 -10 15 -12t17 6q21 23 41 47l38 44q16 21 42 21l48 -2
q64 -3 129 -5q3 -1 6 -4t4.5 -7t-0.5 -7q-8 -11 -15 -22q-11 -15 -21 -31q-6 -9 -4 -21.5t12 -22.5q2 -2 6.5 -3.5t9 -1.5t6.5 2l4 4l14 12q32 34 65 69q9 9 18 19q20 5 41 5.5t41 -1.5q23 -2 46 -1h2h1.5t-0.5 0z" />
    <glyph glyph-name="dollar" unicode="$" horiz-adv-x="1032" 
d="M547 63v0v0l-4 -6q-5 -8 -11 -16q-30 -32 -69 -47q-84 -36 -169 -49q-13 -2 -27 -4h-6q-30 -2 -14 22l86 110q47 58 93 117q15 18 29 6q6 -7 13 -14q33 -31 63 -65q9 -13 14 -29q2 -4 3 -8q1 -5 0 -11q-1 -3 -1 -6zM344 481v0v0q16 54 62 98q33 33 71 61q138 93 287 142
q4 1 8 0.5t6 -3.5q1 -2 1.5 -6t-1.5 -7q-11 -19 -25 -38l-82 -110q-45 -59 -90 -119l-62 -84q-29 -40 -59 -79q-11 -15 -25 -28q-1 -2 -4 -3t-6 -1.5t-4 0.5q-31 21 -52 49t-31 66q-5 29 6 62zM1003 835v0v0h13q17 -1 33 -3q17 -5 33 -13v0q8 -5 9.5 -14.5t-3.5 -19.5
q-35 -59 -91 -105q-124 -104 -260 -190q-16 -10 -30 -22q-4 -3 -6 -7t-3 -8q-3 -22 9 -31t33 -1q4 2 7 4q9 3 18 8q150 88 283 204q32 29 57 63q58 83 19 150q-23 40 -73 50q-4 1 -8 1q-26 5 -52 9q-13 2 -15 13q-1 6 -2 13q0 8 -2 16q-2 7 -7 13q-1 3 -3 5q-4 6 -13 5
t-15 -7l-10 -12q-13 -15 -25 -32q-23 -33 -59 -41q-119 -30 -236 -88q-83 -39 -161 -94q-51 -36 -89 -84q-49 -59 -57 -125q-10 -102 41 -173q13 -19 29 -36q7 -8 15 -17q8 -10 7 -19t-12 -24q-79 -104 -157 -208q-20 -25 -39 -51q-6 -8 -12 -15q-14 -15 -31 -15
q-44 2 -80 20q-20 13 -5 40q36 55 88 50q8 -1 15 -5q6 -2 13 -4q2 0 6 2.5t8 5.5q1 1 2 3.5t1 4.5q-8 49 -61 50q-57 1 -100 -53q-18 -22 -21 -47q-9 -76 49 -111q7 -4 15 -8q12 -5 22 -12q3 -2 3 -8t-2 -12q-3 -9 -11 -18q-2 -2 -4 -5q-11 -14 -23 -29l-34 -44
q-8 -11 -13 -23q-12 -26 0 -44q3 -4 9.5 -4t11.5 5q17 22 34 43q27 33 53 66q10 12 17 21q17 21 27 30.5t23.5 12t40.5 3.5q7 1 16 1q107 5 218 47q38 14 74 35q49 30 59 78q6 29 2 54q-6 33 -22 59q-20 31 -44 59l-10 12q-8 10 -18 18l-11 11q-4 5 -4 13.5t5 15.5
q15 23 32 45q54 71 107 142q126 166 251 333q32 41 75 44q17 2 34 3q8 1 17 1z" />
    <glyph glyph-name="percent" unicode="%" horiz-adv-x="1067" 
d="M731 767v0v0q13 2 25 4q35 5 71 10q20 3 40 4q2 0 4 -1t3 -2t1 -3.5t-1 -3.5q-2 -3 -4 -5q-7 -11 -15 -20q-188 -200 -363 -412q-242 -291 -467 -596q-12 -16 -22 -34q-6 -11 0 -26.5t18 -21.5q5 -1 11 1.5t10 6.5q39 47 77 94q58 72 117 143q255 302 513 601
q73 86 149.5 169t160.5 159q6 5 10 12q5 7 5 15q-2 23 -21.5 37.5t-40.5 9.5q-15 -5 -31 -11l-30 -10q-93 -28 -188 -46q-56 -10 -112 -4q-19 2 -34 11t-23 28q-4 11 -11 21q-3 4 -8 7l-4 4q-5 3 -12 2.5t-9 -5.5q-24 -74 -75 -132q-26 -31 -61 -52l-14 -8q-4 -1 -8 -3
q-6 -3 -12.5 -1t-7.5 6q-1 2 -1 5q-2 6 -1 11q26 73 87 124q9 7 18 13l14 10q6 4 6 13t-4 16q-27 35 -63 16l-4 -2q-5 -2 -10 -6q-71 -52 -96 -135q-15 -54 13 -101q23 -44 73 -40q28 2 53 17q39 22 67 57q27 35 51 73q14 25 40 9q54 -30 116 -28zM901 223v0v0
q1 -37 -24.5 -75.5t-75.5 -54.5h-5q-2 0 -3 -1q-8 0 -14 6t-6 14q11 85 66 151q5 6 12 11q3 3 6 5q6 5 14.5 3.5t13.5 -7.5q9 -14 12.5 -25.5t3.5 -26.5zM954 168v0v0q-2 56 -26 100t-68 77q-18 12 -38 3q-18 -9 -32 -23q-65 -70 -73 -166q-3 -53 27 -98q18 -29 49 -39
q16 -6 31 -5q32 6 61.5 24.5t48.5 50t20 76.5z" />
    <glyph glyph-name="ampersand" unicode="&#x26;" horiz-adv-x="1204" 
d="M1114 446v0v0q-74 -4 -147 -14t-147 -33q-84 -24 -164 -70q-24 -14 -45 -32q-4 -4 -7.5 -10t-4.5 -12q-6 -26 10 -42q3 -3 8.5 -5t10.5 -2q4 -1 10 1q3 2 7 2q10 1 15 -2t7 -11q6 -21 0 -46q-14 -62 -57 -117q-75 -99 -169.5 -155.5t-205.5 -76.5q-55 -10 -101 9
q-38 14 -35 57q3 39 21 79q39 89 106 166q78 88 170 156.5t195 119.5q18 9 36 16q11 5 22 9q9 5 15 15.5t4 20.5q-3 19 -21 27q-12 4 -24 7q-17 4 -33 10q-28 13 -24 49q9 66 60 124q90 104 214 155q36 15 70.5 19.5t64.5 -8.5l6 -2q1 0 2 -1h2q1 -1 2.5 -1.5t2.5 0.5
q7 4 13 9l2 4t1 4q-2 21 -14.5 32.5t-30.5 17.5q-63 23 -136 -7q-148 -56 -246 -185q-69 -94 -49 -187q3 -14 8 -26q2 -4 3 -8q2 -6 5 -11q2 -4 3 -9q5 -11 -10 -20q-121 -66 -229 -154q-110 -89 -185 -204q-45 -68 -64 -142q-19 -83 16 -148q26 -48 86 -59q65 -12 137 5
q157 39 282 158q48 45 81 99q67 104 47 203q-2 9 -5 17q-2 9 -4 19q-1 7 3.5 11.5t9.5 8.5q12 7 24 13q100 43 200 69t199 30q24 0 49 4q2 0 4 2.5t3.5 5.5t1.5 5q-1 30 -30 36q-18 3 -37 4q-7 0 -14 1z" />
    <glyph glyph-name="quotesingle" unicode="'" horiz-adv-x="467" 
d="M303 661q0 38 -12 61.5t-35 38.5q-21 14 -35 0q-21 -23 -8 -43q4 -5 8 -11q6 -7 10 -14q16 -28 20 -56t-12 -58q-3 -8 -4 -18v-4t1.5 -3.5l2.5 -2.5q2 -1 4.5 -1t3.5 1q24 14 36 36t17 48q2 9 2.5 16.5t0.5 9.5v0v0v0z" />
    <glyph glyph-name="parenleft" unicode="(" horiz-adv-x="946" 
d="M8 -542v0v0q-1 -1 -1 -4q-1 -6 -3 -17.5t-3 -24.5q-3 -22 13 -34q9 -6 13 2q19 41 28 84q4 13 7 26q68 249 197 483q50 91 108.5 179t121.5 173q113 157 242 300t277 270q61 53 126.5 98.5t137.5 80.5q12 6 22 13q3 3 5.5 7t3.5 8q1 16 -10.5 28.5t-27.5 9.5
q-24 -5 -47 -15q-125 -61 -230 -154q-85 -74 -167 -152q-149 -145 -276.5 -305.5t-238.5 -333.5q-106 -166 -179.5 -345.5t-118.5 -376.5z" />
    <glyph glyph-name="parenright" unicode=")" horiz-adv-x="860" 
d="M754 956v0v0q-15 -142 -62 -281q-62 -181 -162 -349q-149 -255 -351.5 -457t-460.5 -350l-30 -16q-18 -11 -36 -21q-10 -6 -19 -13l-2 -2q-8 -7 -9 -19.5t7 -24.5q4 -6 12 -7.5t16 2.5l36 20q30 16 61 33q449 237 735 658q107 158 183.5 326.5t113.5 350.5
q10 55 12.5 109t1.5 108q1 29 -16 50q-3 3 -7 4.5t-7 0.5q-2 0 -4.5 -2t-4.5 -4t-2 -4q-3 -45 -4 -91q-1 -11 -1 -21z" />
    <glyph glyph-name="asterisk" unicode="*" horiz-adv-x="322" 
d="M252 972q24 -8 24 -16q0 -19 -23 -64l-5 -12l32 12q24 -8 24 -16v-12q0 -13 -65 -28q-3 -41 -3 -56l-12 -8h-16q-15 0 -27 51q-2 9 -57 -19h-12q-6 0 -12 12v12q5 13 65 54q2 23 -25 50v12q0 4 16 16q52 -27 51 -40l5 -12q24 56 40 64z" />
    <glyph glyph-name="plus" unicode="+" horiz-adv-x="700" 
d="M250 274v0v0q-11 0 -23 1q-30 1 -62 2q-16 -1 -32 -8q-2 -1 -3.5 -3.5t-2.5 -5t-1 -4.5q3 -26 27 -34q44 -14 93 -14q18 -1 37 -4l10 -2q4 0 5.5 -3.5t-1.5 -8.5q-10 -19 -21 -36l-60 -82q-20 -28 -41 -57q-1 -1 -2 -3q-10 -12 -16 -26q-10 -25 6 -44q4 -4 10.5 -4
t10.5 4q12 12 23 25q18 22 36 43q70 84 140 169q24 30 58 29q28 -1 57 1q52 3 104 9q2 1 3.5 3t3 5t1.5 5q-3 27 -27 33q-18 3 -37 3q-13 0 -27 1q-6 1 -12 0q-10 -1 -17.5 0.5t-10.5 11.5q-2 9 3 17t12 15q5 5 9 10q11 15 23 28q6 6 11 12l26 30q35 40 69 81q28 30 3 57
q-7 8 -17.5 9t-18.5 -7q-8 -7 -16 -15q-33 -30 -64 -63q-53 -60 -104 -122q-15 -17 -30 -35q-18 -22 -44 -23h-62h-29z" />
    <glyph glyph-name="comma" unicode="," horiz-adv-x="467" 
d="M316 26.5q5 23.5 -7 38.5q-12 14 -36 0q-37 -23 -39 -43q0 -5 1 -11q-36 -98 -73 -128q-10 -8 -17 -18l-4 -4q-1 -2 -0.5 -3.5t1.5 -2.5t3 -1t4 1q71 -19 116.5 64.5t50.5 107z" />
    <glyph glyph-name="hyphen" unicode="-" horiz-adv-x="581" 
d="M279 260v0v0v2h-25h-55q-37 -1 -73 -3q-8 -1 -16 -1q-3 0 -5.5 -3.5t-3.5 -8t0 -7.5q11 -34 45 -41q20 -3 40 -3q141 5 282 11q7 1 10 9.5t0 15.5q-16 27 -46 29h-109h-44z" />
    <glyph glyph-name="hyphen" unicode="&#xad;" horiz-adv-x="581" 
d="M279 260v0v0v2h-25h-55q-37 -1 -73 -3q-8 -1 -16 -1q-3 0 -5.5 -3.5t-3.5 -8t0 -7.5q11 -34 45 -41q20 -3 40 -3q141 5 282 11q7 1 10 9.5t0 15.5q-16 27 -46 29h-109h-44z" />
    <glyph glyph-name="period" unicode="." horiz-adv-x="467" 
d="M313 -7q19 30 10 40q-40 41 -80 6q-31 -33 10 -54.5t60 8.5z" />
    <glyph glyph-name="slash" unicode="/" 
d="M1336 1291v0v0q-1 4 -1 8q-1 7 -3 15q-3 12 -14.5 14t-23.5 -7q-22 -18 -43 -37q-160 -142 -314.5 -289t-304.5 -298q-446 -448 -876 -910q-19 -20 -38 -41q-4 -6 -7 -12l-2 -4q-6 -10 -3.5 -23t12.5 -17q4 -1 11 1.5t11 6.5q28 29 55 58t55 58l152 156q214 220 431 439
q208 209 419.5 415t430.5 405q21 19 40 39q6 7 9 16q2 4 4 7z" />
    <glyph glyph-name="zero" unicode="0" horiz-adv-x="819" 
d="M161 -104v0v0q49 1 96 15q73 24 140 61q270 151 473 385q42 49 79 101.5t66 110.5q30 62 44 130q9 49 -11 94q-14 36 -47.5 58t-82.5 12q-6 -1 -13 -3l-10 -4q-47 -12 -89.5 -35t-81.5 -52q-219 -163 -325 -413q-9 -19 -12 -39q-2 -20 13 -36q2 -3 7 -3.5t9.5 0t5.5 3.5
q2 3 4 7q7 10 12 21q58 128 147 230t205 181q53 37 114 59q32 11 66 17l12 2q9 2 17.5 -6.5t9.5 -18.5q0 -48 -18 -94q-24 -63 -58.5 -119.5t-76.5 -108.5q-104 -129 -229 -232t-269 -184q-67 -38 -140 -61q-55 -18 -111 -13q-24 1 -35 11.5t-12 40.5q-1 16 2 32
q8 52 30 100q57 122 144 223q132 158 290 291q53 44 108 84t118 70q4 3 9 6q2 2 4 3q6 4 6.5 12.5t-4.5 16.5q-17 25 -41 18q-5 -2 -9 -4q-30 -9 -57 -24q-66 -40 -128 -85q-182 -141 -331 -317q-80 -92 -137 -199q-39 -71 -53 -152q-11 -75 32 -138q30 -46 86 -52l22 -2h10
z" />
    <glyph glyph-name="one" unicode="1" horiz-adv-x="665" 
d="M358 -100v0v0v-1h10h22q10 0 20 -1q14 -2 29 -2q3 0 6.5 2.5t4.5 5.5q2 3 1.5 7.5t-1.5 7.5q-9 20 -29 26q-19 4 -37 5h-3q-24 1 -48 3q-20 1 -41 2q-8 1 -12.5 9t-0.5 15l8 10q16 25 34 49q142 189 291.5 371.5t308.5 356.5q13 15 25 32q9 15 0 30q-8 14 -19 26
q-15 17 -36 9q-23 -10 -45 -21q-47 -23 -95 -42q-119 -45 -240 -89l-100 -36q-3 -1 -5 -2q-9 -3 -17 -7q-3 -2 -5 -6t-2 -8q3 -17 16 -28.5t28 -9.5q20 2 39 9q69 24 137 48q34 12 68 23q38 14 77 26q1 1 3 -0.5t4 -2.5q0 -1 0.5 -2t0.5 -2v-2q-7 -8 -13 -17
q-20 -27 -42 -52q-85 -99 -168.5 -200.5t-160.5 -207.5q-84 -121 -165 -244q-4 -5 -7 -10q-19 -30 -53 -30q-36 0 -71 -6t-70 -14h-2q-18 -5 -34 -13q-6 -2 -11 -5q-6 -3 -9.5 -11.5t-1.5 -16.5q10 -42 46 -30q41 14 84 19q21 3 42 7q10 2 20.5 2t19.5 -4q14 -8 25.5 -8.5
t23.5 11.5q10 9 21.5 12t23.5 3q40 2 80 3q12 1 25 1z" />
    <glyph glyph-name="two" unicode="2" horiz-adv-x="794" 
d="M758 806v0v0q5 0 10 -1q15 -1 32 -4q12 -2 17 -13.5t0 -24.5q-32 -72 -84 -134q-76 -95 -166 -176q-205 -190 -434 -341q-45 -31 -95 -46q-49 -14 -96 -44q-30 -20 -23 -53q13 -54 66 -32q12 5 24 11q8 5 17 10q24 11 45 25q40 24 81 29q38 6 74 7q93 0 185 -2
q42 -1 82.5 -9t79.5 -19q109 -28 202 -86q2 -1 5.5 -0.5t7.5 1.5h1q3 1 5 5.5t2.5 9.5t-1.5 8q-4 5 -7 10q-9 15 -22 25q-76 50 -160.5 83.5t-180.5 43.5q-30 4 -61 6q-32 3 -65 7q-6 0 -12 2.5t-7 5.5q0 8 5.5 14.5t12.5 11.5q1 1 3 2l20 14l24 18q91 70 178.5 145.5
t169.5 159.5q65 68 117 145q33 46 50 99q16 63 -9 106t-82 48q-32 2 -65 -2q-116 -18 -228 -76q-25 -15 -50 -33q-1 -1 -3 -2q-11 -8 -14 -21.5t2 -25.5q5 -9 14.5 -12t19.5 2q14 7 27 15q18 10 36 19q120 61 250 69z" />
    <glyph glyph-name="three" unicode="3" horiz-adv-x="921" 
d="M48 -64v0v0q-1 0 -3 1q-4 1 -11 3t-15 4q-13 5 -21.5 12t-5.5 12v1q8 14 19 24q90 74 204 78q130 1 208 -98q3 -5 0 -11t-9 -8l-4 -2t-4 -1q-166 -35 -332 -20q-5 1 -12 2q-5 2 -14 3zM565 331v0v0q9 -1 19 -4q49 -10 109 -23q52 -13 94 -44q16 -11 28 -27q13 -16 6 -37
q-3 -12 -9 -23q-33 -58 -90 -95q-52 -35 -108 -60t-116 -43q-1 -1 -3 -1q-16 -6 -24 -7t-12.5 4.5t-10.5 19.5q-2 3 -4 7q-24 41 -63 70q-54 41 -121 57t-139 2t-140 -63q-19 -15 -34 -35q-10 -14 -11 -30q-1 -37 13 -65t47 -46q35 -18 72 -26t76 -10q142 -7 283 21
q134 28 257 88q67 33 121 85q34 31 51 74q30 86 -23 158q-24 32 -57 53.5t-72 33.5q-36 12 -72.5 22t-75.5 14q-7 1 -13 5h-1q-1 1 -1 2v2.5t1 2.5q2 1 3 3q7 7 15 11l104 42q55 22 111 44q81 31 155 77q35 22 66 49q51 50 13 109q-22 35 -62 45q-48 10 -96 15q-30 2 -60 2
h-13q-122 3 -243 -22q-43 -10 -84 -25l-10 -4q-12 -4 -16.5 -15.5t-0.5 -25.5q4 -13 14 -19t22 -4q19 5 37 10q37 10 74 18q86 17 171 18.5t170 -6.5q21 -3 41 -12q2 -1 5 -2q1 0 2 -3t1 -6t-1 -4q-9 -14 -22 -24q-60 -45 -129 -74q-94 -42 -190 -80q-45 -18 -90 -35
q-40 -15 -79 -31q-31 -12 -59 -28q-5 -3 -9 -8.5t-6 -10.5q-6 -21 3.5 -40t28.5 -25q19 -5 39 -7q34 -4 75 -9q20 -2 43 -5z" />
    <glyph glyph-name="four" unicode="4" horiz-adv-x="837" 
d="M424 210v0v0q8 4 17 8q39 18 71 32q1 0 3 -1t3 -2t2 -3t1 -3v-1q-4 -11 -9 -21l-98 -166q-35 -59 -70 -119q-12 -20 -23 -42q-13 -26 11 -51q2 -2 6.5 -2.5t8.5 0t6 3.5q3 3 5 6q7 10 13 20q144 241 308.5 467.5t344.5 441.5q8 9 15 19q7 11 5 25.5t-12 25.5
q-11 11 -25.5 11.5t-25.5 -9.5q-40 -40 -76 -83q-150 -180 -281 -374l-32 -46q-9 -10 -22 -5t-24 1.5t-21 -9.5q-149 -86 -320 -104q-30 -3 -60 -4.5t-60 3.5q-7 2 -12 9.5t-2 14.5q1 4 3 7q2 8 7 15l7 7q19 25 42 47q73 68 149 134q83 73 167 145q69 59 138 119
q24 22 46 45q14 16 10 38q-3 21 -21 32q-16 9 -36 -8q-46 -40 -93 -80q-151 -131 -303 -263q-55 -47 -107 -98q-34 -35 -62 -74q-18 -28 -12 -62q7 -38 32 -64.5t63 -32.5q24 -3 48 -3q74 0 143 14.5t132 39.5z" />
    <glyph glyph-name="five" unicode="5" horiz-adv-x="735" 
d="M389 239v0v0h15q17 1 33 0q58 -3 109 -28q42 -21 31 -67q-6 -19 -15 -37q-18 -37 -50 -62q-81 -65 -171.5 -86t-191.5 9q-19 6 -37 15l-22 10q-15 6 -31 9q-2 0 -5 -2.5t-6 -5.5v0q-2 -2 -2 -4t1 -4q2 -3 4 -7q6 -12 15 -18q7 -3 14 -7q51 -26 104 -45q84 -28 166 -20
t161 50q43 23 76 59q34 36 46 84q10 32 2 64q-14 56 -57 95q-59 53 -138 61q-104 12 -208 -7q-38 -7 -76 -12q-10 -1 -20 -3q-1 0 -2 1l-2 2l-2 2q-7 4 4.5 24t48.5 70l6 8q9 12 19 24l226 284q10 13 20 25q5 7 10 13q15 16 36 16q137 2 272 24l52 8q89 15 179 31q11 2 23 8
q3 2 6 3q9 4 4 14q-15 34 -51 30q-33 -5 -66 -9q-47 -7 -94 -12q-74 -8 -148 -14q-51 -4 -101 -9q-33 -4 -39 29q-3 8 -10 16q-2 2 -3 4q-9 10 -21.5 11t-21.5 -8q-7 -8 -14 -17q-11 -13 -23 -25q-12 -11 -28 -14q-22 -2 -44 -3q-14 0 -28 -1q-10 -1 -14 -11t1 -20
q10 -18 28 -28q18 -11 6 -25q-25 -31 -51 -63q-43 -53 -85 -107q-67 -86 -132 -173q-21 -29 -37 -61q-4 -8 -8 -15q-12 -23 -2 -47q4 -11 10 -22q18 -35 58 -36q44 -1 88 9q14 2 29 5q38 8 76.5 13.5t77.5 4.5z" />
    <glyph glyph-name="six" unicode="6" horiz-adv-x="854" 
d="M169 14v0v0l-18 4q-20 4 -38 10q-11 4 -18 14.5t-7 23.5q1 62 37 112q10 13 25 18q53 22 106 39q85 27 171.5 42.5t175.5 23.5q56 6 111 -10q7 -2 11 -10.5t2 -15.5q-1 -3 -2 -5q-4 -9 -8 -16q-36 -51 -88 -82q-88 -54 -183 -91t-198 -52q-28 -4 -55 -4q-12 0 -24 -1z
M190 -54v0v0q69 -5 123 6q167 33 316 117q35 20 68 43q39 28 68 68q40 60 4 122q-27 48 -81 61q-80 16 -161 4q-70 -9 -139 -23.5t-135 -38.5q-12 -3 -25 -4h-6q-1 0 -2.5 1t-2.5 2t0 2q0 2 1 4q4 9 9 16q130 147 282.5 264.5t324.5 210.5q6 3 12 7q19 10 37 20q6 4 7 13
t-3 16q-18 31 -46 24q-66 -21 -125 -57q-221 -128 -408 -302q-65 -60 -123.5 -126t-104.5 -144q-15 -25 -40 -38q-27 -16 -54 -34q-6 -4 -7.5 -12.5t1.5 -16.5q4 -10 11 -16.5t19 -5.5h1q8 1 14.5 -0.5t8.5 -12.5q3 -40 18 -78q25 -59 85 -81q23 -7 42 -9q7 -1 11 -2z" />
    <glyph glyph-name="seven" unicode="7" horiz-adv-x="715" 
d="M555 811v0v0h22q125 5 247 8q7 0 14 -2h1l4 -2t3 -3q1 -1 0.5 -3.5t-1.5 -3.5q-3 -5 -6 -9q-11 -14 -25 -28q-96 -91 -193 -182q-303 -285 -578 -596q-1 -2 -2 -3q-10 -11 -19 -22q-22 -27 6 -57q4 -5 10.5 -5t10.5 4q20 20 39 41q42 44 84 87q115 119 233.5 233.5
t238.5 227.5l36 34q108 103 215 207q26 25 49 53q21 29 3 60q-24 43 -73 44q-25 -1 -51 -3q-6 0 -13 -1q-21 -1 -42 -3q-39 -4 -78 -6q-40 -2 -79 -2q-57 -1 -115 -5q-125 -9 -150 -24t-14 -46h61q82 -3 162 7z" />
    <glyph glyph-name="eight" unicode="8" horiz-adv-x="814" 
d="M264 2v0v0q-43 0 -74.5 4.5t-58.5 11.5q-9 2 -18 6q-3 1 -5 2q-38 17 -41 57q-4 55 16 105q31 73 82 133q75 88 163 163q10 8 18 15q18 17 28 22.5t20 -1t30 -25.5q6 -6 14 -13q52 -46 108 -86q11 -8 21 -16q29 -21 58 -41q29 -19 57 -40q29 -22 55 -48q21 -23 5 -54
q-14 -31 -41 -51q-1 0 -2 -1q-32 -24 -67 -43q-125 -65 -264 -87q-47 -7 -82 -10q-13 -2 -22 -3zM794 912v0v0q-101 -1 -196.5 -28.5t-158.5 -64.5q-35 -22 -66 -50q-45 -42 -39 -104q0 -4 1 -8q0 -13 4 -25q8 -21 -0.5 -35.5t-25.5 -26.5q-81 -64 -151 -139
q-53 -54 -93 -116q-36 -56 -52 -121q-17 -84 22 -151.5t121 -91.5q56 -17 114 -16q163 5 314 63q61 24 120 56q48 25 79 71q14 21 15 46q3 38 -17 71l-6 10q-14 24 -33 43q-38 38 -81 70q-36 26 -72 51q-32 21 -63 44q-43 31 -83 67q-21 16 -21.5 24.5t20.5 24.5q7 6 14 10
q7 5 13 10q9 7 9.5 17t-6.5 19q-11 14 -21.5 17t-28.5 -3q-1 -1 -3 -1l-20 -8q-10 -6 -12 5q0 1 -1 2v6q3 19 13.5 34t24.5 28q43 39 97 62q102 46 212 64q70 11 140 2q16 -2 30 -11q2 -2 3.5 -4.5t2 -5.5t-0.5 -4q-1 -2 -1 -4q-9 -21 -22 -39q-109 -137 -258 -230
q-25 -14 -47 -32q-4 -4 -5.5 -10.5t0.5 -11.5q12 -36 43 -23q68 33 130 73t118 90q26 24 49.5 50t41.5 56q39 64 -10 121q-36 44 -91 51q-33 4 -55 5q-7 0 -11 1z" />
    <glyph glyph-name="nine" unicode="9" horiz-adv-x="749" 
d="M689 897v0v0q-178 -71 -315 -176q-34 -27 -64 -58l-3 -3q-30 -30 -47 -69q-17 -43 -1.5 -82.5t46.5 -57.5q40 -24 87 -19q53 8 105 20q81 21 157 56q45 21 90 43q23 11 47 23h3t3 -1q8 -5 2 -13q-89 -137 -191 -264q-88 -110 -193 -205q-93 -84 -204 -145
q-50 -27 -105 -44q-55 -16 -112 -10q-42 6 -33 48q9 36 44 46q9 3 19 3q5 1 11 2q9 1 11.5 7.5t-1.5 14.5q-29 42 -72 23q-21 -8 -35.5 -22t-19.5 -36q-9 -50 17 -91.5t75 -53.5q37 -9 75 -6q81 8 152 45q99 50 185 120q147 122 262 274q76 100 147 204t140 209q3 6 7 11
q10 16 18 33q8 19 -2 37q-8 18 -26 26q-4 2 -8 2t-6 -1q-14 -7 -25 -18q-55 -53 -118 -95q-169 -112 -365 -165q-44 -11 -90 -14q-16 0 -32 5q-6 1 -13 2q-4 2 -7 8t-2 11q7 29 26 54q31 44 73 76q100 78 210 136t236 83q9 2 11.5 12t-3.5 19q-14 20 -38 22q-19 2 -37 -2
q-40 -10 -71 -19q-11 -3 -20 -5z" />
    <glyph glyph-name="colon" unicode=":" horiz-adv-x="396" 
d="M128 -24v0v0h2q3 0 5 1q5 3 10 7q31 21 62 44q14 10 13 28q-3 26 -26 38q-10 6 -23 4t-22 -9q-32 -27 -44 -66q-5 -25 16 -43q2 -2 4 -3q2 0 3 -1zM296 378v0v0q-3 29 -26 48q-8 7 -18 6t-17 -10q-33 -47 -32 -105q0 -17 15 -27q1 -1 4 -2t5.5 -1t3.5 1q31 37 60 75
q3 4 4 10q1 3 1 5z" />
    <glyph glyph-name="semicolon" unicode=";" horiz-adv-x="396" 
d="M296 378v0v0q-3 29 -26 48q-8 7 -18 6t-17 -10q-33 -47 -32 -105q0 -17 15 -27q1 -1 4 -2t5.5 -1t3.5 1q31 37 60 75q3 4 4 10q1 3 1 5zM203 49.5q5 23.5 -7 38.5q-12 14 -36 0q-37 -23 -39 -43q0 -5 1 -11q-36 -98 -73 -128q-10 -8 -17 -18l-4 -4q-1 -2 -0.5 -3.5
t1.5 -2.5t3 -1t4 1q71 -19 116.5 64.5t50.5 107z" />
    <glyph glyph-name="semicolon" unicode="&#x37e;" horiz-adv-x="396" 
d="M296 378v0v0q-3 29 -26 48q-8 7 -18 6t-17 -10q-33 -47 -32 -105q0 -17 15 -27q1 -1 4 -2t5.5 -1t3.5 1q31 37 60 75q3 4 4 10q1 3 1 5zM203 49.5q5 23.5 -7 38.5q-12 14 -36 0q-37 -23 -39 -43q0 -5 1 -11q-36 -98 -73 -128q-10 -8 -17 -18l-4 -4q-1 -2 -0.5 -3.5
t1.5 -2.5t3 -1t4 1q71 -19 116.5 64.5t50.5 107z" />
    <glyph glyph-name="less" unicode="&#x3c;" horiz-adv-x="763" 
d="M528 83v0v0q5 2 8 3l12 3q3 2 4.5 6t1.5 8.5t-2 7.5q-2 2 -3 4q-7 10 -16 16q-13 7 -28 12l-12 4l-50 20q-84 33 -167 67q-10 4 -18 11q-4 4 -6 10q0 1 -1 1q0 1 1.5 2l3 2t2.5 1q39 16 77 32q82 33 163 68q58 26 116 55l40 20q9 5 17 11l6 4q6 4 10 13.5t3 16.5
q-2 17 -15 23.5t-31 0.5l-32 -14h-1q-104 -48 -209.5 -93t-212.5 -82q-23 -8 -32.5 -21t-4.5 -36q4 -27 24 -42q14 -10 30 -18q59 -28 119.5 -53.5t125.5 -43.5q28 -7 54 -13q12 -3 23 -6z" />
    <glyph glyph-name="equal" unicode="=" horiz-adv-x="669" 
d="M398 389v0v0q20 2 40 5q53 7 105 15q11 3 20 11q3 2 4.5 6t0.5 7q-4 13 -13.5 21.5t-19.5 8.5q-16 1 -32 -2q-103 -18 -206 0q-22 4 -43 3h-5q-5 0 -6.5 -3t-1.5 -8q3 -18 14 -29.5t27 -14.5q41 -10 82 -15q18 -3 34 -5zM285 236v0v0h45q66 0 112 1q4 0 8 3.5t5.5 8
t0.5 7.5q-17 30 -62 32q-130 2 -258 13q-8 1 -16.5 -1.5t-15.5 -6.5q-4 -2 -3.5 -7.5t3 -11.5t7.5 -10q19 -18 49 -20q60 -4 102 -6q14 -1 23 -2z" />
    <glyph glyph-name="greater" unicode="&#x3e;" horiz-adv-x="763" 
d="M310 508v0v0l-9 -3q-8 -2 -13 -4q-2 -1 -4 -5t-2.5 -8.5t1.5 -7.5q1 -2 3 -4q5 -10 14 -16q13 -7 27 -12l12 -4q24 -10 49 -20q81 -33 161 -67q10 -4 17 -11q4 -4 5 -10l1 -1q0 -1 -1.5 -2l-3 -2t-3.5 -2q-39 -16 -79 -31q-85 -33 -169 -69q-60 -25 -119 -54l-42 -20
q-10 -5 -19 -11q-3 -2 -5 -4q-7 -5 -11.5 -14t-4.5 -16q1 -17 13 -23.5t30 -0.5q17 6 34 14h1q108 48 217 93t219 82q24 8 34.5 21t7.5 36q-2 26 -21 41q-13 11 -29 19q-56 28 -114.5 53.5t-121.5 42.5q-28 8 -53 14q-12 3 -22 6z" />
    <glyph glyph-name="question" unicode="?" horiz-adv-x="1213" 
d="M345 777v0v0q0 -36 6 -50.5t20 -16t38 3.5q15 3 36 6q-25 87 28.5 179.5t164.5 178.5t256 156q154 73 306.5 117.5t272.5 50.5q67 4 114 1.5t65.5 -24t-1.5 -73.5q-28 -72 -120.5 -188.5t-259.5 -271.5t-417 -343q-140 -104 -310 -251q-136 -120 -240 -224
q-30 -29 -59 -57q-13 -45 5.5 -50t60.5 34q92 85 213.5 182t258.5 203q144 110 288.5 225.5t272 231.5t221.5 227t136 214q33 86 12 137.5t-85.5 73.5t-160.5 17q-126 -6 -285 -52.5t-318 -121.5q-140 -67 -257 -150.5t-188 -176.5t-74 -188zM133 -128v0v0q1 0 5.5 3t10 7.5
t10 7.5t5.5 3q24 7 39 -1t15 -20q0 -14 -12.5 -30.5t-26 -27t-18.5 -9.5l-4 2q-24 12 -33.5 19t-8.5 13.5t10 19.5q4 6 8 13z" />
    <glyph glyph-name="at" unicode="@" horiz-adv-x="1104" 
d="M590 336v0v0q14 4 31 -3t32 -27q3 -3 5 -6q25 -34 36.5 -38t20.5 34q7 33 -5.5 56t-28.5 37q-36 31 -90 18q-46 -10 -98 -45q-84 -57 -155.5 -141t-93.5 -150q-10 -36 4 -68q13 -30 47 -44v0q31 -13 80 -3q40 8 93 39.5t119 93.5q58 57 72 76q9 11 10 10q1 -3 -6 -14
q-7 -12 -14 -31q-13 -36 -20.5 -70t7.5 -55q11 -16 36.5 -14t71 27t114.5 81q114 92 160.5 180.5t36.5 165.5q-9 75 -60 128q-69 72 -163 91t-197 -1.5t-200 -68t-173 -109.5q-79 -65 -124 -140t-59.5 -152.5t-0.5 -149.5q17 -88 69.5 -154.5t134.5 -100.5q71 -28 160 -24.5
t194 48t223 137.5q-11 14 -16 23q-7 11 -11.5 14.5t-11.5 0t-21 -14.5l-8 -6q-145 -107 -260.5 -134.5t-198 4.5t-128.5 103t-53 162.5t28.5 182.5t115.5 163q69 59 157 95t177 46.5t163.5 -5.5t117.5 -62q44 -51 47 -106.5t-22.5 -110.5t-65.5 -104t-81 -85.5t-70.5 -56
t-34.5 -15.5q-2 4 5 26t16 48q12 32 17 58t-8 42q-10 11 -28.5 12t-50.5 -17t-81 -63q-119 -111 -185 -127q-55 -12 -68 -0.5t2.5 38t44.5 60.5q59 73 133 139.5t110 76.5z" />
    <glyph glyph-name="A" unicode="A" horiz-adv-x="1970" 
d="M2129 1608v0v0h-9q-83 -2 -147.5 -9.5t-150.5 -25.5q-266 -53 -519 -147q-124 -45 -242 -101.5t-229 -126.5q-100 -62 -185 -143q-37 -37 -71 -77q-30 -34 -40 -78q-5 -16 -3 -32q8 -40 29 -70t60 -47q37 -17 77 -22q4 0 8 -1q44 -5 88 -7t89 4q25 4 50 5q15 0 30 2
q20 1 40 6q11 4 19 13q3 5 0.5 13.5t-9.5 15.5q-11 13 -28 13q-32 -1 -65 -3q-20 -2 -39 -3q-17 0 -33 -1q-40 -3 -80 -3q-73 1 -143 21q-28 7 -36.5 21.5t3.5 44.5q7 19 19 35q3 4 6 7q29 38 63 72q78 76 170 135q142 92 297 161q338 148 698 222q178 38 361 35
q10 0 39.5 -2.5t64 -7.5t58.5 -14.5t22 -24.5q-7 -24 -23 -42q-52 -63 -117 -111q-106 -80 -213 -159q-435 -315 -860 -641q-59 -46 -118 -91q-22 -16 -43 -32q-25 -20 -59 -22q-88 -8 -175 -20q-32 -4 -65 -8q-106 -14 -211 -33t-210 -41q-68 -14 -135 -35l-28 -8
q-39 -11 -72 -36q-27 -23 -16 -57q8 -24 28 -39q15 -12 32 -9t24 26v2q2 3 1 6q-1 15 6.5 23.5t19.5 11.5q10 3 19 7q52 18 105 31q251 57 506 95q24 3 47 3q9 0 18 1q11 0 9 -10q-1 -1 -1 -2q0 -2 -0.5 -3t-0.5 -2q-18 -17 -37 -32l-450 -364l-334 -270q-15 -13 -30 -27
q-8 -8 -8 -18q0 -9 6 -19q15 -22 34 -12q0 1 1 1q10 6 19 13q66 50 133 100q169 126 337 254q250 191 498 384q46 37 104 39q101 1 205 10q54 5 109 8q52 3 104 5q1 0 3.5 -2.5t4 -5t0.5 -4.5q-9 -26 -22 -51q-38 -75 -61 -157q-12 -47 -11 -96q2 -54 33 -98q36 -54 101 -58
q28 -2 56 3q102 21 173 67.5t114 101t62.5 100t19.5 64.5t-15 -5q-47 -79 -118.5 -141t-158.5 -94.5t-183 -21.5q-12 2 -20.5 11t-9.5 22v3q-2 15 0 29q9 60 30 117q44 108 106 208q11 17 31 23q19 6 37 15q3 2 4.5 6t2.5 7q0 8 -4 15q-16 22 0 45q18 26 37 53q15 23 31 46
q122 174 250.5 342.5t265.5 329.5l32 40q14 18 29 36q27 32 22.5 39.5t-25 -3.5t-40.5 -36q-204 -210 -385 -430t-347 -445l-442 -31l1174 941q7 6 19 15q26 20 55 47.5t39.5 59.5t-17.5 63q-31 34 -74 47q-42 14 -86 19q-48 4 -97 6q-18 0 -37 1z" />
    <glyph glyph-name="B" unicode="B" horiz-adv-x="1623" 
d="M129 -383v0v0q-7 0 -14 1q-15 1 -28 2q-11 1 -10 10q1 1 1 3v2.5v2.5l4 4q8 11 17 20q53 44 113 77q113 63 233 110q285 113 582 190q66 18 134 34q19 5 37 9q1 1 3 0.5t3 -1t1 -1.5q1 -3 1 -6.5t-2 -5.5l-9 -9q-24 -23 -50 -44q-87 -67 -184 -117q-277 -151 -581 -235
q-86 -23 -173 -39q-28 -5 -55 -6q-11 0 -23 -1zM1760 1379v0v0q-143 31 -300.5 26.5t-300.5 -31.5q-423 -80 -801 -287q-53 -30 -103 -64q-14 -8 -27 -17q-17 -11 -30 -27q-3 -4 -4 -10t0 -11q0 -1 4.5 -10t12 -22t17 -24t19 -16t18.5 1q143 126 336.5 224.5t410.5 158
t433 69.5t404 -41q59 -15 111 -46q3 -2 5 -3q31 -18 56.5 -42t24.5 -61q-2 -37 -22 -69q-34 -50 -82 -88q-91 -73 -194 -129q-188 -104 -383 -192q-177 -81 -357 -156.5t-361 -149.5q-112 -45 -225 -92q-5 -2 -10.5 -3t-11.5 3q-8 6 0 21q7 12 14 23q24 40 49 80
q70 95 174 219t194 219q22 22 37 35q26 20 22.5 29.5t-53.5 20.5q-20 5 -37.5 6t-25.5 -7q-120 -140 -247.5 -299t-247 -327.5t-214.5 -336.5q-13 -32 5 -56q3 -4 11 -6t16 -2.5t10 2.5q17 30 67 101.5t102.5 136.5t75.5 75q4 0 7 -2q7 -5 12 -11q11 -15 25.5 -19t31.5 0
q8 1 16 3q114 27 228.5 48t231.5 34q129 13 257 6q61 -2 117 -28q21 -8 24 -30q0 -11 -8.5 -20t-21.5 -13l-80 -18q-74 -17 -148 -35q-333 -81 -652 -209q-124 -49 -239 -116q-48 -29 -93 -64q-24 -20 -44 -46q-16 -21 -9 -46q18 -71 89 -82q44 -6 88 -4q45 1 88.5 9
t86.5 19q138 33 270 83t259 110q129 59 246 138q59 40 112 86t94 105q12 18 32 21q76 18 153 45q38 12 74 23q21 6 41 11q28 7 43.5 13t6.5 15q-9 7 -34.5 6.5t-56 -5t-52.5 -8.5q-7 -1 -13 -2l-14 -2q-65 -10 -129 -22q-16 -3 -27 1.5t-18 19.5q-18 37 -48.5 59t-68.5 33
q-51 15 -103 18q-77 5 -153.5 3.5t-152.5 -12.5q-18 -3 -36 -3h-12q-1 0 -2 0.5l-3 1.5l-2 2l2 2q0 2 1 3t2 1q21 11 43 21l132 56q86 36 173 73q252 106 498 228q70 34 139.5 71.5t135.5 80.5q72 45 133 104q45 41 68 99q15 43 3 87q-17 55 -56 97q-43 43 -97 71
q-43 23 -88.5 38.5t-93.5 26.5z" />
    <glyph glyph-name="C" unicode="C" horiz-adv-x="1717" 
d="M437 -276v0v0q106 3 206 20.5t198 43.5q93 24 269 90.5t357 150.5t289 160v0q2 1 7.5 8t12 16.5t9.5 18t-1 12t-19.5 -1.5t-45.5 -22q-258 -142 -544.5 -246t-575.5 -158q-151 -29 -305 -23q-65 4 -127 23q-26 9 -51 23q-51 28 -49 86q1 28 7 56q22 91 77 167
q58 83 128 156q254 268 572 455q198 118 417 192q96 32 196 46q26 4 52 3.5t52 -8.5q3 -1 7 -3l8 -2q11 -4 18 -15t8 -23q-4 -61 -34 -115q-38 -67 -89 -124l-24 -28q-15 -17 -29 -33q-10 -15 0 -30q5 -11 15 -19q9 -9 22 -3l4 2q6 2 10 6q106 90 161 218q9 21 13 43v4
q18 86 -45 147q-49 47 -116 49q-48 1 -96 -6q-82 -13 -161 -37t-155 -57q-364 -152 -663 -409q-69 -59 -134 -122.5t-123 -133.5q-58 -68 -102 -145q-19 -36 -33 -73.5t-18 -78.5q-12 -146 111 -226q63 -40 136 -48q19 -2 37 -4q37 -5 72.5 -7t68.5 5z" />
    <glyph glyph-name="D" unicode="D" horiz-adv-x="2020" 
d="M1387 362v0v0v0v0l-38 -2q-41 -2 -83 -5q-64 -6 -128 -16q-208 -32 -407 -97q-119 -39 -233.5 -88.5t-223.5 -112.5q-84 -48 -158 -111q-44 -37 -75 -84q-41 -67 -5 -138q19 -39 51.5 -60.5t73.5 -31.5q100 -23 201 -12q205 22 401 85q359 115 681 310q188 112 350 258
q137 121 234 276q57 89 83 192q28 112 1 223q-39 155 -166 251q-125 97 -280 74q-68 -10 -133 -35q-78 -32 -150 -77q-151 -94 -281 -217q-12 -11 -23 -22l-24 -22q-9 -8 -18 -15q-2 -2 -5 -2q-1 0 -2 -1q-1 2 -2 5t-2 5.5t0 4.5q32 86 67 172q24 64 35 132q8 50 -9 96
q-23 65 -90 85q-32 10 -64 3q-71 -15 -169 -74.5t-206.5 -148t-209.5 -188.5t-179 -195.5t-116 -170.5t-20 -112q6 -10 23.5 -16.5t35.5 -6.5t24 8q26 108 105.5 229t189.5 236t229 205.5t225 138.5q48 20 100 30q12 2 24 2q8 1 16 0q41 -6 39 -42q0 -35 -8 -68.5t-19 -65.5
q-52 -149 -122 -290q-42 -87 -87.5 -172.5t-101.5 -164.5q-19 -26 -34 -55q-16 -31 6 -60q9 -11 21 -12.5t20 8.5q4 5 7 10q19 24 34 50q31 55 68.5 105t78.5 97q168 203 379 361q97 73 206 126q87 43 184 57q88 12 163 -18t125.5 -87.5t67.5 -129.5q16 -76 3 -152
q-19 -100 -69 -188q-70 -124 -168 -227q-73 -78 -156 -145t-173 -127q-163 -109 -338 -195t-361 -151q-122 -43 -247 -72.5t-255 -39.5q-73 -4 -144 6q-27 4 -52 15q-1 0 -2 1q-42 17 -25 58q15 29 34 55q37 48 87 83q59 43 121 80q308 181 654 269q132 34 269 52
q66 9 132 14.5t133 4.5q5 0 10 1q3 1 6 1q7 2 10 10t-3 15v1q-10 13 -23 20q-19 7 -40 7q-28 -1 -56 -3z" />
    <glyph glyph-name="E" unicode="E" horiz-adv-x="1846" 
d="M224 -356v0v0h-22h-51q-32 2 -62 15q-14 7 -21.5 19t-5.5 26q5 44 24 85q22 44 51 82.5t62 73.5q123 134 269 243q140 106 291 195t310 164q44 20 92 27q16 2 33 4q60 6 118 21q10 2 19 5q42 10 80 29q10 7 14 18.5t-1 24.5q-10 22 -29.5 35t-39.5 10q-48 -7 -95 -20
q-40 -12 -80 -27q-29 -10 -57 -19l-8 -2q-27 -11 -55 -13q-46 -2 -92 2.5t-91 20.5q-15 5 -29 13q-63 34 -47 100q10 40 31 75q42 65 102 113q174 145 394 194q45 10 91 16t93 4q36 -2 71 -10t66 -29q7 -5 15 -6q3 0 6.5 2t7.5 4l0.5 1.5t0 3t-0.5 2.5q-3 4 -6 9
q-6 13 -16 24q-30 30 -67 44.5t-78 17.5q-69 6 -137 -1q-245 -28 -445 -175q-59 -42 -108 -96q-38 -42 -61 -94q-31 -75 0 -149q31 -79 107 -115q13 -6 25 -12q17 -7 34 -15l2 -2l2 -2t1 -2q-1 -3 -2.5 -6.5t-3.5 -4.5q-31 -17 -62 -33q-30 -16 -59 -32
q-132 -71 -256 -153.5t-238 -179.5q-57 -49 -110 -101t-99 -111q-55 -66 -86 -145q-15 -40 -7.5 -88.5t40.5 -88.5t94 -54q84 -20 168 -10q104 14 206 38q258 66 507 159q231 87 451 196t432 235q14 8 25 19q3 2 3.5 6.5t-0.5 8.5q-6 18 -20 24.5t-30 -1.5q-17 -9 -34 -19
q-4 -2 -8 -5q-451 -254 -940 -422q-118 -41 -237.5 -77.5t-241.5 -63.5q-49 -11 -99 -18.5t-100 -6.5z" />
    <glyph glyph-name="F" unicode="F" horiz-adv-x="1572" 
d="M1326 244v0v0v0q0 1 -1 1q-9 0 -18 -1q-54 -5 -109 -9q-1 0 -3.5 1t-3.5 2q-1 2 -1 4.5t1 3.5q2 4 5 8q9 16 20 29q59 70 117 139q97 113 192 228q100 120 196 242q58 71 102 152q18 34 30 71q14 52 -3.5 98.5t-66.5 80.5q-36 24 -77 34q-53 13 -105.5 14.5t-104.5 -4.5
q-155 -14 -304 -49q-429 -104 -811 -306q-74 -38 -143 -82.5t-132 -97.5q-37 -33 -69 -70q-17 -21 -26 -47q-11 -29 2 -62q18 -45 52 -71t82 -30q43 -2 85 1l36 2q2 0 4 1q1 1 3 2q6 2 7.5 11t-3.5 16q-13 19 -34 22q-18 2 -36 2h-29q-44 3 -89 8q-16 3 -24 16.5t-2 27.5
q5 14 13 27q33 47 78 82q116 94 249 165q298 160 628 260q132 42 269 70t279 37q81 3 162 -13q9 -2 17 -6q3 -1 7 -2q40 -15 30 -51q-9 -38 -26 -72q-24 -48 -55 -92q-62 -87 -129 -169q-120 -145 -242 -288q-58 -68 -116 -137q-13 -16 -27 -32q-68 -80 -134 -161
q-27 -34 -73 -36q-48 -2 -96 -7q-127 -13 -253 -28h-6q-100 -10 -198 -31q-11 -2 -20 -9q-3 -2 -5 -5.5t-2 -7.5q1 -15 12.5 -27t24.5 -13q16 0 32 2l70 10q63 9 127 17q116 13 233 24q18 1 36 3q3 0 6.5 -2t6.5 -5v0l0.5 -1.5t0 -3t-0.5 -2.5q-8 -13 -18 -25
q-127 -158 -255 -315l-320 -394q-17 -21 -32 -43q-12 -18 9 -45q6 -8 14.5 -10t13.5 4q14 16 28 33l26 30q94 110 188 219q182 211 363 422q53 62 105 124q4 5 7 9q20 25 53 28q54 5 107 12q26 3 51 6l80 8q47 5 95 11q2 0 4 1q1 1 3 1q5 2 7 8t0 11q-21 34 -55 32
q-40 -4 -79 -8q-16 -2 -32 -3z" />
    <glyph glyph-name="G" unicode="G" horiz-adv-x="1863" 
d="M243 -726v0v0q-31 0 -60 3.5t-56 15.5q-4 1 -7 2q-7 3 -14 7q-74 39 -41 125q24 60 69 109q48 51 105 92q114 81 237 143q106 55 214 100t218 85q168 60 339 105q5 1 11 -1h3q4 -1 3 -8t-6 -14q-87 -120 -182.5 -232.5t-204.5 -215.5q-102 -96 -218 -174
q-155 -103 -329 -134q-28 -5 -56 -6q-13 -1 -25 -2zM272 -794v0v0q17 2 34 3q36 2 72 9q170 36 320 139q98 66 186 145q156 142 286 307q71 91 139 184l60 80q15 22 42 28q17 4 67 13q56 10 131.5 24t147 30t117.5 31t44 27q-5 8 -66 5.5t-153.5 -15t-194.5 -32.5
q-11 -2 -23 -3h-1h-10h-6q-6 0 -8.5 5.5t1.5 11.5l46 72l98 154q41 66 78 134q21 41 -4 75q-21 28 -55 13q-30 -17 -60 -36q-43 -28 -86 -57q-48 -32 -95 -63q-222 -148 -458 -265q-94 -45 -189 -83.5t-193 -63.5q-94 -26 -187 -26q-49 2 -90 21q-41 18 -47 64q-1 20 1 40
q5 39 18 76.5t31 73.5q24 46 54 88.5t62 83.5q124 154 275 282q140 121 291.5 223t313.5 187q118 62 243 108q100 37 202 55q67 12 125 -12q54 -22 54 -83q0 -36 -10 -72q-16 -44 -29 -88q-8 -30 7 -52q2 -3 6 -4.5t7 -1.5q4 1 7.5 3.5t5.5 5.5q13 16 19.5 34t12.5 36
q3 12 7 23q24 78 1 149q-28 88 -116 119q-36 12 -73.5 12t-77.5 -8q-148 -28 -289 -93q-425 -189 -779 -504q-165 -145 -294 -321q-52 -71 -87 -149q-18 -44 -28 -87.5t-7 -88.5q8 -88 57.5 -135t126.5 -51q88 -6 179 14q69 16 137 40q125 44 245 102t237 125
q176 103 347 217l66 42q2 1 4.5 1.5t5 0t3.5 -1.5q1 -3 1.5 -7t-1.5 -7q-91 -142 -184 -284l-6 -10q-20 -33 -46 -58q-14 -11 -30 -15.5t-33 -6.5q-12 -2 -25 -5q-372 -88 -728 -255q-137 -63 -265 -146q-74 -46 -138 -107q-56 -51 -87 -118q-34 -71 -18 -142
q22 -95 110 -134q34 -14 70.5 -19.5t75.5 -5.5z" />
    <glyph glyph-name="H" unicode="H" horiz-adv-x="2189" 
d="M1590 244v0v0v-2v-1q-27 -2 -55 -3q-77 -4 -155 -7q-16 -1 -32 1h-8q-1 0 -2.5 1.5l-2.5 2.5q0 2 -0.5 4.5t0.5 3.5l10 12q21 25 42 48q168 171 326 350q39 45 76.5 91.5t71.5 95.5q26 40 47 83q24 48 17 102q-13 86 -93 126q-43 24 -92 29q-13 1 -26 3q-56 6 -111 6
q-157 -4 -312 -30q-269 -48 -525 -142q-92 -34 -181.5 -73.5t-174.5 -89.5q-45 -26 -87.5 -55t-81.5 -63q-70 -61 -114 -143q-23 -43 -25 -92q-1 -41 14.5 -74.5t50.5 -57.5q18 -13 39 -10q3 1 7 3t6 5q1 3 0.5 7t-2.5 8q-6 12 -15.5 19t-21.5 12q-18 8 -23 22.5t-2 30.5
q5 28 16 54q35 77 96 135q52 50 113 89q168 109 355 179q287 113 593 166q79 14 159 22.5t161 8.5q52 0 105 -4q26 -3 51.5 -9.5t48.5 -20.5q15 -11 16 -27q0 -21 -6 -40q-21 -65 -63 -119q-63 -82 -130 -161q-89 -102 -181.5 -199.5t-186.5 -193.5q-49 -50 -97 -100
l-11 -11q-21 -20 -50 -21q-8 0 -15 -1q-41 -1 -82 -5q-28 -3 -57 -6q-156 -14 -309 -40q-60 -11 -118 -25t-114 -36q-46 -17 -85 -45q-15 -13 -25 -31q-3 -4 -3.5 -10.5t0.5 -11.5q6 -34 33 -55q14 -8 30 -9q2 0 4 1.5t4 3.5t2 4q1 3 0 6.5t-2 6.5q-1 1 -1 3q-7 17 -5 25
t14 14q31 18 64 33q38 16 78 27t81 20h2q66 14 132.5 24t132.5 18q19 2 37 4q59 8 119 12q8 1 17 2q2 0 5 -2.5t6 -4.5v-2t-0.5 -3l-0.5 -2q-6 -6 -11 -12q-18 -22 -37 -42q-478 -490 -974 -964l-1 -1q-23 -21 -44 -43t2 -51q5 -6 13 -7.5t14 3.5q20 18 40 37q36 33 72 65
q408 369 800 754q130 129 257 261q28 31 70 33q75 4 150 9l188 10q51 2 103 1h42q3 0 5.5 -3.5t3 -8t-1.5 -8.5q-13 -19 -28 -38q-75 -98 -134 -207q-30 -57 -45 -119q-10 -36 -5 -72q5 -34 20.5 -61.5t45.5 -47.5q54 -34 104 4q33 27 33 70q-1 22 -21 33q-2 1 -5 1.5
t-5.5 0t-3.5 -2.5q-6 -8 -12 -17q-6 -12 -15 -22q-22 -25 -58 -20q-11 1 -20 10.5t-9 22.5q0 12 2 23q7 42 22.5 81t36.5 76q44 78 97 150.5t110 141.5q13 16 34 18q12 2 24 2l124 -2h5q13 0 18 12q2 6 0 10.5t-6 8.5q-1 1 -1 2q-13 18 -34 20l-44 4q-18 1 -37 3
q-4 0 -5.5 3.5t0.5 8.5q3 8 8 14q338 398 724 750q24 21 46 44l2 4v18q-7 17 -23 24t-31 -1q-30 -20 -57 -43q-225 -203 -434 -422q-173 -182 -333 -375q-24 -30 -62 -29h-155h-62z" />
    <glyph glyph-name="I" unicode="I" horiz-adv-x="1432" 
d="M1656 1322v0v0q-12 -1 -27 -3q-36 -3 -76 -11q-102 -22 -203 -50q-186 -53 -368 -119t-360 -141q-95 -40 -188 -83.5t-182 -96.5q-51 -31 -100 -67q-21 -17 -39 -38l-1 -1q-22 -27 -13 -61q12 -47 54 -67q36 -17 76 -26q71 -14 143 -20.5t145 -9.5q84 -3 169 -2
q12 -1 24 -1q33 1 65 -1t64 -9q15 -3 31 -1q4 1 8 1q10 1 8 12q-3 17 -16 27q-24 16 -52 20q-88 17 -177 15q-84 0 -168.5 3t-169.5 13q-64 8 -126 23q-6 1 -10.5 5.5t-6.5 9.5q0 5 2.5 11t5.5 10q8 10 18 17q11 8 23 16q34 26 70 48q107 65 221 116q264 120 538 217
q121 44 244 82t249 68q47 11 94.5 18.5t96.5 5.5q18 -2 35 -7q2 0 4 -1q7 -2 11.5 -10.5t3.5 -15.5l-4 -10q-3 -15 -9 -28q-4 -5 -7 -11q-27 -51 -59 -100q-98 -143 -208 -277q-234 -293 -485 -572q-53 -58 -105 -116q-228 -253 -459 -505q-130 -139 -262 -275
q-65 -66 -128 -133q-23 -23 -43 -48q-7 -11 -6 -23t7 -23q3 -5 8.5 -7.5t11 -3t8.5 2.5q13 13 25 26l42 44l113 113q103 103 206 207q251 256 495.5 518.5t475.5 537.5q90 107 176 216t166 223q39 57 73 116q13 25 21 52q14 46 -0.5 85t-46 64t-69.5 28q-13 1 -30 2
q-11 0 -27 1z" />
    <glyph glyph-name="J" unicode="J" horiz-adv-x="2141" 
d="M153 -652v0v0q-18 -1 -36 1.5t-34 10.5q-20 11 -18 33q7 45 35 80q33 46 76 83q93 77 200 135q113 63 230.5 115.5t238.5 97.5q248 95 506 161q12 4 25 7q34 11 69 16q15 2 30 7q15 6 30.5 8t31.5 -4q-7 -16 -19 -27t-26 -20q-10 -6 -19 -13q-381 -306 -818 -526
q-85 -43 -172 -79.5t-179 -61.5q-49 -13 -83.5 -18.5t-67.5 -5.5zM1990 1397v0v0q-89 1 -172.5 -10t-163.5 -30q-415 -95 -790 -297q-103 -54 -197 -125q-31 -25 -60 -54q-14 -16 -4 -37q2 -4 4 -7q17 -28 39 -9q104 90 226 154q210 114 432 196.5t458 127.5q143 27 288 27
q69 -2 136 -19q47 -10 89 -35q68 -40 68 -120q-2 -73 -28 -141q-23 -64 -55 -121.5t-71 -112.5q-109 -156 -237 -295.5t-267 -268.5q-27 -26 -64 -31q-264 -39 -519 -116q-340 -101 -659 -258q-131 -62 -250 -147q-63 -44 -115 -101q-33 -36 -53 -80q-25 -59 1 -118
q17 -38 47.5 -59t70.5 -25q73 -10 145 5q77 16 151 42.5t146 58.5q192 86 372 192.5t351 228.5q188 132 361 284q23 29 54.5 40.5t65.5 15.5q6 1 11 2h5l62 6q69 8 215.5 32t112.5 48q-123 -7 -154 -7q-52 -2 -105 -6q-13 -1 -27 -3q-42 -6 -85 -3q-1 1 -2.5 2t-2.5 3t-1 4
t1 4q3 3 7 6q21 24 43 46q148 149 279 313q73 92 135 191q60 96 93 205q21 70 16 143q-11 115 -105 183q-59 43 -131 59q-89 21 -167 17z" />
    <glyph glyph-name="K" unicode="K" horiz-adv-x="2041" 
d="M1570 1208v0v0q-91 -3 -162 -17q-94 -21 -183.5 -53.5t-176.5 -74.5q-268 -131 -511 -304q-128 -89 -243 -195q-59 -55 -107 -119q-29 -34 -41 -78q-6 -27 9 -51l4 -4l2 -2q5 -5 12.5 -5t10.5 5q59 106 149 187q59 54 122 104q300 232 642 397q172 84 360 124
q53 10 106 12t107 -2q54 -2 100 -33q32 -20 35 -58q2 -40 -9 -79q-14 -55 -37.5 -105t-50.5 -99q-95 -171 -217 -325q-191 -242 -431 -435q-154 -122 -323 -221q-168 -101 -351 -171q-91 -37 -189 -49q-36 -5 -71 -1q-29 3 -42.5 15.5t-8.5 49.5q4 26 14 51q33 84 99 146
q104 95 242 97q124 2 222 -78q11 -9 22 -19q9 -9 18 -16q1 -1 3.5 -1t5.5 1q9 3 7 13q-10 31 -35 51q-127 116 -300 111q-86 -4 -156.5 -41t-121 -97t-73.5 -132q-22 -67 7 -130q40 -89 137 -98q53 -5 107 6q139 29 269 89q322 144 597 367q107 87 204 185q21 22 30 21.5
t21 -25.5q19 -34 46 -60t57 -49q65 -47 129 -94q66 -48 132 -95q50 -36 99 -72q33 -22 68 -39.5t71 -32.5q6 -2 11 -5q2 0 4.5 1.5t5 3.5t3.5 4q10 22 10 43t-15 41q-14 17 -34 27q-50 24 -97 52.5t-94 58.5q-38 25 -76 49q-67 41 -123 94.5t-107 113.5q-19 21 -8 49
q17 47 56 79q14 10 28 21q56 45 114 85q190 129 381 256q65 43 129 86q65 43 129 86q206 138 411 275q46 31 93.5 59.5t99.5 50.5q8 4 13 11q3 3 4.5 7.5t0.5 8.5q-3 17 -15 28t-27 11q-23 1 -43 -6q-41 -18 -79 -41q-103 -62 -204 -128q-254 -168 -509 -336
q-153 -102 -307 -204q-20 -13 -42 -24q-5 -4 -11 -7q-2 -1 -4 -0.5t-4 1.5q-10 5 -5 14q12 20 23 40q23 37 44 76q59 100 96 209q22 70 13 141q-8 59 -45 105q-64 74 -161 87q-36 4 -66 4q-10 1 -19 1z" />
    <glyph glyph-name="L" unicode="L" horiz-adv-x="1835" 
d="M438 -292v0v0q6 0 10 -1h6q-1 -2 -1 -4q-1 -3 -1.5 -5t-1.5 -3q-134 -110 -285 -198q-7 -4 -15 -5q-1 0 -3 1t-3 3q-1 1 -1 2.5t1 2.5l6 8q9 12 20 22q125 104 268 177zM1038 -25v0v0q-8 -1 -17 -2q-34 -5 -79 -10q-5 0 -10 2q-2 1 -5 2q2 3 3 7q1 8 6 13q17 18 36 35
q5 5 11 10q324 298 594 646q112 143 205 300q34 59 57 124q11 35 10 72q-1 68 -53 113q-60 49 -136 36q-72 -11 -140 -38q-181 -72 -328 -201q-28 -24 -51 -51q-23 -28 -41 -60q-20 -38 -8 -79q18 -67 82 -94q41 -18 86 -19q15 0 31 1q69 0 138 1l10 2l6 2q7 2 10.5 10
t0.5 15q-14 29 -44 31q-33 1 -66 1h-31h-24q-32 0 -64 1q-42 1 -77 22q-4 3 -7 9t-2 11q3 20 13 38q14 27 34.5 49.5t43.5 42.5q130 117 291 185q53 21 106 38q63 18 128 9q39 -5 33 -45q-6 -32 -17 -62q-18 -45 -42 -87q-66 -116 -146 -222q-148 -202 -317 -387
q-241 -261 -508 -496q-39 -34 -90 -50q-239 -76 -447 -219q-42 -28 -81.5 -59.5t-73.5 -68.5q-30 -33 -53 -71q-15 -29 -3 -61.5t43 -46.5q7 -4 15 -5.5t16 0.5q35 8 68 23q51 24 99 54q168 105 321 230q85 68 168 139q34 31 77 41q153 38 310 49q218 13 434 -27
q409 -74 730 -339l4 -2q1 -1 3 -2q9 -6 13 3q1 4 1.5 8t-1.5 7q-11 27 -35 43q-13 9 -25 19q-59 44 -119 85q-214 143 -450 213t-493 71q-44 -1 -95 -5q-27 -2 -58 -4z" />
    <glyph glyph-name="M" unicode="M" horiz-adv-x="2276" 
d="M1194 1345v0v0l-28 -4q-30 -3 -60 -9q-111 -23 -216 -69q-285 -121 -537 -302q-113 -80 -212 -178q-56 -54 -98 -120q-20 -35 -37 -72q-20 -46 -11 -95q8 -45 33.5 -75.5t71.5 -41.5q8 -2 16 -1q4 1 8 2.5t6 4.5t2 7.5t-1 7.5q-7 20 -27 28q-9 4 -19 7q-10 2 -19 5
q-24 11 -25 38q-2 29 10 55q1 3 3 6q14 30 30 59q31 51 70.5 94.5t84.5 82.5q159 137 336 243t369 187q109 46 225 66q48 10 96 1q7 -2 12 -10.5t3 -15.5q-14 -51 -44 -95q-11 -17 -23 -34q-44 -68 -93 -133q-268 -349 -568 -671q-169 -182 -340 -361q-79 -83 -157 -166
q-34 -35 -67 -72q-19 -22 -2 -52q22 -35 52 -11q7 6 14 13q5 4 10 9q326 301 681 569q237 179 485 342q140 92 287 170q58 31 120 50q8 3 15 2q4 -1 7.5 -3.5t3.5 -5.5q1 -12 -3 -24q-30 -66 -71 -128q-105 -159 -220 -312q-85 -115 -169 -232l-8 -12q-22 -30 -40 -61
q-10 -20 -6 -42t22 -39q7 -7 18 -8.5t19 3.5q2 1 5 3q22 13 43 28q54 42 107 87q260 217 533 416q70 51 142.5 100.5t148.5 93.5q41 22 83 42l4 2q2 0 5 -1.5l7 -3.5h1v-2t-0.5 -3t-0.5 -3q-19 -30 -39 -61q-19 -31 -39 -63t-41 -65q-49 -77 -135.5 -222.5t-125 -269
t-33.5 -161t26.5 -51t22.5 1.5q72 226 156 389q62 119 135 232q16 26 33 52q30 45 59 92q31 52 59 106q15 29 10.5 55t-25.5 49q-26 31 -65 20q-46 -16 -89 -38q-104 -55 -201 -123q-284 -197 -553 -415q-24 -19 -47 -36q-6 -5 -11 -9q-9 -5 -14 4q0 2 0.5 4t1.5 3l16 24
q29 42 59 82q109 143 206 294q39 61 68 129q16 38 12 79q-3 21 -17 41t-36 30.5t-50 4.5q-48 -10 -93 -30q-65 -32 -129 -67q-112 -63 -219.5 -133t-211.5 -145q-98 -69 -194 -141q-58 -42 -115 -84q-11 -7 -23 -11q-3 -1 -5 -2q-13 -5 -6 5l6 8l24 30q183 202 357 413
q128 152 241 317q23 35 43 73l18 32q16 29 18 62q6 65 -44 106q-21 18 -45.5 25t-51.5 8z" />
    <glyph glyph-name="N" unicode="N" horiz-adv-x="2101" 
d="M1489 1288v0v0q-3 -1 -8 -1q-16 -2 -37 -6q-116 -20 -224 -65q-128 -51 -253 -107q-276 -124 -530 -291q-125 -81 -237 -180q-76 -67 -138 -147q-18 -22 -33 -45.5t-23 -51.5l-2 -6q-4 -13 -4 -25q4 -32 17.5 -58t42.5 -42q11 -5 23 -4q6 1 10.5 4t8.5 7q2 3 1 7.5
t-2 8.5q-3 9 -9.5 14.5t-14.5 9.5q-6 4 -11 8q-6 5 -8 13t0 16q16 42 44 76q69 90 155 164q111 94 233 174q203 132 421 237q177 88 362 158q117 45 242 62q2 0 5 1q9 1 19 1q11 -1 21 -4q1 -1 2 -1q8 -2 12.5 -9.5t3.5 -15.5q-4 -24 -15 -45.5t-24 -41.5q-62 -90 -128 -177
q-126 -157 -265 -304q-141 -153 -287 -300.5t-294 -293.5q-147 -146 -292 -294q-27 -28 -55 -56q-32 -34 -62 -70l-2 -2q-11 -14 -3 -30q0 -1 1 -2q6 -14 14 -26q7 -9 17.5 -11t18.5 4q1 2 3 3q8 6 15 13q163 151 340 284q435 336 898 630q132 84 265.5 163t270.5 151
q68 36 137.5 68t142.5 57q29 9 58 15q10 2 20 5q1 0 3 -1.5t3 -3.5q1 -1 1.5 -3t-0.5 -4q-8 -24 -23 -44t-32 -38l-8 -10q-80 -90 -161 -178q-9 -10 -18 -19q-41 -45 -83 -89q-71 -77 -141 -155q-97 -109 -179 -228.5t-152 -247.5q-8 -14 -14 -29q-5 -12 1 -26t19 -22
q2 -1 5 -1t5.5 0.5t4.5 2.5q30 43 59 86q108 166 236 317q95 110 194 216q40 44 81 87q96 100 186 205q29 34 55 69q19 27 32 56q13 26 9 55q-5 33 -30 56.5t-66 22.5q-61 -4 -117 -27q-147 -56 -286 -132q-338 -181 -657 -394q-138 -92 -275 -188q-72 -50 -144 -99
q-12 -8 -25 -14l-10 -4q-8 -4 -6 5q1 8 5 14t9 11q1 0 1 1q43 45 87 90q86 88 171 177q165 172 318 354q83 99 157 205q39 57 65 121q16 47 -5 91t-64 62q-28 12 -74 11z" />
    <glyph glyph-name="O" unicode="O" horiz-adv-x="1904" 
d="M1428 1357v0v0h3q58 -1 115.5 -5.5t113.5 -17.5q46 -11 89 -28t82 -42q38 -24 68 -57q51 -60 61 -138q16 -143 -31 -278q-35 -102 -89 -193.5t-123 -174.5q-102 -120 -223 -221q-247 -211 -536 -356q-170 -87 -354 -135q-149 -39 -303 -26q-61 5 -116 32
q-129 61 -134 203q-2 82 25 158q49 139 139 254q18 25 38 -2q59 -76 138 -116.5t171 -58.5q126 -26 245 -0.5t218.5 93t167.5 169.5q23 34 43 70q2 3 3 5q11 21 -13 42q-5 4 -12 4.5t-10 -3.5q-21 -29 -41 -59q-85 -127 -219 -199q-124 -66 -262 -70q-169 -5 -318 77
q-32 18 -58 43q-27 26 -36 40t-2 27t28 35q4 4 7 8q214 235 493 386q99 54 206 93q16 6 33 13q6 2 11 5q3 1 4.5 5t2 8.5t-1.5 7.5q-12 25 -38 25q-28 -2 -55 -11q-115 -38 -221 -97q-242 -133 -435 -330l-11 -11q-14 -15 -29 -29q-4 -4 -10 -7t-11 -3q-6 0 -7.5 5.5
t-1.5 10.5v2q0 49 11.5 95.5t31.5 91.5q50 116 135 209q210 230 500 346q173 69 357 94q55 7 111 8q25 1 50 3zM407 -383v0v0q131 2 237 29q192 50 368 142q205 105 389 243q169 125 314 278q105 112 181 246q88 151 117 324q17 113 -18 222q-31 94 -101 163
q-82 80 -191 117q-131 43 -269 46q-228 4 -445 -64q-179 -54 -334 -148.5t-283 -232.5q-92 -98 -147 -220q-54 -116 -43 -243q3 -27 9 -54q2 -9 4 -17q4 -17 -6 -31l-18 -24q-8 -10 -16 -21q-79 -107 -125 -233q-30 -80 -29 -166q4 -123 73 -213t187 -126q35 -10 68.5 -13
t61.5 -4h16z" />
    <glyph glyph-name="P" unicode="P" horiz-adv-x="1801" 
d="M339 -215v0v0q-12 -18 -23 -37q-40 -63 -81 -125q-12 -19 -16 -10q-1 4 -1.5 8t1.5 7q51 91 112 176q4 5 7 6t4 -3q2 -7 0 -15q-1 -2 -3 -4q0 -1 -1 -3v0h1zM892 229v0v0q-18 1 -35 2q-63 3 -125 7q-9 1 -17 3l-6 2q-8 2 -11.5 9.5t-0.5 14.5q29 65 77 120
q241 276 524 508q119 97 249 177q67 41 137 73t145 50q61 16 121 18q87 3 156 -44q75 -52 67 -148q-9 -86 -52 -164q-32 -58 -73 -108.5t-89 -96.5q-126 -122 -279 -207q-233 -132 -489 -186q-131 -29 -299 -30zM920 170v0v0q132 2 222 13q313 40 596 201q174 99 311 247
q53 56 94 120q51 78 72 168q38 174 -84 286q-52 48 -117 65.5t-139 7.5q-77 -9 -152 -37q-126 -47 -240 -121q-201 -129 -376 -291q-57 -53 -113 -108q-33 -31 -65 -62q-11 -10 -23 -18q-2 -1 -4 -3q-9 -5 -5 5q1 3 2 5q8 20 18 40q29 62 56.5 125.5t49.5 127.5
q30 88 29 177q0 72 -54 116q-43 35 -103 26q-74 -14 -142 -49q-165 -85 -314 -198q-68 -51 -128 -113q-26 -27 -49 -58q-16 -22 -6 -46q16 -35 41 -8q58 69 127 126q168 138 361 235q15 8 31 15q4 1 7 3q47 20 95 28q21 4 40 1q52 -7 49 -58q-2 -53 -18 -105
q-24 -75 -55 -148q-49 -115 -106 -227t-118 -223q-11 -22 -27 -43q-34 -43 -70 -85l-22 -26q-15 -17 -37 -12q-15 1 -31 2q-3 0 -6 -3.5t-5 -8t-1 -7.5t2 -5q3 -9 8 -16q19 -19 -1 -42q-14 -16 -26 -34q-5 -7 -10 -13q-148 -197 -278 -404q-106 -169 -182 -350
q-14 -35 -22 -71q-5 -28 11 -52q10 -15 25.5 -16t29.5 12q50 52 89 113q218 327 412 667q13 24 27 48l48 84q7 13 16 17t25 2q6 -1 11 -2q6 -1 13 -1q38 -4 74 -9q80 -12 137 -10z" />
    <glyph glyph-name="Q" unicode="Q" horiz-adv-x="1821" 
d="M525 -212v0v0q69 2 144 -21q12 -4 23 -11q3 -2 6 -3q1 -1 2.5 -3t1.5 -4q0 -1 -1 -2.5t-3 -2.5q-87 -29 -176 -35.5t-179 17.5q-13 4 -25 13q-4 3 -9 6q-1 0 -1 1v2.5v2.5q2 3 6 5q98 37 211 35zM1642 -686v0v0q107 -3 214 21q36 9 71 16l16 4q5 1 7.5 7t0.5 12
q-7 15 -18.5 24t-23.5 7q-40 -6 -80 -14q-172 -34 -344 -1q-140 27 -263 99q-79 46 -154.5 98.5t-150.5 107.5q-7 6 -15 11q-6 5 -4 13t10 13q21 11 43 22q43 21 86 44q100 55 191 121t177 140q180 152 315 345q56 80 100.5 165t75.5 178q49 147 46 301q-1 70 -22 135
q-26 79 -76.5 136t-129.5 87q-61 23 -127 24q-93 2 -183 -22q-160 -43 -291 -133.5t-224.5 -208.5t-143.5 -242q-21 -53 -33.5 -108t-12.5 -112q1 -104 31.5 -198.5t87.5 -180.5q29 -42 63.5 -78.5t71.5 -70.5q1 -2 3.5 -2.5t5 0t3.5 1.5q2 3 3.5 7t0.5 8q-6 15 -16 27
q-13 15 -28 29q-14 14 -28 29q-81 90 -117 195.5t-23 227.5q7 57 24 110.5t42 104.5q45 94 108 174.5t142 148.5q132 115 296 176q138 52 285 43q45 -3 87 -19q110 -42 136 -157q18 -76 11 -153q-15 -161 -78 -311q-56 -127 -133.5 -239.5t-173.5 -212.5
q-155 -160 -337 -288q-158 -113 -337 -189q-15 -7 -30 -8t-31 8q-46 24 -96 42q-96 35 -198 31q-93 -2 -182 -32q-1 -1 -2 -1q-29 -10 -58 -21q-14 -3 -22 7q-12 11 -19 25q-51 97 -38 204q9 88 40 172q87 230 264 401q47 45 98.5 83t112.5 62q2 1 4 2.5t2 3.5q1 0 1 1
q1 4 2 7.5t1 6.5q-6 18 -22 27t-35 4q-33 -10 -63 -26.5t-57 -38.5q-243 -185 -354 -470q-28 -72 -40 -148q-23 -139 32 -268q6 -13 14 -26q14 -21 19 -47q-7 -12 -18 -19.5t-23 -13.5q-16 -7 -29 -17q-6 -5 -13 -9q-7 -5 -13 -10q-2 -2 -5 -4q-31 -27 -60 -56
q-11 -12 -8 -28t17 -29q3 -2 7 -3.5t7 0.5q15 6 27 17q61 53 134 89q5 2 10 5q6 2 12 5q20 10 37 -3q78 -54 171 -68q113 -16 225 6q72 12 140 37q37 14 69 -10q35 -25 72 -50q27 -18 54 -37q26 -19 53 -38q49 -34 99 -68q93 -65 196 -111q147 -61 309 -58z" />
    <glyph glyph-name="R" unicode="R" horiz-adv-x="1839" 
d="M1846 1070v0v0l20 -4q22 -3 43 -8q57 -13 96 -57q23 -24 22 -58v-9q-1 -8 -1 -15q-5 -40 -21 -74t-41 -64q-59 -73 -136 -125q-114 -77 -242 -130q-82 -34 -165 -63q-80 -29 -162 -51t-164 -42l-148 -38q-28 -7 -58 -10l-30 -4q-18 -3 -24 -17t3 -32q10 -18 29 -27
l38 -18q42 -22 86 -40q94 -36 182 -84q56 -30 113 -59q19 -9 38 -19q79 -40 157 -82.5t151 -92.5h1q9 -7 20 -12q46 -17 86.5 -43t77.5 -57q1 -1 3 -2t4 -1q1 1 3 2.5t3 2.5q6 16 -3 31q-10 16 -24 27.5t-29 21.5q-29 18 -58 37q-83 55 -167 106q-241 146 -493 274
q-14 7 -26 18q-1 1 -1 4t0.5 6t2.5 4q1 0 3 1q24 10 50 16q138 30 273 71q106 31 209 72t202 93q96 51 178 124q58 51 97 118q34 61 35 119.5t-22 107.5t-60 82q-94 80 -216 76q-93 -2 -182 -30q-155 -48 -292 -135q-130 -81 -249 -179q-18 -14 -37 -28q-4 -2 -8 -5
q-1 -1 -2.5 -1.5t-3 -0.5t-2.5 1v1l-4 6t-1 6q6 19 15 37q26 52 48.5 106t38.5 110q22 75 6 152q-19 72 -72 111t-123 37q-102 -5 -196 -44q-212 -86 -373 -249q-69 -68 -120 -151q-26 -41 -38 -88q-19 -71 22 -131q11 -17 32 -23q5 -1 8.5 0t5.5 5q4 7 3 14q0 4 -1.5 8
t-4.5 7q-20 17 -21 38t6 43q9 27 24 51q3 5 6 9q31 50 68 96q168 197 407 297q67 29 139 41q69 13 136 -7q42 -13 49 -58q3 -32 -4 -64q-12 -60 -34 -116.5t-49 -110.5q-79 -154 -168 -303q-33 -56 -76 -104q-135 -145 -255 -302q-97 -126 -187 -257.5t-168 -271.5
q-42 -77 -80 -156q-8 -15 -15 -30q-13 -25 -20 -53q-9 -38 19 -67q6 -5 15 -6t15 4q2 3 5 5q9 8 17 18q6 8 13 17q46 58 89 117q329 446 614 919q29 49 69 89q123 123 258 232q116 94 244 172q73 44 150.5 77.5t160.5 53.5q82 22 168 15z" />
    <glyph glyph-name="S" unicode="S" horiz-adv-x="1261" 
d="M1339 1368v0v0l40 -2q45 -1 89 -5q81 -8 154 -46q55 -29 82.5 -73.5t22.5 -109.5q-6 -81 -38 -156q-25 -57 -59 -109.5t-74 -100.5q-118 -144 -257 -267q-10 -9 -19 -17l-24 -20q-4 -4 -7 -9q-1 -2 -3 -4q-4 -6 -1.5 -16t10.5 -20q6 -8 14 -10.5t14 0.5q43 23 79 56
q121 107 226 230q71 83 125 178q26 48 44 99t22 107q13 155 -104 259q-58 51 -132 75q-89 28 -182 32q-90 4 -177.5 -7t-174.5 -32q-221 -53 -421 -158q-177 -92 -329 -219q-94 -78 -161 -179q-98 -154 -30 -324q38 -95 109 -168q47 -50 100 -94q82 -65 167 -127l98 -70
q73 -52 144 -104q48 -38 92 -81q8 -7 17 -15q29 -28 47 -65q18 -36 10.5 -74t-37.5 -66q-31 -25 -69 -40q-50 -18 -102 -24q-64 -9 -128 -8t-128 16q-36 8 -67 27q-23 15 -20 41q2 20 10 38q31 59 87 94q74 47 154.5 44t147.5 -54q6 -5 13 -11q8 -8 17 -15q2 -1 5.5 0.5
t6.5 2.5q1 1 2 1q1 1 1.5 2t0.5 2.5v2.5q-2 3 -3 8q-4 11 -12 20q-67 67 -146 89t-171 -5q-87 -28 -141 -102q-15 -21 -22.5 -43.5t-4.5 -47.5q15 -90 95 -133q33 -16 68 -26q44 -13 89.5 -16t90.5 -2h12q85 -2 167 21q43 12 81 36q84 61 59 163q-18 62 -56 115
q-44 58 -99 106q-52 44 -107 84.5t-111 80.5q-24 16 -47 33q-9 6 -19 13q-80 56 -157 115q-57 47 -110 99l-4 4q-38 36 -63 83q-28 49 -36 101.5t8 107.5q25 82 79 148q60 77 136 138q285 232 637 338q93 29 187.5 46.5t192.5 18.5z" />
    <glyph glyph-name="T" unicode="T" horiz-adv-x="1085" 
d="M2468 1475v0v0q45 -2 88 2q53 5 102 -1q3 0 6 4t5.5 8.5t2.5 7.5q-6 30 -35 34q-39 5 -80 3q-143 -5 -286 -11q-40 -1 -80 -3q-22 0 -44 -1q-51 -1 -102 -5q-86 -8 -171 -14q-140 -11 -280 -25q-221 -24 -444 -58q-222 -35 -445 -79q-165 -32 -330 -77h-2
q-51 -14 -102 -29t-100 -36q-53 -22 -103 -49q-27 -16 -49 -40q-19 -20 -17 -45q5 -62 57 -89q66 -34 144 -46q3 0 7.5 2t7.5 4q3 3 4 7.5t0 7.5q-2 21 -21 28q-24 9 -48 17l-30 10q-4 1 -7 2q-30 9 -53 27q-3 4 -3 10.5t5 10.5q6 4 12 9q15 12 32 21q58 33 120 51
q19 6 37 12q88 27 177 50q183 46 366.5 81t367.5 63q255 41 510 71q190 23 378 39l24 2q134 12 266 18q57 3 113 6zM67 -460v0v0h3q2 0 3 0.5t2 1.5q3 3 5 7q15 17 28 34l80 112q67 96 136 191q176 241 359.5 476t369.5 468q79 100 157 200q20 26 41 53q17 21 30 43
q15 28 5 55q-6 13 -19.5 14.5t-25.5 -12.5q-18 -20 -34 -41l-56 -68q-68 -83 -135 -168q-20 -26 -41 -52q-143 -180 -282 -362q-163 -216 -319 -437t-308 -444q0 -1 -1 -2q-7 -10 -13 -20q-8 -12 -5.5 -26t13.5 -23h2h3h2z" />
    <glyph glyph-name="U" unicode="U" horiz-adv-x="1925" 
d="M245 -123v0v0q-17 -72 9 -147q39 -99 143 -96q70 3 134 28q79 30 155 68q125 65 243.5 142t232.5 161q292 217 555 467q27 25 54 48q9 7 12 -2l1 -1q0 -2 0.5 -3.5t0.5 -2.5q-1 -2 -2 -3q-8 -17 -18 -32q-222 -346 -419 -707l-6 -10q-9 -16 -17 -33q-6 -15 -7 -31
q-2 -12 3 -23q6 -10 17 -15q1 -1 3.5 0t5 3t3.5 4q15 25 29 50q20 34 41 68q177 289 365 570q76 114 153 228q52 77 104 153q24 37 46 76q6 11 6 23q-1 38 -31 62q-12 8 -23 1q-17 -10 -32 -24q-28 -28 -56 -57q-9 -9 -18 -17q-186 -191 -384 -369t-412 -337
q-208 -154 -433 -281q-94 -54 -196 -93q-53 -20 -109 -29q-41 -6 -80 6q-12 3 -19.5 13t-8.5 22v6q-1 13 0 26q9 73 37 140q63 149 154 283q126 187 273 359q48 57 96 113q73 85 144 170q49 60 94 122q7 10 14 19q29 39 41 87q13 50 -10.5 93t-77.5 54q-56 10 -113 4
q-112 -14 -218 -54q-119 -43 -226.5 -105.5t-206.5 -140.5q-86 -67 -159 -149q-64 -68 -104 -152q-24 -53 -26 -110q-2 -45 20 -85q4 -8 10 -12q3 -2 7 -3.5t7 0.5q3 1 5 5.5t1 7.5q-12 41 -4.5 79.5t27.5 74.5q43 79 105 143q67 71 143 131t158 112q167 108 358 161
q75 20 151 27q45 4 88 -8q11 -3 14.5 -11.5t-1.5 -19.5q-1 -3 -2 -5l-4 -10q-33 -60 -76 -114q-9 -10 -18 -21q-82 -97 -165 -194q-91 -105 -179 -212.5t-169 -221.5q-52 -74 -99 -151.5t-84 -160.5q-17 -37 -30.5 -75.5t-19.5 -81.5z" />
    <glyph glyph-name="V" unicode="V" horiz-adv-x="1588" 
d="M1215 925v0v0q6 88 -30 171q-56 125 -191 143q-36 4 -72 -1q-56 -9 -110 -24q-47 -13 -91.5 -31.5t-87.5 -40.5q-280 -144 -483 -385q-42 -51 -81 -107q-3 -4 -6 -9q-35 -50 -51 -109q-12 -38 -8.5 -75t27.5 -71q42 -57 113 -39q11 3 15 13t-1 19q-6 8 -13 14.5t-18 8.5
q-11 0 -22 1q-17 1 -34 3q-7 1 -13 9t-5 15q0 4 1 9q1 15 5 31q28 85 83 155q192 255 468 414q128 77 274 116q83 21 168 9q86 -15 100 -101q6 -52 5 -104q-4 -101 -30 -199q-38 -149 -92 -292q-115 -310 -260 -608q-49 -103 -102.5 -204.5t-116.5 -198.5q-7 -10 -13 -21
q-11 -22 -4 -44.5t30 -38.5q5 -3 12 -1.5t10 5.5q14 19 28 39l26 40q26 41 55 81q137 184 285 360q201 237 410 466q276 306 572 592q24 22 47 45q147 144 302 279q13 11 1 28q-5 7 -11 13q-6 5 -15 6t-14 -3q-15 -12 -29 -24q-51 -42 -101 -85q-580 -509 -1084 -1093
q-6 -7 -12 -13q-57 -67 -115 -133q-6 -7 -14 -11q-3 -2 -5 -3q-1 0 -1.5 0.5t-1.5 2t-2 2.5q-3 7 -1.5 13.5t4.5 13.5q1 1 2 3q104 231 190 470q51 140 84 286q11 47 18 95t6 98z" />
    <glyph glyph-name="W" unicode="W" horiz-adv-x="1932" 
d="M1104 1181v0v0q-12 -1 -25 -3q-27 -3 -54 -8q-54 -11 -105.5 -28.5t-101.5 -38.5q-139 -58 -267.5 -132t-245.5 -169q-129 -105 -228 -239q-39 -52 -62 -113q-15 -42 -11.5 -82.5t29.5 -78.5q5 -7 11 -11.5t15 -5.5q3 0 6 3t4 6q1 4 0 8t-3 8q-16 24 -15 49t11 51
q13 36 33.5 68.5t44.5 62.5q82 105 184 192q93 77 196 142q113 71 232.5 128.5t248.5 95.5q54 16 110 25q40 8 79 -9q24 -12 22 -38q-7 -65 -32 -125q-29 -71 -66 -138q-62 -113 -130 -223q-285 -455 -595 -893q-25 -34 -52 -68l-22 -28q-37 -49 -75 -98l-140 -184
q-20 -26 -38 -53q-23 -35 6 -74q8 -12 19.5 -13.5t20.5 7.5q4 5 8 9q32 35 60 71l22 30q75 97 146 197q98 139 213 264q215 236 448 453q112 105 239 192q53 38 115 58q11 3 23 2q4 -1 7.5 -3.5t4.5 -5.5q4 -16 3 -32q-2 -40 -13.5 -79t-26.5 -76q-42 -106 -86 -212
q-17 -39 -33 -79l-4 -10q-18 -43 -36 -87q-10 -23 -4.5 -43t20.5 -38q7 -8 18.5 -10t18.5 4q3 2 6 5q27 24 52 50q46 49 91 99q66 73 133 145q347 367 727 699q19 16 34 34q3 4 3 10.5t-2 12.5q-6 15 -19 19t-26 -5l-26 -22q-3 -2 -5 -4q-256 -216 -500 -446
q-171 -159 -330 -332q-12 -13 -24 -25q-2 -2 -4 -3q-2 -2 -5 -3q-1 0 -2 -1q-1 2 -3 4q-1 3 -2.5 5t-0.5 4q18 49 37 98q38 93 63 191q10 40 9 80q-1 41 -24 76q-38 63 -110 48q-24 -4 -45 -15q-50 -27 -97 -57q-64 -44 -122.5 -93t-115.5 -101l-84 -80q-25 -24 -51 -48
q-4 -4 -10 -7q-2 -1 -3 -1q-10 -6 -5 4q2 4 5 9q20 34 41 67q40 64 81 127q85 134 169 268q48 80 92 163q3 7 7 13q39 75 66 156q18 59 13 119q-4 50 -37 88q-49 54 -123 51z" />
    <glyph glyph-name="X" unicode="X" horiz-adv-x="2106" 
d="M1393 855v0v0q15 55 21 108.5t9 107.5q1 18 2 37q5 81 -16 151q-17 64 -68 103q-59 43 -149 17q-90 -27 -176 -80q-150 -94 -283 -213q-220 -194 -387 -428q-85 -118 -137 -246q-24 -61 -31 -121q-8 -62 22 -105v0q4 -6 9.5 -10.5t16.5 -2.5q6 2 8.5 11t-2.5 19
q-16 36 -4 80q7 31 18 61q42 110 113 214q153 223 356 412q144 138 309 246q64 41 130 71q59 26 116 32q46 4 70 -26q16 -20 22 -47q6 -42 6 -88q1 -75 -11 -152t-30 -156q-10 -47 -21 -95q-25 -121 -57 -243q-18 -67 -35 -133q-6 -25 -13 -50q-6 -23 -26 -41q-8 -7 -15 -14
q-15 -13 -30 -27q-79 -68 -158 -137q-216 -189 -434 -378q-153 -132 -309 -261l-10 -8q-86 -72 -181 -129q-13 -7 -24 -17q-3 -4 -5.5 -8t-4.5 -8q-4 -19 7 -30.5t29 -6.5q17 5 35 14q84 44 159 105q80 62 159 127q351 294 693 599q5 4 9 8q7 7 14 13q3 3 7 6q8 8 16.5 13.5
t16.5 2.5q6 -4 5.5 -12.5t-3.5 -18.5l-2 -8q-6 -28 -13 -56q-1 -7 -3 -13q-13 -53 -26 -105q-29 -118 -56 -235q-26 -113 -45 -225q-8 -53 -11 -106q-1 -10 -2 -21q-1 -24 5 -44t15 -38q17 -29 48.5 -32.5t69.5 20.5q29 19 56 43q78 67 138 148q121 170 120 342q0 13 -4 23
q-4 9 -11 15l-2 2q-2 1 -4 0.5t-5 -1.5q-2 0 -4 -1.5t-3 -2.5q-4 -17 -7 -34q-20 -140 -102 -254t-213 -207q-2 -2 -5 -3l-4 -2q-9 -4 -17.5 -2t-8.5 9q-1 5 -1 9q-1 24 2 49q8 67 26 135q8 37 16 73q34 164 76 329q28 114 54 227q7 28 16 57q5 15 9 30q7 23 26 41
q8 8 17 16l12 12q281 259 555 526q64 63 128 125q42 41 84 81q31 31 5 51q-15 11 -31 -2q-5 -5 -10 -9q-29 -26 -57 -53q-309 -296 -628 -582q-19 -17 -39 -32q-5 -3 -9 -2t-4 6q1 3 1 6q1 22 6 44q11 47 22 95q15 61 29 123q12 56 23 113z" />
    <glyph glyph-name="Y" unicode="Y" horiz-adv-x="2061" 
d="M251 -640v0v0q-23 2 -38.5 5.5t-26.5 11.5q-15 9 -17 26q-2 40 17 77t45 67t57 56q68 58 146 101q151 84 314 143q181 67 366 120q20 6 39 9q3 0 6 -1.5t6 -3.5q1 0 2 -1v-1.5t-0.5 -3t-0.5 -2.5q-1 -2 -2 -3q-5 -9 -12 -17q-91 -99 -189 -191t-207 -173
q-132 -100 -283 -167q-82 -37 -170 -49q-25 -2 -43 -3h-9zM10 506v0v0q-10 -71 19 -140q16 -43 54 -68q7 -4 13 -3.5t9 4.5q5 12 -2 23q-6 10 -15 18q-23 19 -31 43t-5 51q2 36 11 71q18 67 51 127q38 72 87 136q110 140 246 255q54 46 111 87.5t120 74.5q60 32 124 58
q13 5 29 5q5 1 10 1q6 0 10.5 -5t2.5 -11q-5 -11 -10 -23q-14 -33 -31 -64q-29 -53 -62 -104q-2 -4 -4 -7q-39 -62 -78 -125l-110 -176q-68 -110 -121 -227q-32 -75 -48 -154q-14 -74 18 -142q34 -76 118 -86q52 -6 104 5q87 20 168 57q95 44 187 94q184 99 356.5 213.5
t337.5 241.5q53 41 105 82q30 24 60 47q2 1 4 1.5t3 -0.5q1 0 1.5 -1.5t0.5 -3v-1.5q-8 -14 -17 -27q-25 -42 -52 -82q-217 -326 -469 -626q-36 -42 -88 -51l-8 -2q-8 -1 -15 -2q-148 -35 -292.5 -78.5t-284.5 -100.5q-143 -57 -274 -137q-80 -49 -145 -115
q-29 -29 -51 -62.5t-34 -72.5q-14 -47 -3.5 -88t41.5 -78q29 -34 75 -43q64 -13 128 -2q68 13 132 38q81 33 155.5 76.5t144.5 94.5q82 60 157.5 126.5t146.5 138.5q109 108 208 225q26 32 68 40l106 20q73 15 147 28q67 11 135 19l64 8q6 1 8.5 7t1.5 12q-5 13 -13 21.5
t-21 9.5q-28 3 -56 0l-212 -28q-38 -5 -75 -10q-2 0 -4 -1q-7 -1 -12 0q-7 2 -13 7q-1 1 -0.5 2t1 3t0.5 3q2 3 5 6q8 14 18 27q190 235 358 487q114 166 216 340q2 3 3 6q13 21 23 44q5 15 1 31t-14 29q-20 31 -47 9l-44 -38l-28 -26l-48 -42q-58 -51 -116 -101
q-219 -180 -455 -335q-235 -158 -489 -282q-79 -39 -164 -67q-54 -18 -110 -25q-36 -5 -71 9q-33 15 -34 50q0 61 21 118q42 118 106 226q61 104 126 206q22 36 45 72q63 96 119 197l36 70l4 8q16 33 18 70q4 57 -42 91q-20 15 -45 12q-53 -7 -100 -30q-10 -6 -20 -11
q-59 -28 -115 -62q-222 -142 -392 -345q-46 -54 -84 -113t-66 -125q-13 -31 -24 -64t-14 -69z" />
    <glyph glyph-name="Z" unicode="Z" horiz-adv-x="1487" 
d="M1531 1326v0v0q-22 0 -43 -1q-48 0 -95 -4q-237 -17 -472 -79q-130 -33 -256 -85q-75 -30 -144 -75q-24 -16 -46 -33.5t-40 -39.5q-34 -42 -39 -76.5t21 -79.5q16 -27 42 -41.5t59 -19.5q7 0 14 2q1 1 2 1q10 3 10 12q-1 22 -18 31q-18 9 -37 16q-17 7 -33 15
q-8 4 -11 14t0 20q8 24 24 45q28 33 64 58q64 45 135 75q90 39 183 67q193 57 390 85q142 18 284 24q47 2 93 -1t92 -8q19 -3 38 -4q52 -6 97 -27q14 -7 26 -15q13 -10 11 -28q-3 -28 -19 -54q-39 -62 -91 -115q-50 -52 -104 -99.5t-109 -92.5q-330 -270 -676 -516
q-153 -110 -309 -214.5t-313 -208.5q-47 -31 -95 -62q-9 -7 -19 -13q-44 -29 -89 -59q-17 -12 -33 -27q-14 -13 -11 -30q5 -19 14 -35q6 -10 17.5 -14.5t23.5 -0.5q32 11 63 23q97 38 195 72t197 59q130 33 260 52.5t260 18.5q196 -2 365 -77q1 0 1 -1q2 0 3.5 -1t2.5 0
q8 2 14 6q1 1 1 3.5v4.5q-3 19 -15 30t-28 19q-178 83 -384 92q-69 2 -138 -4.5t-139 -17.5q-155 -23 -308 -68q-10 -3 -21 -4h-3q-2 0 -3.5 0.5t-2.5 1t-1 1.5v7t2 5q5 4 11 8q61 43 124 85q376 248 735 522q222 167 433 348q93 79 172 172q33 40 56 86q24 47 13 94
q-12 59 -60 93q-26 19 -57 29.5t-64 16.5q-54 11 -110 14t-112 3z" />
    <glyph glyph-name="bracketleft" unicode="[" horiz-adv-x="937" 
d="M124 -520v0v0v0v0q7 0 14 -1q17 -2 33 -3q3 0 6.5 3.5t5 8t0.5 7.5q-6 13 -16 24q-8 7 -20 9q-64 15 -128 29q-20 4 -39 9q-7 2 -10.5 9.5t1.5 14.5q6 9 11 17q24 35 50 68q70 92 141 183q98 127 195 253q132 171 244 350.5t197 371.5q27 61 59 120l14 26q19 38 50 71
q33 35 76 28q13 -2 26 -5q14 -3 27 -6q12 -2 24 -2q4 -1 7 -1q4 0 7 3t5.5 7.5t2.5 7.5q-5 25 -27 34q-48 22 -104 28q-53 4 -89 -40q-28 -34 -48 -72q-49 -87 -90 -176q-141 -303 -347 -577q-79 -105 -158 -209q-47 -61 -95 -122q-81 -105 -161 -211q-55 -73 -104 -150
q-2 -4 -5 -7q-11 -20 -2.5 -42.5t29.5 -26.5q109 -16 218 -31z" />
    <glyph glyph-name="backslash" unicode="\" horiz-adv-x="586" 
d="M473 -291v0v0v8l-2 20q-5 21 -9 43q-13 65 -28 130q-22 93 -46.5 185t-58.5 181q-28 73 -55 146l-112 290q-91 225 -204 438q-30 57 -66 111q-2 2 -3 4q-8 11 -21 18q-3 3 -7 5q-1 1 -4 0.5t-5 -2.5q-2 -1 -3.5 -3.5t-1.5 -3.5q1 -5 2 -9q1 -16 7 -29l30 -54
q18 -32 35 -65q139 -275 249 -567q10 -26 19 -53q24 -65 49 -129q80 -198 126 -410q2 -7 3 -14q6 -27 13 -53q26 -84 55 -167q5 -12 16 -22q3 -4 6 -7q1 -1 4 -1t5 1l5 5z" />
    <glyph glyph-name="bracketright" unicode="]" horiz-adv-x="634" 
d="M-157 -500v0v0v-2l-1 -1q14 1 28 1q31 2 62 5q27 2 47.5 15t31.5 40q5 10 11 20l6 10q122 228 268 445q80 118 159 238q96 147 182 299t168 306q6 11 11 22q2 5 4 9q8 20 1 38q-10 37 -46 44q-27 5 -55 5h-16q-9 0 -13 -7t-2 -17q3 -16 18 -22q8 -4 17 -6q9 -4 19 -7
q17 -7 7 -25q-25 -46 -50 -91q-65 -121 -134 -241q-108 -186 -232 -366q-97 -141 -187.5 -286.5t-169.5 -295.5q-2 -3 -3 -6q-4 -9 -9 -17q-9 -13 -20 -22t-28 -12q-43 -5 -85 -12q-19 -3 -37 -6q-12 -2 -18 -10t-5 -20q3 -16 11 -21.5t20 -4.5q14 1 27 1h13z" />
    <glyph glyph-name="asciicircum" unicode="^" horiz-adv-x="1014" 
 />
    <glyph glyph-name="underscore" unicode="_" horiz-adv-x="833" 
d="M359 -78v0v0v2h-50h-114q-74 -1 -148 -3q-16 -1 -32 -1q-6 0 -11.5 -3.5t-7.5 -8t0 -7.5q21 -34 92 -41q41 -3 82 -3q288 5 575 11q16 1 22 9.5t-2 15.5q-31 27 -93 29h-223h-90z" />
    <glyph glyph-name="grave" unicode="`" 
 />
    <glyph glyph-name="a" unicode="a" horiz-adv-x="748" 
d="M373 -71v0v0q17 -1 34 3.5t33 9.5q1 0 2 1q17 6 62.5 29.5t101.5 56.5t107 68.5t79.5 65t18.5 46.5q-3 4 -12 5.5t-18 1t-13 -2.5q-22 -23 -72 -61.5t-132 -79t-198 -70.5q-6 -1 -10 3t-4 9q4 19 13 35.5t20 31.5q0 2 1 3q64 100 148 183q4 5 8 9q11 10 22 22q9 12 2 27
q-7 20 -25 33q-6 5 -13.5 5t-12.5 -4q-14 -11 -27 -23q-76 -70 -162 -123.5t-180 -94.5q-42 -18 -87 -30q-4 -1 -13.5 -2t-20 0t-16.5 4.5t-3 11.5q29 52 75.5 89.5t102.5 62.5t112 41q37 10 59.5 10.5t39.5 -2.5q16 -3 36 -3q4 2 7 11t-0.5 21t-19.5 23q-27 20 -59.5 25.5
t-66.5 -1.5q-89 -16 -163 -59t-134 -111q-19 -21 -32 -47q-13 -29 -6 -60t30 -53t56 -23q43 -2 84 11q65 22 125 53l42 18q2 1 4 1q1 1 2.5 0t3.5 -2q1 -1 2 -2.5t1 -2.5q-3 -10 -7 -21q-6 -16 -10 -33q-7 -29 5 -59t37 -47q18 -13 41 -13z" />
    <glyph glyph-name="b" unicode="b" horiz-adv-x="524" 
d="M339 519v0v0l-2 2q-3 1 -4 3t-1.5 3.5t0.5 3.5t2 3q4 10 11 18q26 30 53 61q80 92 163 183q88 95 193 171q48 37 103 59q3 1 7 0.5t6 -3.5q2 -2 2 -6.5t-2 -7.5q0 -1 -1 -2q-16 -28 -36 -55q-72 -96 -162 -177q-148 -131 -310 -244q-7 -5 -15 -8q-4 -2 -7 -4zM8 43v0v0
q-3 0 -8 1q-13 3 -31 8q-8 3 -3 13q19 39 53 66q69 53 143.5 92.5t156.5 63.5q41 10 81 6q6 -2 9.5 -9.5t0.5 -15.5l-4 -6q-6 -12 -13 -23q-34 -46 -78 -80t-93 -60q-108 -58 -214 -56zM63 -18v0v0q35 0 67.5 4.5t64.5 15.5q113 41 201 127q37 36 61 82q21 38 9 78
q-23 75 -105 72q-57 -2 -112 -22q-19 -7 -38 -15q-17 -6 -33 -12q-4 -1 -8 -0.5t-6 2.5t-2 6.5t2 6.5q0 1 9 7q34 22 129 86t193 132t140 105q54 48 130 120.5t119 129.5q29 38 47 81q17 40 0 77q-23 49 -77 37q-32 -9 -63 -24q-79 -43 -147 -103q-104 -90 -195 -193
q-237 -266 -451 -551q-114 -155 -214 -318q-18 -29 -32 -59q-5 -10 -0.5 -23t13.5 -19q3 -1 7.5 -1t6.5 2q14 11 24 24l48 70q22 32 45 63q15 24 27 29.5t34 -2.5q26 -8 52 -11t52 -4h2z" />
    <glyph glyph-name="c" unicode="c" horiz-adv-x="682" 
d="M138 -47v0v0q143 17 295 83t266 149q37 28 36 44.5t-39 3.5q-43 -21 -95 -48q-87 -45 -186 -89t-198.5 -66t-188.5 -1q-34 8 -23 41q15 44 46 75q61 67 133.5 115.5t161.5 72.5q55 15 112 6q6 -1 13 -2q5 -2 10 -3q3 0 6 3.5t4.5 8t0.5 7.5l-2 4q-4 9 -10 16
q-26 28 -63 32q-57 7 -112 -6q-93 -25 -169.5 -74.5t-139.5 -120.5q-26 -31 -42 -69q-13 -31 -7 -63q16 -76 89 -106q20 -8 42 -10t46 -3h14z" />
    <glyph glyph-name="d" unicode="d" horiz-adv-x="911" 
d="M322 269v0v0l-2 -2q-1 -3 -3 -5q-105 -98 -226 -179q-29 -18 -61 -33q-8 -5 -16 -9q-11 -5 -23 -6q-3 -1 -7.5 0.5t-6.5 3.5t-3 6t-1 8q7 21 19.5 39t27.5 35q59 66 134 113q62 40 135 47q17 2 29 -11q1 -2 2 -5zM372 -176v0v0q3 1 7 2q16 1 37 8q59 25 116 55
q8 4 57.5 32.5t118.5 70.5t134.5 87.5t105 83t30.5 56.5q-9 13 -22.5 14.5t-24.5 -4.5q-65 -47 -195 -126.5t-247 -145.5q-50 -27 -102 -49q-2 -1 -5 -2q-10 -5 -20.5 -7.5t-19.5 4.5q-9 8 -7 17.5t7 18.5l4 8q15 37 35 72q2 3 3 6q47 81 98 159q197 296 446 551l6 6
q11 11 21 24q17 22 3 45q-7 12 -19 22q-1 1 -1 2q-6 5 -15 5t-15 -4q-3 -3 -6 -5q-16 -13 -30 -28q-40 -40 -80 -81l-113 -113q-110 -109 -220 -217l-33 -33q-20 -19 -42 -38q-18 -17 -36 -5l-8 6q-3 2 -5 4q-60 41 -130 20q-43 -12 -82 -33q-92 -53 -160 -135
q-23 -28 -39 -60q-17 -34 -12 -66.5t28 -61.5q13 -16 34 -21q23 -6 48 -3q41 7 75 29q65 41 126 86q43 32 84 67q20 18 41 35q15 12 30 22l2 2l6 2q1 0 2 1q1 -3 2 -5q1 -3 1.5 -5.5t0.5 -3.5q-26 -47 -53 -94q-11 -20 -23 -39q-27 -50 -40 -105q-7 -30 1.5 -56.5
t26.5 -48.5q19 -27 68 -28z" />
    <glyph glyph-name="e" unicode="e" horiz-adv-x="615" 
d="M305 375q-71 0 -174 -54q-46 -26 -91 -65q-23 -20 -36 -35q-51 -50 -51 -107v-2q0 -33 20 -66q11 -18 29 -32q31 -26 92 -26h3q38 0 86 9q11 0 89 22q56 16 105 35q137 52 240 120q24 16 52 42v1q0 1 -1 5q-4 9 -17 9q-6 0 -11 -1q-7 0 -102 -48q-106 -50 -255 -91
q-156 -38 -214 -38q-23 0 -42 4q-21 7 -21 26q0 16 23 51q8 11 26 32q39 36 51 41h3q19 -11 50 -11q28 0 75 10q37 10 60 20q32 14 64 34q22 17 22 39v4q0 20 -18 44q-15 16 -27 21q-17 7 -30 7zM157 249q0 8 44 29q84 35 113 36q7 -1 7 -3v0q0 -6 -16 -19q-15 -10 -48 -23
q-68 -23 -94 -23q-6 0 -6 3z" />
    <glyph glyph-name="f" unicode="f" horiz-adv-x="484" 
d="M592 721v0v0q13 7 17 5t2 -9.5t-7 -16.5t-9.5 -16t-5.5 -8q-55 -51 -118.5 -102t-123.5 -96q-1 -1 -11 -10t-24.5 -22t-26 -22.5t-12.5 -9.5q-2 1 7.5 13t23.5 27t24 26q9 8 10 10l6 8q10 12 20 23q16 16 31 32q44 49 89.5 91t107.5 77zM-335 -489v0v0q2 9 5 19
q7 25 16 53q41 114 106 216q98 153 210 295q10 13 22 23q2 3 5 6q1 1 2.5 1.5t3 0.5h2.5v-1q3 -3 5 -6t2 -6q-1 -20 -7 -39q-19 -58 -40 -114q-60 -154 -147 -295q-27 -43 -58 -82t-69 -73q-14 -11 -30 -19q-6 -3 -11 -6q-3 -1 -7 1t-7 5.5t-3 6.5v2.5v3.5v8zM228 183v0v0
h-17h-40q-12 0 -23 4q-4 1 -7.5 3.5t-4.5 5.5t-0.5 7.5t2.5 6.5l26 22q6 4 11 9l94 76q113 91 224 184q63 55 123 115l35 35q35 34 58 76q24 44 -11 81q-26 26 -59 14q-30 -12 -58 -28q-55 -34 -108 -71q-64 -48 -158 -149.5t-157 -173.5q-11 -13 -19 -23
q-196 -220 -361 -464q-72 -107 -124 -225q-26 -59 -41 -122q-16 -66 20 -124q35 -50 91 -25q46 25 81 64q65 68 110 149q66 114 118 233t79 249q2 7 9.5 11.5t15.5 2.5q58 -16 113.5 -8.5t110.5 22.5q13 3 27 7q64 16 97 36.5t40 34.5t-7 12q-11 -2 -26 -6t-32 -9
q-20 -5 -33 -8q-98 -23 -199 -24z" />
    <glyph glyph-name="g" unicode="g" horiz-adv-x="848" 
d="M-135 -553v0v0l-3 -2q-4 -3 -12 -7.5t-16 -8.5t-13 -4.5t-5 5.5q2 8 8 18t12 19q3 4 5 7q42 63 105 122.5t133 111t134 90.5q1 1 -4 -6t-12 -16t-13 -17.5t-9 -12.5q-9 -11 -18 -23q-24 -32 -50 -63q-78 -92 -173 -167q-33 -26 -69 -46zM201 379v0v0q-174 -67 -264 -225
q-19 -37 -21 -80q-1 -12 4 -24q12 -37 38 -67q23 -24 53 -29q55 -9 101 10q2 0 3 1q56 20 106 48q62 37 121 78q24 15 47 30q10 7 19 13l18 12q1 1 3 1t4 -1q12 -3 6 -12l-12 -18q-40 -67 -79 -133q-22 -35 -59 -54q-103 -60 -203 -123q-113 -71 -209 -163q-44 -43 -82 -93
q-23 -32 -38 -71q-4 -10 -5.5 -22.5t2.5 -23.5q12 -38 37.5 -59t61.5 -16q23 4 44 13q55 25 101 62q87 69 159 151q115 129 210 273q23 39 65 58q15 7 29 15q8 5 17 10q7 4 34 17q57 27 145.5 79.5t160.5 105.5t84 78q4 21 -31 20q-243 -146 -288 -167q-29 -13 -40 -18
q-15 -6 -32 -10q-5 -2 -11 -4q-9 -2 -7 6l2 6q4 11 9 21q69 113 126 234q9 17 13 35q1 5 -0.5 11.5t-4.5 11.5q-13 17 -30 32q-7 7 -15.5 7.5t-14.5 -4.5q-18 -17 -36 -36q-82 -84 -173.5 -157t-196.5 -131q-50 -26 -102 -47q-2 -1 -3 -1q-18 -8 -37.5 -12t-43.5 5
q-10 20 -6.5 35.5t11.5 29.5q5 11 9 21q1 3 2 5q1 1 1 2q78 124 211 190q23 12 49 18q33 8 66.5 6t68.5 -24q1 -1 3 -2l3 -1.5t2 0.5l1 1q2 2 3.5 5t1.5 5q-3 13 -11 23q-46 47 -106 53q-50 7 -94 -10z" />
    <glyph glyph-name="h" unicode="h" horiz-adv-x="766" 
d="M332 510v0v0q-8 -2 5 14.5t35.5 42t43.5 48.5q22 23 30 32q33 41 95 110t137 141t147.5 123t125.5 56q10 0 11 -6.5t-3.5 -16t-10 -18t-7.5 -11.5q-27 -36 -56 -69q-62 -69 -136 -126q-64 -50 -152 -117.5t-162 -123.5q-48 -36 -76 -57.5t-27 -21.5zM920 1132v0v0
q1 0 -3 0t-9.5 -1t-12.5 -3q-114 -44 -201.5 -115.5t-168.5 -162.5q-99 -109 -192.5 -222.5t-185.5 -227.5q-15 -20 -31 -39q-141 -178 -272 -363q-66 -91 -133 -181q-7 -10 -13 -20q-7 -16 0 -32q5 -11 12 -20q7 -10 17 -12t18 5l6 6q29 28 56 58q160 172 346 315
q81 66 173 117l8 4q16 9 44 24q48 26 59.5 24.5t0 -21t-33.5 -48.5q-20 -27 -38 -55q-16 -25 -34 -49q-10 -16 -21 -31q-18 -27 -35 -54q-18 -30 0 -62q21 -38 60 -26q34 12 66 29q50 27 167.5 94.5t198.5 124.5q29 22 43 39t4.5 19.5t-52.5 -17.5q-69 -34 -169 -82
q-91 -44 -155 -76q-17 -7 -34 -13q-2 0 -3 -1q-1 0 -2.5 0.5t-3 1.5t-1.5 2q0 8 3 14q13 23 27 47q22 35 42 71q1 1 2 3q7 12 15.5 31.5t9 42t-17.5 43.5q-14 17 -37 26.5t-51 2.5q-39 -10 -75 -28q-43 -22 -83.5 -48t-79.5 -55l-38 -28q-23 -17 -47 -35q-1 -1 -4 -1h-2
q-1 2 -2 5q0 3 -0.5 5t0.5 4q22 29 34 44t18 23q7 9 13.5 17.5t18 23.5t34.5 43q83 47 198.5 134t229.5 180t193 159q17 15 32 27q68 57 126 125q34 40 55 88q11 26 0.5 51t-34.5 41.5t-55 14.5z" />
    <glyph glyph-name="i" unicode="i" horiz-adv-x="510" 
d="M5 -48v0v0q30 1 95 22t144.5 54.5t154 70.5t123 69.5t51.5 52.5q0 7 -7 8.5t-16 -0.5t-16 -4q-35 -16 -88 -42q-69 -34 -157 -73t-183 -67q-42 -12 -86 -22q-11 -2 -23 -2h-9q-6 0 -10 5t-3 10q12 34 31 62t41 54q3 3 5 6q66 81 140 155q26 28 -6 54q-7 5 -15.5 5.5
t-14.5 -3.5q-3 -2 -5 -4q-11 -7 -21 -15q-90 -82 -162 -179q-21 -29 -38 -62q-11 -21 -15 -45q-3 -26 6.5 -51t30.5 -42t53 -17zM323 487v0v0l22 12q33 17 67 36q3 1 5 5t3 8q4 21 -13 36q-15 16 -36 9q-42 -16 -72 -49q-9 -10 -7 -24.5t13 -25.5q4 -3 10 -4q4 -1 8 -3z" />
    <glyph glyph-name="j" unicode="j" horiz-adv-x="476" 
d="M-981 -710v0v0q-6 0 -11.5 3t-5.5 8v2q1 7 3 13q5 11 12 20q8 8 15 16q21 26 46 48q59 49 122 92q75 51 153.5 96t158.5 88q60 32 121 62q2 1 4.5 0.5t5.5 -1.5q2 -1 5 -2q-1 -1 -1 -2q0 -3 -2 -4l-24 -28q-33 -38 -67 -74q-114 -120 -250 -214q-48 -33 -99 -61t-106 -48
q-38 -15 -80 -14zM216 518v0v0q2 0 5 1q5 1 10 3q22 16 44 34q11 8 12 22t-8 28q-11 16 -25.5 18t-26.5 -11q-18 -21 -33 -44q-5 -10 -2.5 -22t11.5 -22q4 -3 9 -5zM-952 -775v0v0q44 1 87 15q68 25 131 61q157 93 288 220q131 126 244 269q45 57 112 87q79 38 169 87.5
t180 100.5q134 78 236 130q34 17 24 29q-11 11 -20.5 9.5t-20.5 -7.5q-2 -1 -5 -2q-36 -17 -111 -55q-99 -48 -200 -97t-137 -64l-8 -4q-15 -6 -30 -11t-19.5 1t11.5 30q96 140 177 289q12 21 19 44q2 15 -2 30q0 1 -1 1q-2 8 -9.5 13.5t-13.5 4.5q-6 -2 -11.5 -4.5
t-8.5 -6.5q-11 -16 -20 -33q-5 -7 -10 -15q-19 -30 -37 -61q-42 -70 -87 -138q-53 -76 -109 -151q-24 -32 -47 -64q-22 -30 -56 -45q-15 -6 -29 -13l-8 -4q-247 -119 -482 -261q-100 -60 -192 -134q-45 -34 -79 -80q-15 -19 -24 -42q-10 -29 -1.5 -58.5t30.5 -49t53 -20.5
q6 0 12 -1h5z" />
    <glyph glyph-name="k" unicode="k" horiz-adv-x="636" 
d="M738 861v0v0v-2q1 -2 1 -3v-2q-1 -2 -1 -4q-3 -9 -9 -17q-8 -11 -17 -22q-26 -35 -55 -66q-117 -122 -264 -207q-5 -2 -8.5 -1.5t-6.5 4.5q-1 3 -0.5 6t0.5 6q1 1 1 2t1.5 2.5l2.5 2.5v1q51 54 103 107.5t108 102.5q30 26 62 50.5t68 43.5q5 2 8 1.5t6 -5.5zM193 4v0v0
q-2 0 -5 1q-6 0 -15 2q-24 5 -24.5 33.5t9.5 59.5t18 42q21 30 57.5 69.5t67.5 55.5q42 18 85 36q29 12 58 25q14 6 26 15q2 2 2.5 6.5t-1.5 7.5q-17 38 -52 28q-101 -30 -198 -71q-22 -10 -45 -17q-3 -1 -5 -2q-2 0 -4 1t-4 3q-1 1 -1.5 3t-0.5 3q19 44 64 62q3 2 6 3
q51 21 99 46q116 62 221 139q78 56 146 123q56 53 96 119q12 20 19 42q14 55 -36 94q-28 22 -62 12q-37 -12 -69 -34q-13 -10 -27 -20q-51 -37 -100 -78q-63 -56 -121 -117q-162 -168 -308.5 -349t-282.5 -371l-6 -10q-1 -2 -2 -3q-11 -20 9 -44q7 -8 15 -9.5t13 4.5
q13 15 25 30q32 38 60 78q55 81 144 123q35 18 40 12.5t-6 -39.5q-1 -3 -2 -7q-14 -53 17 -102q38 -64 109 -68q32 -3 63 3q87 16 156.5 54t129 91.5t114.5 115.5q17 21 12.5 27.5t-20 2t-30.5 -14.5q-19 -14 -38 -29q-68 -52 -140.5 -97.5t-154.5 -69.5l-8 -2
q-26 -7 -54 -12.5t-59 -5.5z" />
    <glyph glyph-name="l" unicode="l" horiz-adv-x="513" 
d="M377 539v0v0q-13 -7 -6 5q1 2 2 5q2 4 5 8q159 176 351 317q19 13 40 24q7 4 15 8q1 0 3 -1t3 -2q2 -1 3 -2.5t1 -2.5q-3 -8 -8 -14q-182 -194 -401 -343q-3 -2 -6 -2h-2zM-18 -176v0v0q38 -1 67 11q13 6 27 11q21 7 40 16q189 94 346 234q2 1 3 2q11 10 31.5 29t39 37
t24.5 27q8 8 6 19t-15.5 12.5t-39.5 -18.5q-102 -81 -202 -147.5t-219 -124.5q-47 -23 -96 -40q-17 -5 -35 -2h-5q-3 1 -6.5 4t-3.5 7q-2 16 2 31q20 70 56 134q61 104 134 201q19 26 46 44q137 93 271 189q198 141 367 314q52 51 94 111q30 47 -9 88q-20 23 -51 14
q-46 -15 -88 -40q-114 -69 -214 -157q-113 -98 -215 -206.5t-195 -226.5l-12 -16q-19 -28 -46 -49q-5 -4 -9.5 -8.5t-5.5 -10.5q-8 -29 -27 -51l-12 -18l-18 -28q-24 -37 -47 -75q-37 -62 -61 -131q-14 -38 -14 -79q0 -32 17 -61q27 -47 75 -46z" />
    <glyph glyph-name="m" unicode="m" horiz-adv-x="830" 
d="M349 196v0v0q-1 9 -1 16q0 13 -2 23q-10 33 -35 49t-59 6q-19 -6 -37 -15q-24 -14 -48 -27q-13 -8 -26 -15q-9 -5 -15 4q0 1 0.5 3t1.5 4q12 18 25 36l40 60q16 26 -12 49q-8 6 -16.5 6t-13.5 -5q-2 -2 -5 -4q-11 -12 -21 -25q-105 -139 -211 -279l-50 -68q-16 -24 4 -53
q9 -13 20.5 -16t21.5 5q11 11 23 21q8 8 17 16q117 107 252 195q19 12 40 21q7 3 15 7q1 1 3 0.5t4 -1.5q10 -4 5 -13q-23 -49 -56 -93l-18 -26l-14 -20q-13 -19 -25 -37q-10 -19 4 -38q7 -11 15 -20q6 -5 15 -6.5t15 2.5l24 20q97 90 208 163q33 21 68 38q5 2 11 2.5
t12 -1.5q6 -3 6 -9t-2 -12v0q-2 -9 -4 -19q-7 -25 -12 -50q-6 -32 12 -63q25 -43 68 -31q26 9 72 37t94.5 64.5t80.5 71t29 54.5q-2 9 -9 9t-16 -5t-17 -10l-6 -4q-17 -10 -50 -34t-70 -49t-68.5 -40t-46.5 -10q-5 3 -5.5 8t0.5 10q1 2 1 4q1 8 3 16q4 19 5 38q2 52 -42 86
q-29 23 -61 11q-36 -15 -71 -33q-15 -8 -30 -18l-16 -10q-2 -1 -3 -2q-4 -3 -8.5 -4.5t-9.5 2.5q-1 2 -2 3.5t-1 2.5v2v0z" />
    <glyph glyph-name="n" unicode="n" horiz-adv-x="655" 
d="M409 143v0v0q7 31 -4 62q-13 38 -44.5 55.5t-68.5 7.5q-47 -13 -89 -38q-28 -16 -55 -33q-28 -17 -55 -34q-14 -8 -29 -14q-1 0 -3 1t-3 2q-1 0 -2 1.5t-1.5 2.5l-0.5 1q2 4 4 7q7 15 16 28q17 22 28.5 37.5t22.5 30.5l36 48q3 4 6 7q13 16 19.5 32.5t-8.5 36.5
q-7 8 -20.5 10.5t-20.5 -4.5l-10 -10t-4 -4.5t-2.5 -3.5l-4.5 -6q-3 -3 -7 -9q-110 -145 -218 -290q-22 -29 -40 -61q-22 -37 10 -73q6 -8 17.5 -10.5t18.5 2.5q4 3 8 5q29 20 57 43q125 102 264 184q47 31 102 46q4 1 8 1.5t8 0.5q3 -2 6.5 -4.5t3.5 -5.5q3 -12 0 -24
q-5 -17 -12 -33q-8 -21 -14 -43q-12 -36 10 -69q19 -29 48 -17q21 10 42 21q189 132 241 177.5t24 41t-73.5 -27.5t-107.5 -59t-89 -48q-5 -2 -10 2t-5 10t1 12v5z" />
    <glyph glyph-name="o" unicode="o" horiz-adv-x="640" 
d="M300 226v0v0q-11 -30 -34 -52q-18 -16 -44 -1q-2 1 -2.5 3.5t-0.5 5t1 4.5q27 34 70 48q1 0 3 -0.5t3 -2.5q2 -1 3 -3q0 -1 1 -2zM173 264v0v0q1 -1 1 -3q0 -1 0.5 -2t0.5 -2q-5 -7 -9 -15q-6 -9 -12 -19q-12 -23 -2 -47q9 -22 23 -42q16 -23 15.5 -33t-19.5 -24
q-38 -30 -79.5 -54t-88.5 -37q-10 -2 -19 -3q-3 0 -5 -1q-9 0 -17 8.5t-7 18.5q8 48 35 88q28 40 60 75q25 27 51.5 51t57.5 43q4 2 8 2q2 -1 4 -3q1 -1 2 -1zM511 181.5q-75 -12.5 -136 -9.5q-5 1 -8 6t-2 11q1 8 3 15q4 21 6 41q0 22 -11.5 41.5t-32.5 29t-48 1.5l-16 -6
q-7 -3 -14 -5q-15 -6 -24 14q-1 2 -1 4q-1 2 -1 3q-9 20 -23.5 24.5t-29.5 -1.5q-27 -9 -51 -24q-104 -65 -173 -166q-22 -34 -36 -72q-26 -75 25 -136q37 -44 94 -32q51 12 97 38q85 48 152 118q17 18 42 20t78.5 9.5t117 23t109 39.5t72 55t-43.5 1t-145 -42.5z" />
    <glyph glyph-name="p" unicode="p" horiz-adv-x="750" 
d="M456 195v0v0q-39 -23 -85 -58q-38 -30 -77.5 -55.5t-75 -33t-64.5 16.5q-1 0 -1 1.5t-0.5 2.5l-0.5 1l8 8q11 12 24 23q39 31 80.5 59t88.5 49q36 14 75 19q8 1 16 -2q7 -3 13 -10q3 -2 3.5 -6.5t-0.5 -9t-4 -5.5zM113 37v0v0q10 4 13.5 -1t5.5 -16q2 -10 6 -23t15 -26
q18 -21 45 -21q12 0 23 2q75 19 139.5 53t115.5 87q42 44 101 59l22 6q30 8 61 16q43 10 86 19q29 7 58 13q7 3 7.5 11t-5.5 16q-16 16 -60.5 14.5t-96 -11.5t-86.5 -18q-16 -4 -24 -5q-5 -1 -11.5 2t-11.5 6q-7 7 -13 16q-5 6 -9 11q-47 48 -107 41q-35 -4 -68 -15
q-38 -13 -72 -33t-65 -43q-33 -26 -65 -52q-17 -14 -34 -27q-2 -1 -4 -1.5t-3 -0.5q-9 6 -5 14q11 20 21 40q25 46 47 93q21 45 38 91q8 26 -22 50q-5 4 -12 4t-10 -4q-2 -2 -4 -5q-4 -6 -8 -13q-25 -46 -50 -93q-51 -95 -104 -189q-56 -100 -113.5 -197.5t-121.5 -192.5
q-16 -24 -29 -52q-1 -4 0 -10.5t4 -12.5q9 -14 22 -26q6 -6 15.5 -6.5t13.5 4.5q32 45 63 92q121 179 280 325l2 2q4 4 10 7z" />
    <glyph glyph-name="q" unicode="q" horiz-adv-x="797" 
d="M192 58v0v0q6 2 10 4q15 5 29 9q1 0 3.5 -1t3.5 -2t1.5 -2l1 -2t0.5 -2l-4 -6q-6 -13 -15 -25q-109 -147 -205 -304q-61 -100 -119 -201q-14 -26 -29 -52t-26 -54q-11 -31 16 -60q27 -30 50 -13q1 0 1 1q40 32 75 67q200 208 418 399q31 28 127.5 115t194.5 176.5
t135 122.5q-26 36 -55 13q-26 -19 -51 -38q-80 -60 -160 -121q-52 -40 -103 -83q-204 -172 -396 -357l-10 -10l-16 -16q-9 -7 -18 -13q0 -1 -1.5 -1h-2.5h-2q-1 2 -1 5q-1 3 -1 5.5t1 3.5q196 319 431 609q11 14 21 29q4 6 2 12t-5 11q-11 14 -23 26q-8 7 -17 8.5t-14 -2.5
l-26 -24q-120 -110 -277 -168q-2 0 -3 -1q-15 -6 -31 -9t-35 5q-8 19 -3 32.5t14 25.5q4 5 7 10q14 22 32 40q60 64 135 112q23 15 49 26t57 12q5 1 9 3q2 1 5 2q4 2 5 8.5t-2 11.5q-23 32 -59 33q-25 0 -46.5 -6.5t-41.5 -17.5q-117 -60 -196 -163q-26 -32 -32 -74
q-3 -20 4 -40q12 -37 45 -63q21 -18 46 -20q55 -6 97 14z" />
    <glyph glyph-name="r" unicode="r" horiz-adv-x="483" 
d="M101 197v0v0q-9 -2 -4 6q8 13 17 26q7 12 14 23q9 15 19 29l48 78q8 14 3 28.5t-21 24.5q-3 2 -7 2.5t-7 -0.5q-10 -6 -17 -15q-145 -200 -290 -401q-14 -17 -24 -37q-12 -26 9 -50q9 -11 20.5 -14t20.5 4q30 27 59 55q156 148 334 269q9 6 19 10q4 2 7 3q8 3 6 -5
l-6 -16l-8 -26q-4 -12 -1 -23q5 -19 15.5 -35.5t29.5 -27.5q11 -5 25 -4h4q6 0 9 5.5t1 10.5l-2 4q-2 5 -6 10q-24 22 -6 47q23 32 45 65l14 20q3 3 5 7q8 11 16 24q8 17 1 37q-10 25 -30.5 35t-43.5 0q-2 -1 -4 -1q-22 -10 -43 -22q-74 -48 -148 -98q-20 -14 -40 -29
l-26 -18q0 -1 -1.5 -1h-2.5h-3z" />
    <glyph glyph-name="s" unicode="s" horiz-adv-x="422" 
d="M-265 -197v0v0q0 1 -1 1l-3 1.5t-2 1.5v3t1 3l1 1q4 6 11 10q49 29 99 58l44 26q4 2 8 1.5t6 -4.5q1 -3 0 -7t-2 -7q-35 -50 -92 -72l-6 -2q-15 -7 -30.5 -11.5t-33.5 -2.5zM-267 -264v0v0h8q37 1 73 10q60 17 101 55.5t66 95.5q10 23 17 48q2 6 5 13q5 16 20 24
q7 3 15 7q27 16 56 30q25 12 108 52.5t165 82.5t102 58q1 32 -25 25q-61 -20 -153 -66q-65 -32 -125 -57t-95 -27.5t-26 35.5q1 3 1 7q13 51 31 101q41 107 150 147q12 4 24 6q8 2 15 4t9.5 10.5t-0.5 16.5q-8 15 -23 22q-23 10 -47 4q-104 -24 -158 -116q-30 -53 -44 -112
q-18 -66 -32 -133q-5 -21 -15 -36.5t-31 -25.5q-35 -17 -68 -37q-1 0 -3 -1q-10 -6 -21 -12q-66 -38 -131 -79q-33 -22 -63 -49q-15 -15 -10 -38q13 -54 65 -62q13 -2 27 -3h12z" />
    <glyph glyph-name="t" unicode="t" horiz-adv-x="482" 
d="M199 605v0v0v0v1h17h96q1 0 2.5 -0.5t2.5 -1t1 -1.5t1 -2v-7.5t-1 -5.5l-30 -36q-1 0 -2 -1q-28 -32 -57 -65q-64 -69 -125 -140q-57 -68 -108 -140q-21 -31 -38 -64l-10 -20q-15 -30 -14 -63q-1 -42 28 -73q20 -22 49 -24q41 -4 80 7q35 11 69 23q94 34 179 83t163 111
q1 1 3 2q5 3 12 9.5t11 13.5t-1 12q-4 4 -19 0.5t-33 -13.5q-58 -35 -147 -75.5t-177.5 -71t-144.5 -37.5q-9 0 -14.5 6.5t-2.5 13.5q5 11 10 21q13 31 30 58q44 68 95 130q94 109 190 216q14 16 29 32q28 31 57 61q16 16 32 33q20 22 50 22l46 2l34 2l74 2q60 1 120 3
q12 1 23 5q2 2 3.5 6.5t1.5 7.5q-11 29 -41 35q-20 3 -40 2q-35 -1 -70 -3q-22 -1 -43 -2h-3q-23 -1 -45 0q-3 0 -6 2.5t-5 5.5v0q-1 2 -0.5 4t1.5 4q2 3 5 6q9 13 21 24q86 81 172 161q23 21 46 43l14 12q14 13 27 26q12 14 5 30t-20 20.5t-25 -4.5q-20 -14 -39 -29
q-143 -118 -275 -249l-12 -12q-17 -17 -34 -33q-15 -15 -36 -16q-7 -1 -14 -1h-18q-29 -2 -58 -3q-104 -4 -208 -9q-16 -1 -32 -6q-3 -1 -7 -2q-8 -2 -6 -13q6 -28 32 -31q46 -3 93 -4h36z" />
    <glyph glyph-name="u" unicode="u" horiz-adv-x="751" 
d="M-24 96v0v0q-1 -35 27 -68q21 -27 55 -29q37 -3 71 12q62 30 115 63q45 28 90 51q1 1 2.5 1t2 -1.5t-0.5 -6t-5 -13t-10 -22.5q-5 -10 -10 -18q-9 -15 -9.5 -26.5t15.5 -32.5q16 -22 42 -16q27 8 53 19q171 71 337 154q13 7 25 14q1 1 3 2q4 3 11 10.5t11 16t-1 12.5
t-25 -2q-41 -12 -110 -37.5t-130 -49t-79 -31.5h-2q-5 -3 -15 -6.5t-20 -6t-13.5 0t3.5 13.5q24 33 48 72q23 37 46 70q19 29 -3 60q-22 28 -48 8q-19 -15 -37 -31q-112 -94 -239 -163q-34 -18 -70 -33q-13 -5 -25 -11q-11 -5 -24 -5q-12 -1 -22 4q-6 4 -6 10t3 11q5 9 9 19
q14 31 33 59q48 75 116 133q0 1 1 1q10 7 15 16q2 5 2 11.5t-3 10.5q-24 43 -58 16q-104 -81 -159 -200q-12 -25 -12 -61z" />
    <glyph glyph-name="v" unicode="v" horiz-adv-x="451" 
d="M-40 -53v0v0q30 0 51 15q8 5 15 10q54 33 107 68q159 110 298 246q5 5 5 10.5t-2 11.5q-17 39 -50 13l-28 -24q-3 -2 -5 -4q-143 -117 -295 -220q-18 -12 -37 -23q-2 -1 -5 -0.5t-7 1.5q-1 1 -2 1l-0.5 1t-0.5 2.5v2.5q1 2 2 5q7 13 15 25q39 56 79 113q27 38 53 75
q15 21 28 43q6 11 -0.5 25.5t-19.5 18.5q-3 1 -7.5 0.5t-7.5 -3.5q-14 -10 -24 -23q-91 -114 -168 -237q-21 -32 -33 -68q-8 -23 -2 -42.5t23 -34.5q3 -3 6.5 -4.5t7.5 -1.5z" />
    <glyph glyph-name="w" unicode="w" horiz-adv-x="622" 
d="M-85 51v0v0q-2 -26 2.5 -48.5t21.5 -40.5q8 -8 20 -11t23 1q40 16 73 45l42 38q20 18 41 36q8 7 17 11l4 2h2.5h3t1.5 -1t1 -3q2 -10 1 -20q-4 -46 20 -82q12 -19 32.5 -25t42.5 7q2 0 3 1q32 19 61 42q155 133 258 306q8 15 14 31q1 6 -1.5 14t-8.5 14.5t-12 7.5
q-4 1 -8 0t-6 -4q-15 -16 -27 -33q-84 -119 -189 -222q-38 -36 -79 -70l-4 -4q-9 -7 -21 -12q-4 -2 -8 -5q-4 -2 -8.5 -1t-7 3.5t-2.5 5.5q1 5 1 10q1 11 5 22q27 84 69 162q13 25 10 42.5t-22 34.5q-3 2 -7 2.5t-7 -0.5q-11 -6 -20 -16q-14 -16 -27 -32l-34 -40
q-85 -97 -186 -177q-7 -4 -15 -6q-4 -1 -7 -2q-1 3 -2 7t-1 8t1 7l2 4q20 44 44 86q52 89 122 165q5 6 5 14.5t-5 15.5q-4 6 -9 11q-7 6 -14.5 7t-14.5 -4q-3 -3 -7 -6q-13 -10 -25 -23q-81 -95 -134 -206q-10 -24 -17 -48q-4 -11 -7 -21z" />
    <glyph glyph-name="x" unicode="x" horiz-adv-x="602" 
d="M315 -3v0v0q3 1 7 2q12 2 29 7q36 12 94 49t110.5 78t70.5 66q14 21 13 28.5t-11.5 4.5t-24.5 -12q-77 -51 -152.5 -88t-170.5 -66q-9 -3 -19 -3q-2 0 -4 -1q-12 -1 -23.5 6.5t-18.5 20.5q-11 24 3 35q15 11 31 20q72 41 144 81q26 15 53 29l10 6q14 8 27 16q2 2 2.5 6.5
t-1.5 7.5q-9 15 -22.5 23.5t-26.5 5.5q-15 -3 -28 -9q-50 -23 -99 -47q-40 -19 -80 -39q-20 -9 -41 -17q-4 -1 -8 1t-5 6q-2 4 -3 9q-7 23 -11 47q-2 14 -2 28q-1 10 -1 20q-2 13 -14.5 24.5t-27.5 16.5q-7 1 -11.5 -7t-91.5 -123q-37 -43 15 -40q17 4 39 22q41 78 54 6
l6 -24q5 -22 -12 -33q-21 -13 -43 -25q-37 -23 -75 -46q-22 -15 -43 -32q-4 -3 -9 -7q-4 -4 -3.5 -12.5t5.5 -16.5q24 -37 57 -21l60 34q27 16 54 31q5 3 10 7q17 12 36 14q10 0 17 -6.5t13 -15.5q6 -11 14 -18q5 -4 9 -9q5 -5 11 -10q18 -14 39 -22.5t49 -7.5z" />
    <glyph glyph-name="y" unicode="y" horiz-adv-x="825" 
d="M66 -366v0v0q1 0 2 -2q1 -1 1.5 -2t0.5 -2v0q-1 -7 -4 -13q-70 -110 -159 -204q0 -1 -1 -1q-4 -5 -9.5 -8.5t-13.5 -1.5q-2 0 -3.5 1.5l-2.5 2.5l-1 1q0 4 1 8q1 11 6 20l10 14q39 56 81 109q26 31 55 58q12 11 23 22q6 6 14 -2zM290 71v0v0q2 1 6 0.5t7 -2.5
q2 -1 3 -3.5t1.5 -5t0.5 -4.5q-15 -31 -30 -63l-28 -60q-16 -32 -45 -54q-70 -54 -138 -111q-102 -83 -182 -186q-38 -51 -71 -105q-2 -3 -4 -7q-21 -33 -27 -75q-4 -40 27 -77q19 -22 41.5 -29.5t41.5 2.5q26 14 47 32q36 30 65 65q63 77 119 158q38 55 73.5 112.5
t65.5 118.5q33 68 96 110q133 91 273 172q90 51 179 102q20 12 40 23l24 16q5 4 3.5 12.5t-7.5 15.5q-16 12 -75 -11t-134 -61.5t-136 -73.5t-81 -46q-7 -4 -17 -6t-17.5 -1t-8.5 5q-1 6 -1.5 11.5t1.5 9.5q13 31 27 61q8 19 17 38q2 4 4 9q13 28 24 57q10 35 -29 66
q-23 17 -37 5q-25 -25 -48 -51q-90 -96 -210 -159q-43 -25 -98 -33q-9 -1 -19 7.5t-12 18.5q3 35 21 61.5t40 49.5q14 15 26 29.5t18 31.5q3 10 -7 22t-23 22q-6 3 -21.5 -3.5t-31 -15t-18.5 -12.5q-7 -7 -13 -14q-20 -20 -35 -42t-17 -52q-3 -61 43 -116q43 -51 99 -46
q48 5 86 25q23 13 45 26q28 15 57 31z" />
    <glyph glyph-name="z" unicode="z" horiz-adv-x="890" 
d="M215 -202v0v0q1 1 7 4t13 7t12.5 6.5t6.5 3.5q4 1 9 2q2 1 5 1q-1 -2 -1 -4q-1 -3 -2 -5.5t-2 -3.5q-43 -33 -78 -64q-51 -44 -105.5 -83t-133.5 -76q-10 -6 -13 4q0 1 1 3l2 4l12 12q16 17 34 33q54 45 113 83t120 73zM347 362v0v0q0 1 -1 2q-16 0 -33 -1q-40 -1 -79 -3
q-53 -3 -107 -7q-11 0 -22 -1q-21 -2 -66 -59.5t-56 -79t13 -36.5q23 -14 87.5 47.5t141.5 69.5q9 1 19 2q27 3 54.5 4.5t54.5 -2.5q1 0 2.5 -1.5t1.5 -2.5v-4.5t-1 -3.5q-5 -3 -9 -6q-19 -13 -38 -24q-55 -30 -110 -59l-138 -76q-53 -30 -104 -62q-17 -11 -30 -26
q-3 -4 -5 -10.5t0 -11.5q12 -53 63 -47q24 2 48 7q110 24 223 34q36 3 72 -3q5 -1 11 -1q11 -1 21.5 -3.5t17.5 -12.5q-1 -13 -8.5 -18.5t-17.5 -8.5q-8 -3 -14 -7q-13 -8 -28 -14q-8 -4 -15 -8q-152 -75 -291 -173q-48 -36 -94 -75q-40 -34 -66 -81q-12 -23 -4 -47
q26 -75 101 -51q54 18 103 44q168 92 298 232q22 24 42.5 49t34.5 54q9 20 24 32t34 20q8 4 55.5 30.5t114.5 66t134 80.5t113 74t51.5 46.5t-49.5 -2.5q-46 -14 -108 -46.5t-131 -70.5q-105 -61 -196 -103q-14 -7 -26 -7t-23 14l-4 4q-1 0 -2 1q-39 38 -93 43
q-28 4 -56 5.5t-56 -2.5q-24 -3 -48 -4h-16q-3 0 -6 1l-2 2l2 4q2 5 6 8q27 17 55 32q49 27 98 53q76 40 151 81q29 17 56 36q2 2 5 3q7 6 8.5 17t-3.5 20q-21 39 -64 42q-33 2 -67 1h-29z" />
    <glyph glyph-name="braceleft" unicode="{" horiz-adv-x="975" 
d="M143 -374v0v0q0 -1 -1 -1v-1h-12q-14 0 -28 2q-39 6 -57 27t-19 52q-2 32 8 64q27 84 74 162q71 115 166 212l152 158q41 42 26 91q-1 5 -4 10q-2 5 -4 11q-4 16 13 28l58 42l20 14q115 82 215 179t179 214q29 43 61 85q24 30 52 59q24 26 56 41q21 10 40 5.5t28 -22.5
q4 -9 7 -19l10 -22q2 -5 6 -9t12 -1q5 2 8.5 8t3.5 12q-4 52 -38 89q-35 38 -71 38.5t-84 -37.5q-44 -37 -77 -83q-39 -53 -76 -106q-133 -187 -318 -323q-30 -21 -60 -43l-54 -38q-29 -21 -53 -45q-6 -6 -8.5 -14.5t-3.5 -15.5q0 -17 7 -30q26 -41 -18 -78q-26 -23 -50 -48
q-6 -7 -12 -13q-15 -15 -30 -31q-44 -44 -86 -89q-100 -111 -164 -243q-37 -79 -41 -160q-4 -74 36 -130q36 -51 102 -60q40 -7 80 14q3 1 5 5t3 8q0 22 -20 29q-13 2 -27 2q-6 0 -12 1z" />
    <glyph glyph-name="bar" unicode="|" 
 />
    <glyph glyph-name="braceright" unicode="}" horiz-adv-x="963" 
d="M1027 981v0v0q1 5 1 7l1.5 4.5t0.5 2.5q9 33 -10.5 57.5t-60.5 16.5q-63 -14 -127 -31q-16 -6 -32 -17q-4 -2 -6.5 -6t-4.5 -8q-8 -22 7 -34q4 -2 10 -3t12 0q2 1 4 1q66 22 131 34q6 0 9 -5t0 -11q-2 -4 -5 -8q-6 -11 -14 -22q-29 -35 -57 -70q-36 -45 -71 -90
q-44 -54 -84 -110q-27 -38 -47 -77q-40 -79 -21 -148q1 -7 -3.5 -15.5t-12.5 -13.5q-70 -38 -125 -92t-103 -115q-34 -43 -67 -87l-28 -38q-16 -22 -32 -43q-34 -46 -69 -90q-125 -158 -276.5 -271.5t-341.5 -162.5q-8 -2 -16 -9q-3 -3 -6 -6.5t-3 -7.5q-3 -16 5 -25.5
t22 -6.5q12 2 24 6q14 3 27 6q196 42 366 180q108 86 195 191q80 102 158 206q68 93 146 181q78 85 180 133q16 7 32 12q9 3 18 7q7 3 12 11.5t5 16.5q-2 20 -17 30q-12 7 -26 12q-10 4 -19 9q-14 8 -9 25q8 29 22 56q40 75 97 144q31 38 61 76l62 76q32 40 62 81
q11 17 18 31q3 6 6 10z" />
    <glyph glyph-name="asciitilde" unicode="~" 
 />
    <glyph glyph-name="exclamdown" unicode="&#xa1;" horiz-adv-x="859" 
d="M205 -98v0v0q-2 -3 0 -15.5t9 -27t21 -22.5q6 -11 16.5 -12.5t18.5 6.5q15 15 28 32q203 248 385 513q270 392 523 795q11 18 21 37q3 4 4 9q0 2 1 4q2 9 -4 20t-15 15q-3 0 -14 -1.5t-21.5 -4t-13.5 -4.5q-148 -229 -300.5 -456.5t-315.5 -450t-343 -437.5zM1310 1333v0
v0q-4 -2 -17 -2t-27 3t-22.5 7.5t-2.5 11.5q29 35 38.5 54.5t10.5 29.5q2 7 5 11l2 2q2 4 7 7t17 0.5t35 -15.5q18 -14 9 -37t-27.5 -44t-27.5 -28z" />
    <glyph glyph-name="cent" unicode="&#xa2;" horiz-adv-x="623" 
d="M129 164v0v0q-9 1 -16.5 10t-6.5 18q1 4 1 7q1 13 6 24q18 31 40 59q51 58 118 94q2 1 4.5 1.5t3.5 -0.5q8 -5 3 -14q-19 -27 -37 -54q-45 -66 -89 -131q-10 -14 -27 -14zM260 160v0v0q-6 0 -11.5 2.5t-10.5 5.5q-1 1 -0.5 3.5t1.5 6t2 5.5l50 72q47 66 92 133
q15 22 33 28.5t42 -4.5q1 -1 2.5 -1.5t2.5 -0.5t2 1h1l4 6t3 6q0 9 -3.5 16t-8.5 13q-3 3 -5 6q-10 15 0 29l18 28q7 10 13 19q13 18 25 36q24 35 48 71q9 13 12 29q1 21 -18 33q-7 4 -15.5 3t-13.5 -8q-23 -28 -44 -57q-29 -39 -56 -78q-19 -26 -38 -53q-12 -17 -33 -21
q-6 -2 -12 -3q-10 -1 -20 -4q-74 -21 -133.5 -63t-107.5 -102l-6 -10l-2 -4q-39 -69 -3 -138q9 -16 21 -31q4 -4 7 -9q13 -18 0 -37l-122 -190q-13 -20 -24 -41q-5 -11 0.5 -26t18.5 -22q1 -1 3.5 -1t4.5 1q1 1 3 2q8 6 14 13l62 92q40 61 82 122q5 7 9 14q12 18 20 26.5
t22 10.5t42 2h4q20 0 40 3q115 19 197 101q4 5 4.5 14t-3.5 16q-16 25 -41 12q-10 -7 -20 -13q-14 -9 -27 -18q-60 -36 -127 -46z" />
    <glyph glyph-name="sterling" unicode="&#xa3;" horiz-adv-x="902" 
d="M852 787v0v0q-1 90 -65 139q-20 15 -45 18q-86 10 -145 -55q-34 -40 -54 -89q-13 -30 -24 -61q-5 -14 -11 -29l-16 -42q-17 -43 -33 -86q-9 -25 -25.5 -39t-45.5 -14q-40 0 -80 -5q-12 -1 -25 -3q-12 -1 -22 -7q-3 -1 -5 -5t-3 -7q0 -13 7.5 -24t17.5 -14q12 -4 24 -5
q18 -1 37 -1q14 0 27 -1q8 -1 11.5 -8.5t-1.5 -15.5q-56 -90 -131 -163q-28 -29 -60.5 -52t-73.5 -33q-24 -6 -45 -18q-24 -14 -47 -31q-19 -16 -10 -44q3 -8 6 -15q18 -28 47 -24q16 3 31 10l12 6q34 17 65 37q41 28 89 35q12 2 23 4q16 3 33 5q182 17 360 -26
q34 -8 67 -17l50 -14q3 0 6 1t6 3q1 1 2 1v1.5v3v3.5q-5 21 -22 32q-21 13 -43 22q-86 31 -174 50.5t-180 19.5q-16 0 -32 2h-8q-2 0 -3.5 0.5t-2.5 1.5l-1 1v2q-1 4 -0.5 7.5t1.5 5.5q38 48 73 97t63 103q12 18 34 19q42 3 84 5q18 1 37 2q8 1 10 9t-2 16q-13 23 -38 27
q-21 3 -42 5l-22 2q-5 1 -8.5 7t-2.5 11q33 108 82 210q15 33 40 60q44 52 113 53q16 0 26.5 -9.5t11.5 -23.5v-29q0 -18 1 -36q0 -21 16 -35q3 -2 6.5 -3t7.5 -2h1q9 -1 11 9l6 24q2 9 3 16z" />
    <glyph glyph-name="currency" unicode="&#xa4;" 
 />
    <glyph glyph-name="yen" unicode="&#xa5;" horiz-adv-x="817" 
d="M500 329v0v0v-1h32q41 -1 81 -2q6 0 11.5 2t6.5 9q0 5 -2.5 10.5t-6.5 10.5q-13 16 -34 18l-54 6l-106 14q-8 1 -12 8.5t-2 15.5q10 28 27.5 49.5t41.5 37.5q24 17 52 19q31 0 62 2q13 0 27 1q5 0 8.5 6.5t0.5 11.5q-4 7 -9 15q-7 9 -12 19q-2 3 -2 7.5t2 6.5q8 10 18 17
q25 16 50 33q22 14 44 29q17 11 32 24q8 6 9.5 17t-2.5 20q-9 14 -22 21t-24 3q-11 -5 -22 -11q-84 -47 -164.5 -101t-153.5 -118q-4 -4 -10.5 -3t-10.5 5q-7 8 -14 17q-19 22 -37 46l-52 74q-15 23 -31 45q-1 2 -3 5q-28 41 -58 80q-7 9 -18 15q-3 2 -7 4q-1 1 -3 0t-3 -2
t-2 -3t-1 -4q1 -4 3 -9q4 -15 11 -27q28 -44 56 -87q19 -27 37 -55q8 -14 14 -29q4 -10 -8 -10q-13 1 -27 2q-18 2 -36 3q-19 1 -38 0h-3q-6 -1 -10 -10t-2 -16q7 -22 27 -27q20 -4 40 -5l24 -2q5 -1 11 -1q38 -5 77 -11q25 -5 38 -28q5 -10 5 -22q0 -3 -1.5 -6l-3.5 -7
q-1 0 -1 -1q-14 -26 -23.5 -37t-23 -12.5t-41.5 0.5q-16 1 -31 3q-17 2 -34 3q-60 3 -120 5q-8 0 -11.5 -7.5t-0.5 -17.5q6 -20 25 -29q11 -6 23 -7q43 -6 87 -11q16 -2 33 -4q6 -1 11 -2q3 -1 5 -1q4 -1 7 -4t4.5 -7t-0.5 -7t-3 -7q-6 -10 -13 -21q-69 -105 -140 -210
q-26 -39 -52 -79l-10 -14q-11 -16 -21 -33q-11 -23 5 -45q3 -5 10 -6.5t11 0.5q3 2 5 4q8 5 13 12l14 16q61 76 121 153t115 157q7 11 15 22l26 38q15 22 41 20q57 -1 113 -3z" />
    <glyph glyph-name="brokenbar" unicode="&#xa6;" 
 />
    <glyph glyph-name="section" unicode="&#xa7;" 
 />
    <glyph glyph-name="dieresis" unicode="&#xa8;" 
 />
    <glyph glyph-name="copyright" unicode="&#xa9;" horiz-adv-x="883" 
d="M705 31v0v0q-38 -72 -105.5 -114t-148.5 -54t-160 5.5t-139.5 64.5t-86.5 123t-2 182q19 82 63 127t120 83q56 30 117.5 49t121 21.5t108.5 -18.5q74 -32 119 -98.5t46.5 -161t-53.5 -209.5zM623 -161v0v0q98 64 154 164q56 101 56 211q0 70 -27 134t-85 116
q-81 71 -161 100t-155 23t-141 -39q-63 -32 -113.5 -82.5t-85.5 -113.5q-34 -63 -49.5 -131t-7.5 -135q7 -66 40 -124.5t93.5 -103.5t153.5 -70q93 -23 176.5 -8.5t151.5 59.5zM195 -14v0v0q75 -27 166 -18t154 53q73 53 81.5 70.5t-27.5 11.5t-98 -22q-48 -12 -100.5 -24
t-100.5 -16.5t-82 3.5q-31 7 -21 37q14 39 42 68q55 60 121 104t146 66q50 13 101 6q6 -1 12 -3q4 -1 9 -2q3 0 5.5 3t4 7t0.5 7l-2 4q-3 8 -9 15q-23 24 -57 28q-51 7 -102 -6q-83 -22 -152.5 -67t-126.5 -109q-24 -28 -38 -62q-12 -28 -6 -57q14 -69 80 -97z" />
    <glyph glyph-name="guillemotleft" unicode="&#xab;" 
 />
    <glyph glyph-name="logicalnot" unicode="&#xac;" 
 />
    <glyph glyph-name="macron" unicode="&#xaf;" horiz-adv-x="670" 
 />
    <glyph glyph-name="degree" unicode="&#xb0;" 
 />
    <glyph glyph-name="plusminus" unicode="&#xb1;" horiz-adv-x="1014" 
 />
    <glyph glyph-name="acute" unicode="&#xb4;" 
 />
    <glyph glyph-name="mu" unicode="&#xb5;" horiz-adv-x="1180" 
 />
    <glyph glyph-name="paragraph" unicode="&#xb6;" 
 />
    <glyph glyph-name="periodcentered" unicode="&#xb7;" 
 />
    <glyph glyph-name="periodcentered" unicode="&#x2219;" 
 />
    <glyph glyph-name="cedilla" unicode="&#xb8;" 
 />
    <glyph glyph-name="guillemotright" unicode="&#xbb;" 
 />
    <glyph glyph-name="questiondown" unicode="&#xbf;" horiz-adv-x="748" 
 />
    <glyph glyph-name="Agrave" unicode="&#xc0;" horiz-adv-x="1970" 
d="M2129 1608v0v0h-9q-83 -2 -147.5 -9.5t-150.5 -25.5q-266 -53 -519 -147q-124 -45 -242 -101.5t-229 -126.5q-100 -62 -185 -143q-37 -37 -71 -77q-30 -34 -40 -78q-5 -16 -3 -32q8 -40 29 -70t60 -47q37 -17 77 -22q4 0 8 -1q44 -5 88 -7t89 4q25 4 50 5q15 0 30 2
q20 1 40 6q11 4 19 13q3 5 0.5 13.5t-9.5 15.5q-11 13 -28 13q-32 -1 -65 -3q-20 -2 -39 -3q-17 0 -33 -1q-40 -3 -80 -3q-73 1 -143 21q-28 7 -36.5 21.5t3.5 44.5q7 19 19 35q3 4 6 7q29 38 63 72q78 76 170 135q142 92 297 161q338 148 698 222q178 38 361 35
q10 0 39.5 -2.5t64 -7.5t58.5 -14.5t22 -24.5q-7 -24 -23 -42q-52 -63 -117 -111q-106 -80 -213 -159q-435 -315 -860 -641q-59 -46 -118 -91q-22 -16 -43 -32q-25 -20 -59 -22q-88 -8 -175 -20q-32 -4 -65 -8q-106 -14 -211 -33t-210 -41q-68 -14 -135 -35l-28 -8
q-39 -11 -72 -36q-27 -23 -16 -57q8 -24 28 -39q15 -12 32 -9t24 26v2q2 3 1 6q-1 15 6.5 23.5t19.5 11.5q10 3 19 7q52 18 105 31q251 57 506 95q24 3 47 3q9 0 18 1q11 0 9 -10q-1 -1 -1 -2q0 -2 -0.5 -3t-0.5 -2q-18 -17 -37 -32l-450 -364l-334 -270q-15 -13 -30 -27
q-8 -8 -8 -18q0 -9 6 -19q15 -22 34 -12q0 1 1 1q10 6 19 13q66 50 133 100q169 126 337 254q250 191 498 384q46 37 104 39q101 1 205 10q54 5 109 8q52 3 104 5q1 0 3.5 -2.5t4 -5t0.5 -4.5q-9 -26 -22 -51q-38 -75 -61 -157q-12 -47 -11 -96q2 -54 33 -98q36 -54 101 -58
q28 -2 56 3q102 21 173 67.5t114 101t62.5 100t19.5 64.5t-15 -5q-47 -79 -118.5 -141t-158.5 -94.5t-183 -21.5q-12 2 -20.5 11t-9.5 22v3q-2 15 0 29q9 60 30 117q44 108 106 208q11 17 31 23q19 6 37 15q3 2 4.5 6t2.5 7q0 8 -4 15q-16 22 0 45q18 26 37 53q15 23 31 46
q122 174 250.5 342.5t265.5 329.5l32 40q14 18 29 36q27 32 22.5 39.5t-25 -3.5t-40.5 -36q-204 -210 -385 -430t-347 -445l-442 -31l1174 941q7 6 19 15q26 20 55 47.5t39.5 59.5t-17.5 63q-31 34 -74 47q-42 14 -86 19q-48 4 -97 6q-18 0 -37 1zM2344 1709v0v0
q-2 13 -4 27q-6 41 -13 88q-7 37 -36 60q-16 14 -37 15q-10 0 -17 -8.5t-4 -17.5q45 -94 77 -192q3 -8 9 -13q3 -2 7 -3.5t7 -1.5q3 1 5 4.5t3 6.5q2 7 2 19q0 6 1 16z" />
    <glyph glyph-name="Aacute" unicode="&#xc1;" horiz-adv-x="1970" 
d="M2129 1608v0v0h-9q-83 -2 -147.5 -9.5t-150.5 -25.5q-266 -53 -519 -147q-124 -45 -242 -101.5t-229 -126.5q-100 -62 -185 -143q-37 -37 -71 -77q-30 -34 -40 -78q-5 -16 -3 -32q8 -40 29 -70t60 -47q37 -17 77 -22q4 0 8 -1q44 -5 88 -7t89 4q25 4 50 5q15 0 30 2
q20 1 40 6q11 4 19 13q3 5 0.5 13.5t-9.5 15.5q-11 13 -28 13q-32 -1 -65 -3q-20 -2 -39 -3q-17 0 -33 -1q-40 -3 -80 -3q-73 1 -143 21q-28 7 -36.5 21.5t3.5 44.5q7 19 19 35q3 4 6 7q29 38 63 72q78 76 170 135q142 92 297 161q338 148 698 222q178 38 361 35
q10 0 39.5 -2.5t64 -7.5t58.5 -14.5t22 -24.5q-7 -24 -23 -42q-52 -63 -117 -111q-106 -80 -213 -159q-435 -315 -860 -641q-59 -46 -118 -91q-22 -16 -43 -32q-25 -20 -59 -22q-88 -8 -175 -20q-32 -4 -65 -8q-106 -14 -211 -33t-210 -41q-68 -14 -135 -35l-28 -8
q-39 -11 -72 -36q-27 -23 -16 -57q8 -24 28 -39q15 -12 32 -9t24 26v2q2 3 1 6q-1 15 6.5 23.5t19.5 11.5q10 3 19 7q52 18 105 31q251 57 506 95q24 3 47 3q9 0 18 1q11 0 9 -10q-1 -1 -1 -2q0 -2 -0.5 -3t-0.5 -2q-18 -17 -37 -32l-450 -364l-334 -270q-15 -13 -30 -27
q-8 -8 -8 -18q0 -9 6 -19q15 -22 34 -12q0 1 1 1q10 6 19 13q66 50 133 100q169 126 337 254q250 191 498 384q46 37 104 39q101 1 205 10q54 5 109 8q52 3 104 5q1 0 3.5 -2.5t4 -5t0.5 -4.5q-9 -26 -22 -51q-38 -75 -61 -157q-12 -47 -11 -96q2 -54 33 -98q36 -54 101 -58
q28 -2 56 3q102 21 173 67.5t114 101t62.5 100t19.5 64.5t-15 -5q-47 -79 -118.5 -141t-158.5 -94.5t-183 -21.5q-12 2 -20.5 11t-9.5 22v3q-2 15 0 29q9 60 30 117q44 108 106 208q11 17 31 23q19 6 37 15q3 2 4.5 6t2.5 7q0 8 -4 15q-16 22 0 45q18 26 37 53q15 23 31 46
q122 174 250.5 342.5t265.5 329.5l32 40q14 18 29 36q27 32 22.5 39.5t-25 -3.5t-40.5 -36q-204 -210 -385 -430t-347 -445l-442 -31l1174 941q7 6 19 15q26 20 55 47.5t39.5 59.5t-17.5 63q-31 34 -74 47q-42 14 -86 19q-48 4 -97 6q-18 0 -37 1zM2554 1881v0v0
q-6 22 -21.5 31t-31.5 -2q-71 -60 -141 -121q-15 -15 -26 -35q-3 -5 -7 -11q-16 -27 5 -52q7 -8 17.5 -10t17.5 5q2 1 4 3q4 4 7 8q17 24 38 44.5t43 38.5q5 5 10 9q13 11 26 23q21 17 41 35q9 8 15 19q2 4 2 10q0 2 1 5z" />
    <glyph glyph-name="Acircumflex" unicode="&#xc2;" horiz-adv-x="1970" 
d="M2129 1608v0v0h-9q-83 -2 -147.5 -9.5t-150.5 -25.5q-266 -53 -519 -147q-124 -45 -242 -101.5t-229 -126.5q-100 -62 -185 -143q-37 -37 -71 -77q-30 -34 -40 -78q-5 -16 -3 -32q8 -40 29 -70t60 -47q37 -17 77 -22q4 0 8 -1q44 -5 88 -7t89 4q25 4 50 5q15 0 30 2
q20 1 40 6q11 4 19 13q3 5 0.5 13.5t-9.5 15.5q-11 13 -28 13q-32 -1 -65 -3q-20 -2 -39 -3q-17 0 -33 -1q-40 -3 -80 -3q-73 1 -143 21q-28 7 -36.5 21.5t3.5 44.5q7 19 19 35q3 4 6 7q29 38 63 72q78 76 170 135q142 92 297 161q338 148 698 222q178 38 361 35
q10 0 39.5 -2.5t64 -7.5t58.5 -14.5t22 -24.5q-7 -24 -23 -42q-52 -63 -117 -111q-106 -80 -213 -159q-435 -315 -860 -641q-59 -46 -118 -91q-22 -16 -43 -32q-25 -20 -59 -22q-88 -8 -175 -20q-32 -4 -65 -8q-106 -14 -211 -33t-210 -41q-68 -14 -135 -35l-28 -8
q-39 -11 -72 -36q-27 -23 -16 -57q8 -24 28 -39q15 -12 32 -9t24 26v2q2 3 1 6q-1 15 6.5 23.5t19.5 11.5q10 3 19 7q52 18 105 31q251 57 506 95q24 3 47 3q9 0 18 1q11 0 9 -10q-1 -1 -1 -2q0 -2 -0.5 -3t-0.5 -2q-18 -17 -37 -32l-450 -364l-334 -270q-15 -13 -30 -27
q-8 -8 -8 -18q0 -9 6 -19q15 -22 34 -12q0 1 1 1q10 6 19 13q66 50 133 100q169 126 337 254q250 191 498 384q46 37 104 39q101 1 205 10q54 5 109 8q52 3 104 5q1 0 3.5 -2.5t4 -5t0.5 -4.5q-9 -26 -22 -51q-38 -75 -61 -157q-12 -47 -11 -96q2 -54 33 -98q36 -54 101 -58
q28 -2 56 3q102 21 173 67.5t114 101t62.5 100t19.5 64.5t-15 -5q-47 -79 -118.5 -141t-158.5 -94.5t-183 -21.5q-12 2 -20.5 11t-9.5 22v3q-2 15 0 29q9 60 30 117q44 108 106 208q11 17 31 23q19 6 37 15q3 2 4.5 6t2.5 7q0 8 -4 15q-16 22 0 45q18 26 37 53q15 23 31 46
q122 174 250.5 342.5t265.5 329.5l32 40q14 18 29 36q27 32 22.5 39.5t-25 -3.5t-40.5 -36q-204 -210 -385 -430t-347 -445l-442 -31l1174 941q7 6 19 15q26 20 55 47.5t39.5 59.5t-17.5 63q-31 34 -74 47q-42 14 -86 19q-48 4 -97 6q-18 0 -37 1zM2495 1796v0v0q-1 6 -2 15
q-2 24 -6 54q-4 41 -35 70q-9 7 -19 8t-18 -6q-86 -72 -172 -145q-3 -3 -5.5 -6t-3.5 -7q-4 -12 -1 -23q8 -23 26 -30t37 7q36 28 72 57q18 14 35 28q20 16 28 14t15 -25q16 -48 36 -95q1 -1 1 -2q5 -11 13 -20q2 -4 5 -7l1.5 -1.5t0.5 -1v-1v-0.5v0.5v1v0.5l0.5 0.5l1 1
t1.5 0.5h3q1 0 3.5 1.5t4.5 3.5t2 3q-8 37 -19 81q-3 11 -5 24z" />
    <glyph glyph-name="Atilde" unicode="&#xc3;" horiz-adv-x="1970" 
d="M2129 1608v0v0h-9q-83 -2 -147.5 -9.5t-150.5 -25.5q-266 -53 -519 -147q-124 -45 -242 -101.5t-229 -126.5q-100 -62 -185 -143q-37 -37 -71 -77q-30 -34 -40 -78q-5 -16 -3 -32q8 -40 29 -70t60 -47q37 -17 77 -22q4 0 8 -1q44 -5 88 -7t89 4q25 4 50 5q15 0 30 2
q20 1 40 6q11 4 19 13q3 5 0.5 13.5t-9.5 15.5q-11 13 -28 13q-32 -1 -65 -3q-20 -2 -39 -3q-17 0 -33 -1q-40 -3 -80 -3q-73 1 -143 21q-28 7 -36.5 21.5t3.5 44.5q7 19 19 35q3 4 6 7q29 38 63 72q78 76 170 135q142 92 297 161q338 148 698 222q178 38 361 35
q10 0 39.5 -2.5t64 -7.5t58.5 -14.5t22 -24.5q-7 -24 -23 -42q-52 -63 -117 -111q-106 -80 -213 -159q-435 -315 -860 -641q-59 -46 -118 -91q-22 -16 -43 -32q-25 -20 -59 -22q-88 -8 -175 -20q-32 -4 -65 -8q-106 -14 -211 -33t-210 -41q-68 -14 -135 -35l-28 -8
q-39 -11 -72 -36q-27 -23 -16 -57q8 -24 28 -39q15 -12 32 -9t24 26v2q2 3 1 6q-1 15 6.5 23.5t19.5 11.5q10 3 19 7q52 18 105 31q251 57 506 95q24 3 47 3q9 0 18 1q11 0 9 -10q-1 -1 -1 -2q0 -2 -0.5 -3t-0.5 -2q-18 -17 -37 -32l-450 -364l-334 -270q-15 -13 -30 -27
q-8 -8 -8 -18q0 -9 6 -19q15 -22 34 -12q0 1 1 1q10 6 19 13q66 50 133 100q169 126 337 254q250 191 498 384q46 37 104 39q101 1 205 10q54 5 109 8q52 3 104 5q1 0 3.5 -2.5t4 -5t0.5 -4.5q-9 -26 -22 -51q-38 -75 -61 -157q-12 -47 -11 -96q2 -54 33 -98q36 -54 101 -58
q28 -2 56 3q102 21 173 67.5t114 101t62.5 100t19.5 64.5t-15 -5q-47 -79 -118.5 -141t-158.5 -94.5t-183 -21.5q-12 2 -20.5 11t-9.5 22v3q-2 15 0 29q9 60 30 117q44 108 106 208q11 17 31 23q19 6 37 15q3 2 4.5 6t2.5 7q0 8 -4 15q-16 22 0 45q18 26 37 53q15 23 31 46
q122 174 250.5 342.5t265.5 329.5l32 40q14 18 29 36q27 32 22.5 39.5t-25 -3.5t-40.5 -36q-204 -210 -385 -430t-347 -445l-442 -31l1174 941q7 6 19 15q26 20 55 47.5t39.5 59.5t-17.5 63q-31 34 -74 47q-42 14 -86 19q-48 4 -97 6q-18 0 -37 1zM2565 1717v0v0h10
q17 1 38 4q21 4 41.5 11.5t38.5 22.5q7 6 2 14q-10 20 -21.5 26t-29.5 1q-103 -28 -206 2q-28 8 -55 14q-24 5 -48 6q-40 1 -90.5 -18t-79.5 -45q-3 -2 -4 -6l-2 -8q0 -20 15.5 -32t32.5 -6q14 6 27 13q9 4 17 8q45 21 92 26.5t95 -13.5l14 -4q4 -1 9 -3q45 -14 104 -13z
" />
    <glyph glyph-name="Adieresis" unicode="&#xc4;" horiz-adv-x="1970" 
d="M2129 1608v0v0h-9q-83 -2 -147.5 -9.5t-150.5 -25.5q-266 -53 -519 -147q-124 -45 -242 -101.5t-229 -126.5q-100 -62 -185 -143q-37 -37 -71 -77q-30 -34 -40 -78q-5 -16 -3 -32q8 -40 29 -70t60 -47q37 -17 77 -22q4 0 8 -1q44 -5 88 -7t89 4q25 4 50 5q15 0 30 2
q20 1 40 6q11 4 19 13q3 5 0.5 13.5t-9.5 15.5q-11 13 -28 13q-32 -1 -65 -3q-20 -2 -39 -3q-17 0 -33 -1q-40 -3 -80 -3q-73 1 -143 21q-28 7 -36.5 21.5t3.5 44.5q7 19 19 35q3 4 6 7q29 38 63 72q78 76 170 135q142 92 297 161q338 148 698 222q178 38 361 35
q10 0 39.5 -2.5t64 -7.5t58.5 -14.5t22 -24.5q-7 -24 -23 -42q-52 -63 -117 -111q-106 -80 -213 -159q-435 -315 -860 -641q-59 -46 -118 -91q-22 -16 -43 -32q-25 -20 -59 -22q-88 -8 -175 -20q-32 -4 -65 -8q-106 -14 -211 -33t-210 -41q-68 -14 -135 -35l-28 -8
q-39 -11 -72 -36q-27 -23 -16 -57q8 -24 28 -39q15 -12 32 -9t24 26v2q2 3 1 6q-1 15 6.5 23.5t19.5 11.5q10 3 19 7q52 18 105 31q251 57 506 95q24 3 47 3q9 0 18 1q11 0 9 -10q-1 -1 -1 -2q0 -2 -0.5 -3t-0.5 -2q-18 -17 -37 -32l-450 -364l-334 -270q-15 -13 -30 -27
q-8 -8 -8 -18q0 -9 6 -19q15 -22 34 -12q0 1 1 1q10 6 19 13q66 50 133 100q169 126 337 254q250 191 498 384q46 37 104 39q101 1 205 10q54 5 109 8q52 3 104 5q1 0 3.5 -2.5t4 -5t0.5 -4.5q-9 -26 -22 -51q-38 -75 -61 -157q-12 -47 -11 -96q2 -54 33 -98q36 -54 101 -58
q28 -2 56 3q102 21 173 67.5t114 101t62.5 100t19.5 64.5t-15 -5q-47 -79 -118.5 -141t-158.5 -94.5t-183 -21.5q-12 2 -20.5 11t-9.5 22v3q-2 15 0 29q9 60 30 117q44 108 106 208q11 17 31 23q19 6 37 15q3 2 4.5 6t2.5 7q0 8 -4 15q-16 22 0 45q18 26 37 53q15 23 31 46
q122 174 250.5 342.5t265.5 329.5l32 40q14 18 29 36q27 32 22.5 39.5t-25 -3.5t-40.5 -36q-204 -210 -385 -430t-347 -445l-442 -31l1174 941q7 6 19 15q26 20 55 47.5t39.5 59.5t-17.5 63q-31 34 -74 47q-42 14 -86 19q-48 4 -97 6q-18 0 -37 1zM2293 1694v0v0q1 1 4 2
q8 3 18 11q9 9 16 22q1 2 2 3q15 24 -8 51q-15 20 -42 7l-8 -4q-11 -4 -20 -10q-5 -4 -8 -9t-4 -11q-4 -24 10 -45q10 -17 40 -17zM2503 1749v0v0q1 30 -26 44q-13 6 -23 1t-19 -14l-17 -17q-5 -6 -9 -13q-6 -21 8 -37q6 -7 13.5 -10.5t14.5 -0.5q22 9 43 20q14 9 15 27z
" />
    <glyph glyph-name="Aring" unicode="&#xc5;" horiz-adv-x="1970" 
d="M2129 1608v0v0h-9q-83 -2 -147.5 -9.5t-150.5 -25.5q-266 -53 -519 -147q-124 -45 -242 -101.5t-229 -126.5q-100 -62 -185 -143q-37 -37 -71 -77q-30 -34 -40 -78q-5 -16 -3 -32q8 -40 29 -70t60 -47q37 -17 77 -22q4 0 8 -1q44 -5 88 -7t89 4q25 4 50 5q15 0 30 2
q20 1 40 6q11 4 19 13q3 5 0.5 13.5t-9.5 15.5q-11 13 -28 13q-32 -1 -65 -3q-20 -2 -39 -3q-17 0 -33 -1q-40 -3 -80 -3q-73 1 -143 21q-28 7 -36.5 21.5t3.5 44.5q7 19 19 35q3 4 6 7q29 38 63 72q78 76 170 135q142 92 297 161q338 148 698 222q178 38 361 35
q10 0 39.5 -2.5t64 -7.5t58.5 -14.5t22 -24.5q-7 -24 -23 -42q-52 -63 -117 -111q-106 -80 -213 -159q-435 -315 -860 -641q-59 -46 -118 -91q-22 -16 -43 -32q-25 -20 -59 -22q-88 -8 -175 -20q-32 -4 -65 -8q-106 -14 -211 -33t-210 -41q-68 -14 -135 -35l-28 -8
q-39 -11 -72 -36q-27 -23 -16 -57q8 -24 28 -39q15 -12 32 -9t24 26v2q2 3 1 6q-1 15 6.5 23.5t19.5 11.5q10 3 19 7q52 18 105 31q251 57 506 95q24 3 47 3q9 0 18 1q11 0 9 -10q-1 -1 -1 -2q0 -2 -0.5 -3t-0.5 -2q-18 -17 -37 -32l-450 -364l-334 -270q-15 -13 -30 -27
q-8 -8 -8 -18q0 -9 6 -19q15 -22 34 -12q0 1 1 1q10 6 19 13q66 50 133 100q169 126 337 254q250 191 498 384q46 37 104 39q101 1 205 10q54 5 109 8q52 3 104 5q1 0 3.5 -2.5t4 -5t0.5 -4.5q-9 -26 -22 -51q-38 -75 -61 -157q-12 -47 -11 -96q2 -54 33 -98q36 -54 101 -58
q28 -2 56 3q102 21 173 67.5t114 101t62.5 100t19.5 64.5t-15 -5q-47 -79 -118.5 -141t-158.5 -94.5t-183 -21.5q-12 2 -20.5 11t-9.5 22v3q-2 15 0 29q9 60 30 117q44 108 106 208q11 17 31 23q19 6 37 15q3 2 4.5 6t2.5 7q0 8 -4 15q-16 22 0 45q18 26 37 53q15 23 31 46
q122 174 250.5 342.5t265.5 329.5l32 40q14 18 29 36q27 32 22.5 39.5t-25 -3.5t-40.5 -36q-204 -210 -385 -430t-347 -445l-442 -31l1174 941q7 6 19 15q26 20 55 47.5t39.5 59.5t-17.5 63q-31 34 -74 47q-42 14 -86 19q-48 4 -97 6q-18 0 -37 1zM2417 1783v0v0v-2
q0 -3 -1 -5q-26 -52 -83 -52q-2 0 -4 1t-3 3v0q-1 3 -2 7t0 6q16 34 48 52q11 5 24 5q4 1 7 1q6 0 10.5 -5t3.5 -11zM2353 1656v0v0q46 0 78 23t46 65q4 11 3 24q-1 26 -19.5 50.5t-44.5 34.5q-16 5 -32 3q-27 -3 -54 -12q-20 -5 -35 -18q-36 -36 -36.5 -61.5t19.5 -60.5
q3 -5 7 -10q1 -1 2 -3q27 -34 66 -35z" />
    <glyph glyph-name="AE" unicode="&#xc6;" horiz-adv-x="2326" 
d="M2050 1261v0v0q-11 -15 -21 -30q-23 -33 -48 -67q-210 -276 -421 -552q-6 -8 -11 -15q-10 -13 -21 -25l-8 -8q-12 -14 -30 -14q-22 -1 -43 -2q-42 -2 -84 -2q-189 -2 -380 -13q-9 -1 -17 1q-6 3 -11 8q0 1 0.5 2t1.5 2.5t2 2.5l2 2q8 9 18 16q345 275 719 514
q155 101 319 188q8 5 16 7q5 1 9 1.5t7 -0.5q1 -1 1 -3.5v-5.5v-7zM1684 490v0v0h25q42 -1 84 -1q2 0 3.5 -1.5l2.5 -2.5q0 -1 -0.5 -2t-1.5 -2.5t-3 -2.5l-10 -6q-22 -13 -44 -25q-89 -46 -170 -104q-84 -61 -146 -142q-28 -37 -39 -74.5t-9 -75.5q4 -73 65 -108
q28 -16 59 -27t68 -11q21 1 42 -2h8q88 -7 178 14q112 25 209 79t181 133q3 2 5 5q1 0 1 1q4 6 3 17t-7 19q-4 4 -13.5 3.5t-16.5 -5.5q-10 -8 -19 -15q-15 -13 -31 -24q-149 -110 -302.5 -143.5t-310.5 5.5q-35 9 -61 30q-23 16 -14 46q15 47 49 88q42 52 96 93
q177 138 388 207q19 6 37 10q12 2 23 5q7 3 12.5 10.5t5.5 15.5q-1 43 -39 45q-11 1 -21 1q-15 0 -29 1q-54 6 -93 37q-42 36 -25 94q10 35 33 67q50 67 117 121q164 126 358 186q82 26 163 32q39 4 75 0.5t62 -28.5h1.5t3 0.5t2.5 0.5l1 1q3 3 5.5 6t3.5 6q2 12 0 23
q-9 29 -31 44t-55 17q-71 7 -144 -6q-143 -26 -270.5 -88.5t-239.5 -159.5q-30 -27 -55 -58q-97 -115 -69 -238l6 -18q3 -12 6 -23q1 -5 -1.5 -8t-7.5 -4h-15q-27 -2 -53 -2q-54 1 -108 4q-2 0 -3.5 2t-2.5 4.5t0 4.5q3 11 11 22q49 62 97 125q86 109 170 220q70 91 137 183
q19 27 39 54q39 53 62 111q17 45 -10 78q-7 9 -17.5 13t-24.5 -1q-4 -1 -8 -3q-30 -9 -59 -23q-64 -34 -126 -70q-204 -120 -398 -252.5t-381 -275.5q-125 -96 -248 -194q-33 -27 -73 -30q-93 -7 -188 -17q-107 -11 -214 -43q-17 -5 -33 -14q-3 -2 -6 -5.5t-3 -7.5
q-4 -18 6 -28.5t28 -8.5q4 0 7 1q10 1 18 3q64 16 127 25t126 15q6 1 13 1q17 1 33 -2q1 -1 2.5 -3t1.5 -4.5v-4.5q-15 -16 -31 -31l-72 -64q-62 -54 -123 -109q-163 -147 -304 -311q-20 -23 -35 -49q-14 -23 -5 -44q1 -3 2.5 -5.5t3 -4t2.5 -1.5q6 1 13 3.5t10 6.5
q32 41 68.5 79.5t74.5 76.5q9 10 19 19q98 100 203 194t214 186q32 27 67 53q16 12 32 25q24 7 48 9t48 2q16 1 31 2q200 11 399 20q13 0 26 1q25 0 49 -4q2 0 3.5 -2t2.5 -4.5t0 -4.5q-11 -23 -26 -43q-110 -139 -221 -277l-96 -120l-6 -8q-19 -23 -36 -47q-12 -19 -6 -37
q3 -7 12 -9t15 3q0 1 1 1q12 12 23 25q67 81 135 162q106 128 213 256q31 37 62 73q15 17 29 34q26 6 51 7.5t49 0.5q22 0 44 1z" />
    <glyph glyph-name="OE" unicode="&#x152;" horiz-adv-x="1395" 
d="M1076 731v0v0q3 13 5 25q6 28 10 56q12 70 -9 130q-23 61 -63.5 81t-104.5 9q-42 -8 -81 -29q-217 -114 -292 -332q-39 -118 -22.5 -218t81.5 -183l2.5 -2.5t3.5 -1.5h2q3 -1 6 -1.5t5 0.5q2 2 4 5t3 5.5t0 4.5q-11 22 -24 43q-5 10 -11 20q-67 121 -9 272
q68 180 238 292q58 37 120 53q21 5 41 5q64 -2 67 -65q2 -71 -20 -144q-22 -68 -51 -135q-109 -248 -301 -456q-126 -143 -283 -251q-60 -41 -125 -70q-61 -28 -122 -27q-86 3 -100 82q-7 45 0 94q19 125 70 248q44 108 106 210q69 114 151.5 219t191.5 191q7 6 11 14t3 15
q-3 20 -19 25.5t-35 -7.5q-33 -23 -63 -50q-74 -68 -135 -146q-158 -198 -253 -422q-31 -73 -51 -147.5t-23 -148.5q-1 -42 4.5 -81.5t22.5 -74.5q42 -89 151 -87q62 1 123 29q85 39 161 96q184 139 321.5 309.5t230.5 369.5q20 44 37 87.5t25 88.5zM618 -49v0v0
q-15 -51 -13.5 -92.5t21.5 -82.5q34 -70 122 -78q143 -14 283 67q73 44 125 103t85 130q11 24 15 48q2 6 3 12q3 16 -8 26h-1l-2.5 2.5t-2.5 0.5h-1q-4 -1 -8 -3t-5 -4q-14 -25 -26 -51q-26 -57 -71 -105q-74 -79 -162 -119t-188 -45q-50 -3 -92 14q-36 15 -41 53
q-5 43 13 89q24 60 62 117q43 63 97 120q90 94 193 172t217 144q36 21 74 36t79 19q10 1 17.5 10.5t6.5 18.5q-9 43 -51 41q-12 -1 -24 -3q-9 -1 -17 -2q-42 -4 -76 11q-38 16 -49 44.5t8 76.5q2 5 4 9q2 3 3 6q30 60 86 105q76 63 159 100t177 37q8 0 13.5 7.5t4.5 14.5
q-8 26 -36 31q-58 10 -122 -9q-122 -35 -223 -118q-33 -28 -61 -61q-57 -70 -60 -141.5t42 -121.5l10 -10q7 -7 14 -15q1 -1 0 -3.5t-2 -5.5t-3 -4q-29 -20 -59 -38q-92 -58 -177.5 -123.5t-162.5 -141.5q-75 -74 -130 -160q-21 -32 -37 -64.5t-23 -63.5z" />
    <glyph glyph-name="Ccedilla" unicode="&#xc7;" horiz-adv-x="1717" 
d="M359 -281q3 -12 5 -25q1 -39 -39 -47q-6 -1 -12 -1h-6v2q-3 -1 -6 0q-7 0 -45 23q-84 31 -55.5 -14.5t75.5 -51.5q69 1 114 51q29 33 6 63q21 1 41 5q106 3 206 20.5t198 43.5q93 24 269 90.5t357 150.5t289 160q2 1 7.5 8t12 16.5t9.5 18t-1 12t-19.5 -1.5t-45.5 -22
q-258 -142 -544.5 -246t-575.5 -158q-151 -29 -305 -23q-65 4 -127 23q-26 9 -51 23q-51 28 -49 86q1 28 7 56q22 91 77 167q58 83 128 156q254 268 572 455q198 118 417 192q96 32 196 46q26 4 52 3.5t52 -8.5q3 -1 7 -3l8 -2q11 -4 18 -15t8 -23q-4 -61 -34 -115
q-38 -67 -89 -124l-24 -28q-15 -17 -29 -33q-10 -15 0 -30q5 -11 15 -19q9 -9 22 -3l4 2q6 2 10 6q106 90 161 218q9 21 13 43v4q18 86 -45 147q-49 47 -116 49q-48 1 -96 -6q-82 -13 -161 -37t-155 -57q-364 -152 -663 -409q-69 -59 -134 -122.5t-123 -133.5
q-58 -68 -102 -145q-19 -36 -33 -73.5t-18 -78.5q-12 -146 111 -226q63 -40 136 -48q19 -2 37 -4q32 -4 63 -6v-1z" />
    <glyph glyph-name="Egrave" unicode="&#xc8;" horiz-adv-x="1846" 
d="M224 -356v0v0h-22h-51q-32 2 -62 15q-14 7 -21.5 19t-5.5 26q5 44 24 85q22 44 51 82.5t62 73.5q123 134 269 243q140 106 291 195t310 164q44 20 92 27q16 2 33 4q60 6 118 21q10 2 19 5q42 10 80 29q10 7 14 18.5t-1 24.5q-10 22 -29.5 35t-39.5 10q-48 -7 -95 -20
q-40 -12 -80 -27q-29 -10 -57 -19l-8 -2q-27 -11 -55 -13q-46 -2 -92 2.5t-91 20.5q-15 5 -29 13q-63 34 -47 100q10 40 31 75q42 65 102 113q174 145 394 194q45 10 91 16t93 4q36 -2 71 -10t66 -29q7 -5 15 -6q3 0 6.5 2t7.5 4l0.5 1.5t0 3t-0.5 2.5q-3 4 -6 9
q-6 13 -16 24q-30 30 -67 44.5t-78 17.5q-69 6 -137 -1q-245 -28 -445 -175q-59 -42 -108 -96q-38 -42 -61 -94q-31 -75 0 -149q31 -79 107 -115q13 -6 25 -12q17 -7 34 -15l2 -2l2 -2t1 -2q-1 -3 -2.5 -6.5t-3.5 -4.5q-31 -17 -62 -33q-30 -16 -59 -32
q-132 -71 -256 -153.5t-238 -179.5q-57 -49 -110 -101t-99 -111q-55 -66 -86 -145q-15 -40 -7.5 -88.5t40.5 -88.5t94 -54q84 -20 168 -10q104 14 206 38q258 66 507 159q231 87 451 196t432 235q14 8 25 19q3 2 3.5 6.5t-0.5 8.5q-6 18 -20 24.5t-30 -1.5q-17 -9 -34 -19
q-4 -2 -8 -5q-451 -254 -940 -422q-118 -41 -237.5 -77.5t-241.5 -63.5q-49 -11 -99 -18.5t-100 -6.5zM1582 1344v0v0q-2 13 -4 27q-6 41 -13 88q-7 37 -36 60q-16 14 -37 15q-10 0 -17 -8.5t-4 -17.5q45 -94 77 -192q3 -8 9 -13q3 -2 7 -3.5t7 -1.5q3 1 5 4.5t3 6.5
q2 7 2 19q0 6 1 16z" />
    <glyph glyph-name="Eacute" unicode="&#xc9;" horiz-adv-x="1846" 
d="M224 -356v0v0h-22h-51q-32 2 -62 15q-14 7 -21.5 19t-5.5 26q5 44 24 85q22 44 51 82.5t62 73.5q123 134 269 243q140 106 291 195t310 164q44 20 92 27q16 2 33 4q60 6 118 21q10 2 19 5q42 10 80 29q10 7 14 18.5t-1 24.5q-10 22 -29.5 35t-39.5 10q-48 -7 -95 -20
q-40 -12 -80 -27q-29 -10 -57 -19l-8 -2q-27 -11 -55 -13q-46 -2 -92 2.5t-91 20.5q-15 5 -29 13q-63 34 -47 100q10 40 31 75q42 65 102 113q174 145 394 194q45 10 91 16t93 4q36 -2 71 -10t66 -29q7 -5 15 -6q3 0 6.5 2t7.5 4l0.5 1.5t0 3t-0.5 2.5q-3 4 -6 9
q-6 13 -16 24q-30 30 -67 44.5t-78 17.5q-69 6 -137 -1q-245 -28 -445 -175q-59 -42 -108 -96q-38 -42 -61 -94q-31 -75 0 -149q31 -79 107 -115q13 -6 25 -12q17 -7 34 -15l2 -2l2 -2t1 -2q-1 -3 -2.5 -6.5t-3.5 -4.5q-31 -17 -62 -33q-30 -16 -59 -32
q-132 -71 -256 -153.5t-238 -179.5q-57 -49 -110 -101t-99 -111q-55 -66 -86 -145q-15 -40 -7.5 -88.5t40.5 -88.5t94 -54q84 -20 168 -10q104 14 206 38q258 66 507 159q231 87 451 196t432 235q14 8 25 19q3 2 3.5 6.5t-0.5 8.5q-6 18 -20 24.5t-30 -1.5q-17 -9 -34 -19
q-4 -2 -8 -5q-451 -254 -940 -422q-118 -41 -237.5 -77.5t-241.5 -63.5q-49 -11 -99 -18.5t-100 -6.5zM1743 1505v0v0q-6 22 -21.5 31t-31.5 -2q-71 -60 -141 -121q-15 -15 -26 -35q-3 -5 -7 -11q-16 -27 5 -52q7 -8 17.5 -10t17.5 5q2 1 4 3q4 4 7 8q17 24 38 44.5t43 38.5
q5 5 10 9q13 11 26 23q21 17 41 35q9 8 15 19q2 4 2 10q0 2 1 5z" />
    <glyph glyph-name="Ecircumflex" unicode="&#xca;" horiz-adv-x="1846" 
d="M224 -356v0v0h-22h-51q-32 2 -62 15q-14 7 -21.5 19t-5.5 26q5 44 24 85q22 44 51 82.5t62 73.5q123 134 269 243q140 106 291 195t310 164q44 20 92 27q16 2 33 4q60 6 118 21q10 2 19 5q42 10 80 29q10 7 14 18.5t-1 24.5q-10 22 -29.5 35t-39.5 10q-48 -7 -95 -20
q-40 -12 -80 -27q-29 -10 -57 -19l-8 -2q-27 -11 -55 -13q-46 -2 -92 2.5t-91 20.5q-15 5 -29 13q-63 34 -47 100q10 40 31 75q42 65 102 113q174 145 394 194q45 10 91 16t93 4q36 -2 71 -10t66 -29q7 -5 15 -6q3 0 6.5 2t7.5 4l0.5 1.5t0 3t-0.5 2.5q-3 4 -6 9
q-6 13 -16 24q-30 30 -67 44.5t-78 17.5q-69 6 -137 -1q-245 -28 -445 -175q-59 -42 -108 -96q-38 -42 -61 -94q-31 -75 0 -149q31 -79 107 -115q13 -6 25 -12q17 -7 34 -15l2 -2l2 -2t1 -2q-1 -3 -2.5 -6.5t-3.5 -4.5q-31 -17 -62 -33q-30 -16 -59 -32
q-132 -71 -256 -153.5t-238 -179.5q-57 -49 -110 -101t-99 -111q-55 -66 -86 -145q-15 -40 -7.5 -88.5t40.5 -88.5t94 -54q84 -20 168 -10q104 14 206 38q258 66 507 159q231 87 451 196t432 235q14 8 25 19q3 2 3.5 6.5t-0.5 8.5q-6 18 -20 24.5t-30 -1.5q-17 -9 -34 -19
q-4 -2 -8 -5q-451 -254 -940 -422q-118 -41 -237.5 -77.5t-241.5 -63.5q-49 -11 -99 -18.5t-100 -6.5zM1651 1417v0v0q-1 6 -2 15q-2 24 -6 54q-4 41 -35 70q-9 7 -19 8t-18 -6q-86 -72 -172 -145q-3 -3 -5.5 -6t-3.5 -7q-4 -12 -1 -23q8 -23 26 -30t37 7q36 28 72 57
q18 14 35 28q20 16 28 14t15 -25q16 -48 36 -95q1 -1 1 -2q5 -11 13 -20q2 -4 5 -7l1.5 -1.5t0.5 -1v-1v-0.5v0.5v1v0.5l0.5 0.5l1 1t1.5 0.5h3q1 0 3.5 1.5t4.5 3.5t2 3q-8 37 -19 81q-3 11 -5 24z" />
    <glyph glyph-name="Edieresis" unicode="&#xcb;" horiz-adv-x="1846" 
d="M224 -356v0v0h-22h-51q-32 2 -62 15q-14 7 -21.5 19t-5.5 26q5 44 24 85q22 44 51 82.5t62 73.5q123 134 269 243q140 106 291 195t310 164q44 20 92 27q16 2 33 4q60 6 118 21q10 2 19 5q42 10 80 29q10 7 14 18.5t-1 24.5q-10 22 -29.5 35t-39.5 10q-48 -7 -95 -20
q-40 -12 -80 -27q-29 -10 -57 -19l-8 -2q-27 -11 -55 -13q-46 -2 -92 2.5t-91 20.5q-15 5 -29 13q-63 34 -47 100q10 40 31 75q42 65 102 113q174 145 394 194q45 10 91 16t93 4q36 -2 71 -10t66 -29q7 -5 15 -6q3 0 6.5 2t7.5 4l0.5 1.5t0 3t-0.5 2.5q-3 4 -6 9
q-6 13 -16 24q-30 30 -67 44.5t-78 17.5q-69 6 -137 -1q-245 -28 -445 -175q-59 -42 -108 -96q-38 -42 -61 -94q-31 -75 0 -149q31 -79 107 -115q13 -6 25 -12q17 -7 34 -15l2 -2l2 -2t1 -2q-1 -3 -2.5 -6.5t-3.5 -4.5q-31 -17 -62 -33q-30 -16 -59 -32
q-132 -71 -256 -153.5t-238 -179.5q-57 -49 -110 -101t-99 -111q-55 -66 -86 -145q-15 -40 -7.5 -88.5t40.5 -88.5t94 -54q84 -20 168 -10q104 14 206 38q258 66 507 159q231 87 451 196t432 235q14 8 25 19q3 2 3.5 6.5t-0.5 8.5q-6 18 -20 24.5t-30 -1.5q-17 -9 -34 -19
q-4 -2 -8 -5q-451 -254 -940 -422q-118 -41 -237.5 -77.5t-241.5 -63.5q-49 -11 -99 -18.5t-100 -6.5zM1498 1320v0v0q1 1 4 2q8 3 18 11q9 9 16 22q1 2 2 3q15 24 -8 51q-15 20 -42 7l-8 -4q-11 -4 -20 -10q-5 -4 -8 -9t-4 -11q-4 -24 10 -45q10 -17 40 -17zM1678 1371v0v0
q1 30 -26 44q-13 6 -23 1t-19 -14l-17 -17q-5 -6 -9 -13q-6 -21 8 -37q6 -7 13.5 -10.5t14.5 -0.5q22 9 43 20q14 9 15 27z" />
    <glyph glyph-name="Igrave" unicode="&#xcc;" horiz-adv-x="1432" 
d="M1656 1322v0v0q-12 -1 -27 -3q-36 -3 -76 -11q-102 -22 -203 -50q-186 -53 -368 -119t-360 -141q-95 -40 -188 -83.5t-182 -96.5q-51 -31 -100 -67q-21 -17 -39 -38l-1 -1q-22 -27 -13 -61q12 -47 54 -67q36 -17 76 -26q71 -14 143 -20.5t145 -9.5q84 -3 169 -2
q12 -1 24 -1q33 1 65 -1t64 -9q15 -3 31 -1q4 1 8 1q10 1 8 12q-3 17 -16 27q-24 16 -52 20q-88 17 -177 15q-84 0 -168.5 3t-169.5 13q-64 8 -126 23q-6 1 -10.5 5.5t-6.5 9.5q0 5 2.5 11t5.5 10q8 10 18 17q11 8 23 16q34 26 70 48q107 65 221 116q264 120 538 217
q121 44 244 82t249 68q47 11 94.5 18.5t96.5 5.5q18 -2 35 -7q2 0 4 -1q7 -2 11.5 -10.5t3.5 -15.5l-4 -10q-3 -15 -9 -28q-4 -5 -7 -11q-27 -51 -59 -100q-98 -143 -208 -277q-234 -293 -485 -572q-53 -58 -105 -116q-228 -253 -459 -505q-130 -139 -262 -275
q-65 -66 -128 -133q-23 -23 -43 -48q-7 -11 -6 -23t7 -23q3 -5 8.5 -7.5t11 -3t8.5 2.5q13 13 25 26l42 44l113 113q103 103 206 207q251 256 495.5 518.5t475.5 537.5q90 107 176 216t166 223q39 57 73 116q13 25 21 52q14 46 -0.5 85t-46 64t-69.5 28q-13 1 -30 2
q-11 0 -27 1zM1737 1444v0v0q-2 13 -4 27q-6 41 -13 88q-7 37 -36 60q-16 14 -37 15q-10 0 -17 -8.5t-4 -17.5q45 -94 77 -192q3 -8 9 -13q3 -2 7 -3.5t7 -1.5q3 1 5 4.5t3 6.5q2 7 2 19q0 6 1 16z" />
    <glyph glyph-name="Iacute" unicode="&#xcd;" horiz-adv-x="1432" 
d="M1656 1322v0v0q-12 -1 -27 -3q-36 -3 -76 -11q-102 -22 -203 -50q-186 -53 -368 -119t-360 -141q-95 -40 -188 -83.5t-182 -96.5q-51 -31 -100 -67q-21 -17 -39 -38l-1 -1q-22 -27 -13 -61q12 -47 54 -67q36 -17 76 -26q71 -14 143 -20.5t145 -9.5q84 -3 169 -2
q12 -1 24 -1q33 1 65 -1t64 -9q15 -3 31 -1q4 1 8 1q10 1 8 12q-3 17 -16 27q-24 16 -52 20q-88 17 -177 15q-84 0 -168.5 3t-169.5 13q-64 8 -126 23q-6 1 -10.5 5.5t-6.5 9.5q0 5 2.5 11t5.5 10q8 10 18 17q11 8 23 16q34 26 70 48q107 65 221 116q264 120 538 217
q121 44 244 82t249 68q47 11 94.5 18.5t96.5 5.5q18 -2 35 -7q2 0 4 -1q7 -2 11.5 -10.5t3.5 -15.5l-4 -10q-3 -15 -9 -28q-4 -5 -7 -11q-27 -51 -59 -100q-98 -143 -208 -277q-234 -293 -485 -572q-53 -58 -105 -116q-228 -253 -459 -505q-130 -139 -262 -275
q-65 -66 -128 -133q-23 -23 -43 -48q-7 -11 -6 -23t7 -23q3 -5 8.5 -7.5t11 -3t8.5 2.5q13 13 25 26l42 44l113 113q103 103 206 207q251 256 495.5 518.5t475.5 537.5q90 107 176 216t166 223q39 57 73 116q13 25 21 52q14 46 -0.5 85t-46 64t-69.5 28q-13 1 -30 2
q-11 0 -27 1zM1849 1613v0v0q-6 22 -21.5 31t-31.5 -2q-71 -60 -141 -121q-15 -15 -26 -35q-3 -5 -7 -11q-16 -27 5 -52q7 -8 17.5 -10t17.5 5q2 1 4 3q4 4 7 8q17 24 38 44.5t43 38.5q5 5 10 9q13 11 26 23q21 17 41 35q9 8 15 19q2 4 2 10q0 2 1 5z" />
    <glyph glyph-name="Icircumflex" unicode="&#xce;" horiz-adv-x="1432" 
d="M1656 1322v0v0q-12 -1 -27 -3q-36 -3 -76 -11q-102 -22 -203 -50q-186 -53 -368 -119t-360 -141q-95 -40 -188 -83.5t-182 -96.5q-51 -31 -100 -67q-21 -17 -39 -38l-1 -1q-22 -27 -13 -61q12 -47 54 -67q36 -17 76 -26q71 -14 143 -20.5t145 -9.5q84 -3 169 -2
q12 -1 24 -1q33 1 65 -1t64 -9q15 -3 31 -1q4 1 8 1q10 1 8 12q-3 17 -16 27q-24 16 -52 20q-88 17 -177 15q-84 0 -168.5 3t-169.5 13q-64 8 -126 23q-6 1 -10.5 5.5t-6.5 9.5q0 5 2.5 11t5.5 10q8 10 18 17q11 8 23 16q34 26 70 48q107 65 221 116q264 120 538 217
q121 44 244 82t249 68q47 11 94.5 18.5t96.5 5.5q18 -2 35 -7q2 0 4 -1q7 -2 11.5 -10.5t3.5 -15.5l-4 -10q-3 -15 -9 -28q-4 -5 -7 -11q-27 -51 -59 -100q-98 -143 -208 -277q-234 -293 -485 -572q-53 -58 -105 -116q-228 -253 -459 -505q-130 -139 -262 -275
q-65 -66 -128 -133q-23 -23 -43 -48q-7 -11 -6 -23t7 -23q3 -5 8.5 -7.5t11 -3t8.5 2.5q13 13 25 26l42 44l113 113q103 103 206 207q251 256 495.5 518.5t475.5 537.5q90 107 176 216t166 223q39 57 73 116q13 25 21 52q14 46 -0.5 85t-46 64t-69.5 28q-13 1 -30 2
q-11 0 -27 1zM1832 1466v0v0q-1 6 -2 15q-2 24 -6 54q-4 41 -35 70q-9 7 -19 8t-18 -6q-86 -72 -172 -145q-3 -3 -5.5 -6t-3.5 -7q-4 -12 -1 -23q8 -23 26 -30t37 7q36 28 72 57q18 14 35 28q20 16 28 14t15 -25q16 -48 36 -95q1 -1 1 -2q5 -11 13 -20q2 -4 5 -7l1.5 -1.5
t0.5 -1v-1v-0.5v0.5v1v0.5l0.5 0.5l1 1t1.5 0.5h3q1 0 3.5 1.5t4.5 3.5t2 3q-8 37 -19 81q-3 11 -5 24z" />
    <glyph glyph-name="Idieresis" unicode="&#xcf;" horiz-adv-x="1432" 
d="M1656 1322v0v0q-12 -1 -27 -3q-36 -3 -76 -11q-102 -22 -203 -50q-186 -53 -368 -119t-360 -141q-95 -40 -188 -83.5t-182 -96.5q-51 -31 -100 -67q-21 -17 -39 -38l-1 -1q-22 -27 -13 -61q12 -47 54 -67q36 -17 76 -26q71 -14 143 -20.5t145 -9.5q84 -3 169 -2
q12 -1 24 -1q33 1 65 -1t64 -9q15 -3 31 -1q4 1 8 1q10 1 8 12q-3 17 -16 27q-24 16 -52 20q-88 17 -177 15q-84 0 -168.5 3t-169.5 13q-64 8 -126 23q-6 1 -10.5 5.5t-6.5 9.5q0 5 2.5 11t5.5 10q8 10 18 17q11 8 23 16q34 26 70 48q107 65 221 116q264 120 538 217
q121 44 244 82t249 68q47 11 94.5 18.5t96.5 5.5q18 -2 35 -7q2 0 4 -1q7 -2 11.5 -10.5t3.5 -15.5l-4 -10q-3 -15 -9 -28q-4 -5 -7 -11q-27 -51 -59 -100q-98 -143 -208 -277q-234 -293 -485 -572q-53 -58 -105 -116q-228 -253 -459 -505q-130 -139 -262 -275
q-65 -66 -128 -133q-23 -23 -43 -48q-7 -11 -6 -23t7 -23q3 -5 8.5 -7.5t11 -3t8.5 2.5q13 13 25 26l42 44l113 113q103 103 206 207q251 256 495.5 518.5t475.5 537.5q90 107 176 216t166 223q39 57 73 116q13 25 21 52q14 46 -0.5 85t-46 64t-69.5 28q-13 1 -30 2
q-11 0 -27 1zM1712 1411v0v0q1 1 4 2q8 3 18 11q9 9 16 22q1 2 2 3q15 24 -8 51q-15 20 -42 7l-8 -4q-11 -4 -20 -10q-5 -4 -8 -9t-4 -11q-4 -24 10 -45q10 -17 40 -17zM1892 1462v0v0q1 30 -26 44q-13 6 -23 1t-19 -14l-17 -17q-5 -6 -9 -13q-6 -21 8 -37q6 -7 13.5 -10.5
t14.5 -0.5q22 9 43 20q14 9 15 27z" />
    <glyph glyph-name="Eth" unicode="&#xd0;" horiz-adv-x="2020" 
d="M697 672q-41 -10 -61 -28q-9 -10 2.5 -19.5t33.5 -9.5l130 2q-30 -50 -64 -98q-19 -26 -34 -55q-16 -31 6 -60q9 -11 21 -12.5t20 8.5q4 5 7 10q19 24 34 50q31 55 69 105q19 26 40 52q118 -1 237 -5q18 0 34 4q8 1 14 4t8 7q1 2 -4 5.5t-12 5.5q-13 4 -37 9q-14 3 -33 7
q-28 3 -61 7q-48 5 -100 11q165 197 371 351q97 73 206 126q87 43 184 57q88 12 163 -18t125.5 -87.5t67.5 -129.5q16 -76 3 -152q-19 -100 -69 -188q-70 -124 -168 -227q-73 -78 -156 -145t-173 -127q-163 -109 -338 -195t-361 -151q-122 -43 -247 -72.5t-255 -39.5
q-73 -4 -144 6q-27 4 -52 15q-1 0 -2 1q-42 17 -25 58q15 29 34 55q37 48 87 83q59 43 121 80q308 181 654 269q132 34 269 52q66 9 132 14.5t133 4.5q5 0 10 1q3 1 6 1q7 2 10 10t-3 15v1q-10 13 -23 20q-19 7 -40 7q-28 -1 -56 -3l-24 -2l-38 -2q-41 -2 -83 -5
q-64 -6 -128 -16q-208 -32 -407 -97q-119 -39 -233.5 -88.5t-223.5 -112.5q-84 -48 -158 -111q-44 -37 -75 -84q-41 -67 -5 -138q19 -39 51.5 -60.5t73.5 -31.5q100 -23 201 -12q205 22 401 85q359 115 681 310q188 112 350 258q137 121 234 276q57 89 83 192q28 112 1 223
q-39 155 -166 251q-125 97 -280 74q-68 -10 -133 -35q-78 -32 -150 -77q-151 -94 -281 -217q-12 -11 -23 -22l-24 -22q-9 -8 -18 -15q-2 -2 -5 -2q-1 0 -2 -1q-1 2 -2 5t-2 5.5t0 4.5q32 86 67 172q24 64 35 132q8 50 -9 96q-23 65 -90 85q-32 10 -64 3q-71 -15 -169 -74.5
t-206.5 -148t-209.5 -188.5t-179 -195.5t-116 -170.5t-20 -112q6 -10 23.5 -16.5t35.5 -6.5t24 8q26 108 105.5 229t189.5 236t229 205.5t225 138.5q48 20 100 30q12 2 24 2q8 1 16 0q41 -6 39 -42q0 -35 -8 -68.5t-19 -65.5q-52 -149 -122 -290q-42 -87 -87 -172l-1 -1
q-74 5 -142 -11z" />
    <glyph glyph-name="Ntilde" unicode="&#xd1;" horiz-adv-x="2101" 
d="M1489 1288v0v0q-3 -1 -8 -1q-16 -2 -37 -6q-116 -20 -224 -65q-128 -51 -253 -107q-276 -124 -530 -291q-125 -81 -237 -180q-76 -67 -138 -147q-18 -22 -33 -45.5t-23 -51.5l-2 -6q-4 -13 -4 -25q4 -32 17.5 -58t42.5 -42q11 -5 23 -4q6 1 10.5 4t8.5 7q2 3 1 7.5
t-2 8.5q-3 9 -9.5 14.5t-14.5 9.5q-6 4 -11 8q-6 5 -8 13t0 16q16 42 44 76q69 90 155 164q111 94 233 174q203 132 421 237q177 88 362 158q117 45 242 62q2 0 5 1q9 1 19 1q11 -1 21 -4q1 -1 2 -1q8 -2 12.5 -9.5t3.5 -15.5q-4 -24 -15 -45.5t-24 -41.5q-62 -90 -128 -177
q-126 -157 -265 -304q-141 -153 -287 -300.5t-294 -293.5q-147 -146 -292 -294q-27 -28 -55 -56q-32 -34 -62 -70l-2 -2q-11 -14 -3 -30q0 -1 1 -2q6 -14 14 -26q7 -9 17.5 -11t18.5 4q1 2 3 3q8 6 15 13q163 151 340 284q435 336 898 630q132 84 265.5 163t270.5 151
q68 36 137.5 68t142.5 57q29 9 58 15q10 2 20 5q1 0 3 -1.5t3 -3.5q1 -1 1.5 -3t-0.5 -4q-8 -24 -23 -44t-32 -38l-8 -10q-80 -90 -161 -178q-9 -10 -18 -19q-41 -45 -83 -89q-71 -77 -141 -155q-97 -109 -179 -228.5t-152 -247.5q-8 -14 -14 -29q-5 -12 1 -26t19 -22
q2 -1 5 -1t5.5 0.5t4.5 2.5q30 43 59 86q108 166 236 317q95 110 194 216q40 44 81 87q96 100 186 205q29 34 55 69q19 27 32 56q13 26 9 55q-5 33 -30 56.5t-66 22.5q-61 -4 -117 -27q-147 -56 -286 -132q-338 -181 -657 -394q-138 -92 -275 -188q-72 -50 -144 -99
q-12 -8 -25 -14l-10 -4q-8 -4 -6 5q1 8 5 14t9 11q1 0 1 1q43 45 87 90q86 88 171 177q165 172 318 354q83 99 157 205q39 57 65 121q16 47 -5 91t-64 62q-28 12 -74 11zM2254 1087v0v0h10q17 1 38 4q21 4 41.5 11.5t38.5 22.5q7 6 2 14q-10 20 -21.5 26t-29.5 1
q-103 -28 -206 2q-28 8 -55 14q-24 5 -48 6q-40 1 -90.5 -18t-79.5 -45q-3 -2 -4 -6l-2 -8q0 -20 15.5 -32t32.5 -6q14 6 27 13q9 4 17 8q45 21 92 26.5t95 -13.5l14 -4q4 -1 9 -3q45 -14 104 -13z" />
    <glyph glyph-name="Ograve" unicode="&#xd2;" horiz-adv-x="1904" 
d="M1428 1357v0v0h3q58 -1 115.5 -5.5t113.5 -17.5q46 -11 89 -28t82 -42q38 -24 68 -57q51 -60 61 -138q16 -143 -31 -278q-35 -102 -89 -193.5t-123 -174.5q-102 -120 -223 -221q-247 -211 -536 -356q-170 -87 -354 -135q-149 -39 -303 -26q-61 5 -116 32
q-129 61 -134 203q-2 82 25 158q49 139 139 254q18 25 38 -2q59 -76 138 -116.5t171 -58.5q126 -26 245 -0.5t218.5 93t167.5 169.5q23 34 43 70q2 3 3 5q11 21 -13 42q-5 4 -12 4.5t-10 -3.5q-21 -29 -41 -59q-85 -127 -219 -199q-124 -66 -262 -70q-169 -5 -318 77
q-32 18 -58 43q-27 26 -36 40t-2 27t28 35q4 4 7 8q214 235 493 386q99 54 206 93q16 6 33 13q6 2 11 5q3 1 4.5 5t2 8.5t-1.5 7.5q-12 25 -38 25q-28 -2 -55 -11q-115 -38 -221 -97q-242 -133 -435 -330l-11 -11q-14 -15 -29 -29q-4 -4 -10 -7t-11 -3q-6 0 -7.5 5.5
t-1.5 10.5v2q0 49 11.5 95.5t31.5 91.5q50 116 135 209q210 230 500 346q173 69 357 94q55 7 111 8q25 1 50 3zM407 -383v0v0q131 2 237 29q192 50 368 142q205 105 389 243q169 125 314 278q105 112 181 246q88 151 117 324q17 113 -18 222q-31 94 -101 163
q-82 80 -191 117q-131 43 -269 46q-228 4 -445 -64q-179 -54 -334 -148.5t-283 -232.5q-92 -98 -147 -220q-54 -116 -43 -243q3 -27 9 -54q2 -9 4 -17q4 -17 -6 -31l-18 -24q-8 -10 -16 -21q-79 -107 -125 -233q-30 -80 -29 -166q4 -123 73 -213t187 -126q35 -10 68.5 -13
t61.5 -4h16zM1539 1550v0v0q-2 13 -4 27q-6 41 -13 88q-7 37 -36 60q-16 14 -37 15q-10 0 -17 -8.5t-4 -17.5q45 -94 77 -192q3 -8 9 -13q3 -2 7 -3.5t7 -1.5q3 1 5 4.5t3 6.5q2 7 2 19q0 6 1 16z" />
    <glyph glyph-name="Oacute" unicode="&#xd3;" horiz-adv-x="1904" 
d="M1428 1357v0v0h3q58 -1 115.5 -5.5t113.5 -17.5q46 -11 89 -28t82 -42q38 -24 68 -57q51 -60 61 -138q16 -143 -31 -278q-35 -102 -89 -193.5t-123 -174.5q-102 -120 -223 -221q-247 -211 -536 -356q-170 -87 -354 -135q-149 -39 -303 -26q-61 5 -116 32
q-129 61 -134 203q-2 82 25 158q49 139 139 254q18 25 38 -2q59 -76 138 -116.5t171 -58.5q126 -26 245 -0.5t218.5 93t167.5 169.5q23 34 43 70q2 3 3 5q11 21 -13 42q-5 4 -12 4.5t-10 -3.5q-21 -29 -41 -59q-85 -127 -219 -199q-124 -66 -262 -70q-169 -5 -318 77
q-32 18 -58 43q-27 26 -36 40t-2 27t28 35q4 4 7 8q214 235 493 386q99 54 206 93q16 6 33 13q6 2 11 5q3 1 4.5 5t2 8.5t-1.5 7.5q-12 25 -38 25q-28 -2 -55 -11q-115 -38 -221 -97q-242 -133 -435 -330l-11 -11q-14 -15 -29 -29q-4 -4 -10 -7t-11 -3q-6 0 -7.5 5.5
t-1.5 10.5v2q0 49 11.5 95.5t31.5 91.5q50 116 135 209q210 230 500 346q173 69 357 94q55 7 111 8q25 1 50 3zM407 -383v0v0q131 2 237 29q192 50 368 142q205 105 389 243q169 125 314 278q105 112 181 246q88 151 117 324q17 113 -18 222q-31 94 -101 163
q-82 80 -191 117q-131 43 -269 46q-228 4 -445 -64q-179 -54 -334 -148.5t-283 -232.5q-92 -98 -147 -220q-54 -116 -43 -243q3 -27 9 -54q2 -9 4 -17q4 -17 -6 -31l-18 -24q-8 -10 -16 -21q-79 -107 -125 -233q-30 -80 -29 -166q4 -123 73 -213t187 -126q35 -10 68.5 -13
t61.5 -4h16zM1739 1715v0v0q-6 22 -21.5 31t-31.5 -2q-71 -60 -141 -121q-15 -15 -26 -35q-3 -5 -7 -11q-16 -27 5 -52q7 -8 17.5 -10t17.5 5q2 1 4 3q4 4 7 8q17 24 38 44.5t43 38.5q5 5 10 9q13 11 26 23q21 17 41 35q9 8 15 19q2 4 2 10q0 2 1 5z" />
    <glyph glyph-name="Ocircumflex" unicode="&#xd4;" horiz-adv-x="1904" 
d="M1428 1357v0v0h3q58 -1 115.5 -5.5t113.5 -17.5q46 -11 89 -28t82 -42q38 -24 68 -57q51 -60 61 -138q16 -143 -31 -278q-35 -102 -89 -193.5t-123 -174.5q-102 -120 -223 -221q-247 -211 -536 -356q-170 -87 -354 -135q-149 -39 -303 -26q-61 5 -116 32
q-129 61 -134 203q-2 82 25 158q49 139 139 254q18 25 38 -2q59 -76 138 -116.5t171 -58.5q126 -26 245 -0.5t218.5 93t167.5 169.5q23 34 43 70q2 3 3 5q11 21 -13 42q-5 4 -12 4.5t-10 -3.5q-21 -29 -41 -59q-85 -127 -219 -199q-124 -66 -262 -70q-169 -5 -318 77
q-32 18 -58 43q-27 26 -36 40t-2 27t28 35q4 4 7 8q214 235 493 386q99 54 206 93q16 6 33 13q6 2 11 5q3 1 4.5 5t2 8.5t-1.5 7.5q-12 25 -38 25q-28 -2 -55 -11q-115 -38 -221 -97q-242 -133 -435 -330l-11 -11q-14 -15 -29 -29q-4 -4 -10 -7t-11 -3q-6 0 -7.5 5.5
t-1.5 10.5v2q0 49 11.5 95.5t31.5 91.5q50 116 135 209q210 230 500 346q173 69 357 94q55 7 111 8q25 1 50 3zM407 -383v0v0q131 2 237 29q192 50 368 142q205 105 389 243q169 125 314 278q105 112 181 246q88 151 117 324q17 113 -18 222q-31 94 -101 163
q-82 80 -191 117q-131 43 -269 46q-228 4 -445 -64q-179 -54 -334 -148.5t-283 -232.5q-92 -98 -147 -220q-54 -116 -43 -243q3 -27 9 -54q2 -9 4 -17q4 -17 -6 -31l-18 -24q-8 -10 -16 -21q-79 -107 -125 -233q-30 -80 -29 -166q4 -123 73 -213t187 -126q35 -10 68.5 -13
t61.5 -4h16zM1777 1601v0v0q-1 6 -2 15q-2 24 -6 54q-4 41 -35 70q-9 7 -19 8t-18 -6q-86 -72 -172 -145q-3 -3 -5.5 -6t-3.5 -7q-4 -12 -1 -23q8 -23 26 -30t37 7q36 28 72 57q18 14 35 28q20 16 28 14t15 -25q16 -48 36 -95q1 -1 1 -2q5 -11 13 -20q2 -4 5 -7l1.5 -1.5
t0.5 -1v-1v-0.5v0.5v1v0.5l0.5 0.5l1 1t1.5 0.5h3q1 0 3.5 1.5t4.5 3.5t2 3q-8 37 -19 81q-3 11 -5 24z" />
    <glyph glyph-name="Otilde" unicode="&#xd5;" horiz-adv-x="1904" 
d="M1428 1357v0v0h3q58 -1 115.5 -5.5t113.5 -17.5q46 -11 89 -28t82 -42q38 -24 68 -57q51 -60 61 -138q16 -143 -31 -278q-35 -102 -89 -193.5t-123 -174.5q-102 -120 -223 -221q-247 -211 -536 -356q-170 -87 -354 -135q-149 -39 -303 -26q-61 5 -116 32
q-129 61 -134 203q-2 82 25 158q49 139 139 254q18 25 38 -2q59 -76 138 -116.5t171 -58.5q126 -26 245 -0.5t218.5 93t167.5 169.5q23 34 43 70q2 3 3 5q11 21 -13 42q-5 4 -12 4.5t-10 -3.5q-21 -29 -41 -59q-85 -127 -219 -199q-124 -66 -262 -70q-169 -5 -318 77
q-32 18 -58 43q-27 26 -36 40t-2 27t28 35q4 4 7 8q214 235 493 386q99 54 206 93q16 6 33 13q6 2 11 5q3 1 4.5 5t2 8.5t-1.5 7.5q-12 25 -38 25q-28 -2 -55 -11q-115 -38 -221 -97q-242 -133 -435 -330l-11 -11q-14 -15 -29 -29q-4 -4 -10 -7t-11 -3q-6 0 -7.5 5.5
t-1.5 10.5v2q0 49 11.5 95.5t31.5 91.5q50 116 135 209q210 230 500 346q173 69 357 94q55 7 111 8q25 1 50 3zM407 -383v0v0q131 2 237 29q192 50 368 142q205 105 389 243q169 125 314 278q105 112 181 246q88 151 117 324q17 113 -18 222q-31 94 -101 163
q-82 80 -191 117q-131 43 -269 46q-228 4 -445 -64q-179 -54 -334 -148.5t-283 -232.5q-92 -98 -147 -220q-54 -116 -43 -243q3 -27 9 -54q2 -9 4 -17q4 -17 -6 -31l-18 -24q-8 -10 -16 -21q-79 -107 -125 -233q-30 -80 -29 -166q4 -123 73 -213t187 -126q35 -10 68.5 -13
t61.5 -4h16zM1770 1543v0v0h10q17 1 38 4q21 4 41.5 11.5t38.5 22.5q7 6 2 14q-10 20 -21.5 26t-29.5 1q-103 -28 -206 2q-28 8 -55 14q-24 5 -48 6q-40 1 -90.5 -18t-79.5 -45q-3 -2 -4 -6l-2 -8q0 -20 15.5 -32t32.5 -6q14 6 27 13q9 4 17 8q45 21 92 26.5t95 -13.5l14 -4
q4 -1 9 -3q45 -14 104 -13z" />
    <glyph glyph-name="Odieresis" unicode="&#xd6;" horiz-adv-x="1904" 
d="M1428 1357v0v0h3q58 -1 115.5 -5.5t113.5 -17.5q46 -11 89 -28t82 -42q38 -24 68 -57q51 -60 61 -138q16 -143 -31 -278q-35 -102 -89 -193.5t-123 -174.5q-102 -120 -223 -221q-247 -211 -536 -356q-170 -87 -354 -135q-149 -39 -303 -26q-61 5 -116 32
q-129 61 -134 203q-2 82 25 158q49 139 139 254q18 25 38 -2q59 -76 138 -116.5t171 -58.5q126 -26 245 -0.5t218.5 93t167.5 169.5q23 34 43 70q2 3 3 5q11 21 -13 42q-5 4 -12 4.5t-10 -3.5q-21 -29 -41 -59q-85 -127 -219 -199q-124 -66 -262 -70q-169 -5 -318 77
q-32 18 -58 43q-27 26 -36 40t-2 27t28 35q4 4 7 8q214 235 493 386q99 54 206 93q16 6 33 13q6 2 11 5q3 1 4.5 5t2 8.5t-1.5 7.5q-12 25 -38 25q-28 -2 -55 -11q-115 -38 -221 -97q-242 -133 -435 -330l-11 -11q-14 -15 -29 -29q-4 -4 -10 -7t-11 -3q-6 0 -7.5 5.5
t-1.5 10.5v2q0 49 11.5 95.5t31.5 91.5q50 116 135 209q210 230 500 346q173 69 357 94q55 7 111 8q25 1 50 3zM407 -383v0v0q131 2 237 29q192 50 368 142q205 105 389 243q169 125 314 278q105 112 181 246q88 151 117 324q17 113 -18 222q-31 94 -101 163
q-82 80 -191 117q-131 43 -269 46q-228 4 -445 -64q-179 -54 -334 -148.5t-283 -232.5q-92 -98 -147 -220q-54 -116 -43 -243q3 -27 9 -54q2 -9 4 -17q4 -17 -6 -31l-18 -24q-8 -10 -16 -21q-79 -107 -125 -233q-30 -80 -29 -166q4 -123 73 -213t187 -126q35 -10 68.5 -13
t61.5 -4h16zM1547 1509v0v0q1 1 4 2q8 3 18 11q9 9 16 22q1 2 2 3q15 24 -8 51q-15 20 -42 7l-8 -4q-11 -4 -20 -10q-5 -4 -8 -9t-4 -11q-4 -24 10 -45q10 -17 40 -17zM1727 1560v0v0q1 30 -26 44q-13 6 -23 1t-19 -14l-17 -17q-5 -6 -9 -13q-6 -21 8 -37q6 -7 13.5 -10.5
t14.5 -0.5q22 9 43 20q14 9 15 27z" />
    <glyph glyph-name="multiply" unicode="&#xd7;" horiz-adv-x="617" 
d="M517 322v0v0q-8 20 -21.5 27t-27.5 -1q-12 -8 -24 -15q-15 -10 -29 -20q-36 -25 -71 -50q-24 -17 -47 -34q-12 -9 -21.5 -8t-21.5 12q-23 22 -45 46q-5 6 -10 13q-4 6 -9 12q-9 9 -20 15q-2 1 -5.5 -0.5t-7.5 -3.5v0q-1 0 -1.5 -2.5t-0.5 -4.5q2 -16 10 -29t18 -24
q4 -4 7 -9q17 -21 33 -42q6 -7 11 -14q-5 -14 -14.5 -24t-20.5 -18q-10 -7 -19 -16q-12 -12 -25 -23q-11 -10 -22 -21q-14 -14 -26 -30q-7 -9 -4.5 -21.5t11.5 -22.5q8 -6 18.5 -7.5t18.5 4.5q29 21 57 44q23 19 45 37l36 30q13 12 28 -1l24 -18q38 -31 78 -61
q15 -11 31 -20q5 -3 9 -6h2.5t2.5 0.5t1 1.5q1 1 1 2q2 4 3 7t0 5q-7 15 -19 26q-21 19 -43 38l-18 14q-2 2 -5 4q-10 9 -19 17q-21 18 -22 29.5t20 27.5q47 39 95 76l18 14q7 6 15 12q12 8 23 17q1 2 1.5 4.5t0.5 5.5q1 3 1 5z" />
    <glyph glyph-name="Oslash" unicode="&#xd8;" horiz-adv-x="1904" 
d="M1428 1357v0v0h3q58 -1 115.5 -5.5t113.5 -17.5q46 -11 89 -28t82 -42q38 -24 68 -57q51 -60 61 -138q16 -143 -31 -278q-35 -102 -89 -193.5t-123 -174.5q-102 -120 -223 -221q-247 -211 -536 -356q-170 -87 -354 -135q-149 -39 -303 -26q-61 5 -116 32
q-129 61 -134 203q-2 82 25 158q49 139 139 254q18 25 38 -2q59 -76 138 -116.5t171 -58.5q126 -26 245 -0.5t218.5 93t167.5 169.5q23 34 43 70q2 3 3 5q11 21 -13 42q-5 4 -12 4.5t-10 -3.5q-21 -29 -41 -59q-85 -127 -219 -199q-124 -66 -262 -70q-169 -5 -318 77
q-32 18 -58 43q-27 26 -36 40t-2 27t28 35q4 4 7 8q214 235 493 386q99 54 206 93q16 6 33 13q6 2 11 5q3 1 4.5 5t2 8.5t-1.5 7.5q-12 25 -38 25q-28 -2 -55 -11q-115 -38 -221 -97q-242 -133 -435 -330l-11 -11q-14 -15 -29 -29q-4 -4 -10 -7t-11 -3q-6 0 -7.5 5.5
t-1.5 10.5v2q0 49 11.5 95.5t31.5 91.5q50 116 135 209q210 230 500 346q173 69 357 94q55 7 111 8q25 1 50 3zM407 -383v0v0q131 2 237 29q192 50 368 142q205 105 389 243q169 125 314 278q105 112 181 246q88 151 117 324q17 113 -18 222q-31 94 -101 163
q-82 80 -191 117q-131 43 -269 46q-228 4 -445 -64q-179 -54 -334 -148.5t-283 -232.5q-92 -98 -147 -220q-54 -116 -43 -243q3 -27 9 -54q2 -9 4 -17q4 -17 -6 -31l-18 -24q-8 -10 -16 -21q-79 -107 -125 -233q-30 -80 -29 -166q4 -123 73 -213t187 -126q35 -10 68.5 -13
t61.5 -4h16z" />
    <glyph glyph-name="Ugrave" unicode="&#xd9;" horiz-adv-x="1925" 
d="M245 -123v0v0q-17 -72 9 -147q39 -99 143 -96q70 3 134 28q79 30 155 68q125 65 243.5 142t232.5 161q292 217 555 467q27 25 54 48q9 7 12 -2l1 -1q0 -2 0.5 -3.5t0.5 -2.5q-1 -2 -2 -3q-8 -17 -18 -32q-222 -346 -419 -707l-6 -10q-9 -16 -17 -33q-6 -15 -7 -31
q-2 -12 3 -23q6 -10 17 -15q1 -1 3.5 0t5 3t3.5 4q15 25 29 50q20 34 41 68q177 289 365 570q76 114 153 228q52 77 104 153q24 37 46 76q6 11 6 23q-1 38 -31 62q-12 8 -23 1q-17 -10 -32 -24q-28 -28 -56 -57q-9 -9 -18 -17q-186 -191 -384 -369t-412 -337
q-208 -154 -433 -281q-94 -54 -196 -93q-53 -20 -109 -29q-41 -6 -80 6q-12 3 -19.5 13t-8.5 22v6q-1 13 0 26q9 73 37 140q63 149 154 283q126 187 273 359q48 57 96 113q73 85 144 170q49 60 94 122q7 10 14 19q29 39 41 87q13 50 -10.5 93t-77.5 54q-56 10 -113 4
q-112 -14 -218 -54q-119 -43 -226.5 -105.5t-206.5 -140.5q-86 -67 -159 -149q-64 -68 -104 -152q-24 -53 -26 -110q-2 -45 20 -85q4 -8 10 -12q3 -2 7 -3.5t7 0.5q3 1 5 5.5t1 7.5q-12 41 -4.5 79.5t27.5 74.5q43 79 105 143q67 71 143 131t158 112q167 108 358 161
q75 20 151 27q45 4 88 -8q11 -3 14.5 -11.5t-1.5 -19.5q-1 -3 -2 -5l-4 -10q-33 -60 -76 -114q-9 -10 -18 -21q-82 -97 -165 -194q-91 -105 -179 -212.5t-169 -221.5q-52 -74 -99 -151.5t-84 -160.5q-17 -37 -30.5 -75.5t-19.5 -81.5zM1756 1091v0v0q-2 13 -4 27
q-6 41 -13 88q-7 37 -36 60q-16 14 -37 15q-10 0 -17 -8.5t-4 -17.5q45 -94 77 -192q3 -8 9 -13q3 -2 7 -3.5t7 -1.5q3 1 5 4.5t3 6.5q2 7 2 19q0 6 1 16z" />
    <glyph glyph-name="Uacute" unicode="&#xda;" horiz-adv-x="1925" 
d="M245 -123v0v0q-17 -72 9 -147q39 -99 143 -96q70 3 134 28q79 30 155 68q125 65 243.5 142t232.5 161q292 217 555 467q27 25 54 48q9 7 12 -2l1 -1q0 -2 0.5 -3.5t0.5 -2.5q-1 -2 -2 -3q-8 -17 -18 -32q-222 -346 -419 -707l-6 -10q-9 -16 -17 -33q-6 -15 -7 -31
q-2 -12 3 -23q6 -10 17 -15q1 -1 3.5 0t5 3t3.5 4q15 25 29 50q20 34 41 68q177 289 365 570q76 114 153 228q52 77 104 153q24 37 46 76q6 11 6 23q-1 38 -31 62q-12 8 -23 1q-17 -10 -32 -24q-28 -28 -56 -57q-9 -9 -18 -17q-186 -191 -384 -369t-412 -337
q-208 -154 -433 -281q-94 -54 -196 -93q-53 -20 -109 -29q-41 -6 -80 6q-12 3 -19.5 13t-8.5 22v6q-1 13 0 26q9 73 37 140q63 149 154 283q126 187 273 359q48 57 96 113q73 85 144 170q49 60 94 122q7 10 14 19q29 39 41 87q13 50 -10.5 93t-77.5 54q-56 10 -113 4
q-112 -14 -218 -54q-119 -43 -226.5 -105.5t-206.5 -140.5q-86 -67 -159 -149q-64 -68 -104 -152q-24 -53 -26 -110q-2 -45 20 -85q4 -8 10 -12q3 -2 7 -3.5t7 0.5q3 1 5 5.5t1 7.5q-12 41 -4.5 79.5t27.5 74.5q43 79 105 143q67 71 143 131t158 112q167 108 358 161
q75 20 151 27q45 4 88 -8q11 -3 14.5 -11.5t-1.5 -19.5q-1 -3 -2 -5l-4 -10q-33 -60 -76 -114q-9 -10 -18 -21q-82 -97 -165 -194q-91 -105 -179 -212.5t-169 -221.5q-52 -74 -99 -151.5t-84 -160.5q-17 -37 -30.5 -75.5t-19.5 -81.5zM1952 1260v0v0q-6 22 -21.5 31
t-31.5 -2q-71 -60 -141 -121q-15 -15 -26 -35q-3 -5 -7 -11q-16 -27 5 -52q7 -8 17.5 -10t17.5 5q2 1 4 3q4 4 7 8q17 24 38 44.5t43 38.5q5 5 10 9q13 11 26 23q21 17 41 35q9 8 15 19q2 4 2 10q0 2 1 5z" />
    <glyph glyph-name="Ucircumflex" unicode="&#xdb;" horiz-adv-x="1925" 
d="M245 -123v0v0q-17 -72 9 -147q39 -99 143 -96q70 3 134 28q79 30 155 68q125 65 243.5 142t232.5 161q292 217 555 467q27 25 54 48q9 7 12 -2l1 -1q0 -2 0.5 -3.5t0.5 -2.5q-1 -2 -2 -3q-8 -17 -18 -32q-222 -346 -419 -707l-6 -10q-9 -16 -17 -33q-6 -15 -7 -31
q-2 -12 3 -23q6 -10 17 -15q1 -1 3.5 0t5 3t3.5 4q15 25 29 50q20 34 41 68q177 289 365 570q76 114 153 228q52 77 104 153q24 37 46 76q6 11 6 23q-1 38 -31 62q-12 8 -23 1q-17 -10 -32 -24q-28 -28 -56 -57q-9 -9 -18 -17q-186 -191 -384 -369t-412 -337
q-208 -154 -433 -281q-94 -54 -196 -93q-53 -20 -109 -29q-41 -6 -80 6q-12 3 -19.5 13t-8.5 22v6q-1 13 0 26q9 73 37 140q63 149 154 283q126 187 273 359q48 57 96 113q73 85 144 170q49 60 94 122q7 10 14 19q29 39 41 87q13 50 -10.5 93t-77.5 54q-56 10 -113 4
q-112 -14 -218 -54q-119 -43 -226.5 -105.5t-206.5 -140.5q-86 -67 -159 -149q-64 -68 -104 -152q-24 -53 -26 -110q-2 -45 20 -85q4 -8 10 -12q3 -2 7 -3.5t7 0.5q3 1 5 5.5t1 7.5q-12 41 -4.5 79.5t27.5 74.5q43 79 105 143q67 71 143 131t158 112q167 108 358 161
q75 20 151 27q45 4 88 -8q11 -3 14.5 -11.5t-1.5 -19.5q-1 -3 -2 -5l-4 -10q-33 -60 -76 -114q-9 -10 -18 -21q-82 -97 -165 -194q-91 -105 -179 -212.5t-169 -221.5q-52 -74 -99 -151.5t-84 -160.5q-17 -37 -30.5 -75.5t-19.5 -81.5zM1851 1135v0v0q-1 6 -2 15q-2 24 -6 54
q-4 41 -35 70q-9 7 -19 8t-18 -6q-86 -72 -172 -145q-3 -3 -5.5 -6t-3.5 -7q-4 -12 -1 -23q8 -23 26 -30t37 7q36 28 72 57q18 14 35 28q20 16 28 14t15 -25q16 -48 36 -95q1 -1 1 -2q5 -11 13 -20q2 -4 5 -7l1.5 -1.5t0.5 -1v-1v-0.5v0.5v1v0.5l0.5 0.5l1 1t1.5 0.5h3
q1 0 3.5 1.5t4.5 3.5t2 3q-8 37 -19 81q-3 11 -5 24z" />
    <glyph glyph-name="Udieresis" unicode="&#xdc;" horiz-adv-x="1925" 
d="M245 -123v0v0q-17 -72 9 -147q39 -99 143 -96q70 3 134 28q79 30 155 68q125 65 243.5 142t232.5 161q292 217 555 467q27 25 54 48q9 7 12 -2l1 -1q0 -2 0.5 -3.5t0.5 -2.5q-1 -2 -2 -3q-8 -17 -18 -32q-222 -346 -419 -707l-6 -10q-9 -16 -17 -33q-6 -15 -7 -31
q-2 -12 3 -23q6 -10 17 -15q1 -1 3.5 0t5 3t3.5 4q15 25 29 50q20 34 41 68q177 289 365 570q76 114 153 228q52 77 104 153q24 37 46 76q6 11 6 23q-1 38 -31 62q-12 8 -23 1q-17 -10 -32 -24q-28 -28 -56 -57q-9 -9 -18 -17q-186 -191 -384 -369t-412 -337
q-208 -154 -433 -281q-94 -54 -196 -93q-53 -20 -109 -29q-41 -6 -80 6q-12 3 -19.5 13t-8.5 22v6q-1 13 0 26q9 73 37 140q63 149 154 283q126 187 273 359q48 57 96 113q73 85 144 170q49 60 94 122q7 10 14 19q29 39 41 87q13 50 -10.5 93t-77.5 54q-56 10 -113 4
q-112 -14 -218 -54q-119 -43 -226.5 -105.5t-206.5 -140.5q-86 -67 -159 -149q-64 -68 -104 -152q-24 -53 -26 -110q-2 -45 20 -85q4 -8 10 -12q3 -2 7 -3.5t7 0.5q3 1 5 5.5t1 7.5q-12 41 -4.5 79.5t27.5 74.5q43 79 105 143q67 71 143 131t158 112q167 108 358 161
q75 20 151 27q45 4 88 -8q11 -3 14.5 -11.5t-1.5 -19.5q-1 -3 -2 -5l-4 -10q-33 -60 -76 -114q-9 -10 -18 -21q-82 -97 -165 -194q-91 -105 -179 -212.5t-169 -221.5q-52 -74 -99 -151.5t-84 -160.5q-17 -37 -30.5 -75.5t-19.5 -81.5zM1573 1010v0v0q1 1 4 2q8 3 18 11
q9 9 16 22q1 2 2 3q15 24 -8 51q-15 20 -42 7l-8 -4q-11 -4 -20 -10q-5 -4 -8 -9t-4 -11q-4 -24 10 -45q10 -17 40 -17zM1753 1061v0v0q1 30 -26 44q-13 6 -23 1t-19 -14l-17 -17q-5 -6 -9 -13q-6 -21 8 -37q6 -7 13.5 -10.5t14.5 -0.5q22 9 43 20q14 9 15 27z" />
    <glyph glyph-name="Yacute" unicode="&#xdd;" horiz-adv-x="2061" 
d="M251 -640v0v0q-23 2 -38.5 5.5t-26.5 11.5q-15 9 -17 26q-2 40 17 77t45 67t57 56q68 58 146 101q151 84 314 143q181 67 366 120q20 6 39 9q3 0 6 -1.5t6 -3.5q1 0 2 -1v-1.5t-0.5 -3t-0.5 -2.5q-1 -2 -2 -3q-5 -9 -12 -17q-91 -99 -189 -191t-207 -173
q-132 -100 -283 -167q-82 -37 -170 -49q-25 -2 -43 -3h-9zM10 506v0v0q-10 -71 19 -140q16 -43 54 -68q7 -4 13 -3.5t9 4.5q5 12 -2 23q-6 10 -15 18q-23 19 -31 43t-5 51q2 36 11 71q18 67 51 127q38 72 87 136q110 140 246 255q54 46 111 87.5t120 74.5q60 32 124 58
q13 5 29 5q5 1 10 1q6 0 10.5 -5t2.5 -11q-5 -11 -10 -23q-14 -33 -31 -64q-29 -53 -62 -104q-2 -4 -4 -7q-39 -62 -78 -125l-110 -176q-68 -110 -121 -227q-32 -75 -48 -154q-14 -74 18 -142q34 -76 118 -86q52 -6 104 5q87 20 168 57q95 44 187 94q184 99 356.5 213.5
t337.5 241.5q53 41 105 82q30 24 60 47q2 1 4 1.5t3 -0.5q1 0 1.5 -1.5t0.5 -3v-1.5q-8 -14 -17 -27q-25 -42 -52 -82q-217 -326 -469 -626q-36 -42 -88 -51l-8 -2q-8 -1 -15 -2q-148 -35 -292.5 -78.5t-284.5 -100.5q-143 -57 -274 -137q-80 -49 -145 -115
q-29 -29 -51 -62.5t-34 -72.5q-14 -47 -3.5 -88t41.5 -78q29 -34 75 -43q64 -13 128 -2q68 13 132 38q81 33 155.5 76.5t144.5 94.5q82 60 157.5 126.5t146.5 138.5q109 108 208 225q26 32 68 40l106 20q73 15 147 28q67 11 135 19l64 8q6 1 8.5 7t1.5 12q-5 13 -13 21.5
t-21 9.5q-28 3 -56 0l-212 -28q-38 -5 -75 -10q-2 0 -4 -1q-7 -1 -12 0q-7 2 -13 7q-1 1 -0.5 2t1 3t0.5 3q2 3 5 6q8 14 18 27q190 235 358 487q114 166 216 340q2 3 3 6q13 21 23 44q5 15 1 31t-14 29q-20 31 -47 9l-44 -38l-28 -26l-48 -42q-58 -51 -116 -101
q-219 -180 -455 -335q-235 -158 -489 -282q-79 -39 -164 -67q-54 -18 -110 -25q-36 -5 -71 9q-33 15 -34 50q0 61 21 118q42 118 106 226q61 104 126 206q22 36 45 72q63 96 119 197l36 70l4 8q16 33 18 70q4 57 -42 91q-20 15 -45 12q-53 -7 -100 -30q-10 -6 -20 -11
q-59 -28 -115 -62q-222 -142 -392 -345q-46 -54 -84 -113t-66 -125q-13 -31 -24 -64t-14 -69zM1709 1391v0v0q-6 22 -21.5 31t-31.5 -2q-71 -60 -141 -121q-15 -15 -26 -35q-3 -5 -7 -11q-16 -27 5 -52q7 -8 17.5 -10t17.5 5q2 1 4 3q4 4 7 8q17 24 38 44.5t43 38.5
q5 5 10 9q13 11 26 23q21 17 41 35q9 8 15 19q2 4 2 10q0 2 1 5z" />
    <glyph glyph-name="Ydieresis" unicode="&#x178;" horiz-adv-x="2061" 
d="M251 -640v0v0q-23 2 -38.5 5.5t-26.5 11.5q-15 9 -17 26q-2 40 17 77t45 67t57 56q68 58 146 101q151 84 314 143q181 67 366 120q20 6 39 9q3 0 6 -1.5t6 -3.5q1 0 2 -1v-1.5t-0.5 -3t-0.5 -2.5q-1 -2 -2 -3q-5 -9 -12 -17q-91 -99 -189 -191t-207 -173
q-132 -100 -283 -167q-82 -37 -170 -49q-25 -2 -43 -3h-9zM10 506v0v0q-10 -71 19 -140q16 -43 54 -68q7 -4 13 -3.5t9 4.5q5 12 -2 23q-6 10 -15 18q-23 19 -31 43t-5 51q2 36 11 71q18 67 51 127q38 72 87 136q110 140 246 255q54 46 111 87.5t120 74.5q60 32 124 58
q13 5 29 5q5 1 10 1q6 0 10.5 -5t2.5 -11q-5 -11 -10 -23q-14 -33 -31 -64q-29 -53 -62 -104q-2 -4 -4 -7q-39 -62 -78 -125l-110 -176q-68 -110 -121 -227q-32 -75 -48 -154q-14 -74 18 -142q34 -76 118 -86q52 -6 104 5q87 20 168 57q95 44 187 94q184 99 356.5 213.5
t337.5 241.5q53 41 105 82q30 24 60 47q2 1 4 1.5t3 -0.5q1 0 1.5 -1.5t0.5 -3v-1.5q-8 -14 -17 -27q-25 -42 -52 -82q-217 -326 -469 -626q-36 -42 -88 -51l-8 -2q-8 -1 -15 -2q-148 -35 -292.5 -78.5t-284.5 -100.5q-143 -57 -274 -137q-80 -49 -145 -115
q-29 -29 -51 -62.5t-34 -72.5q-14 -47 -3.5 -88t41.5 -78q29 -34 75 -43q64 -13 128 -2q68 13 132 38q81 33 155.5 76.5t144.5 94.5q82 60 157.5 126.5t146.5 138.5q109 108 208 225q26 32 68 40l106 20q73 15 147 28q67 11 135 19l64 8q6 1 8.5 7t1.5 12q-5 13 -13 21.5
t-21 9.5q-28 3 -56 0l-212 -28q-38 -5 -75 -10q-2 0 -4 -1q-7 -1 -12 0q-7 2 -13 7q-1 1 -0.5 2t1 3t0.5 3q2 3 5 6q8 14 18 27q190 235 358 487q114 166 216 340q2 3 3 6q13 21 23 44q5 15 1 31t-14 29q-20 31 -47 9l-44 -38l-28 -26l-48 -42q-58 -51 -116 -101
q-219 -180 -455 -335q-235 -158 -489 -282q-79 -39 -164 -67q-54 -18 -110 -25q-36 -5 -71 9q-33 15 -34 50q0 61 21 118q42 118 106 226q61 104 126 206q22 36 45 72q63 96 119 197l36 70l4 8q16 33 18 70q4 57 -42 91q-20 15 -45 12q-53 -7 -100 -30q-10 -6 -20 -11
q-59 -28 -115 -62q-222 -142 -392 -345q-46 -54 -84 -113t-66 -125q-13 -31 -24 -64t-14 -69zM1484 1146v0v0q1 1 4 2q8 3 18 11q9 9 16 22q1 2 2 3q15 24 -8 51q-15 20 -42 7l-8 -4q-11 -4 -20 -10q-5 -4 -8 -9t-4 -11q-4 -24 10 -45q10 -17 40 -17zM1664 1197v0v0
q1 30 -26 44q-13 6 -23 1t-19 -14l-17 -17q-5 -6 -9 -13q-6 -21 8 -37q6 -7 13.5 -10.5t14.5 -0.5q22 9 43 20q14 9 15 27z" />
    <glyph glyph-name="Thorn" unicode="&#xde;" horiz-adv-x="1285" 
d="M1175 621v0v0q-2 -3 -4 -7q-5 -11 -14 -25q-45 -58 -105 -101q-73 -55 -152 -97q-204 -108 -416 -165q-13 -4 -26 -4h-7q-1 0 -3 1t-2 3v1q-1 3 -1 6.5t1 6.5q14 18 29 34l328 342q0 1 1 1q15 17 32 31q14 11 31 16q20 7 41 9q16 1 33 3q53 7 106 8q32 1 62.5 -4
t55.5 -20q17 -9 10 -39zM954 745v0v0q-1 1 -2 1q-3 0 -6 1q-4 1 -5.5 4t2.5 8q49 55 99 109l10 12q15 16 30 33q28 30 56 62q29 35 1 63q-2 2 -6.5 2.5t-7.5 -0.5q-16 -9 -29 -22q-77 -78 -153 -157q-31 -32 -63 -65q-22 -24 -44 -47q-20 -21 -46 -27q-37 -7 -75 -17
q-109 -28 -213 -82q-25 -15 -17 -42q10 -24 37 -16q10 3 20 7q6 3 13 6q12 4 25 9l90 34q10 3 20 3h4t3.5 -1t2.5 -3v-3t-1 -3q-1 -3 -3 -5q-9 -13 -18 -24q-58 -62 -116 -123q-114 -122 -227 -244q-26 -28 -60 -36q-19 -4 -24.5 -12t-3.5 -29q0 -21 -15 -38
q-37 -44 -75 -87q-52 -60 -103 -120q-24 -28 -46 -56q-9 -13 -8 -24t8 -20q1 -3 5.5 -4t8.5 -1t7 2q3 4 7 7q10 9 19 19q43 47 85 94q43 48 86 95q21 23 42 45q23 24 45 49q30 35 75 42q157 24 315 79q133 44 260 114q99 56 183 135q41 38 67 85q17 31 15 63
q-3 46 -27.5 74.5t-65.5 42.5q-53 19 -116 15q-22 -2 -45 -5z" />
    <glyph glyph-name="germandbls" unicode="&#xdf;" horiz-adv-x="1365" 
d="M1145 464v0v0h17q20 1 40 0q8 -1 16 -4q3 -1 7 -2q5 -2 7.5 -8.5t0.5 -11.5q-13 -29 -33 -52.5t-43 -44.5q-2 -1 -4 -3q-85 -81 -184 -144q-173 -112 -361 -197q-129 -57 -264 -98q-23 -8 -45 -18l-14 -6q-5 -2 -6.5 -8.5t0.5 -12.5q12 -36 41 -25l86 24q202 54 392 144
q90 43 174 94.5t161 114.5q63 51 116 111q31 33 47 75q8 24 0 47q-27 76 -105 89q-48 8 -97 6q-121 -5 -239 -30l-8 -2l-24 -4q-8 -1 -16 -1q-1 0 -2.5 0.5t-3 1.5l-1.5 1q-1 4 -1 8t2 6q23 24 47 48q31 30 61 60q53 56 92 122q29 46 38 97q8 47 -4 87.5t-50 72.5
q-27 23 -60 16q-24 -4 -45 -15q-39 -21 -75 -47q-95 -69 -178 -152q-172 -169 -322.5 -355t-281.5 -388l-12 -20q-2 -4 -5 -8q-8 -14 -5.5 -27t11.5 -25q8 -10 17.5 -11.5t16.5 7.5q15 20 29 39q48 65 95 130q197 281 438 526q43 45 88 88.5t94 82.5q33 27 67 52t72 44
q2 0 3 1q8 4 17 7t19 1q3 -1 6.5 -3t5.5 -5q4 -11 4 -23q0 -31 -10.5 -59t-26.5 -54q-35 -59 -82 -110q-80 -86 -171 -159l-24 -20q-26 -21 -51 -42q-12 -10 -22 -23q-10 -15 -5 -31q8 -19 20 -35q14 -16 36 -12q11 2 21 6q5 2 10 3q124 37 250 61h5q53 10 105.5 17t105.5 6
z" />
    <glyph glyph-name="agrave" unicode="&#xe0;" horiz-adv-x="748" 
d="M373 -71v0v0q17 -1 34 3.5t33 9.5q1 0 2 1q17 6 62.5 29.5t101.5 56.5t107 68.5t79.5 65t18.5 46.5q-3 4 -12 5.5t-18 1t-13 -2.5q-22 -23 -72 -61.5t-132 -79t-198 -70.5q-6 -1 -10 3t-4 9q4 19 13 35.5t20 31.5q0 2 1 3q64 100 148 183q4 5 8 9q11 10 22 22q9 12 2 27
q-7 20 -25 33q-6 5 -13.5 5t-12.5 -4q-14 -11 -27 -23q-76 -70 -162 -123.5t-180 -94.5q-42 -18 -87 -30q-4 -1 -13.5 -2t-20 0t-16.5 4.5t-3 11.5q29 52 75.5 89.5t102.5 62.5t112 41q37 10 59.5 10.5t39.5 -2.5q16 -3 36 -3q4 2 7 11t-0.5 21t-19.5 23q-27 20 -59.5 25.5
t-66.5 -1.5q-89 -16 -163 -59t-134 -111q-19 -21 -32 -47q-13 -29 -6 -60t30 -53t56 -23q43 -2 84 11q65 22 125 53l42 18q2 1 4 1q1 1 2.5 0t3.5 -2q1 -1 2 -2.5t1 -2.5q-3 -10 -7 -21q-6 -16 -10 -33q-7 -29 5 -59t37 -47q18 -13 41 -13zM511 499v0v0q-2 13 -4 27
q-6 41 -13 88q-7 37 -36 60q-16 14 -37 15q-10 0 -17 -8.5t-4 -17.5q45 -94 77 -192q3 -8 9 -13q3 -2 7 -3.5t7 -1.5q3 1 5 4.5t3 6.5q2 7 2 19q0 6 1 16z" />
    <glyph glyph-name="aacute" unicode="&#xe1;" horiz-adv-x="748" 
d="M373 -71v0v0q17 -1 34 3.5t33 9.5q1 0 2 1q17 6 62.5 29.5t101.5 56.5t107 68.5t79.5 65t18.5 46.5q-3 4 -12 5.5t-18 1t-13 -2.5q-22 -23 -72 -61.5t-132 -79t-198 -70.5q-6 -1 -10 3t-4 9q4 19 13 35.5t20 31.5q0 2 1 3q64 100 148 183q4 5 8 9q11 10 22 22q9 12 2 27
q-7 20 -25 33q-6 5 -13.5 5t-12.5 -4q-14 -11 -27 -23q-76 -70 -162 -123.5t-180 -94.5q-42 -18 -87 -30q-4 -1 -13.5 -2t-20 0t-16.5 4.5t-3 11.5q29 52 75.5 89.5t102.5 62.5t112 41q37 10 59.5 10.5t39.5 -2.5q16 -3 36 -3q4 2 7 11t-0.5 21t-19.5 23q-27 20 -59.5 25.5
t-66.5 -1.5q-89 -16 -163 -59t-134 -111q-19 -21 -32 -47q-13 -29 -6 -60t30 -53t56 -23q43 -2 84 11q65 22 125 53l42 18q2 1 4 1q1 1 2.5 0t3.5 -2q1 -1 2 -2.5t1 -2.5q-3 -10 -7 -21q-6 -16 -10 -33q-7 -29 5 -59t37 -47q18 -13 41 -13zM655 638v0v0q-6 22 -21.5 31
t-31.5 -2q-71 -60 -141 -121q-15 -15 -26 -35q-3 -5 -7 -11q-16 -27 5 -52q7 -8 17.5 -10t17.5 5q2 1 4 3q4 4 7 8q17 24 38 44.5t43 38.5q5 5 10 9q13 11 26 23q21 17 41 35q9 8 15 19q2 4 2 10q0 2 1 5z" />
    <glyph glyph-name="acircumflex" unicode="&#xe2;" horiz-adv-x="748" 
d="M373 -71v0v0q17 -1 34 3.5t33 9.5q1 0 2 1q17 6 62.5 29.5t101.5 56.5t107 68.5t79.5 65t18.5 46.5q-3 4 -12 5.5t-18 1t-13 -2.5q-22 -23 -72 -61.5t-132 -79t-198 -70.5q-6 -1 -10 3t-4 9q4 19 13 35.5t20 31.5q0 2 1 3q64 100 148 183q4 5 8 9q11 10 22 22q9 12 2 27
q-7 20 -25 33q-6 5 -13.5 5t-12.5 -4q-14 -11 -27 -23q-76 -70 -162 -123.5t-180 -94.5q-42 -18 -87 -30q-4 -1 -13.5 -2t-20 0t-16.5 4.5t-3 11.5q29 52 75.5 89.5t102.5 62.5t112 41q37 10 59.5 10.5t39.5 -2.5q16 -3 36 -3q4 2 7 11t-0.5 21t-19.5 23q-27 20 -59.5 25.5
t-66.5 -1.5q-89 -16 -163 -59t-134 -111q-19 -21 -32 -47q-13 -29 -6 -60t30 -53t56 -23q43 -2 84 11q65 22 125 53l42 18q2 1 4 1q1 1 2.5 0t3.5 -2q1 -1 2 -2.5t1 -2.5q-3 -10 -7 -21q-6 -16 -10 -33q-7 -29 5 -59t37 -47q18 -13 41 -13zM605 558v0v0q-1 6 -2 15
q-2 24 -6 54q-4 41 -35 70q-9 7 -19 8t-18 -6q-86 -72 -172 -145q-3 -3 -5.5 -6t-3.5 -7q-4 -12 -1 -23q8 -23 26 -30t37 7q36 28 72 57q18 14 35 28q20 16 28 14t15 -25q16 -48 36 -95q1 -1 1 -2q5 -11 13 -20q2 -4 5 -7l1.5 -1.5t0.5 -1v-1v-0.5v0.5v1v0.5l0.5 0.5l1 1
t1.5 0.5h3q1 0 3.5 1.5t4.5 3.5t2 3q-8 37 -19 81q-3 11 -5 24z" />
    <glyph glyph-name="atilde" unicode="&#xe3;" horiz-adv-x="748" 
d="M373 -71v0v0q17 -1 34 3.5t33 9.5q1 0 2 1q17 6 62.5 29.5t101.5 56.5t107 68.5t79.5 65t18.5 46.5q-3 4 -12 5.5t-18 1t-13 -2.5q-22 -23 -72 -61.5t-132 -79t-198 -70.5q-6 -1 -10 3t-4 9q4 19 13 35.5t20 31.5q0 2 1 3q64 100 148 183q4 5 8 9q11 10 22 22q9 12 2 27
q-7 20 -25 33q-6 5 -13.5 5t-12.5 -4q-14 -11 -27 -23q-76 -70 -162 -123.5t-180 -94.5q-42 -18 -87 -30q-4 -1 -13.5 -2t-20 0t-16.5 4.5t-3 11.5q29 52 75.5 89.5t102.5 62.5t112 41q37 10 59.5 10.5t39.5 -2.5q16 -3 36 -3q4 2 7 11t-0.5 21t-19.5 23q-27 20 -59.5 25.5
t-66.5 -1.5q-89 -16 -163 -59t-134 -111q-19 -21 -32 -47q-13 -29 -6 -60t30 -53t56 -23q43 -2 84 11q65 22 125 53l42 18q2 1 4 1q1 1 2.5 0t3.5 -2q1 -1 2 -2.5t1 -2.5q-3 -10 -7 -21q-6 -16 -10 -33q-7 -29 5 -59t37 -47q18 -13 41 -13zM665 462v0v0h10q17 1 38 4
q21 4 41.5 11.5t38.5 22.5q7 6 2 14q-10 20 -21.5 26t-29.5 1q-103 -28 -206 2q-28 8 -55 14q-24 5 -48 6q-40 1 -90.5 -18t-79.5 -45q-3 -2 -4 -6l-2 -8q0 -20 15.5 -32t32.5 -6q14 6 27 13q9 4 17 8q45 21 92 26.5t95 -13.5l14 -4q4 -1 9 -3q45 -14 104 -13z" />
    <glyph glyph-name="adieresis" unicode="&#xe4;" horiz-adv-x="748" 
d="M373 -71v0v0q17 -1 34 3.5t33 9.5q1 0 2 1q17 6 62.5 29.5t101.5 56.5t107 68.5t79.5 65t18.5 46.5q-3 4 -12 5.5t-18 1t-13 -2.5q-22 -23 -72 -61.5t-132 -79t-198 -70.5q-6 -1 -10 3t-4 9q4 19 13 35.5t20 31.5q0 2 1 3q64 100 148 183q4 5 8 9q11 10 22 22q9 12 2 27
q-7 20 -25 33q-6 5 -13.5 5t-12.5 -4q-14 -11 -27 -23q-76 -70 -162 -123.5t-180 -94.5q-42 -18 -87 -30q-4 -1 -13.5 -2t-20 0t-16.5 4.5t-3 11.5q29 52 75.5 89.5t102.5 62.5t112 41q37 10 59.5 10.5t39.5 -2.5q16 -3 36 -3q4 2 7 11t-0.5 21t-19.5 23q-27 20 -59.5 25.5
t-66.5 -1.5q-89 -16 -163 -59t-134 -111q-19 -21 -32 -47q-13 -29 -6 -60t30 -53t56 -23q43 -2 84 11q65 22 125 53l42 18q2 1 4 1q1 1 2.5 0t3.5 -2q1 -1 2 -2.5t1 -2.5q-3 -10 -7 -21q-6 -16 -10 -33q-7 -29 5 -59t37 -47q18 -13 41 -13zM412 440v0v0q1 1 4 2q8 3 18 11
q9 9 16 22q1 2 2 3q15 24 -8 51q-15 20 -42 7l-8 -4q-11 -4 -20 -10q-5 -4 -8 -9t-4 -11q-4 -24 10 -45q10 -17 40 -17zM592 491v0v0q1 30 -26 44q-13 6 -23 1t-19 -14l-17 -17q-5 -6 -9 -13q-6 -21 8 -37q6 -7 13.5 -10.5t14.5 -0.5q22 9 43 20q14 9 15 27z" />
    <glyph glyph-name="aring" unicode="&#xe5;" horiz-adv-x="748" 
d="M373 -71v0v0q17 -1 34 3.5t33 9.5q1 0 2 1q17 6 62.5 29.5t101.5 56.5t107 68.5t79.5 65t18.5 46.5q-3 4 -12 5.5t-18 1t-13 -2.5q-22 -23 -72 -61.5t-132 -79t-198 -70.5q-6 -1 -10 3t-4 9q4 19 13 35.5t20 31.5q0 2 1 3q64 100 148 183q4 5 8 9q11 10 22 22q9 12 2 27
q-7 20 -25 33q-6 5 -13.5 5t-12.5 -4q-14 -11 -27 -23q-76 -70 -162 -123.5t-180 -94.5q-42 -18 -87 -30q-4 -1 -13.5 -2t-20 0t-16.5 4.5t-3 11.5q29 52 75.5 89.5t102.5 62.5t112 41q37 10 59.5 10.5t39.5 -2.5q16 -3 36 -3q4 2 7 11t-0.5 21t-19.5 23q-27 20 -59.5 25.5
t-66.5 -1.5q-89 -16 -163 -59t-134 -111q-19 -21 -32 -47q-13 -29 -6 -60t30 -53t56 -23q43 -2 84 11q65 22 125 53l42 18q2 1 4 1q1 1 2.5 0t3.5 -2q1 -1 2 -2.5t1 -2.5q-3 -10 -7 -21q-6 -16 -10 -33q-7 -29 5 -59t37 -47q18 -13 41 -13zM520 555v0v0v-2q0 -3 -1 -5
q-26 -52 -83 -52q-2 0 -4 1t-3 3v0q-1 3 -2 7t0 6q16 34 48 52q11 5 24 5q4 1 7 1q6 0 10.5 -5t3.5 -11zM456 428v0v0q46 0 78 23t46 65q4 11 3 24q-1 26 -19.5 50.5t-44.5 34.5q-16 5 -32 3q-27 -3 -54 -12q-20 -5 -35 -18q-36 -36 -36.5 -61.5t19.5 -60.5q3 -5 7 -10
q1 -1 2 -3q27 -34 66 -35z" />
    <glyph glyph-name="ae" unicode="&#xe6;" horiz-adv-x="748" 
d="M373 -71v0v0q17 -1 34 3.5t33 9.5q1 0 2 1q17 6 62.5 29.5t101.5 56.5t107 68.5t79.5 65t18.5 46.5q-3 4 -12 5.5t-18 1t-13 -2.5q-22 -23 -72 -61.5t-132 -79t-198 -70.5q-6 -1 -10 3t-4 9q4 19 13 35.5t20 31.5q0 2 1 3q64 100 148 183q4 5 8 9q11 10 22 22q9 12 2 27
q-7 20 -25 33q-6 5 -13.5 5t-12.5 -4q-14 -11 -27 -23q-76 -70 -162 -123.5t-180 -94.5q-42 -18 -87 -30q-4 -1 -13.5 -2t-20 0t-16.5 4.5t-3 11.5q29 52 75.5 89.5t102.5 62.5t112 41q37 10 59.5 10.5t39.5 -2.5q16 -3 36 -3q4 2 7 11t-0.5 21t-19.5 23q-27 20 -59.5 25.5
t-66.5 -1.5q-89 -16 -163 -59t-134 -111q-19 -21 -32 -47q-13 -29 -6 -60t30 -53t56 -23q43 -2 84 11q65 22 125 53l42 18q2 1 4 1q1 1 2.5 0t3.5 -2q1 -1 2 -2.5t1 -2.5q-3 -10 -7 -21q-6 -16 -10 -33q-7 -29 5 -59t37 -47q18 -13 41 -13z" />
    <glyph glyph-name="oe" unicode="&#x153;" horiz-adv-x="640" 
d="M300 226v0v0q-11 -30 -34 -52q-18 -16 -44 -1q-2 1 -2.5 3.5t-0.5 5t1 4.5q27 34 70 48q1 0 3 -0.5t3 -2.5q2 -1 3 -3q0 -1 1 -2zM173 264v0v0q1 -1 1 -3q0 -1 0.5 -2t0.5 -2q-5 -7 -9 -15q-6 -9 -12 -19q-12 -23 -2 -47q9 -22 23 -42q16 -23 15.5 -33t-19.5 -24
q-38 -30 -79.5 -54t-88.5 -37q-10 -2 -19 -3q-3 0 -5 -1q-9 0 -17 8.5t-7 18.5q8 48 35 88q28 40 60 75q25 27 51.5 51t57.5 43q4 2 8 2q2 -1 4 -3q1 -1 2 -1zM511 181.5q-75 -12.5 -136 -9.5q-5 1 -8 6t-2 11q1 8 3 15q4 21 6 41q0 22 -11.5 41.5t-32.5 29t-48 1.5l-16 -6
q-7 -3 -14 -5q-15 -6 -24 14q-1 2 -1 4q-1 2 -1 3q-9 20 -23.5 24.5t-29.5 -1.5q-27 -9 -51 -24q-104 -65 -173 -166q-22 -34 -36 -72q-26 -75 25 -136q37 -44 94 -32q51 12 97 38q85 48 152 118q17 18 42 20t78.5 9.5t117 23t109 39.5t72 55t-43.5 1t-145 -42.5z" />
    <glyph glyph-name="ccedilla" unicode="&#xe7;" horiz-adv-x="682" 
d="M153 -69q1 -39 -39 -47q-6 -1 -12 -1h-6v2q-3 -1 -6 0q-7 0 -45 23q-84 31 -55.5 -14.5t75.5 -51.5q69 1 114 51q31 35 3 66q122 21 251 77q152 66 266 149q37 28 36 44.5t-39 3.5q-43 -21 -95 -48q-87 -45 -186 -89t-198.5 -66t-188.5 -1q-34 8 -23 41q15 44 46 75
q61 67 133.5 115.5t161.5 72.5q55 15 112 6q6 -1 13 -2q5 -2 10 -3q3 0 6 3.5t4.5 8t0.5 7.5l-2 4q-4 9 -10 16q-26 28 -63 32q-57 7 -112 -6q-93 -25 -169.5 -74.5t-139.5 -120.5q-26 -31 -42 -69q-13 -31 -7 -63q16 -76 89 -106q20 -8 42 -10t46 -3h14q5 1 10 1
q3 -11 5 -23z" />
    <glyph glyph-name="egrave" unicode="&#xe8;" horiz-adv-x="615" 
d="M321 311q-4 -14 -30 -27.5t-57.5 -23t-54.5 -13t-22 1.5q0 7 23.5 19t55.5 24.5t57.5 18.5t27.5 0v0v0zM627 226q-9 -4 -25 -12t-32 -15q-17 -9 -26 -13q-203 -95 -423 -129q-44 -7 -88 -1q-16 2 -22.5 14t-0.5 28q0 1 1 3q0 2 1 4q16 32 39 56.5t52 44.5q3 2 6 1t6 -3
q3 -1 7 -3q25 -6 50 -4q102 8 188 65l6 6q18 19 12 44q-6 28 -26.5 45t-47.5 17q-32 0 -63 -9q-143 -41 -243 -151q-17 -18 -29 -39q-20 -39 -13.5 -79t34.5 -69.5t71 -35.5q84 -8 206 27.5t234.5 91t166.5 106.5q-2 14 -15 14.5t-26 -4.5v0v0zM405 452v0v0q-2 13 -4 27
q-6 41 -13 88q-7 37 -36 60q-16 14 -37 15q-10 0 -17 -8.5t-4 -17.5q45 -94 77 -192q3 -8 9 -13q3 -2 7 -3.5t7 -1.5q3 1 5 4.5t3 6.5q2 7 2 19q0 6 1 16z" />
    <glyph glyph-name="eacute" unicode="&#xe9;" horiz-adv-x="615" 
d="M509 621v0v0q-6 22 -21.5 31t-31.5 -2q-71 -60 -141 -121q-15 -15 -26 -35q-3 -5 -7 -11q-16 -27 5 -52q7 -8 17.5 -10t17.5 5q2 1 4 3q4 4 7 8q17 24 38 44.5t43 38.5q5 5 10 9q13 11 26 23q21 17 41 35q9 8 15 19q2 4 2 10q0 2 1 5zM321 311q-4 -14 -30 -27.5
t-57.5 -23t-54.5 -13t-22 1.5q0 7 23.5 19t55.5 24.5t57.5 18.5t27.5 0v0v0zM627 226q-9 -4 -25 -12t-32 -15q-17 -9 -26 -13q-203 -95 -423 -129q-44 -7 -88 -1q-16 2 -22.5 14t-0.5 28q0 1 1 3q0 2 1 4q16 32 39 56.5t52 44.5q3 2 6 1t6 -3q3 -1 7 -3q25 -6 50 -4
q102 8 188 65l6 6q18 19 12 44q-6 28 -26.5 45t-47.5 17q-32 0 -63 -9q-143 -41 -243 -151q-17 -18 -29 -39q-20 -39 -13.5 -79t34.5 -69.5t71 -35.5q84 -8 206 27.5t234.5 91t166.5 106.5q-2 14 -15 14.5t-26 -4.5v0v0z" />
    <glyph glyph-name="ecircumflex" unicode="&#xea;" horiz-adv-x="615" 
d="M459 470v0v0q-1 6 -2 15q-2 24 -6 54q-4 41 -35 70q-9 7 -19 8t-18 -6q-86 -72 -172 -145q-3 -3 -5.5 -6t-3.5 -7q-4 -12 -1 -23q8 -23 26 -30t37 7q36 28 72 57q18 14 35 28q20 16 28 14t15 -25q16 -48 36 -95q1 -1 1 -2q5 -11 13 -20q2 -4 5 -7l1.5 -1.5t0.5 -1v-1
v-0.5v0.5v1v0.5l0.5 0.5l1 1t1.5 0.5h3q1 0 3.5 1.5t4.5 3.5t2 3q-8 37 -19 81q-3 11 -5 24zM321 311q-4 -14 -30 -27.5t-57.5 -23t-54.5 -13t-22 1.5q0 7 23.5 19t55.5 24.5t57.5 18.5t27.5 0v0v0zM627 226q-9 -4 -25 -12t-32 -15q-17 -9 -26 -13q-203 -95 -423 -129
q-44 -7 -88 -1q-16 2 -22.5 14t-0.5 28q0 1 1 3q0 2 1 4q16 32 39 56.5t52 44.5q3 2 6 1t6 -3q3 -1 7 -3q25 -6 50 -4q102 8 188 65l6 6q18 19 12 44q-6 28 -26.5 45t-47.5 17q-32 0 -63 -9q-143 -41 -243 -151q-17 -18 -29 -39q-20 -39 -13.5 -79t34.5 -69.5t71 -35.5
q84 -8 206 27.5t234.5 91t166.5 106.5q-2 14 -15 14.5t-26 -4.5v0v0z" />
    <glyph glyph-name="edieresis" unicode="&#xeb;" horiz-adv-x="615" 
d="M229 434v0v0q1 1 4 2q8 3 18 11q9 9 16 22q1 2 2 3q15 24 -8 51q-15 20 -42 7l-8 -4q-11 -4 -20 -10q-5 -4 -8 -9t-4 -11q-4 -24 10 -45q10 -17 40 -17zM409 485v0v0q1 30 -26 44q-13 6 -23 1t-19 -14l-17 -17q-5 -6 -9 -13q-6 -21 8 -37q6 -7 13.5 -10.5t14.5 -0.5
q22 9 43 20q14 9 15 27zM321 311q-4 -14 -30 -27.5t-57.5 -23t-54.5 -13t-22 1.5q0 7 23.5 19t55.5 24.5t57.5 18.5t27.5 0v0v0zM627 226q-9 -4 -25 -12t-32 -15q-17 -9 -26 -13q-203 -95 -423 -129q-44 -7 -88 -1q-16 2 -22.5 14t-0.5 28q0 1 1 3q0 2 1 4q16 32 39 56.5
t52 44.5q3 2 6 1t6 -3q3 -1 7 -3q25 -6 50 -4q102 8 188 65l6 6q18 19 12 44q-6 28 -26.5 45t-47.5 17q-32 0 -63 -9q-143 -41 -243 -151q-17 -18 -29 -39q-20 -39 -13.5 -79t34.5 -69.5t71 -35.5q84 -8 206 27.5t234.5 91t166.5 106.5q-2 14 -15 14.5t-26 -4.5v0v0z" />
    <glyph glyph-name="igrave" unicode="&#xec;" horiz-adv-x="510" 
d="M5 -48v0v0q30 1 95 22t144.5 54.5t154 70.5t123 69.5t51.5 52.5q0 7 -7 8.5t-16 -0.5t-16 -4q-35 -16 -88 -42q-69 -34 -157 -73t-183 -67q-42 -12 -86 -22q-11 -2 -23 -2h-9q-6 0 -10 5t-3 10q12 34 31 62t41 54q3 3 5 6q66 81 140 155q26 28 -6 54q-7 5 -15.5 5.5
t-14.5 -3.5q-3 -2 -5 -4q-11 -7 -21 -15q-90 -82 -162 -179q-21 -29 -38 -62q-11 -21 -15 -45q-3 -26 6.5 -51t30.5 -42t53 -17zM309 452v0v0q-2 13 -4 27q-6 41 -13 88q-7 37 -36 60q-16 14 -37 15q-10 0 -17 -8.5t-4 -17.5q45 -94 77 -192q3 -8 9 -13q3 -2 7 -3.5t7 -1.5
q3 1 5 4.5t3 6.5q2 7 2 19q0 6 1 16z" />
    <glyph glyph-name="iacute" unicode="&#xed;" horiz-adv-x="510" 
d="M5 -48v0v0q30 1 95 22t144.5 54.5t154 70.5t123 69.5t51.5 52.5q0 7 -7 8.5t-16 -0.5t-16 -4q-35 -16 -88 -42q-69 -34 -157 -73t-183 -67q-42 -12 -86 -22q-11 -2 -23 -2h-9q-6 0 -10 5t-3 10q12 34 31 62t41 54q3 3 5 6q66 81 140 155q26 28 -6 54q-7 5 -15.5 5.5
t-14.5 -3.5q-3 -2 -5 -4q-11 -7 -21 -15q-90 -82 -162 -179q-21 -29 -38 -62q-11 -21 -15 -45q-3 -26 6.5 -51t30.5 -42t53 -17zM465 638v0v0q-6 22 -21.5 31t-31.5 -2q-71 -60 -141 -121q-15 -15 -26 -35q-3 -5 -7 -11q-16 -27 5 -52q7 -8 17.5 -10t17.5 5q2 1 4 3q4 4 7 8
q17 24 38 44.5t43 38.5q5 5 10 9q13 11 26 23q21 17 41 35q9 8 15 19q2 4 2 10q0 2 1 5z" />
    <glyph glyph-name="icircumflex" unicode="&#xee;" horiz-adv-x="510" 
d="M5 -48v0v0q30 1 95 22t144.5 54.5t154 70.5t123 69.5t51.5 52.5q0 7 -7 8.5t-16 -0.5t-16 -4q-35 -16 -88 -42q-69 -34 -157 -73t-183 -67q-42 -12 -86 -22q-11 -2 -23 -2h-9q-6 0 -10 5t-3 10q12 34 31 62t41 54q3 3 5 6q66 81 140 155q26 28 -6 54q-7 5 -15.5 5.5
t-14.5 -3.5q-3 -2 -5 -4q-11 -7 -21 -15q-90 -82 -162 -179q-21 -29 -38 -62q-11 -21 -15 -45q-3 -26 6.5 -51t30.5 -42t53 -17zM382 512v0v0q-1 6 -2 15q-2 24 -6 54q-4 41 -35 70q-9 7 -19 8t-18 -6q-86 -72 -172 -145q-3 -3 -5.5 -6t-3.5 -7q-4 -12 -1 -23q8 -23 26 -30
t37 7q36 28 72 57q18 14 35 28q20 16 28 14t15 -25q16 -48 36 -95q1 -1 1 -2q5 -11 13 -20q2 -4 5 -7l1.5 -1.5t0.5 -1v-1v-0.5v0.5v1v0.5l0.5 0.5l1 1t1.5 0.5h3q1 0 3.5 1.5t4.5 3.5t2 3q-8 37 -19 81q-3 11 -5 24z" />
    <glyph glyph-name="idieresis" unicode="&#xef;" horiz-adv-x="510" 
d="M5 -48v0v0q30 1 95 22t144.5 54.5t154 70.5t123 69.5t51.5 52.5q0 7 -7 8.5t-16 -0.5t-16 -4q-35 -16 -88 -42q-69 -34 -157 -73t-183 -67q-42 -12 -86 -22q-11 -2 -23 -2h-9q-6 0 -10 5t-3 10q12 34 31 62t41 54q3 3 5 6q66 81 140 155q26 28 -6 54q-7 5 -15.5 5.5
t-14.5 -3.5q-3 -2 -5 -4q-11 -7 -21 -15q-90 -82 -162 -179q-21 -29 -38 -62q-11 -21 -15 -45q-3 -26 6.5 -51t30.5 -42t53 -17zM152 429v0v0q1 1 4 2q8 3 18 11q9 9 16 22q1 2 2 3q15 24 -8 51q-15 20 -42 7l-8 -4q-11 -4 -20 -10q-5 -4 -8 -9t-4 -11q-4 -24 10 -45
q10 -17 40 -17zM332 480v0v0q1 30 -26 44q-13 6 -23 1t-19 -14l-17 -17q-5 -6 -9 -13q-6 -21 8 -37q6 -7 13.5 -10.5t14.5 -0.5q22 9 43 20q14 9 15 27z" />
    <glyph glyph-name="eth" unicode="&#xf0;" horiz-adv-x="375" 
d="M323 160v0v0q3 23 0.5 53t-16.5 58q-4 6 -11 10h-3h-4q-2 -1 -4 -3l-3 -3v-4q0 -18 1 -34q4 -44 -23 -87q-22 -35 -52 -63q-69 -63 -153 -91q-5 -2 -11 -4q-12 -5 -24 -7t-21 5q-10 10 -7 23.5t10 28.5q2 4 3 8q11 24 27 46q35 50 78 93.5t96 76.5q37 24 49 61
q23 61 16 119q0 7 4 12t10 8q23 13 48 24q14 7 28 13l44 20q3 2 5 6.5t2 7.5q-1 13 -9 21t-19 8q-1 0 -3 -1q-19 0 -38 -5q-37 -11 -74 -25q-32 -12 -50 9q-9 9 -20 16l-2 2q-4 2 -8 3l-6 2q-5 2 -11 -2t-8 -11q-3 -13 2 -22t13 -17q4 -5 3 -10.5t-6 -9.5q-9 -6 -18 -11
q-6 -4 -13 -9q-10 -7 -21 -13q-27 -18 -54 -37q-21 -15 -16 -36q8 -43 53 -18l18 10q10 7 21 13q31 17 63 33q4 1 7.5 -0.5t5.5 -4.5t1 -7q-1 -5 -2 -9q-4 -16 -10 -31q-7 -16 -17.5 -30t-28.5 -24q-19 -11 -37 -25q-105 -79 -164 -190q-34 -66 -18 -125q18 -79 109 -64
q1 0 2 1q12 1 23 5q46 16 88.5 40.5t79.5 60.5q27 27 45.5 59t29.5 77z" />
    <glyph glyph-name="ntilde" unicode="&#xf1;" horiz-adv-x="655" 
d="M409 143v0v0q7 31 -4 62q-13 38 -44.5 55.5t-68.5 7.5q-47 -13 -89 -38q-28 -16 -55 -33q-28 -17 -55 -34q-14 -8 -29 -14q-1 0 -3 1t-3 2q-1 0 -2 1.5t-1.5 2.5l-0.5 1q2 4 4 7q7 15 16 28q17 22 28.5 37.5t22.5 30.5l36 48q3 4 6 7q13 16 19.5 32.5t-8.5 36.5
q-7 8 -20.5 10.5t-20.5 -4.5l-10 -10t-4 -4.5t-2.5 -3.5l-4.5 -6q-3 -3 -7 -9q-110 -145 -218 -290q-22 -29 -40 -61q-22 -37 10 -73q6 -8 17.5 -10.5t18.5 2.5q4 3 8 5q29 20 57 43q125 102 264 184q47 31 102 46q4 1 8 1.5t8 0.5q3 -2 6.5 -4.5t3.5 -5.5q3 -12 0 -24
q-5 -17 -12 -33q-8 -21 -14 -43q-12 -36 10 -69q19 -29 48 -17q21 10 42 21q189 132 241 177.5t24 41t-73.5 -27.5t-107.5 -59t-89 -48q-5 -2 -10 2t-5 10t1 12v5zM590 349v0v0h8q14 1 30 4q18 4 34.5 11.5t30.5 22.5q6 6 2 14q-9 20 -18 26t-23 1q-83 -28 -166 2
q-22 8 -44 14q-19 5 -38 6q-32 1 -72.5 -18t-63.5 -45q-2 -2 -3 -6l-2 -8q0 -20 12.5 -32t26.5 -6q11 6 21 13l14 8q36 21 73.5 26.5t76.5 -13.5l10 -4q4 -1 8 -3q36 -14 83 -13z" />
    <glyph glyph-name="ograve" unicode="&#xf2;" horiz-adv-x="640" 
d="M300 226v0v0q-11 -30 -34 -52q-18 -16 -44 -1q-2 1 -2.5 3.5t-0.5 5t1 4.5q27 34 70 48q1 0 3 -0.5t3 -2.5q2 -1 3 -3q0 -1 1 -2zM173 264v0v0q1 -1 1 -3q0 -1 0.5 -2t0.5 -2q-5 -7 -9 -15q-6 -9 -12 -19q-12 -23 -2 -47q9 -22 23 -42q16 -23 15.5 -33t-19.5 -24
q-38 -30 -79.5 -54t-88.5 -37q-10 -2 -19 -3q-3 0 -5 -1q-9 0 -17 8.5t-7 18.5q8 48 35 88q28 40 60 75q25 27 51.5 51t57.5 43q4 2 8 2q2 -1 4 -3q1 -1 2 -1zM511 181.5q-75 -12.5 -136 -9.5q-5 1 -8 6t-2 11q1 8 3 15q4 21 6 41q0 22 -11.5 41.5t-32.5 29t-48 1.5l-16 -6
q-7 -3 -14 -5q-15 -6 -24 14q-1 2 -1 4q-1 2 -1 3q-9 20 -23.5 24.5t-29.5 -1.5q-27 -9 -51 -24q-104 -65 -173 -166q-22 -34 -36 -72q-26 -75 25 -136q37 -44 94 -32q51 12 97 38q85 48 152 118q17 18 42 20t78.5 9.5t117 23t109 39.5t72 55t-43.5 1t-145 -42.5zM343 452v0
v0q-2 13 -4 27q-6 41 -13 88q-7 37 -36 60q-16 14 -37 15q-10 0 -17 -8.5t-4 -17.5q45 -94 77 -192q3 -8 9 -13q3 -2 7 -3.5t7 -1.5q3 1 5 4.5t3 6.5q2 7 2 19q0 6 1 16z" />
    <glyph glyph-name="oacute" unicode="&#xf3;" horiz-adv-x="640" 
d="M300 226v0v0q-11 -30 -34 -52q-18 -16 -44 -1q-2 1 -2.5 3.5t-0.5 5t1 4.5q27 34 70 48q1 0 3 -0.5t3 -2.5q2 -1 3 -3q0 -1 1 -2zM173 264v0v0q1 -1 1 -3q0 -1 0.5 -2t0.5 -2q-5 -7 -9 -15q-6 -9 -12 -19q-12 -23 -2 -47q9 -22 23 -42q16 -23 15.5 -33t-19.5 -24
q-38 -30 -79.5 -54t-88.5 -37q-10 -2 -19 -3q-3 0 -5 -1q-9 0 -17 8.5t-7 18.5q8 48 35 88q28 40 60 75q25 27 51.5 51t57.5 43q4 2 8 2q2 -1 4 -3q1 -1 2 -1zM511 181.5q-75 -12.5 -136 -9.5q-5 1 -8 6t-2 11q1 8 3 15q4 21 6 41q0 22 -11.5 41.5t-32.5 29t-48 1.5l-16 -6
q-7 -3 -14 -5q-15 -6 -24 14q-1 2 -1 4q-1 2 -1 3q-9 20 -23.5 24.5t-29.5 -1.5q-27 -9 -51 -24q-104 -65 -173 -166q-22 -34 -36 -72q-26 -75 25 -136q37 -44 94 -32q51 12 97 38q85 48 152 118q17 18 42 20t78.5 9.5t117 23t109 39.5t72 55t-43.5 1t-145 -42.5zM514 620v0
v0q-6 22 -21.5 31t-31.5 -2q-71 -60 -141 -121q-15 -15 -26 -35q-3 -5 -7 -11q-16 -27 5 -52q7 -8 17.5 -10t17.5 5q2 1 4 3q4 4 7 8q17 24 38 44.5t43 38.5q5 5 10 9q13 11 26 23q21 17 41 35q9 8 15 19q2 4 2 10q0 2 1 5z" />
    <glyph glyph-name="ocircumflex" unicode="&#xf4;" horiz-adv-x="640" 
d="M300 226v0v0q-11 -30 -34 -52q-18 -16 -44 -1q-2 1 -2.5 3.5t-0.5 5t1 4.5q27 34 70 48q1 0 3 -0.5t3 -2.5q2 -1 3 -3q0 -1 1 -2zM173 264v0v0q1 -1 1 -3q0 -1 0.5 -2t0.5 -2q-5 -7 -9 -15q-6 -9 -12 -19q-12 -23 -2 -47q9 -22 23 -42q16 -23 15.5 -33t-19.5 -24
q-38 -30 -79.5 -54t-88.5 -37q-10 -2 -19 -3q-3 0 -5 -1q-9 0 -17 8.5t-7 18.5q8 48 35 88q28 40 60 75q25 27 51.5 51t57.5 43q4 2 8 2q2 -1 4 -3q1 -1 2 -1zM511 181.5q-75 -12.5 -136 -9.5q-5 1 -8 6t-2 11q1 8 3 15q4 21 6 41q0 22 -11.5 41.5t-32.5 29t-48 1.5l-16 -6
q-7 -3 -14 -5q-15 -6 -24 14q-1 2 -1 4q-1 2 -1 3q-9 20 -23.5 24.5t-29.5 -1.5q-27 -9 -51 -24q-104 -65 -173 -166q-22 -34 -36 -72q-26 -75 25 -136q37 -44 94 -32q51 12 97 38q85 48 152 118q17 18 42 20t78.5 9.5t117 23t109 39.5t72 55t-43.5 1t-145 -42.5zM412 496v0
v0q-1 6 -2 15q-2 24 -6 54q-4 41 -35 70q-9 7 -19 8t-18 -6q-86 -72 -172 -145q-3 -3 -5.5 -6t-3.5 -7q-4 -12 -1 -23q8 -23 26 -30t37 7q36 28 72 57q18 14 35 28q20 16 28 14t15 -25q16 -48 36 -95q1 -1 1 -2q5 -11 13 -20q2 -4 5 -7l1.5 -1.5t0.5 -1v-1v-0.5v0.5v1v0.5
l0.5 0.5l1 1t1.5 0.5h3q1 0 3.5 1.5t4.5 3.5t2 3q-8 37 -19 81q-3 11 -5 24z" />
    <glyph glyph-name="otilde" unicode="&#xf5;" horiz-adv-x="640" 
d="M300 226v0v0q-11 -30 -34 -52q-18 -16 -44 -1q-2 1 -2.5 3.5t-0.5 5t1 4.5q27 34 70 48q1 0 3 -0.5t3 -2.5q2 -1 3 -3q0 -1 1 -2zM173 264v0v0q1 -1 1 -3q0 -1 0.5 -2t0.5 -2q-5 -7 -9 -15q-6 -9 -12 -19q-12 -23 -2 -47q9 -22 23 -42q16 -23 15.5 -33t-19.5 -24
q-38 -30 -79.5 -54t-88.5 -37q-10 -2 -19 -3q-3 0 -5 -1q-9 0 -17 8.5t-7 18.5q8 48 35 88q28 40 60 75q25 27 51.5 51t57.5 43q4 2 8 2q2 -1 4 -3q1 -1 2 -1zM511 181.5q-75 -12.5 -136 -9.5q-5 1 -8 6t-2 11q1 8 3 15q4 21 6 41q0 22 -11.5 41.5t-32.5 29t-48 1.5l-16 -6
q-7 -3 -14 -5q-15 -6 -24 14q-1 2 -1 4q-1 2 -1 3q-9 20 -23.5 24.5t-29.5 -1.5q-27 -9 -51 -24q-104 -65 -173 -166q-22 -34 -36 -72q-26 -75 25 -136q37 -44 94 -32q51 12 97 38q85 48 152 118q17 18 42 20t78.5 9.5t117 23t109 39.5t72 55t-43.5 1t-145 -42.5zM418 411v0
v0h9q15 1 33 4q19 4 37 11.5t34 22.5q6 6 1 14q-9 20 -19 26t-25 1q-91 -28 -182 2q-23 8 -48 14q-20 5 -42 6q-34 1 -79 -18t-70 -45q-2 -2 -3 -6l-2 -8q0 -20 13.5 -32t28.5 -6q12 6 24 13q7 4 15 8q40 21 80.5 26.5t83.5 -13.5l12 -4q4 -1 8 -3q39 -14 91 -13z" />
    <glyph glyph-name="odieresis" unicode="&#xf6;" horiz-adv-x="640" 
d="M300 226v0v0q-11 -30 -34 -52q-18 -16 -44 -1q-2 1 -2.5 3.5t-0.5 5t1 4.5q27 34 70 48q1 0 3 -0.5t3 -2.5q2 -1 3 -3q0 -1 1 -2zM173 264v0v0q1 -1 1 -3q0 -1 0.5 -2t0.5 -2q-5 -7 -9 -15q-6 -9 -12 -19q-12 -23 -2 -47q9 -22 23 -42q16 -23 15.5 -33t-19.5 -24
q-38 -30 -79.5 -54t-88.5 -37q-10 -2 -19 -3q-3 0 -5 -1q-9 0 -17 8.5t-7 18.5q8 48 35 88q28 40 60 75q25 27 51.5 51t57.5 43q4 2 8 2q2 -1 4 -3q1 -1 2 -1zM511 181.5q-75 -12.5 -136 -9.5q-5 1 -8 6t-2 11q1 8 3 15q4 21 6 41q0 22 -11.5 41.5t-32.5 29t-48 1.5l-16 -6
q-7 -3 -14 -5q-15 -6 -24 14q-1 2 -1 4q-1 2 -1 3q-9 20 -23.5 24.5t-29.5 -1.5q-27 -9 -51 -24q-104 -65 -173 -166q-22 -34 -36 -72q-26 -75 25 -136q37 -44 94 -32q51 12 97 38q85 48 152 118q17 18 42 20t78.5 9.5t117 23t109 39.5t72 55t-43.5 1t-145 -42.5zM252 396v0
v0q1 1 4 2q8 3 18 11q9 9 16 22q1 2 2 3q15 24 -8 51q-15 20 -42 7l-8 -4q-11 -4 -20 -10q-5 -4 -8 -9t-4 -11q-4 -24 10 -45q10 -17 40 -17zM432 447v0v0q1 30 -26 44q-13 6 -23 1t-19 -14l-17 -17q-5 -6 -9 -13q-6 -21 8 -37q6 -7 13.5 -10.5t14.5 -0.5q22 9 43 20
q14 9 15 27z" />
    <glyph glyph-name="divide" unicode="&#xf7;" horiz-adv-x="688" 
d="M251 131v0v0q66 0 131.5 7.5t130.5 17.5q25 4 50 7q8 2 16 5q9 3 5 13q-10 30 -41 33q-24 1 -48 -2q-89 -11 -178 -14q-32 -1 -63 -3q-50 -4 -100 -10l-44 -4q-3 -1 -5.5 -4.5t-3.5 -8t1 -7.5q4 -9 11 -16.5t17 -8.5q44 -3 87 -4q17 0 34 -1zM275 -91v0v0h2h3t2 1
q11 8 22 17q39 32 76 65q12 11 10.5 27.5t-14.5 30.5q-8 7 -18.5 9t-18.5 -3q-55 -42 -88 -102q-4 -8 1 -21t15 -21q2 -1 5 -2q1 0 3 -1zM382 313v0v0h3h2.5h2.5l3 3q18 11 34.5 23.5t30.5 29.5q10 14 3 30q-8 20 -27 29q-3 1 -7.5 1.5t-7.5 -1.5q-20 -13 -35 -31.5
t-26 -40.5q-5 -9 0.5 -21.5t16.5 -19.5l4 -2h3z" />
    <glyph glyph-name="oslash" unicode="&#xf8;" horiz-adv-x="581" 
d="M248 235v0v0q-11 -76 -51 -131.5t-112 -88.5q-2 -1 -5 -1t-5 1q-12 5 -5 16q8 13 17 25q64 95 130 189q2 3 6.5 5t9.5 3q5 2 9 3q1 -5 3 -13q1 -4 3 -8zM70 -75v0v0q41 -4 77 14q32 16 59 38q64 56 89 124.5t1 153.5q-2 6 -4 13q-4 18 -10 35q-10 25 6 46q19 29 38 57
q38 54 74 110q25 37 45 77q7 15 -2.5 32t-26.5 23q-5 2 -10.5 1t-8.5 -3q-18 -18 -32 -38q-87 -123 -173 -246q-11 -18 -26 -28t-40 -4q-30 5 -56 -16q-59 -41 -91 -97.5t-29 -130.5q0 -20 3 -40q5 -36 -16 -66q-53 -81 -104 -162l-20 -32q-3 -4 -5 -7q-17 -26 -31 -53
q-13 -29 5 -57q8 -13 19.5 -14t19.5 10l52 78q46 70 92 139q3 4 5 7q13 23 32 40q9 7 18.5 6t19.5 -4q10 -4 20 -5q3 0 6 -1h4zM2 109v0v0q9 58 40 101t87 68q2 1 4 1t3 -1q10 -4 5 -12l-14 -20q-50 -73 -102 -145q-1 -3 -4.5 -4.5t-7.5 -2.5t-7 -2q-1 4 -3 10q0 3 -1 7z
" />
    <glyph glyph-name="ugrave" unicode="&#xf9;" horiz-adv-x="751" 
d="M-24 96v0v0q-1 -35 27 -68q21 -27 55 -29q37 -3 71 12q62 30 115 63q45 28 90 51q1 1 2.5 1t2 -1.5t-0.5 -6t-5 -13t-10 -22.5q-5 -10 -10 -18q-9 -15 -9.5 -26.5t15.5 -32.5q16 -22 42 -16q27 8 53 19q171 71 337 154q13 7 25 14q1 1 3 2q4 3 11 10.5t11 16t-1 12.5
t-25 -2q-41 -12 -110 -37.5t-130 -49t-79 -31.5h-2q-5 -3 -15 -6.5t-20 -6t-13.5 0t3.5 13.5q24 33 48 72q23 37 46 70q19 29 -3 60q-22 28 -48 8q-19 -15 -37 -31q-112 -94 -239 -163q-34 -18 -70 -33q-13 -5 -25 -11q-11 -5 -24 -5q-12 -1 -22 4q-6 4 -6 10t3 11q5 9 9 19
q14 31 33 59q48 75 116 133q0 1 1 1q10 7 15 16q2 5 2 11.5t-3 10.5q-24 43 -58 16q-104 -81 -159 -200q-12 -25 -12 -61zM431 452v0v0q-2 13 -4 27q-6 41 -13 88q-7 37 -36 60q-16 14 -37 15q-10 0 -17 -8.5t-4 -17.5q45 -94 77 -192q3 -8 9 -13q3 -2 7 -3.5t7 -1.5
q3 1 5 4.5t3 6.5q2 7 2 19q0 6 1 16z" />
    <glyph glyph-name="uacute" unicode="&#xfa;" horiz-adv-x="751" 
d="M-24 96v0v0q-1 -35 27 -68q21 -27 55 -29q37 -3 71 12q62 30 115 63q45 28 90 51q1 1 2.5 1t2 -1.5t-0.5 -6t-5 -13t-10 -22.5q-5 -10 -10 -18q-9 -15 -9.5 -26.5t15.5 -32.5q16 -22 42 -16q27 8 53 19q171 71 337 154q13 7 25 14q1 1 3 2q4 3 11 10.5t11 16t-1 12.5
t-25 -2q-41 -12 -110 -37.5t-130 -49t-79 -31.5h-2q-5 -3 -15 -6.5t-20 -6t-13.5 0t3.5 13.5q24 33 48 72q23 37 46 70q19 29 -3 60q-22 28 -48 8q-19 -15 -37 -31q-112 -94 -239 -163q-34 -18 -70 -33q-13 -5 -25 -11q-11 -5 -24 -5q-12 -1 -22 4q-6 4 -6 10t3 11q5 9 9 19
q14 31 33 59q48 75 116 133q0 1 1 1q10 7 15 16q2 5 2 11.5t-3 10.5q-24 43 -58 16q-104 -81 -159 -200q-12 -25 -12 -61zM553 602v0v0q-6 22 -21.5 31t-31.5 -2q-71 -60 -141 -121q-15 -15 -26 -35q-3 -5 -7 -11q-16 -27 5 -52q7 -8 17.5 -10t17.5 5q2 1 4 3q4 4 7 8
q17 24 38 44.5t43 38.5q5 5 10 9q13 11 26 23q21 17 41 35q9 8 15 19q2 4 2 10q0 2 1 5z" />
    <glyph glyph-name="ucircumflex" unicode="&#xfb;" horiz-adv-x="751" 
d="M-24 96v0v0q-1 -35 27 -68q21 -27 55 -29q37 -3 71 12q62 30 115 63q45 28 90 51q1 1 2.5 1t2 -1.5t-0.5 -6t-5 -13t-10 -22.5q-5 -10 -10 -18q-9 -15 -9.5 -26.5t15.5 -32.5q16 -22 42 -16q27 8 53 19q171 71 337 154q13 7 25 14q1 1 3 2q4 3 11 10.5t11 16t-1 12.5
t-25 -2q-41 -12 -110 -37.5t-130 -49t-79 -31.5h-2q-5 -3 -15 -6.5t-20 -6t-13.5 0t3.5 13.5q24 33 48 72q23 37 46 70q19 29 -3 60q-22 28 -48 8q-19 -15 -37 -31q-112 -94 -239 -163q-34 -18 -70 -33q-13 -5 -25 -11q-11 -5 -24 -5q-12 -1 -22 4q-6 4 -6 10t3 11q5 9 9 19
q14 31 33 59q48 75 116 133q0 1 1 1q10 7 15 16q2 5 2 11.5t-3 10.5q-24 43 -58 16q-104 -81 -159 -200q-12 -25 -12 -61zM533 478v0v0q-1 6 -2 15q-2 24 -6 54q-4 41 -35 70q-9 7 -19 8t-18 -6q-86 -72 -172 -145q-3 -3 -5.5 -6t-3.5 -7q-4 -12 -1 -23q8 -23 26 -30t37 7
q36 28 72 57q18 14 35 28q20 16 28 14t15 -25q16 -48 36 -95q1 -1 1 -2q5 -11 13 -20q2 -4 5 -7l1.5 -1.5t0.5 -1v-1v-0.5v0.5v1v0.5l0.5 0.5l1 1t1.5 0.5h3q1 0 3.5 1.5t4.5 3.5t2 3q-8 37 -19 81q-3 11 -5 24z" />
    <glyph glyph-name="udieresis" unicode="&#xfc;" horiz-adv-x="751" 
d="M-24 96v0v0q-1 -35 27 -68q21 -27 55 -29q37 -3 71 12q62 30 115 63q45 28 90 51q1 1 2.5 1t2 -1.5t-0.5 -6t-5 -13t-10 -22.5q-5 -10 -10 -18q-9 -15 -9.5 -26.5t15.5 -32.5q16 -22 42 -16q27 8 53 19q171 71 337 154q13 7 25 14q1 1 3 2q4 3 11 10.5t11 16t-1 12.5
t-25 -2q-41 -12 -110 -37.5t-130 -49t-79 -31.5h-2q-5 -3 -15 -6.5t-20 -6t-13.5 0t3.5 13.5q24 33 48 72q23 37 46 70q19 29 -3 60q-22 28 -48 8q-19 -15 -37 -31q-112 -94 -239 -163q-34 -18 -70 -33q-13 -5 -25 -11q-11 -5 -24 -5q-12 -1 -22 4q-6 4 -6 10t3 11q5 9 9 19
q14 31 33 59q48 75 116 133q0 1 1 1q10 7 15 16q2 5 2 11.5t-3 10.5q-24 43 -58 16q-104 -81 -159 -200q-12 -25 -12 -61zM358 419v0v0q1 1 4 2q8 3 18 11q9 9 16 22q1 2 2 3q15 24 -8 51q-15 20 -42 7l-8 -4q-11 -4 -20 -10q-5 -4 -8 -9t-4 -11q-4 -24 10 -45
q10 -17 40 -17zM538 470v0v0q1 30 -26 44q-13 6 -23 1t-19 -14l-17 -17q-5 -6 -9 -13q-6 -21 8 -37q6 -7 13.5 -10.5t14.5 -0.5q22 9 43 20q14 9 15 27z" />
    <glyph glyph-name="yacute" unicode="&#xfd;" horiz-adv-x="825" 
d="M66 -366v0v0q1 0 2 -2q1 -1 1.5 -2t0.5 -2v0q-1 -7 -4 -13q-70 -110 -159 -204q0 -1 -1 -1q-4 -5 -9.5 -8.5t-13.5 -1.5q-2 0 -3.5 1.5l-2.5 2.5l-1 1q0 4 1 8q1 11 6 20l10 14q39 56 81 109q26 31 55 58q12 11 23 22q6 6 14 -2zM290 71v0v0q2 1 6 0.5t7 -2.5
q2 -1 3 -3.5t1.5 -5t0.5 -4.5q-15 -31 -30 -63l-28 -60q-16 -32 -45 -54q-70 -54 -138 -111q-102 -83 -182 -186q-38 -51 -71 -105q-2 -3 -4 -7q-21 -33 -27 -75q-4 -40 27 -77q19 -22 41.5 -29.5t41.5 2.5q26 14 47 32q36 30 65 65q63 77 119 158q38 55 73.5 112.5
t65.5 118.5q33 68 96 110q133 91 273 172q90 51 179 102q20 12 40 23l24 16q5 4 3.5 12.5t-7.5 15.5q-16 12 -75 -11t-134 -61.5t-136 -73.5t-81 -46q-7 -4 -17 -6t-17.5 -1t-8.5 5q-1 6 -1.5 11.5t1.5 9.5q13 31 27 61q8 19 17 38q2 4 4 9q13 28 24 57q10 35 -29 66
q-23 17 -37 5q-25 -25 -48 -51q-90 -96 -210 -159q-43 -25 -98 -33q-9 -1 -19 7.5t-12 18.5q3 35 21 61.5t40 49.5q14 15 26 29.5t18 31.5q3 10 -7 22t-23 22q-6 3 -21.5 -3.5t-31 -15t-18.5 -12.5q-7 -7 -13 -14q-20 -20 -35 -42t-17 -52q-3 -61 43 -116q43 -51 99 -46
q48 5 86 25q23 13 45 26q28 15 57 31zM464 543v0v0q-6 22 -21.5 31t-31.5 -2q-71 -60 -141 -121q-15 -15 -26 -35q-3 -5 -7 -11q-16 -27 5 -52q7 -8 17.5 -10t17.5 5q2 1 4 3q4 4 7 8q17 24 38 44.5t43 38.5q5 5 10 9q13 11 26 23q21 17 41 35q9 8 15 19q2 4 2 10q0 2 1 5z
" />
    <glyph glyph-name="thorn" unicode="&#xfe;" horiz-adv-x="1010" 
d="M922 503v0v0q1 1 -1 -1.5t-6 -6t-9 -6.5q-11 -7 -23 -15q-45 -30 -92 -56q-134 -71 -274 -123q-5 -2 -11 0h-3q-5 1 -3.5 6.5t9.5 14.5q83 95 167 190q20 22 46 24q51 3 101 4t99 -4q7 -1 8.5 -7.5t-8.5 -19.5zM840 599v0v0v-1q-1 0 -1 -1h-11h-37q-27 2 -12 25
q13 15 26 29q2 3 4 5l48 54l114 132q30 36 58 74l8 12q16 22 16 47q0 16 -11 26q-4 3 -11 3t-11 -4q-2 -2 -5 -4q-5 -4 -8 -8q-102 -126 -212 -245q-54 -59 -106 -119q-33 -41 -82 -47q-45 -7 -90 -20q-13 -3 -26 -7q-11 -3 -16 -13t-2 -20q5 -10 13 -16q3 -2 7 -2.5t8 -0.5
h23q9 1 17 1q13 0 16.5 -8t-4.5 -18q-34 -39 -68 -77q-50 -58 -99 -115q-15 -18 -32.5 -32t-39.5 -22q-3 -1 -7 -4.5t-7 -7t-4 -6.5q0 -23 -12.5 -41t-28.5 -35q-2 -3 -5 -6q-53 -60 -107 -119l-100 -112q-19 -20 -35 -41q-13 -20 -5 -39q2 -7 10.5 -9.5t14.5 2.5l8 8
q20 17 39 36q148 156 295 312q23 25 52 34q10 2 19 5q12 2 23 6q146 41 288 106q86 39 165 93q30 21 57 46q36 36 25 76q-14 54 -72 62q-30 3 -61 5q-13 0 -26 1z" />
    <glyph glyph-name="ydieresis" unicode="&#xff;" horiz-adv-x="825" 
d="M66 -366v0v0q1 0 2 -2q1 -1 1.5 -2t0.5 -2v0q-1 -7 -4 -13q-70 -110 -159 -204q0 -1 -1 -1q-4 -5 -9.5 -8.5t-13.5 -1.5q-2 0 -3.5 1.5l-2.5 2.5l-1 1q0 4 1 8q1 11 6 20l10 14q39 56 81 109q26 31 55 58q12 11 23 22q6 6 14 -2zM290 71v0v0q2 1 6 0.5t7 -2.5
q2 -1 3 -3.5t1.5 -5t0.5 -4.5q-15 -31 -30 -63l-28 -60q-16 -32 -45 -54q-70 -54 -138 -111q-102 -83 -182 -186q-38 -51 -71 -105q-2 -3 -4 -7q-21 -33 -27 -75q-4 -40 27 -77q19 -22 41.5 -29.5t41.5 2.5q26 14 47 32q36 30 65 65q63 77 119 158q38 55 73.5 112.5
t65.5 118.5q33 68 96 110q133 91 273 172q90 51 179 102q20 12 40 23l24 16q5 4 3.5 12.5t-7.5 15.5q-16 12 -75 -11t-134 -61.5t-136 -73.5t-81 -46q-7 -4 -17 -6t-17.5 -1t-8.5 5q-1 6 -1.5 11.5t1.5 9.5q13 31 27 61q8 19 17 38q2 4 4 9q13 28 24 57q10 35 -29 66
q-23 17 -37 5q-25 -25 -48 -51q-90 -96 -210 -159q-43 -25 -98 -33q-9 -1 -19 7.5t-12 18.5q3 35 21 61.5t40 49.5q14 15 26 29.5t18 31.5q3 10 -7 22t-23 22q-6 3 -21.5 -3.5t-31 -15t-18.5 -12.5q-7 -7 -13 -14q-20 -20 -35 -42t-17 -52q-3 -61 43 -116q43 -51 99 -46
q48 5 86 25q23 13 45 26q28 15 57 31zM243 375v0v0q1 1 4 2q8 3 18 11q9 9 16 22q1 2 2 3q15 24 -8 51q-15 20 -42 7l-8 -4q-11 -4 -20 -10q-5 -4 -8 -9t-4 -11q-4 -24 10 -45q10 -17 40 -17zM423 426v0v0q1 30 -26 44q-13 6 -23 1t-19 -14l-17 -17q-5 -6 -9 -13
q-6 -21 8 -37q6 -7 13.5 -10.5t14.5 -0.5q22 9 43 20q14 9 15 27z" />
    <glyph glyph-name="dotlessi" unicode="&#x131;" horiz-adv-x="514" 
d="M328 223q0 -173 100 -173h46v-50h-442v50h46q100 0 100 173v432q0 77 -111 77h-48v44q222 69 261 182h48v-735z" />
    <glyph glyph-name="circumflex" unicode="&#x2c6;" horiz-adv-x="1024" 
d="M221 1079l232 355h118l232 -355h-58l-233 216l-233 -216h-58z" />
    <glyph glyph-name="caron" unicode="&#x2c7;" horiz-adv-x="1024" 
d="M221 1434h58l233 -214l233 214h58l-232 -356h-118z" />
    <glyph glyph-name="uni02C9" unicode="&#x2c9;" horiz-adv-x="1024" 
d="M254 1195v125h516v-125h-516z" />
    <glyph glyph-name="breve" unicode="&#x2d8;" horiz-adv-x="1024" 
d="M463 1152v0v0q6 2 12 3q14 3 26 8q31 14 52.5 37t38.5 51q4 7 1.5 16.5t-9.5 17.5t-15 9q-12 1 -23 -5q-18 -11 -35 -22q-26 -18 -53 -33q-45 -25 -63 24q-2 6 -4 11q-2 10 -7 19q-6 10 -15 18q-3 2 -7.5 2.5t-7.5 -0.5t-5.5 -4.5t-2.5 -6.5q5 -76 65 -124q9 -7 21 -12
q10 -3 21 -6q5 -2 10 -3z" />
    <glyph glyph-name="dotaccent" unicode="&#x2d9;" horiz-adv-x="1024" 
d="M422 1289l69 72q6 6 13 9t14 3q6 0 12.5 -3t12.5 -9l71 -76q5 -4 7 -10t2 -14q-1 -9 -3 -15t-8 -12l-71 -76q-12 -11 -16 -13.5t-7 -2.5q-10 0 -16.5 2.5t-10.5 8.5l-75 87q-4 4 -6 9.5t-2 13.5q0 6 3 12.5t11 13.5z" />
    <glyph glyph-name="ring" unicode="&#x2da;" horiz-adv-x="1024" 
d="M411 1257q0 -42 29 -71t71 -29t71 29t29 71q0 40 -29.5 69.5t-70.5 29.5t-70.5 -29.5t-29.5 -69.5zM335 1257q0 75 51 126t125 51q76 0 127.5 -51.5t51.5 -125.5q0 -75 -51.5 -126.5t-127.5 -51.5q-74 0 -125 51.5t-51 126.5z" />
    <glyph glyph-name="ogonek" unicode="&#x2db;" horiz-adv-x="1024" 
d="M155 -216v0v0h1q0 4 1 7q1 9 -1 17q-6 19 -16 35q-3 4 -9.5 6.5t-11.5 1.5q-3 -1 -6 -4.5t-5 -7.5q-2 -3 -4 -5q-1 -1 -1 -3v-5q-2 -89 61 -150q58 -56 132 -10q6 5 7.5 13t-3.5 16q-15 25 -39 21q-7 -2 -14 -3q-16 -4 -33 -5q-50 0 -59 52q-1 8 -1 16q1 4 1 8z" />
    <glyph glyph-name="tilde" unicode="&#x2dc;" horiz-adv-x="1024" 
d="M808 1382q-20 -103 -68.5 -154t-126.5 -51h-4q-50 0 -113 23q-66 24 -114 24q-39 0 -60.5 -20.5t-33.5 -71.5h-54q19 106 68 158.5t129 52.5q46 -1 113 -24q64 -23 112 -23h4q36 0 58 20t36 66h54z" />
    <glyph glyph-name="hungarumlaut" unicode="&#x2dd;" horiz-adv-x="1024" 
d="M217 1079l144 273q24 44 45.5 63t46.5 19q28 0 48 -20t20 -47q0 -16 -10.5 -35t-30.5 -41l-205 -212h-58zM502 1079l144 273q24 44 45.5 63t46.5 19q28 0 48 -20t20 -47q0 -16 -10.5 -35t-30.5 -41l-205 -212h-58z" />
    <glyph glyph-name="endash" unicode="&#x2013;" horiz-adv-x="1108" 
d="M56 419v120h996v-120h-996z" />
    <glyph glyph-name="emdash" unicode="&#x2014;" horiz-adv-x="2048" 
d="M0 419v120h2048v-120h-2048z" />
    <glyph glyph-name="quoteleft" unicode="&#x2018;" horiz-adv-x="507" 
d="M207 657q0 -38 12 -61.5t35 -38.5q21 -14 35 0q21 23 8 43q-4 5 -8 11q-6 7 -10 14q-16 28 -20 56t12 58q3 8 4 18v4t-1.5 3.5l-2.5 2.5q-2 1 -4.5 1t-3.5 -1q-24 -14 -36 -36t-17 -48q-2 -9 -2.5 -16.5t-0.5 -9.5v0v0v0z" />
    <glyph glyph-name="quoteright" unicode="&#x2019;" horiz-adv-x="456" 
d="M303 661q0 38 -12 61.5t-35 38.5q-21 14 -35 0q-21 -23 -8 -43q4 -5 8 -11q6 -7 10 -14q16 -28 20 -56t-12 -58q-3 -8 -4 -18v-4t1.5 -3.5l2.5 -2.5q2 -1 4.5 -1t3.5 1q24 14 36 36t17 48q2 9 2.5 16.5t0.5 9.5v0v0v0z" />
    <glyph glyph-name="quotesinglbase" unicode="&#x201a;" horiz-adv-x="467" 
d="M316 26.5q5 23.5 -7 38.5q-12 14 -36 0q-37 -23 -39 -43q0 -5 1 -11q-36 -98 -73 -128q-10 -8 -17 -18l-4 -4q-1 -2 -0.5 -3.5t1.5 -2.5t3 -1t4 1q71 -19 116.5 64.5t50.5 107z" />
    <glyph glyph-name="quotedblleft" unicode="&#x201c;" horiz-adv-x="507" 
d="M309 670q-1 -38 11 -61.5t35 -38.5q22 -14 36 0q20 23 8 43q-4 6 -8 11q-6 7 -11 15q-16 27 -19.5 55t11.5 58q4 8 4 18q0 2 1 4q0 2 -1.5 3.5t-3.5 2.5t-4 1.5t-4 -0.5q-23 -15 -35 -37t-18 -48q-1 -9 -1.5 -16t-0.5 -10v0v0v0zM211 667q-7 -37 1 -62.5t29 -43.5
q18 -18 35 -6q24 19 15 41q-3 6 -7 12l-8 16q-11 30 -10 58t21 55q5 8 7 17q1 3 1 5q0 1 -1 3t-2 3q-2 1 -4 1.5t-4 0.5q-26 -10 -41.5 -30t-24.5 -45q-3 -8 -4.5 -15.5t-2.5 -9.5v0v0v0z" />
    <glyph glyph-name="quotedblright" unicode="&#x201d;" horiz-adv-x="507" 
d="M303 661q0 38 -12 61.5t-35 38.5q-21 14 -35 0q-21 -23 -8 -43q4 -5 8 -11q6 -7 10 -14q16 -28 20 -56t-12 -58q-3 -8 -4 -18v-4t1.5 -3.5l2.5 -2.5q2 -1 4.5 -1t3.5 1q24 14 36 36t17 48q2 9 2.5 16.5t0.5 9.5v0v0v0zM401 665q6 37 -2 62t-28 44q-19 17 -35 6
q-24 -20 -15 -41q3 -7 6 -13q5 -8 8 -16q12 -29 11 -57.5t-21 -55.5q-5 -7 -7 -17l-2 -4q0 -2 1 -4t3 -3t4 -1.5t4 -0.5q25 11 40.5 30.5t25.5 44.5q3 8 4.5 15.5t1.5 9.5l1 1v0v0z" />
    <glyph glyph-name="quotedblbase" unicode="&#x201e;" horiz-adv-x="542" 
d="M316 26.5q5 23.5 -7 38.5q-12 14 -36 0q-37 -23 -39 -43q0 -5 1 -11q-36 -98 -73 -128q-10 -8 -17 -18l-4 -4q-1 -2 -0.5 -3.5t1.5 -2.5t3 -1t4 1q71 -19 116.5 64.5t50.5 107zM429 29.5q5 23.5 -7 38.5q-12 14 -36 0q-37 -23 -39 -43q0 -5 1 -11q-36 -98 -73 -128
q-10 -8 -17 -18l-4 -4q-1 -2 -0.5 -3.5t1.5 -2.5t3 -1t4 1q71 -19 116.5 64.5t50.5 107z" />
    <glyph glyph-name="dagger" unicode="&#x2020;" horiz-adv-x="1014" 
d="M486 1022q-8 97 -54 178q-57 101 -57 129q0 49 36 78.5t96 29.5q57 0 94.5 -27.5t37.5 -71.5q0 -32 -55 -137q-46 -85 -55 -179q96 8 177 54q101 57 129 57q49 0 79 -36t30 -96q0 -57 -27.5 -94.5t-72.5 -37.5q-32 0 -136 55q-85 46 -179 57q8 -176 110 -277
q-106 -460 -112 -974h-38q-6 514 -114 974q102 101 111 277q-96 -10 -178 -55q-101 -57 -129 -57q-49 0 -78.5 36t-29.5 96q0 57 27.5 94.5t71.5 37.5q32 0 137 -56q85 -46 179 -55z" />
    <glyph glyph-name="daggerdbl" unicode="&#x2021;" horiz-adv-x="1014" 
d="M528 186q94 11 179 57q104 55 136 55q45 0 72.5 -37.5t27.5 -94.5q0 -60 -30 -96t-79 -36q-28 0 -129 57q-81 46 -177 54q9 -94 55 -179q55 -105 55 -137q0 -44 -37.5 -71.5t-94.5 -27.5q-60 0 -96 29.5t-36 78.5q0 28 57 129q46 81 54 178q-94 -9 -179 -55
q-105 -56 -137 -56q-44 0 -71.5 37.5t-27.5 94.5q0 60 29.5 96t78.5 36q28 0 129 -57q82 -45 178 -55q-9 226 -111 398q102 171 111 397q-96 -10 -178 -55q-101 -57 -129 -57q-49 0 -78.5 36t-29.5 96q0 57 27.5 94.5t71.5 37.5q32 0 137 -56q85 -46 179 -55q-8 97 -54 178
q-57 101 -57 129q0 49 36 78.5t96 29.5q57 0 94.5 -27.5t37.5 -71.5q0 -32 -55 -137q-46 -85 -55 -179q96 8 177 54q101 57 129 57q49 0 79 -36t30 -96q0 -57 -27.5 -94.5t-72.5 -37.5q-32 0 -136 55q-85 46 -179 57q8 -226 110 -397q-102 -172 -110 -398z" />
    <glyph glyph-name="bullet" unicode="&#x2022;" horiz-adv-x="1024" 
d="M216 718q0 123 87 209t210 86q122 0 208.5 -86.5t86.5 -208.5t-87.5 -209.5t-209.5 -87.5q-123 0 -209 87t-86 210z" />
    <glyph glyph-name="ellipsis" unicode="&#x2026;" horiz-adv-x="805" 
d="M313 -7q19 30 10 40q-40 41 -80 6q-31 -33 10 -54.5t60 8.5zM512 -10q19 30 10 40q-40 41 -80 6q-31 -33 10 -54.5t60 8.5zM723 -10q19 30 10 40q-40 41 -80 6q-31 -33 10 -54.5t60 8.5z" />
    <glyph glyph-name="guilsinglleft" unicode="&#x2039;" horiz-adv-x="631" 
d="M174 479l342 303h14v-37l-205 -266l205 -266v-37h-14z" />
    <glyph glyph-name="guilsinglright" unicode="&#x203a;" horiz-adv-x="631" 
d="M115 176h-14v37l205 266l-205 266v37h14l342 -303z" />
    <glyph glyph-name="fraction" unicode="&#x2044;" horiz-adv-x="342" 
d="M-342 -29l940 1461h84l-938 -1461h-86z" />
    <glyph glyph-name="fraction" unicode="&#x2215;" horiz-adv-x="342" 
d="M-342 -29l940 1461h84l-938 -1461h-86z" />
    <glyph glyph-name="franc" unicode="&#x20a3;" 
 />
    <glyph glyph-name="lira" unicode="&#x20a4;" horiz-adv-x="789" 
d="M226 391v0v0v-1h-19h-45q-8 -1 -11 -9t0 -16q10 -20 30 -25q24 -7 49 -11q6 -1 13 -3q6 -1 8 -7t-2 -12q-47 -58 -100.5 -108.5t-126.5 -76.5q-8 -3 -14 -9q-4 -5 -6 -12q0 -1 -1 -2q-1 -4 -1 -8q4 -29 23.5 -44.5t50.5 -1.5q5 2 11 5q23 14 48 19q55 9 111.5 13.5
t112.5 -1.5q3 0 6 -1q109 -12 218 -23q11 0 22 5h1q2 1 1 7t-4 13t-7 9q-3 2 -7 5q-13 10 -27 15q-51 12 -103 21q-3 1 -7 2q-83 17 -168 19q-8 0 -16 2q-4 1 -8 1q-3 1 -6 4.5t-3.5 7.5t1.5 7l26 30q26 31 51 63q8 11 14 19q13 19 21 27.5t21 10.5t39 2h15q45 0 89 2l80 6
h8q7 2 10 10.5t-1 15.5q-13 23 -39 26q-22 1 -45 1q-14 0 -27 1q-44 1 -88 3q-6 0 -9 6t-1 12q6 17 13 34q5 13 11 26q6 16 23 19q12 3 24 4l34 4q39 4 78 10q2 0 5 1t5 3t2 3q1 12 -4 23q-9 15 -26 17q-28 1 -56 1q-42 -2 -49.5 8t6.5 50q1 7 3 13q2 5 3 11q1 5 3 9l2 6
q33 101 136 123q24 6 43.5 0.5t32.5 -29.5q4 -8 13 -13q2 -2 4 -3q1 -1 3.5 -0.5t4.5 1.5q6 5 10 11q1 2 1 4t-1 4q-16 48 -50.5 73t-81.5 22q-60 -4 -102 -33t-65 -86q-8 -24 -15 -49q-1 -2 -1 -5q-6 -18 -11 -37q-6 -24 -13 -48q-6 -21 -15 -28.5t-30 -8.5l-46 -2
q-33 -2 -66 -5q-9 -1 -17 -3q-3 -2 -6 -3t-5 -4.5t-3 -8t1 -7.5q3 -8 7.5 -14.5t12.5 -8.5q18 -4 36 -6h4q13 -1 27 -3q22 -1 45 -4q1 0 3 -2.5t3 -5t1 -4.5q-15 -50 -33.5 -65t-67.5 -13h-24z" />
    <glyph glyph-name="Euro" unicode="&#x20ac;" horiz-adv-x="760" 
d="M298 486v0v0v-1v-1q-4 -1 -9 -2l-38 -4q-2 0 -4.5 0.5t-3.5 1.5q-1 4 -1.5 7.5t0.5 6.5q22 35 35.5 50.5t28.5 20t42 6.5q6 0 13 1q24 2 48 7q11 2 22 8q7 5 3 14q-11 29 -42 32q-6 0 -13 1.5t-9 4.5q-2 7 1.5 13t9.5 11l2 2q81 81 183 130q31 16 63.5 25t68.5 5
q3 -1 6 2t4.5 7t0.5 8q-19 45 -67 51q-36 3 -71 -8q-62 -19 -118 -53q-96 -60 -171 -146q-9 -10 -17 -20q-15 -18 -30 -34q-12 -12 -28 -15q-30 -5 -60 -9q-26 -3 -51 -7q-27 -5 -54 -12q-4 -1 -9 -3q-7 -2 -8.5 -10.5t2.5 -16.5q11 -19 32 -21q25 -1 51 -1h37q11 -1 7 -12
q-4 -10 -9 -21l-4 -8q-18 -35 -58 -36q-32 -2 -64 -5q-10 -2 -14.5 -11.5t0.5 -19.5q3 -5 6.5 -10t8.5 -8q13 -6 28 -10l10 -2q11 -4 14.5 -8.5t0.5 -13.5q-5 -15 -9 -30q-12 -35 -20 -70q-9 -51 4.5 -96t46.5 -84q41 -49 104 -56q40 -4 81 -2q105 7 174 88q6 7 4.5 17
t-8.5 19q-6 6 -15 8.5t-14 -0.5q-10 -6 -19 -13q-17 -12 -36 -22q-109 -57 -225 -17q-39 13 -41 54q-3 45 10 88q21 61 52 117q18 34 58 37q52 6 104 17q8 2 15 3q23 5 45 14q2 1 3 3.5t1.5 5.5t-0.5 5q-7 26 -33 29q-20 1 -40 -1h-17z" />
    <glyph glyph-name="uni2116" unicode="&#x2116;" horiz-adv-x="2271" 
 />
    <glyph glyph-name="trademark" unicode="&#x2122;" horiz-adv-x="1497" 
 />
    <glyph glyph-name="minus" unicode="&#x2212;" 
 />
    <glyph glyph-name="lessequal" unicode="&#x2264;" horiz-adv-x="763" 
d="M614 83v0v0q5 2 8 3q7 2 11 3q2 2 2.5 6t-1 8.5t-4.5 7.5l-4 4q-9 10 -20 16q-16 7 -32 12q-7 2 -13 4l-56 20q-94 33 -187 67q-11 4 -21 11q-5 4 -9 10q0 1 -1 1q0 1 1 2t2.5 2t2.5 1q34 16 67 32q73 33 144 68q50 26 99 55l34 20q8 5 14 11q3 2 5 4q4 4 5.5 13.5
t-1.5 16.5q-7 17 -22 23.5t-30 0.5q-15 -7 -28 -14h-1q-91 -48 -183 -93t-188 -82q-21 -8 -27 -21t6 -36q12 -27 36 -42q18 -10 36 -18q67 -28 135 -53.5t138 -43.5q30 -7 58 -13q13 -3 24 -6zM297 25v0v0q-20 1 -36 3q-32 3 -58 4q-39 1 -79 -3q-5 -1 -10 -4.5t-9 -7.5h-1
q-4 -5 -2 -13.5t9 -15.5q10 -14 26 -16q19 -1 38 -3q49 -6 98 -7q81 -1 162 2q19 1 38 1q2 1 5 4t4 7q1 3 0.5 7t-2.5 8q-14 27 -45 28q-57 3 -106 5q-18 0 -32 1z" />
    <glyph glyph-name="greaterequal" unicode="&#x2265;" horiz-adv-x="813" 
d="M567 335v0v0q0 -1 -1 -2q0 -2 -0.5 -3t-1.5 -2q-6 -3 -12 -7q-21 -14 -43 -26q-117 -64 -228 -137q-20 -13 -39 -28q-15 -12 -4 -36q2 -4 4 -7v0q5 -8 12.5 -11.5t14.5 -0.5l52 26q56 29 113 56q127 62 247 135q14 8 25 19q4 5 5.5 11t1.5 11q-1 12 -7 23q-19 33 -59 36
q-84 9 -165.5 29t-158.5 57q-2 1 -4 1.5t-3 0.5q-2 -1 -4 -2.5t-2 -3.5v-5q-1 -10 2 -18q10 -18 26 -30t35 -20q59 -25 122 -40q27 -7 54 -16q7 -2 15 -5l1 -1t1 -2q1 -1 1 -2zM321 -4v0v0v4h-45q-62 0 -123 -1q-15 0 -30 -4q-4 -1 -9 -1q-7 -2 -10.5 -10.5t-0.5 -16.5
q5 -9 11.5 -16.5t16.5 -9.5q56 -8 112 -12q91 -3 181 6q54 5 107 7q2 0 5 1q1 0 3 1q7 1 9.5 9.5t-3.5 15.5q-5 6 -11 11t-13 8q-17 5 -37 4h-2q-59 2 -117 3q-22 0 -44 1z" />
    <glyph glyph-name="a.calt" unicode="&#xe104;" horiz-adv-x="1343" 
d="M366 -73v0v0q17 -1 33.5 3t32.5 10q1 0 2 1q18 6 100.5 28.5t200 50.5t240.5 51t222.5 30.5t145.5 -12.5q-10 35 -34.5 55t-72 25.5t-126.5 -2.5q-136 -15 -289 -50.5t-287 -71.5q-75 -20 -135 -34q-2 -1 -6 -2q-8 -3 -20 -5.5t-20.5 -1.5t-6.5 11q4 19 12.5 35.5
t18.5 32.5l2 2q63 101 145 185q4 5 9 9q11 11 21 22q9 12 2 27q-7 21 -25 34q-6 5 -13 5t-13 -4l-26 -24q-75 -70 -159.5 -124t-176.5 -95q-42 -18 -86 -30q-15 -4 -31 -3q-5 1 -11 1q-5 0 -8.5 5t-1.5 10q3 5 5 10q7 15 15 27q127 119 234.5 147.5t143.5 26.5
q3 -1 6.5 -1.5t6.5 0.5q2 1 4 4.5t2 6.5q-1 19 -16 30q-54 41 -119 29q-89 -16 -161.5 -59.5t-132.5 -111.5q-18 -22 -30 -48q-14 -29 -7 -60.5t29.5 -53.5t55.5 -23q43 -2 83 11q63 22 123 53q21 10 42 19q1 0 3 1q1 0 2.5 -0.5t3.5 -1.5q1 -1 2 -2.5t1 -2.5q-3 -11 -7 -22
q-5 -16 -10 -33q-7 -30 5 -60t37 -47q17 -13 40 -13z" />
    <glyph glyph-name="b.calt" unicode="&#xe105;" horiz-adv-x="1325" 
d="M341 521v0v0l-2 2q-3 1 -4 3t-1.5 3.5t0.5 3.5q1 1 2 3q4 10 11 18q26 30 53 61q80 92 163 183q88 95 193 171q48 36 103 59q3 1 7 0t6 -3t2 -6.5t-2 -7.5q0 -1 -1 -2q-16 -28 -36 -55q-72 -96 -162 -177q-148 -131 -310 -244q-7 -5 -15 -9q-4 -1 -7 -3zM356 196v0v0
q-22 -21 -80 -47.5t-125 -48.5t-118 -30.5t-60.5 5t48.5 58.5q69 53 143.5 92.5t156.5 62.5q40 11 80 6q7 -1 10.5 -9t-0.5 -15q-1 -3 -3 -6q-6 -12 -13 -23q-18 -25 -39 -45zM447 192v0v0l12 20q21 39 9 79q-23 75 -105 72q-57 -2 -113 -22q-19 -7 -37 -15q-17 -6 -33 -12
q-4 -1 -8 -0.5t-6 2.5t-2 6t2 7l9 6q34 23 129 86.5t193 132t140 105.5q54 48 130 120.5t119 129.5q29 38 47 81q17 40 -1 77q-22 49 -76 37q-32 -9 -63 -24q-79 -43 -147 -103q-104 -90 -195 -194q-238 -265 -451 -550q-114 -155 -214 -318q-18 -29 -33 -60q-4 -9 0.5 -22
t12.5 -19q3 -2 8 -1.5t7 2.5q14 10 24 24q24 35 48 69l44 64q16 24 28 29.5t34 -2.5q25 -8 51.5 -11t52.5 -4q1 0 2 -1q35 1 67.5 5t64.5 16q104 38 186 113q85 23 218 49t278 46t264 25.5t175 -11.5q7 30 -18 55t-103 33t-227 -13q-200 -30 -523 -109z" />
    <glyph glyph-name="c.calt" unicode="&#xe106;" horiz-adv-x="1553" 
d="M137 -48v0v0q145 16 289.5 52t287.5 78q144 43 285.5 78t279.5 49t271 -7q3 18 -20.5 39.5t-62.5 37t-81 17.5q-130 0 -287.5 -32t-306.5 -76.5t-255 -79.5q-59 -19 -96 -30h-1q-17 -6 -69 -20t-118 -28.5t-127 -19.5t-96.5 7.5t-25.5 51.5q15 44 46 75
q61 67 133.5 115.5t161.5 72.5q55 15 112 6l12 -2q6 -2 11 -3q3 0 6 3.5t4.5 8t0.5 7.5l-2 4q-4 9 -10 16q-26 28 -63 32q-57 7 -112 -7q-93 -24 -169.5 -73.5t-139.5 -121.5q-26 -30 -42 -68q-13 -31 -7 -63q16 -76 89 -106q20 -8 42 -10t46 -3h14z" />
    </font>
</defs>
</svg>
