<?xml version="1.0" standalone="no"?>
<!DOCTYPE svg PUBLIC "-//W3C//DTD SVG 1.1//EN" "http://www.w3.org/Graphics/SVG/1.1/DTD/svg11.dtd" >
<svg xmlns="http://www.w3.org/2000/svg" xmlns:xlink="http://www.w3.org/1999/xlink" version="1.1">
<metadata></metadata>
<defs>
<font id="alternate_gothic_cond_atfbook" horiz-adv-x="508" >
<font-face units-per-em="1000" ascent="750" descent="-250" />
<missing-glyph horiz-adv-x="132" />
<glyph unicode="&#xfb01;" horiz-adv-x="366" d="M11 481v49h59v79q0 110 97 110q28 0 48 -5v-50q-20 4 -38 4q-50 0 -50 -64v-74h88v-49h-88v-408l1 -73h-59l1 73v408h-59zM259 0l1 73v384l-1 73h59l-1 -73v-384l1 -73h-59zM260 618v97h57v-97h-57z" />
<glyph unicode="&#xfb02;" horiz-adv-x="367" d="M11 481v49h59v79q0 110 97 110q28 0 48 -5v-50q-20 4 -38 4q-50 0 -50 -64v-74h88v-49h-88v-408l1 -73h-59l1 73v408h-59zM260 0l1 73v569l-1 73h59l-1 -73v-569l1 -73h-59z" />
<glyph unicode="&#xfb03;" horiz-adv-x="552" d="M11 481v49h59v79q0 110 97 110q28 0 48 -5v-50q-20 4 -38 4q-50 0 -50 -64v-74h129v79q0 110 97 110q28 0 48 -5v-50q-20 4 -38 4q-50 0 -50 -64v-74h88v-49h-88v-408l1 -73h-59l1 73v408h-129v-408l1 -73h-59l1 73v408h-59zM445 0l1 73v384l-1 73h59l-1 -73v-384l1 -73 h-59zM446 618v97h57v-97h-57z" />
<glyph unicode="&#xfb04;" horiz-adv-x="553" d="M11 481v49h59v79q0 110 97 110q28 0 48 -5v-50q-20 4 -38 4q-50 0 -50 -64v-74h129v79q0 110 97 110q28 0 48 -5v-50q-20 4 -38 4q-50 0 -50 -64v-74h88v-49h-88v-408l1 -73h-59l1 73v408h-129v-408l1 -73h-59l1 73v408h-59zM446 0l1 73v569l-1 73h59l-1 -73v-569l1 -73 h-59z" />
<glyph horiz-adv-x="0" />
<glyph horiz-adv-x="333" />
<glyph horiz-adv-x="0" />
<glyph horiz-adv-x="0" />
<glyph unicode="&#xd;" horiz-adv-x="333" />
<glyph unicode=" "  horiz-adv-x="132" />
<glyph unicode="&#x09;" horiz-adv-x="132" />
<glyph unicode="&#xa0;" horiz-adv-x="132" />
<glyph unicode="!" horiz-adv-x="161" d="M48 715h65l-12 -504h-41zM51 0v115h59v-115h-59z" />
<glyph unicode="&#x22;" horiz-adv-x="260" d="M32 474l35 241h60l-63 -241h-32zM145 474l35 241h60l-62 -241h-33z" />
<glyph unicode="#" horiz-adv-x="462" d="M24 206v50h81l38 204h-79v50h88l38 205h44l-38 -205h126l38 205h44l-38 -205h72v-50h-81l-38 -204h79v-50h-89l-38 -206h-43l38 206h-126l-37 -206h-44l37 206h-72zM149 256h126l38 204h-126z" />
<glyph unicode="$" horiz-adv-x="340" d="M26 202l59 7q6 -129 85 -129q35 0 56 23.5t21 67.5q0 68 -64 132l-68 71q-77 77 -77 168q0 61 31 99.5t80 45.5v62h45v-62q100 -16 110 -160l-58 -6q-2 51 -21 81.5t-54 30.5q-32 0 -52.5 -23.5t-20.5 -65.5q0 -61 65 -128l67 -70q78 -77 78 -173q0 -63 -30.5 -101.5 t-83.5 -46.5v-95h-45v95q-112 16 -123 177z" />
<glyph unicode="%" horiz-adv-x="599" d="M28 471v109q0 90 34 118q29 24 74 24q47 0 74 -24q34 -28 34 -118v-109q0 -89 -34 -119q-26 -23 -74 -23q-46 0 -74 23q-34 30 -34 119zM84 461q0 -21 1 -32t5.5 -26t15.5 -22t30 -7q15 0 25.5 5.5t15.5 12.5t7.5 21t3 22t0.5 26v129q0 18 -0.5 26t-3 22t-7.5 21 t-15.5 12.5t-25.5 5.5q-19 0 -30 -7t-15.5 -22t-5.5 -26t-1 -32v-129zM162 0l225 715h49l-225 -715h-49zM355 135v109q0 90 34 118q29 24 74 24q47 0 74 -24q34 -28 34 -118v-109q0 -89 -34 -119q-26 -23 -74 -23q-46 0 -74 23q-34 30 -34 119zM411 125q0 -21 1 -32t5.5 -26 t15.5 -22t30 -7q15 0 25.5 5.5t15.5 12.5t7.5 21t3 22t0.5 26v129q0 18 -0.5 26t-3 22t-7.5 21t-15.5 12.5t-25.5 5.5q-19 0 -30 -7t-15.5 -22t-5.5 -26t-1 -32v-129z" />
<glyph unicode="&#x26;" horiz-adv-x="406" d="M27 149q0 100 89 213q-57 122 -57 200q0 74 34 119.5t89 45.5q52 0 81.5 -38t29.5 -104q0 -57 -24.5 -104.5t-86.5 -121.5q63 -136 95 -194q37 87 51 171l51 -13q-18 -104 -70 -212q35 -54 70 -65l-1 -58q-51 5 -100 68q-46 -68 -117 -68q-63 0 -98.5 44t-35.5 117z M86 155q0 -53 22 -82t59 -29q44 0 80 59q-38 62 -106 207q-55 -79 -55 -155zM115 567q0 -65 43 -158q43 49 61.5 87.5t18.5 86.5q0 46 -16 70.5t-42 24.5q-29 0 -47 -30t-18 -81z" />
<glyph unicode="'" horiz-adv-x="147" d="M32 474l35 241h60l-63 -241h-32z" />
<glyph unicode="(" horiz-adv-x="227" d="M31 286q0 137 39 248t95 181h49q-120 -186 -120 -428q0 -139 37 -249t83 -176h-49q-52 56 -93 174.5t-41 249.5z" />
<glyph unicode=")" horiz-adv-x="227" d="M13 -138q46 66 83 176t37 249q0 242 -120 428h49q56 -70 95 -181t39 -248q0 -131 -41 -249.5t-93 -174.5h-49z" />
<glyph unicode="*" horiz-adv-x="359" d="M25 585l10 28l120 -32l9 134h29l11 -134l121 35l10 -28l-115 -52l65 -111l-23 -17l-81 98l-81 -99l-24 17l64 109z" />
<glyph unicode="+" d="M9 272v54h217v232h58v-232h215v-54h-215v-231h-58v231h-217z" />
<glyph unicode="," horiz-adv-x="146" d="M22 -126l44 128h-25v113h64v-115l-51 -126h-32z" />
<glyph unicode="-" horiz-adv-x="244" d="M40 269v60h164v-60h-164z" />
<glyph unicode="." horiz-adv-x="142" d="M42 0v115h58v-115h-58z" />
<glyph unicode="/" horiz-adv-x="288" d="M13 -82l212 797h51l-215 -797h-48z" />
<glyph unicode="0" horiz-adv-x="375" d="M47 213v289q0 86 11 127.5t35 64.5q35 33 94 33t95 -33q24 -23 35 -64.5t11 -127.5v-289q0 -86 -11 -127.5t-35 -64.5q-35 -33 -95 -33q-61 0 -94 33q-24 23 -35 64.5t-11 127.5zM108 198q0 -32 0.5 -48t4.5 -40t12 -35.5t23.5 -21t38.5 -9.5t39 9.5t24 21t12 35.5 t4.5 40t0.5 48v319q0 32 -0.5 48t-4.5 40t-12 35.5t-24 21t-39 9.5t-38.5 -9.5t-23.5 -21t-12 -35.5t-4.5 -40t-0.5 -48v-319z" />
<glyph unicode="1" horiz-adv-x="205" d="M24 629v37q67 22 85 53h38l-1 -73v-573l1 -73h-64l1 73v556h-60z" />
<glyph unicode="2" horiz-adv-x="340" d="M27 0v50l107 188q113 203 113 317v2q0 115 -72 115q-81 0 -81 -133v-1h-60v1q0 93 37.5 140.5t104.5 47.5q66 0 99 -45.5t33 -123.5v-2q0 -123 -125 -342l-88 -159h209v-55h-277z" />
<glyph unicode="3" horiz-adv-x="346" d="M33 169v2h60v-2q0 -22 0.5 -34t4.5 -32t11 -31t22 -20t36 -9q28 0 46 12.5t24.5 36t8 38.5t1.5 39v31q0 72 -29 108.5t-79 36.5h-26v56h26q47 0 73.5 34.5t26.5 99.5v29q0 22 -1.5 35t-7 33t-20.5 30t-39 10q-21 0 -36 -9t-22 -20.5t-11 -30.5t-4.5 -29.5t-0.5 -27.5v-2 h-59v2q0 96 46 140q34 32 85 32q56 0 90 -34q40 -40 40 -129v-29q0 -123 -88 -158v-3q47 -13 72 -59t25 -115v-31q0 -101 -45 -146q-37 -35 -95 -35t-93 33q-42 40 -42 148z" />
<glyph unicode="4" horiz-adv-x="351" d="M20 185v59l187 471h67l-1 -73v-404h57v-53h-57v-112l1 -73h-61l1 73v112h-194zM70 238h144v275q0 37 4 105h-3q-7 -28 -21 -63z" />
<glyph unicode="5" horiz-adv-x="348" d="M36 169v2h60v-2q0 -23 0.5 -34t4 -32t11 -31.5t22.5 -19.5t37 -9q19 0 33 5.5t22 17.5t13 23t7 31t2.5 31.5t0.5 32.5v105q0 27 -0.5 41t-3.5 36t-9 33t-17.5 19.5t-28.5 8.5q-50 0 -90 -77l-54 3l8 362h240v-55h-187l-6 -251q47 72 106 72q40 0 66 -26q37 -37 37 -166 v-105q0 -117 -44 -161q-37 -35 -95 -35q-59 0 -93 34q-42 40 -42 147z" />
<glyph unicode="6" horiz-adv-x="364" d="M47 210v295q0 87 11.5 127.5t34.5 62.5q34 32 90 32q57 0 92 -33q42 -40 42 -139v-2h-60v2q0 20 -0.5 31.5t-4.5 30t-11 29t-21.5 18.5t-35.5 8q-18 0 -31.5 -5t-21.5 -17.5t-12.5 -24t-6.5 -33t-2.5 -35t-0.5 -39.5v-155q47 81 114 81q38 0 64 -26q21 -21 30 -61.5 t9 -127.5v-46q0 -121 -44 -162q-36 -33 -96 -33q-58 0 -93 33q-23 22 -34.5 63.5t-11.5 125.5zM109 197q0 -30 0.5 -46t4.5 -40t12 -36.5t23 -22t38 -9.5q22 0 38 9.5t23.5 21t11.5 34t4.5 36t0.5 39.5v46q0 30 -0.5 44.5t-2 37t-5 33.5t-10 23t-17 17t-25.5 5 q-57 0 -96 -90v-102z" />
<glyph unicode="7" horiz-adv-x="289" d="M9 660v55h256v-42l-144 -673h-62l143 660h-193z" />
<glyph unicode="8" horiz-adv-x="353" d="M39 167v63q0 115 78 145v3q-70 33 -70 130v60q0 88 41 127q32 32 88 32q55 0 89 -32q40 -40 40 -127v-60q0 -97 -70 -130v-3q79 -30 79 -145v-63q0 -101 -43 -144q-35 -35 -95 -35q-59 0 -94 35q-43 43 -43 144zM100 167q0 -20 0.5 -31t4.5 -31.5t11 -31.5t22.5 -20.5 t37.5 -9.5q27 0 44 11.5t23.5 34.5t8 38t1.5 40v64q0 46 -19.5 80t-57.5 34t-57 -34t-19 -80v-64zM106 504q0 -40 18 -71t52 -31q35 0 52.5 31t17.5 71v61q0 109 -70 109t-70 -109v-61z" />
<glyph unicode="9" horiz-adv-x="364" d="M38 486v46q0 121 44 162q36 33 96 33q58 0 93 -33q23 -22 34.5 -63.5t11.5 -125.5v-295q0 -87 -11.5 -127.5t-34.5 -62.5q-34 -32 -90 -32q-57 0 -92 33q-42 40 -42 139v2h60v-2q0 -20 0.5 -31.5t4.5 -30t11 -29t21.5 -18.5t35.5 -8q18 0 31.5 5t21.5 17.5t12.5 24 t6.5 33t2.5 35t0.5 39.5v154q-49 -80 -114 -80q-38 0 -64 26q-21 21 -30 61.5t-9 127.5zM99 486q0 -30 0.5 -44.5t2 -37t5 -33.5t10 -23t17 -17t25.5 -5q57 0 96 89v103q0 30 -0.5 46t-4.5 40t-12 36.5t-23 22t-38 9.5q-22 0 -38 -9.5t-23.5 -21t-11.5 -34t-4.5 -36 t-0.5 -39.5v-46z" />
<glyph unicode=":" horiz-adv-x="147" d="M45 0v115h58v-115h-58zM45 415v115h58v-115h-58z" />
<glyph unicode=";" horiz-adv-x="162" d="M31 -126l44 128h-24v113h64v-115l-51 -126h-33zM51 415v115h58v-115h-58z" />
<glyph unicode="&#x3c;" d="M21 280v38l453 224v-62l-315 -151l-61 -27v-6l61 -24l315 -151v-62z" />
<glyph unicode="=" d="M27 170v54h453v-54h-453zM27 375v53h453v-53h-453z" />
<glyph unicode="&#x3e;" d="M35 59v62l314 151l61 24v6l-61 27l-314 151v62l452 -224v-38z" />
<glyph unicode="?" horiz-adv-x="292" d="M17 614q40 113 137 113q54 0 85 -33t31 -92q0 -63 -43 -139q-22 -37 -33 -59t-22 -61t-11 -81v-51h-52v53q0 44 11.5 88t22 68t30.5 62q39 76 39 120q0 72 -62 72q-53 0 -83 -79zM106 0v115h58v-115h-58z" />
<glyph unicode="@" horiz-adv-x="653" d="M27 278q0 101 28.5 186t76 139.5t107 85t123.5 30.5q118 0 190.5 -93t72.5 -230q0 -131 -52 -226.5t-125 -95.5q-35 0 -57 22t-24 65q-17 -41 -43 -63.5t-56 -22.5q-43 0 -68.5 43.5t-25.5 122.5q0 117 52 209.5t114 92.5q31 0 51.5 -28.5t23.5 -73.5h2l18 90h50 l-65 -330q-3 -15 -3 -28q0 -56 42 -56q44 0 83 84t38 198q-1 120 -60.5 197.5t-156.5 77.5q-115 0 -197.5 -109t-82.5 -290q0 -169 72.5 -254t177.5 -85q91 0 167 54l18 -37q-35 -25 -86.5 -43t-102.5 -18q-58 0 -111 23.5t-96 69t-69 121.5t-26 172zM229 236 q0 -110 55 -110q25 0 47.5 27t35.5 71q30 102 31 165q1 45 -14 74.5t-40 29.5q-44 0 -79.5 -83t-35.5 -174z" />
<glyph unicode="A" horiz-adv-x="347" d="M16 0l116 715h84l115 -715h-62l-28 178h-135l-27 -178h-63zM114 234h119l-46 302q-1 11 -4 31t-5 35.5t-3 25.5h-3q-4 -40 -12 -92z" />
<glyph unicode="B" horiz-adv-x="375" d="M54 0l1 73v569l-1 73h110q81 0 123.5 -46.5t42.5 -127.5v-3q0 -59 -22.5 -101.5t-63.5 -60.5v-3q46 -15 73 -60t27 -107v-2q0 -100 -45.5 -152t-132.5 -52h-112zM117 55h45q118 0 118 151v2q0 64 -29.5 100.5t-77.5 36.5h-56v-290zM117 401h55q43 0 69.5 37t26.5 96v2 q0 59 -27.5 91.5t-80.5 32.5h-43v-259z" />
<glyph unicode="C" horiz-adv-x="365" d="M47 213v289q0 85 11.5 127t35.5 65q34 33 95 33t96 -33q25 -23 36 -63.5t11 -115.5v-2h-63v2q0 30 -0.5 46t-4.5 40t-12 36.5t-24 22t-39 9.5t-38.5 -9.5t-23.5 -22t-12 -36.5t-4.5 -40t-0.5 -46v-314q0 -31 0.5 -46.5t4.5 -40t12 -37t24 -22t39 -9.5q20 0 34 5.5t23 19 t14 25.5t7 36t2.5 38.5t0.5 43.5v4h62v-4q0 -88 -11.5 -129t-36.5 -64q-36 -33 -95 -33q-61 0 -97 33q-25 23 -35.5 66t-10.5 126z" />
<glyph unicode="D" horiz-adv-x="386" d="M54 0l1 73v569l-1 73h119q68 0 111 -41q29 -28 42.5 -72.5t13.5 -130.5v-227q0 -86 -13.5 -130.5t-42.5 -72.5q-43 -41 -111 -41h-119zM117 55h47q45 0 74 27q39 38 39 147v257q0 109 -39 147q-29 27 -74 27h-47v-605z" />
<glyph unicode="E" horiz-adv-x="329" d="M54 0l1 73v569l-1 73h244v-55h-181v-259h150v-56h-150v-290h184v-55h-247z" />
<glyph unicode="F" horiz-adv-x="310" d="M54 0l1 73v569l-1 73h243v-55h-180v-259h149v-56h-149v-272l1 -73h-64z" />
<glyph unicode="G" horiz-adv-x="385" d="M47 213v289q0 149 47 193q35 32 97 32q59 0 94 -33q47 -44 47 -179v-2h-63v2q0 25 -0.5 38t-2.5 34.5t-7 33t-13.5 24.5t-23 18.5t-33.5 5.5t-33 -5.5t-22.5 -18t-13.5 -24t-7 -33t-2.5 -34.5t-0.5 -39v-315q0 -25 0.5 -37.5t2.5 -34t7 -33.5t13.5 -25t23 -18.5 t34.5 -5.5t35 6t23.5 19.5t14 26t7.5 34t2.5 34t0.5 36.5v99h-82v56h143v-357h-31l-13 63h-1q-26 -74 -106 -74q-56 0 -91 32q-25 23 -35.5 66t-10.5 126z" />
<glyph unicode="H" horiz-adv-x="393" d="M54 0l1 73v569l-1 73h64l-1 -73v-241h159v241l-1 73h64l-1 -73v-569l1 -73h-64l1 73v272h-159v-272l1 -73h-64z" />
<glyph unicode="I" horiz-adv-x="172" d="M54 0l1 73v569l-1 73h64l-1 -73v-569l1 -73h-64z" />
<glyph unicode="J" horiz-adv-x="233" d="M12 -4v58h14q50 0 72 27.5t22 95.5v465l-1 73h64l-1 -73v-465q0 -101 -35 -141t-117 -40h-18z" />
<glyph unicode="K" horiz-adv-x="381" d="M54 0l1 73v569l-1 73h64l-1 -73v-223q0 -7 -0.5 -23t-0.5 -23h2q10 24 19 42l159 300h67l-145 -281l152 -434h-67l-128 370l-58 -107v-190l1 -73h-64z" />
<glyph unicode="L" horiz-adv-x="296" d="M54 0l1 73v569l-1 73h64l-1 -73v-587h168v-55h-231z" />
<glyph unicode="M" horiz-adv-x="491" d="M54 0l1 73v569l-1 73h83l96 -502q9 -48 12 -82h3q2 22 11 82l97 502h81l-1 -73v-569l1 -73h-58l1 73v435q0 12 3 87h-3q-4 -37 -14 -85l-97 -510h-48l-97 510q-7 35 -13 85h-3q2 -50 2 -87v-435l1 -73h-57z" />
<glyph unicode="N" horiz-adv-x="420" d="M54 0l1 73v569l-1 73h67l157 -463q18 -51 27 -89h3q-3 78 -3 94v385l-1 73h62l-1 -73v-569l1 -73h-60l-164 481q-13 35 -28 89h-3q3 -78 3 -94v-403l1 -73h-61z" />
<glyph unicode="O" horiz-adv-x="379" d="M47 213v289q0 85 11.5 127t35.5 65q35 33 95 33t96 -33q47 -45 47 -192v-289q0 -148 -47 -193q-35 -32 -96 -32t-95 32q-24 23 -35.5 65.5t-11.5 127.5zM110 200q0 -30 0.5 -46t4.5 -40t12 -36.5t23.5 -22t38.5 -9.5t39 9.5t24 22t12 36.5t4.5 40t0.5 46v315 q0 30 -0.5 46t-4.5 40t-12 36.5t-24 22t-39 9.5t-38.5 -9.5t-23.5 -22t-12 -36.5t-4.5 -40t-0.5 -46v-315z" />
<glyph unicode="P" horiz-adv-x="357" d="M54 0l1 73v569l-1 73h106q100 0 140 -53.5t40 -146.5v-2q0 -93 -40 -146.5t-140 -53.5h-43v-240l1 -73h-64zM117 367h36q123 0 123 146v2q0 68 -27 106.5t-96 38.5h-36v-293z" />
<glyph unicode="Q" horiz-adv-x="379" d="M47 213v289q0 85 11.5 127t35.5 65q35 33 95 33t96 -33q47 -45 47 -192v-289q0 -134 -36 -181q22 -27 73 -27v-60q-81 0 -120 53q-28 -10 -60 -10q-61 0 -95 32q-24 23 -35.5 65.5t-11.5 127.5zM110 200q0 -30 0.5 -46t4.5 -40t12 -36.5t23.5 -22t38.5 -9.5t39 9.5t24 22 t12 36.5t4.5 40t0.5 46v315q0 30 -0.5 46t-4.5 40t-12 36.5t-24 22t-39 9.5t-38.5 -9.5t-23.5 -22t-12 -36.5t-4.5 -40t-0.5 -46v-315z" />
<glyph unicode="R" horiz-adv-x="376" d="M54 0l1 73v569l-1 73h106q100 0 140 -53.5t40 -145.5v-2q0 -147 -98 -186l112 -328h-66l-107 316h-64v-243l1 -73h-64zM117 369h53q54 0 80 39t26 104v4q0 68 -27 106t-96 38h-36v-291z" />
<glyph unicode="S" horiz-adv-x="350" d="M20 186l61 7q6 -147 98 -147q39 0 60.5 26.5t21.5 76.5q0 78 -71 149l-76 82q-80 83 -80 183q0 78 40 121t102 43q66 0 103 -49t42 -131l-61 -7q-2 58 -23.5 93.5t-61.5 35.5q-34 0 -55.5 -26.5t-21.5 -76.5q0 -72 66 -141l76 -82q85 -86 85 -192q0 -77 -39.5 -120 t-106.5 -43q-71 0 -112.5 51t-46.5 147z" />
<glyph unicode="T" horiz-adv-x="311" d="M11 660v55h289v-55h-114v-587l1 -73h-63l1 73v587h-114z" />
<glyph unicode="U" horiz-adv-x="386" d="M50 715h64l-1 -73v-486q0 -110 80 -110t80 110v486l-1 73h64l-1 -73v-491q0 -78 -37.5 -120.5t-104.5 -42.5t-104.5 42.5t-37.5 120.5v491z" />
<glyph unicode="V" horiz-adv-x="342" d="M14 715h63l82 -497l12 -87h3q9 71 12 87l81 497h62l-123 -715h-69z" />
<glyph unicode="W" horiz-adv-x="503" d="M19 715h61l64 -485q2 -17 5 -50.5t4 -41.5h3l8 92l61 485h55l60 -485l9 -92h3q3 47 8 92l65 485h59l-102 -715h-60l-61 472q-8 56 -8 92h-3q-5 -72 -8 -92l-62 -472h-60z" />
<glyph unicode="X" horiz-adv-x="358" d="M13 0l129 380l-121 335h66l91 -271h3l90 271h65l-121 -335l129 -380h-67l-97 306h-3l-98 -306h-66z" />
<glyph unicode="Y" horiz-adv-x="340" d="M12 715h63l95 -336h2l94 336h62l-127 -423v-219l1 -73h-64l1 73v219z" />
<glyph unicode="Z" horiz-adv-x="330" d="M18 0v52l220 608h-200v55h268v-52l-221 -608h216v-55h-283z" />
<glyph unicode="[" horiz-adv-x="233" d="M53 -138v853h158v-40h-99v-773h99v-40h-158z" />
<glyph unicode="\" horiz-adv-x="288" d="M13 715h50l213 -797h-49z" />
<glyph unicode="]" horiz-adv-x="233" d="M22 -98h99v773h-99v40h158v-853h-158v40z" />
<glyph unicode="^" d="M16 285l218 430h38l220 -430h-64l-141 292l-31 65h-5l-30 -65l-142 -292h-63z" />
<glyph unicode="_" horiz-adv-x="397" d="M-2 -20h401v-50h-401v50z" />
<glyph unicode="`" horiz-adv-x="304" d="M65 715h72l63 -111h-43z" />
<glyph unicode="a" horiz-adv-x="327" d="M23 112q0 117 101 182q4 3 101 58v56q0 85 -62 85q-65 0 -70 -91h-57q9 138 129 138q117 0 117 -137v-330q0 -35 6 -73h-57q0 2 -2 26t-3 47h-2q-59 -79 -117 -79q-39 0 -61.5 30t-22.5 88zM83 120q0 -74 48 -74q45 0 94 77v189q-60 -36 -83 -54q-59 -50 -59 -138z" />
<glyph unicode="b" horiz-adv-x="332" d="M48 0l1 73v569l-1 73h59l-1 -73v-162q50 58 104 58q20 0 35 -6.5t24 -21.5t14.5 -28.5t7.5 -38.5t2.5 -39.5t0.5 -42.5v-201q0 -28 -0.5 -42.5t-2.5 -38t-7 -36t-14 -26t-23 -19.5t-34 -6q-58 0 -107 67h-2v-59h-56zM106 103q36 -62 84 -62q17 0 27 7t14 24.5t5 32 t1 45.5v221q0 32 -1 47.5t-5.5 35t-15.5 27.5t-30 8q-42 0 -79 -50v-336z" />
<glyph unicode="c" horiz-adv-x="310" d="M37 186v158q0 66 8.5 105t31.5 62q29 29 83 29q53 0 81 -28q39 -39 39 -137v-2h-55v2q0 23 -1 37t-6.5 35t-19.5 32t-37 11q-20 0 -33 -7.5t-19.5 -17t-10 -31t-4 -36t-0.5 -44.5v-178q0 -37 1 -54.5t7 -40t20 -32t37 -9.5q24 0 39 10t20.5 31.5t7 37t1.5 45.5v2h54v-2 q0 -108 -39 -146q-28 -28 -82 -28q-55 0 -83 28q-40 39 -40 168z" />
<glyph unicode="d" horiz-adv-x="332" d="M38 160v201q0 28 0.5 42.5t2.5 39.5t7.5 38.5t14.5 28.5t24 21.5t35 6.5q54 0 104 -58v162l-1 73h59l-1 -73v-569l1 -73h-56v59h-2q-49 -67 -107 -67q-20 0 -34 6t-23 19.5t-14 26t-7 36t-2.5 38t-0.5 42.5zM95 150q0 -31 1 -45.5t5 -32t14 -24.5t27 -7q48 0 84 62v336 q-37 50 -79 50q-19 0 -30 -8t-15.5 -27.5t-5.5 -35t-1 -47.5v-221z" />
<glyph unicode="e" horiz-adv-x="317" d="M37 186v159q0 66 8.5 104.5t31.5 61.5q29 29 82 29q55 0 83 -28q40 -40 40 -167v-82h-188v-87q0 -30 0.5 -44.5t4 -36t10 -31t19.5 -17t32 -7.5q24 0 39 10.5t20.5 30t7 32.5t1.5 33v2h54v-2q0 -90 -40 -128q-30 -28 -82 -28q-55 0 -83 28q-40 39 -40 168zM94 306h131v49 q0 35 -1 52.5t-7 40.5t-20 32.5t-37 9.5q-16 0 -27.5 -4.5t-19 -15t-11.5 -20.5t-5.5 -29t-2 -30.5t-0.5 -35.5v-49z" />
<glyph unicode="f" horiz-adv-x="220" d="M11 481v49h59v79q0 110 97 110q28 0 48 -5v-50q-20 4 -38 4q-50 0 -50 -64v-74h88v-49h-88v-408l1 -73h-59l1 73v408h-59z" />
<glyph unicode="g" horiz-adv-x="339" d="M22 -83q0 67 88 98v3q-59 15 -59 60q0 36 43 72v2q-55 34 -55 135v102q0 82 40 122q29 29 77 29q62 0 92 -44h3q12 27 33 36q14 7 26 7q6 0 12 -2v-59q-9 2 -17 2q-24 0 -38 -21q11 -32 11 -74v-98q0 -85 -37 -122q-29 -29 -80 -29q-18 0 -33 3q-26 -22 -26 -42 q0 -30 44 -35l69 -9q111 -14 111 -105q0 -58 -46.5 -89t-120.5 -31q-61 0 -99 22t-38 67zM77 -70q0 -59 95 -59q102 0 102 68q0 54 -67 63l-56 7q-74 -31 -74 -79zM94 285q0 -19 1.5 -31.5t6.5 -31t20 -28.5t38 -10q22 0 36 8.5t19.5 26.5t6.5 31t1 35v104q0 20 -1 32.5 t-6.5 31.5t-19.5 29t-37 10t-37.5 -10t-19.5 -28.5t-6.5 -31t-1.5 -31.5v-106z" />
<glyph unicode="h" horiz-adv-x="337" d="M48 0l1 73v569l-1 73h59l-1 -73v-171h1q51 67 111 67q43 0 58.5 -32t15.5 -88v-345l1 -73h-59l1 73v327q0 25 -0.5 36t-4.5 25.5t-13 20t-24 5.5q-46 0 -87 -58v-356l1 -73h-59z" />
<glyph unicode="i" horiz-adv-x="155" d="M48 0l1 73v384l-1 73h59l-1 -73v-384l1 -73h-59zM49 618v97h57v-97h-57z" />
<glyph unicode="j" horiz-adv-x="155" d="M-21 -110q6 -1 17 -1q53 0 53 72v496l-1 73h59l-1 -73v-504q0 -57 -26 -87t-73 -30q-17 0 -28 3v51zM49 618v97h57v-97h-57z" />
<glyph unicode="k" horiz-adv-x="316" d="M48 0l1 73v569l-1 73h59l-1 -73v-325q0 -27 -1 -47h3q8 22 19 43l110 217h61l-104 -202l114 -328h-58l-93 271l-51 -98v-100l1 -73h-59z" />
<glyph unicode="l" horiz-adv-x="155" d="M48 0l1 73v569l-1 73h59l-1 -73v-569l1 -73h-59z" />
<glyph unicode="m" horiz-adv-x="523" d="M48 0l1 73v384l-1 73h56v-60h1q53 68 111 68q62 0 71 -68h1q55 68 113 68q45 0 61 -30t16 -90v-345l1 -73h-59l1 73v327q0 33 -1.5 47.5t-11.5 27t-31 12.5q-45 0 -85 -56v-358l1 -73h-59l1 73v332q0 23 -1 33.5t-4.5 24t-13 19t-25.5 5.5q-45 0 -85 -58v-356l1 -73h-59z " />
<glyph unicode="n" horiz-adv-x="337" d="M48 0l1 73v384l-1 73h56v-60h1q52 68 113 68q43 0 58.5 -32t15.5 -88v-345l1 -73h-59l1 73v327q0 25 -0.5 36t-4.5 25.5t-13 20t-24 5.5q-46 0 -87 -58v-356l1 -73h-59z" />
<glyph unicode="o" horiz-adv-x="319" d="M37 185v159q0 66 8.5 105t31.5 62q29 29 82 29q52 0 83 -29q23 -23 31.5 -62t8.5 -105v-159q0 -126 -40 -166q-29 -29 -83 -29q-55 0 -82 29q-40 41 -40 166zM94 175q0 -29 0.5 -43.5t3.5 -35.5t10 -31t19.5 -17.5t31.5 -7.5t32 7.5t19.5 17.5t10 31t4 35.5t0.5 43.5v179 q0 30 -0.5 44.5t-4 35.5t-10 31t-19.5 17.5t-32 7.5t-31.5 -7.5t-19.5 -17.5t-10 -31t-3.5 -35.5t-0.5 -44.5v-179z" />
<glyph unicode="p" horiz-adv-x="332" d="M48 -164l1 73v548l-1 73h56v-53h2q50 61 106 61q20 0 34.5 -6t23 -20.5t14 -27.5t7.5 -36.5t2.5 -38t0.5 -42.5v-202q0 -27 -0.5 -41.5t-2.5 -38.5t-7 -37.5t-13.5 -28t-23 -21t-34.5 -6.5q-58 0 -107 64v-147l1 -73h-59zM106 99q37 -58 82 -58q14 0 24 6.5t14.5 15 t7 26.5t3 30t0.5 36v221q0 30 -1 45.5t-5.5 33.5t-15 26t-28.5 8q-45 0 -81 -54v-336z" />
<glyph unicode="q" horiz-adv-x="332" d="M38 165v202q0 28 0.5 42.5t2.5 38t7.5 36.5t14 27.5t23 20.5t34.5 6q56 0 106 -61h2v53h56l-1 -73v-548l1 -73h-59l1 73v147q-49 -64 -107 -64q-20 0 -34.5 6.5t-23 21t-13.5 28t-7 37.5t-2.5 38.5t-0.5 41.5zM95 155q0 -24 0.5 -36t3 -30t7 -26.5t14.5 -15t24 -6.5 q45 0 82 58v336q-36 54 -81 54q-18 0 -28.5 -8t-15 -26t-5.5 -33.5t-1 -45.5v-221z" />
<glyph unicode="r" horiz-adv-x="228" d="M48 0l1 73v379l-1 78h55v-73h2q17 35 47.5 58t58.5 23q7 0 10 -1v-61q-6 1 -18 1q-39 0 -68 -27.5t-29 -71.5v-305l1 -73h-59z" />
<glyph unicode="s" horiz-adv-x="295" d="M18 145l55 10q3 -57 24 -86t55 -29q29 0 45 19.5t16 54.5q0 55 -57 110l-57 57q-65 59 -65 138q0 54 32.5 87.5t84.5 33.5q53 0 82.5 -37t35.5 -98l-53 -8q-2 41 -19 67.5t-47 26.5q-26 0 -43.5 -18.5t-17.5 -52.5q0 -51 51 -99l57 -57q73 -66 73 -147q0 -58 -31.5 -91.5 t-88.5 -33.5q-54 0 -90 38.5t-42 114.5z" />
<glyph unicode="t" horiz-adv-x="224" d="M11 481v49h59l3 149h54v-149h88v-49h-88v-368q0 -65 50 -65q18 0 38 4v-52q-30 -5 -49 -5q-96 0 -96 110v376h-59z" />
<glyph unicode="u" horiz-adv-x="337" d="M44 530h59l-1 -73v-327q0 -25 0.5 -36t4.5 -25.5t13 -20t24 -5.5q46 0 87 58v356l-1 73h59l-1 -73v-384l1 -73h-56v60h-1q-52 -68 -113 -68q-43 0 -58.5 32t-15.5 88v345z" />
<glyph unicode="v" horiz-adv-x="295" d="M13 530h56l65 -345q11 -66 12 -76h3q1 10 12 76l65 345h56l-107 -530h-56z" />
<glyph unicode="w" horiz-adv-x="439" d="M15 530h55l49 -324q2 -15 5.5 -47t4.5 -36h3q4 42 9 68l56 339h45l57 -339q5 -32 8 -68h3q8 65 11 83l49 324h53l-88 -530h-54l-52 327q-7 48 -9 65h-3q-2 -17 -9 -65l-52 -327h-54z" />
<glyph unicode="x" horiz-adv-x="292" d="M12 0l101 276l-96 254h60l67 -195h3l68 195h60l-96 -254l101 -276h-61l-72 217h-3l-72 -217h-60z" />
<glyph unicode="y" horiz-adv-x="287" d="M15 -109q18 -2 33 -2q37 0 54 38q12 27 12 59q0 13 -2 27l-97 517h56l61 -344l12 -80h3q2 19 11 78l59 346h55l-108 -582q-9 -53 -36 -82.5t-70 -29.5q-23 0 -43 4v51z" />
<glyph unicode="z" horiz-adv-x="275" d="M22 0v45l165 434h-157v51h218v-45l-165 -434h167v-51h-228z" />
<glyph unicode="{" horiz-adv-x="256" d="M14 280v46h27q54 0 54 98v154q0 74 36.5 105.5t89.5 31.5h14v-40h-4q-38 0 -56.5 -22t-18.5 -75v-158q0 -50 -19.5 -80t-52.5 -34v-6q34 -4 53 -33.5t19 -80.5v-187q0 -55 18 -75.5t57 -20.5h4v-41h-14q-55 0 -90.5 31.5t-35.5 105.5v183q0 98 -54 98h-27z" />
<glyph unicode="|" horiz-adv-x="313" d="M126 -160v1000h62v-1000h-62z" />
<glyph unicode="}" horiz-adv-x="256" d="M21 -97h4q39 0 57 20.5t18 75.5v187q0 51 19 80.5t53 33.5v6q-33 4 -52.5 34t-19.5 80v158q0 53 -18.5 75t-56.5 22h-4v40h14q53 0 89.5 -31.5t36.5 -105.5v-154q0 -98 54 -98h27v-46h-27q-54 0 -54 -98v-183q0 -74 -35.5 -105.5t-90.5 -31.5h-14v41z" />
<glyph unicode="~" d="M43 212q0 78 34 128.5t90 50.5q28 0 48.5 -13.5t45.5 -44.5l22 -27q18 -24 30 -34t30 -10q34 0 52 37t18 88h53q0 -78 -34.5 -129.5t-89.5 -51.5q-48 0 -94 58l-22 28q-18 24 -30 34t-30 10q-34 0 -52.5 -37t-18.5 -87h-52z" />
<glyph unicode="&#xa1;" horiz-adv-x="155" d="M45 -158l13 478h40l12 -478h-65zM49 416v115h58v-115h-58z" />
<glyph unicode="&#xa2;" horiz-adv-x="322" d="M41 186v158q0 66 8.5 105t31.5 62q29 29 83 29q21 0 36 -4l17 75h46l-22 -95q43 -39 43 -141v-2h-55v2q0 23 -1 37t-6.5 35t-19.5 32t-37 11q-20 0 -33 -7.5t-19.5 -17t-10 -31t-4 -36t-0.5 -44.5v-178q0 -37 1 -54.5t7 -40t20 -32t37 -9.5q24 0 39 10t20.5 31.5t7 37 t1.5 45.5v2h54v-2q0 -108 -39 -146q-28 -28 -82 -28q-15 0 -35 4l-20 -98h-46l24 115q-28 24 -37 65.5t-9 109.5z" />
<glyph unicode="&#xa3;" horiz-adv-x="399" d="M33 0v57q52 0 80 44t28 108q0 53 -22 136h-86v45h73q-33 120 -33 180q0 80 38 118.5t97 38.5q67 0 103.5 -43.5t40.5 -104.5l-57 -7q-10 103 -85 103q-77 0 -77 -104q0 -60 35 -181h135v-45h-123q19 -73 19 -124q0 -62 -20 -113q22 -63 64 -63q33 0 53 33t20 93h57 q0 -80 -37 -130t-92 -50q-62 0 -92 66q-45 -58 -119 -57z" />
<glyph unicode="&#xa4;" horiz-adv-x="374" d="M40 0l41 122q-34 44 -34 181v109q0 145 41 189l-38 114h55l27 -87q24 9 56 9q31 0 55 -9l27 87h54l-39 -113q43 -43 43 -190v-109q0 -139 -36 -182l42 -121h-54l-28 90q-27 -12 -64 -12q-38 0 -65 12l-28 -90h-55zM108 288q0 -26 0.5 -39t2.5 -34.5t7 -33t13.5 -24 t22.5 -18t33 -5.5q23 0 39 9.5t24 21.5t12 36.5t4.5 40t0.5 46.5v139q0 31 -0.5 46.5t-4.5 40t-12 36.5t-24 21.5t-39 9.5q-19 0 -33 -5.5t-22.5 -18t-13.5 -24t-7 -33t-2.5 -34.5t-0.5 -39v-139z" />
<glyph unicode="&#xa5;" horiz-adv-x="410" d="M34 286v40h132l-27 86h-105v40h93l-80 263h62l95 -332h3l95 332h61l-81 -263h93v-40h-105l-26 -86h131v-40h-139v-213l1 -73h-64l1 73v213h-140z" />
<glyph unicode="&#xa6;" horiz-adv-x="313" d="M126 -85v351h62v-351h-62zM126 415v351h62v-351h-62z" />
<glyph unicode="&#xa7;" horiz-adv-x="396" d="M22 328q0 109 102 132q-55 58 -55 133q0 61 36.5 97.5t91.5 36.5q58 0 92 -41.5t39 -112.5l-56 -7q-2 49 -21 78.5t-55 29.5q-30 0 -50 -20.5t-20 -58.5q0 -58 57 -108l94 -83q54 -48 75.5 -89.5t21.5 -86.5q0 -54 -27.5 -88.5t-75.5 -45.5q56 -58 56 -132 q0 -62 -36.5 -98t-91.5 -36q-58 0 -91.5 42t-38.5 112l54 7q7 -108 78 -108q29 0 49 20.5t20 58.5q0 61 -56 108l-96 82q-96 82 -96 178zM79 334q0 -34 16 -66.5t64 -74.5l81 -71q36 5 56.5 31t20.5 68q0 33 -16.5 65.5t-64.5 75.5l-81 71q-36 -6 -56 -32t-20 -67z" />
<glyph unicode="&#xa8;" horiz-adv-x="304" d="M62 618v97h57v-97h-57zM186 618v97h56v-97h-56z" />
<glyph unicode="&#xa9;" horiz-adv-x="795" d="M23 357q0 186 106 314t268 128t268.5 -128.5t106.5 -313.5t-106.5 -313.5t-268.5 -128.5t-268 128t-106 314zM70 357q0 -168 93 -284t234 -116t234 116t93 284t-93 284t-234 116t-234 -116t-93 -284zM260 254v208q0 123 44 162q34 29 93 29q57 0 92 -29q45 -38 45 -150 v-3h-53v3q0 25 -0.5 38.5t-5 34t-13 31.5t-25.5 19.5t-41 8.5t-40.5 -8.5t-24.5 -19t-12.5 -31.5t-5 -35t-0.5 -41v-226q0 -21 0.5 -32.5t2.5 -30t7.5 -29t14.5 -22t24 -16.5t36 -5q25 0 41.5 9t25 20t13 33.5t5 37t0.5 42.5v6h53v-4q0 -70 -11 -105.5t-35 -55.5 q-36 -30 -94 -30q-56 0 -92 30q-23 20 -33.5 55t-10.5 106z" />
<glyph unicode="&#xaa;" horiz-adv-x="275" d="M19 341q0 87 84 140q30 19 83 44v39q0 62 -48 62q-52 0 -55 -67h-54q6 110 111 110q99 0 99 -110v-242q0 -27 5 -65h-53q-2 16 -4 54h-3q-46 -59 -94 -59q-33 0 -52 24t-19 70zM74 349q0 -55 38 -55q35 0 74 56v137q-37 -17 -65 -39q-47 -36 -47 -99z" />
<glyph unicode="&#xab;" horiz-adv-x="351" d="M22 297v12l102 167h49l-90 -173l90 -172h-47zM163 297v12l102 167h48l-89 -173l89 -172h-46z" />
<glyph unicode="&#xac;" d="M28 394v53h442v-296h-58v243h-384z" />
<glyph unicode="&#xad;" horiz-adv-x="244" d="M40 269v60h164v-60h-164z" />
<glyph unicode="&#xae;" horiz-adv-x="371" d="M30 565q0 71 43 119.5t112 48.5t112 -48.5t43 -119.5t-43 -119.5t-112 -48.5t-112 48.5t-43 119.5zM59 565q0 -62 35 -104t91 -42q57 0 92.5 42.5t35.5 103.5t-35.5 103t-92.5 42q-56 0 -91 -41.5t-35 -103.5zM131 455v221h48q70 0 70 -65v-1q0 -42 -34 -58l38 -97h-32 l-36 92h-23v-92h-31zM162 572h19q38 0 38 39v1q0 39 -42 39h-15v-79z" />
<glyph unicode="&#xaf;" horiz-adv-x="304" d="M71 649v44h163v-44h-163z" />
<glyph unicode="&#xb0;" horiz-adv-x="288" d="M36 501v79q0 90 34 118q29 24 74 24q47 0 74 -24q34 -28 34 -118v-79q0 -89 -34 -119q-26 -23 -74 -23q-46 0 -74 23q-34 30 -34 119zM92 491q0 -21 1 -32t5.5 -26t15.5 -22t30 -7q15 0 25.5 5.5t15.5 12.5t7.5 21t3 22t0.5 26v99q0 18 -0.5 26t-3 22t-7.5 21t-15.5 12.5 t-25.5 5.5q-19 0 -30 -7t-15.5 -22t-5.5 -26t-1 -32v-99z" />
<glyph unicode="&#xb1;" d="M33 0v53h442v-53h-442zM33 327v53h193v185h57v-185h192v-53h-192v-187h-57v187h-193z" />
<glyph unicode="&#xb2;" horiz-adv-x="255" d="M19 286v43l73 102q86 115 86 183v1q0 63 -48 63q-25 0 -39 -20.5t-14 -56.5v-1h-52v1q0 60 28 90.5t79 30.5t75.5 -29t24.5 -79v-1q0 -79 -90 -196l-59 -85h146v-46h-210z" />
<glyph unicode="&#xb3;" horiz-adv-x="260" d="M21 396v1h53v-1q0 -16 1 -25t5 -22t15 -19.5t29 -6.5q24 0 37 14t14.5 26t1.5 31v17q0 36 -19 55.5t-52 19.5h-21v46h21q31 0 48.5 18.5t17.5 51.5v16q0 60 -47 60q-22 0 -33.5 -12.5t-13 -24t-1.5 -30.5v-1h-53v1q0 59 33 88q26 23 70 23q43 0 68 -22q30 -26 30 -79v-16 q0 -73 -63 -93v-2q70 -17 70 -103v-17q0 -61 -32 -88q-26 -23 -75 -23q-46 0 -72 22q-32 27 -32 95z" />
<glyph unicode="&#xb4;" horiz-adv-x="304" d="M104 604l64 111h70l-91 -111h-43z" />
<glyph unicode="&#xb5;" horiz-adv-x="348" d="M51 -164l1 73v548l-1 73h59l-1 -73v-327q0 -25 0.5 -36t4.5 -25.5t13 -20t24 -5.5q46 0 87 58v356l-1 73h59l-1 -73v-384l1 -73h-56v60h-1q-49 -64 -99 -64q-30 0 -37 24l-2 -1q4 -16 4 -61v-49l1 -73h-55z" />
<glyph unicode="&#xb6;" horiz-adv-x="487" d="M19 513v2q0 44 8 78t27.5 62.5t55.5 44t88 15.5h235l-1 -73v-733l1 -73h-64l1 73v751h-81v-751l1 -73h-64l1 73v404h-29q-100 0 -139.5 53.5t-39.5 146.5zM83 513q0 -68 27 -107t95 -39h22v293h-22q-68 0 -95 -38.5t-27 -106.5v-2z" />
<glyph unicode="&#xb7;" horiz-adv-x="168" d="M41 248v104h85v-104h-85z" />
<glyph unicode="&#xb8;" horiz-adv-x="304" d="M84 -149l3 31q30 -14 56 -14q44 0 44 30q0 31 -47 31h-13l13 75h39l-9 -51q29 -2 47.5 -16.5t18.5 -40.5q0 -28 -23.5 -43t-65.5 -15q-35 0 -63 13z" />
<glyph unicode="&#xb9;" horiz-adv-x="167" d="M20 646v30q52 15 66 41h34v-431h-56v360h-44z" />
<glyph unicode="&#xba;" horiz-adv-x="267" d="M27 397v120q0 98 33 129q26 23 73 23q46 0 72 -23q34 -32 34 -129v-120q0 -98 -34 -130q-26 -23 -72 -23q-47 0 -73 23q-33 31 -33 130zM80 387q0 -22 0.5 -32.5t3 -25.5t8 -22t16 -12t25.5 -5q25 0 37 14t14 31t2 52v140q0 35 -2 51.5t-14 30.5t-37 14q-15 0 -25.5 -5 t-16 -12t-8 -22t-3 -25t-0.5 -32v-140z" />
<glyph unicode="&#xbb;" horiz-adv-x="351" d="M38 131l89 172l-89 173h47l103 -167v-12l-104 -166h-46zM179 131l89 172l-89 173h48l102 -167v-12l-104 -166h-46z" />
<glyph unicode="&#xbc;" horiz-adv-x="514" d="M20 646v30q52 15 66 41h34v-431h-56v360h-44zM100 0l191 715h49l-191 -715h-49zM258 103v48l136 278h59v-281h45v-45h-45v-103h-53v103h-142zM306 148h94v153q0 16 3 55h-2q-2 -6 -8 -20.5t-9 -20.5z" />
<glyph unicode="&#xbd;" horiz-adv-x="530" d="M20 646v30q52 15 66 41h34v-431h-56v360h-44zM100 0l191 715h49l-191 -715h-49zM294 0v43l73 102q86 115 86 183v1q0 63 -48 63q-25 0 -39 -20.5t-14 -56.5v-1h-52v1q0 60 28 90.5t79 30.5t75.5 -29t24.5 -79v-1q0 -79 -90 -196l-59 -85h146v-46h-210z" />
<glyph unicode="&#xbe;" horiz-adv-x="607" d="M21 396v1h53v-1q0 -16 1 -25t5 -22t15 -19.5t29 -6.5q24 0 37 14t14.5 26t1.5 31v17q0 36 -19 55.5t-52 19.5h-21v46h21q31 0 48.5 18.5t17.5 51.5v16q0 60 -47 60q-22 0 -33.5 -12.5t-13 -24t-1.5 -30.5v-1h-53v1q0 59 33 88q26 23 70 23q43 0 68 -22q30 -26 30 -79v-16 q0 -73 -63 -93v-2q70 -17 70 -103v-17q0 -61 -32 -88q-26 -23 -75 -23q-46 0 -72 22q-32 27 -32 95zM193 0l191 715h49l-191 -715h-49zM351 103v48l136 278h59v-281h45v-45h-45v-103h-53v103h-142zM399 148h94v153q0 16 3 55h-2q-2 -6 -8.5 -20.5t-8.5 -20.5z" />
<glyph unicode="&#xbf;" horiz-adv-x="292" d="M21 -47q0 64 44 139q23 40 33 59.5t21.5 60t11.5 81.5v26h52v-28q0 -44 -11.5 -88t-22 -68t-30.5 -62q-39 -72 -39 -120q0 -72 61 -72q53 0 83 79l50 -19q-42 -113 -137 -113q-54 0 -85 33t-31 92zM128 415v115h58v-115h-58z" />
<glyph unicode="&#xc0;" horiz-adv-x="347" d="M16 0l116 715h84l115 -715h-62l-28 178h-135l-27 -178h-63zM86 867h72l63 -111h-43zM114 234h119l-46 302q-1 11 -4 31t-5 35.5t-3 25.5h-3q-4 -40 -12 -92z" />
<glyph unicode="&#xc1;" horiz-adv-x="347" d="M16 0l116 715h84l115 -715h-62l-28 178h-135l-27 -178h-63zM114 234h119l-46 302q-1 11 -4 31t-5 35.5t-3 25.5h-3q-4 -40 -12 -92zM125 756l64 111h70l-91 -111h-43z" />
<glyph unicode="&#xc2;" horiz-adv-x="347" d="M16 0l116 715h84l115 -715h-62l-28 178h-135l-27 -178h-63zM79 756l66 111h55l67 -111h-38l-56 72l-56 -72h-38zM114 234h119l-46 302q-1 11 -4 31t-5 35.5t-3 25.5h-3q-4 -40 -12 -92z" />
<glyph unicode="&#xc3;" horiz-adv-x="347" d="M16 0l116 715h84l115 -715h-62l-28 178h-135l-27 -178h-63zM57 768q0 54 19 78.5t48 24.5q31 0 57 -32q26 -30 42 -30q29 0 29 58h34q0 -53 -19.5 -77.5t-48.5 -24.5t-57 32q-26 30 -42 30q-28 0 -28 -59h-34zM114 234h119l-46 302q-1 11 -4 31t-5 35.5t-3 25.5h-3 q-4 -40 -12 -92z" />
<glyph unicode="&#xc4;" horiz-adv-x="347" d="M16 0l116 715h84l115 -715h-62l-28 178h-135l-27 -178h-63zM83 759v97h57v-97h-57zM114 234h119l-46 302q-1 11 -4 31t-5 35.5t-3 25.5h-3q-4 -40 -12 -92zM207 759v97h56v-97h-56z" />
<glyph unicode="&#xc5;" horiz-adv-x="347" d="M16 0l116 715h84l115 -715h-62l-28 178h-135l-27 -178h-63zM92 829q0 32 22 55t60 23q37 0 58.5 -23.5t21.5 -54.5t-21.5 -53.5t-58.5 -22.5q-38 0 -60 22.5t-22 53.5zM114 234h119l-46 302q-1 11 -4 31t-5 35.5t-3 25.5h-3q-4 -40 -12 -92zM127 829q0 -19 12 -32.5 t35 -13.5q21 0 33.5 14t12.5 32q0 19 -12.5 33.5t-33.5 14.5q-23 0 -35 -14t-12 -34z" />
<glyph unicode="&#xc6;" horiz-adv-x="531" d="M4 0l216 715h280v-55h-181v-259h150v-56h-150v-290h185v-55h-248l1 73v105h-140l-51 -178h-62zM134 234h123v426h-4q-11 -56 -38 -147z" />
<glyph unicode="&#xc7;" horiz-adv-x="365" d="M47 213v289q0 85 11.5 127t35.5 65q34 33 95 33t96 -33q25 -23 36 -63.5t11 -115.5v-2h-63v2q0 30 -0.5 46t-4.5 40t-12 36.5t-24 22t-39 9.5t-38.5 -9.5t-23.5 -22t-12 -36.5t-4.5 -40t-0.5 -46v-314q0 -31 0.5 -46.5t4.5 -40t12 -37t24 -22t39 -9.5q20 0 34 5.5t23 19 t14 25.5t7 36t2.5 38.5t0.5 43.5v4h62v-4q0 -88 -11.5 -129t-36.5 -64q-28 -27 -73 -32l-6 -36q29 -2 47.5 -16.5t18.5 -40.5q0 -28 -23.5 -43t-65.5 -15q-35 0 -63 13l3 31q30 -14 56 -14q44 0 44 30q0 31 -47 31h-13l10 60q-50 3 -80 32q-25 23 -35.5 66t-10.5 126z" />
<glyph unicode="&#xc8;" horiz-adv-x="329" d="M54 0l1 73v569l-1 73h244v-55h-181v-259h150v-56h-150v-290h184v-55h-247zM89 867h72l63 -111h-43z" />
<glyph unicode="&#xc9;" horiz-adv-x="329" d="M54 0l1 73v569l-1 73h244v-55h-181v-259h150v-56h-150v-290h184v-55h-247zM128 756l64 111h70l-91 -111h-43z" />
<glyph unicode="&#xca;" horiz-adv-x="329" d="M54 0l1 73v569l-1 73h244v-55h-181v-259h150v-56h-150v-290h184v-55h-247zM82 756l66 111h55l67 -111h-38l-56 72l-56 -72h-38z" />
<glyph unicode="&#xcb;" horiz-adv-x="329" d="M54 0l1 73v569l-1 73h244v-55h-181v-259h150v-56h-150v-290h184v-55h-247zM86 759v97h57v-97h-57zM210 759v97h56v-97h-56z" />
<glyph unicode="&#xcc;" horiz-adv-x="172" d="M-2 867h72l63 -111h-43zM54 0l1 73v569l-1 73h64l-1 -73v-569l1 -73h-64z" />
<glyph unicode="&#xcd;" horiz-adv-x="172" d="M37 756l64 111h70l-91 -111h-43zM54 0l1 73v569l-1 73h64l-1 -73v-569l1 -73h-64z" />
<glyph unicode="&#xce;" horiz-adv-x="172" d="M-9 756l66 111h55l67 -111h-38l-56 72l-56 -72h-38zM54 0l1 73v569l-1 73h64l-1 -73v-569l1 -73h-64z" />
<glyph unicode="&#xcf;" horiz-adv-x="172" d="M-5 759v97h57v-97h-57zM54 0l1 73v569l-1 73h64l-1 -73v-569l1 -73h-64zM119 759v97h56v-97h-56z" />
<glyph unicode="&#xd0;" horiz-adv-x="392" d="M10 345v56h51v241l-1 73h119q68 0 111 -41q29 -28 42.5 -72.5t13.5 -130.5v-227q0 -86 -13.5 -130.5t-42.5 -72.5q-43 -41 -111 -41h-119l1 73v272h-51zM123 55h47q45 0 74 27q39 38 39 147v257q0 109 -39 147q-29 27 -74 27h-47v-259h81v-56h-81v-290z" />
<glyph unicode="&#xd1;" horiz-adv-x="420" d="M54 0l1 73v569l-1 73h67l157 -463q18 -51 27 -89h3q-3 78 -3 94v385l-1 73h62l-1 -73v-569l1 -73h-60l-164 481q-13 35 -28 89h-3q3 -78 3 -94v-403l1 -73h-61zM96 768q0 54 19 78.5t48 24.5q31 0 57 -32q26 -30 42 -30q29 0 29 58h34q0 -53 -19.5 -77.5t-48.5 -24.5 t-57 32q-26 30 -42 30q-28 0 -28 -59h-34z" />
<glyph unicode="&#xd2;" horiz-adv-x="379" d="M47 213v289q0 85 11.5 127t35.5 65q35 33 95 33t96 -33q47 -45 47 -192v-289q0 -148 -47 -193q-35 -32 -96 -32t-95 32q-24 23 -35.5 65.5t-11.5 127.5zM101 867h72l63 -111h-43zM110 200q0 -30 0.5 -46t4.5 -40t12 -36.5t23.5 -22t38.5 -9.5t39 9.5t24 22t12 36.5 t4.5 40t0.5 46v315q0 30 -0.5 46t-4.5 40t-12 36.5t-24 22t-39 9.5t-38.5 -9.5t-23.5 -22t-12 -36.5t-4.5 -40t-0.5 -46v-315z" />
<glyph unicode="&#xd3;" horiz-adv-x="379" d="M47 213v289q0 85 11.5 127t35.5 65q35 33 95 33t96 -33q47 -45 47 -192v-289q0 -148 -47 -193q-35 -32 -96 -32t-95 32q-24 23 -35.5 65.5t-11.5 127.5zM110 200q0 -30 0.5 -46t4.5 -40t12 -36.5t23.5 -22t38.5 -9.5t39 9.5t24 22t12 36.5t4.5 40t0.5 46v315 q0 30 -0.5 46t-4.5 40t-12 36.5t-24 22t-39 9.5t-38.5 -9.5t-23.5 -22t-12 -36.5t-4.5 -40t-0.5 -46v-315zM141 756l64 111h70l-91 -111h-43z" />
<glyph unicode="&#xd4;" horiz-adv-x="379" d="M47 213v289q0 85 11.5 127t35.5 65q35 33 95 33t96 -33q47 -45 47 -192v-289q0 -148 -47 -193q-35 -32 -96 -32t-95 32q-24 23 -35.5 65.5t-11.5 127.5zM95 756l66 111h55l67 -111h-38l-56 72l-56 -72h-38zM110 200q0 -30 0.5 -46t4.5 -40t12 -36.5t23.5 -22t38.5 -9.5 t39 9.5t24 22t12 36.5t4.5 40t0.5 46v315q0 30 -0.5 46t-4.5 40t-12 36.5t-24 22t-39 9.5t-38.5 -9.5t-23.5 -22t-12 -36.5t-4.5 -40t-0.5 -46v-315z" />
<glyph unicode="&#xd5;" horiz-adv-x="379" d="M47 213v289q0 85 11.5 127t35.5 65q35 33 95 33t96 -33q47 -45 47 -192v-289q0 -148 -47 -193q-35 -32 -96 -32t-95 32q-24 23 -35.5 65.5t-11.5 127.5zM73 768q0 54 19 78.5t48 24.5q31 0 57 -32q26 -30 42 -30q29 0 29 58h34q0 -53 -19.5 -77.5t-48.5 -24.5t-57 32 q-26 30 -42 30q-28 0 -28 -59h-34zM110 200q0 -30 0.5 -46t4.5 -40t12 -36.5t23.5 -22t38.5 -9.5t39 9.5t24 22t12 36.5t4.5 40t0.5 46v315q0 30 -0.5 46t-4.5 40t-12 36.5t-24 22t-39 9.5t-38.5 -9.5t-23.5 -22t-12 -36.5t-4.5 -40t-0.5 -46v-315z" />
<glyph unicode="&#xd6;" horiz-adv-x="379" d="M47 213v289q0 85 11.5 127t35.5 65q35 33 95 33t96 -33q47 -45 47 -192v-289q0 -148 -47 -193q-35 -32 -96 -32t-95 32q-24 23 -35.5 65.5t-11.5 127.5zM99 759v97h57v-97h-57zM110 200q0 -30 0.5 -46t4.5 -40t12 -36.5t23.5 -22t38.5 -9.5t39 9.5t24 22t12 36.5t4.5 40 t0.5 46v315q0 30 -0.5 46t-4.5 40t-12 36.5t-24 22t-39 9.5t-38.5 -9.5t-23.5 -22t-12 -36.5t-4.5 -40t-0.5 -46v-315zM223 759v97h56v-97h-56z" />
<glyph unicode="&#xd7;" d="M29 496l40 38l186 -196l185 197l39 -38l-186 -198l187 -197l-40 -38l-185 196l-186 -195l-39 37l186 197z" />
<glyph unicode="&#xd8;" horiz-adv-x="379" d="M47 213v289q0 85 11.5 127t35.5 65q35 33 95 33q29 0 56 -10l11 52h45l-16 -75q47 -45 47 -192v-289q0 -148 -47 -193q-35 -32 -96 -32q-29 0 -53 8l-14 -71h-45l19 92q-26 25 -37.5 67.5t-11.5 128.5zM110 200q0 -72 8 -100l115 557q-19 12 -44 12q-23 0 -38.5 -9.5 t-23.5 -22t-12 -36.5t-4.5 -40t-0.5 -46v-315zM149 55q15 -9 40 -9q23 0 39 9.5t24 22t12 36.5t4.5 40t0.5 46v315q0 65 -6 92z" />
<glyph unicode="&#xd9;" horiz-adv-x="386" d="M50 715h64l-1 -73v-486q0 -110 80 -110t80 110v486l-1 73h64l-1 -73v-491q0 -78 -37.5 -120.5t-104.5 -42.5t-104.5 42.5t-37.5 120.5v491zM105 867h72l63 -111h-43z" />
<glyph unicode="&#xda;" horiz-adv-x="386" d="M50 715h64l-1 -73v-486q0 -110 80 -110t80 110v486l-1 73h64l-1 -73v-491q0 -78 -37.5 -120.5t-104.5 -42.5t-104.5 42.5t-37.5 120.5v491zM145 756l64 111h70l-91 -111h-43z" />
<glyph unicode="&#xdb;" horiz-adv-x="386" d="M50 715h64l-1 -73v-486q0 -110 80 -110t80 110v486l-1 73h64l-1 -73v-491q0 -78 -37.5 -120.5t-104.5 -42.5t-104.5 42.5t-37.5 120.5v491zM98 756l66 111h55l67 -111h-38l-56 72l-56 -72h-38z" />
<glyph unicode="&#xdc;" horiz-adv-x="386" d="M50 715h64l-1 -73v-486q0 -110 80 -110t80 110v486l-1 73h64l-1 -73v-491q0 -78 -37.5 -120.5t-104.5 -42.5t-104.5 42.5t-37.5 120.5v491zM102 759v97h57v-97h-57zM226 759v97h56v-97h-56z" />
<glyph unicode="&#xdd;" horiz-adv-x="340" d="M12 715h63l95 -336h2l94 336h62l-127 -423v-219l1 -73h-64l1 73v219zM123 756l64 111h70l-91 -111h-43z" />
<glyph unicode="&#xde;" horiz-adv-x="367" d="M54 0l1 73v569l-1 73h64l-1 -73v-56h43q100 0 139.5 -53.5t39.5 -146.5v-42q0 -94 -39.5 -147.5t-139.5 -53.5h-43v-70l1 -73h-64zM117 198h36q68 0 95.5 38.5t27.5 107.5v42q0 68 -27 106.5t-96 38.5h-36v-333z" />
<glyph unicode="&#xdf;" horiz-adv-x="366" d="M48 0l1 73v524q0 60 33 91t87 31q63 0 96.5 -40.5t33.5 -98.5q0 -50 -23 -87t-51 -43v-4q49 -18 80 -79.5t31 -162.5q0 -59 -10.5 -103.5t-38.5 -75t-71 -30.5q-36 0 -57 10v49q19 -10 49 -10q71 0 71 158q0 198 -111 211l-9 1v49h3q36 0 59 32t23 79q0 42 -19.5 68.5 t-54.5 26.5q-64 0 -64 -78v-518l1 -73h-59z" />
<glyph unicode="&#xe0;" horiz-adv-x="327" d="M23 112q0 117 101 182q4 3 101 58v56q0 85 -62 85q-65 0 -70 -91h-57q9 138 129 138q117 0 117 -137v-330q0 -35 6 -73h-57q0 2 -2 26t-3 47h-2q-59 -79 -117 -79q-39 0 -61.5 30t-22.5 88zM77 715h72l63 -111h-43zM83 120q0 -74 48 -74q45 0 94 77v189q-60 -36 -83 -54 q-59 -50 -59 -138z" />
<glyph unicode="&#xe1;" horiz-adv-x="327" d="M23 112q0 117 101 182q4 3 101 58v56q0 85 -62 85q-65 0 -70 -91h-57q9 138 129 138q117 0 117 -137v-330q0 -35 6 -73h-57q0 2 -2 26t-3 47h-2q-59 -79 -117 -79q-39 0 -61.5 30t-22.5 88zM83 120q0 -74 48 -74q45 0 94 77v189q-60 -36 -83 -54q-59 -50 -59 -138z M117 604l64 111h70l-91 -111h-43z" />
<glyph unicode="&#xe2;" horiz-adv-x="327" d="M23 112q0 117 101 182q4 3 101 58v56q0 85 -62 85q-65 0 -70 -91h-57q9 138 129 138q117 0 117 -137v-330q0 -35 6 -73h-57q0 2 -2 26t-3 47h-2q-59 -79 -117 -79q-39 0 -61.5 30t-22.5 88zM70 604l66 111h55l67 -111h-38l-56 73l-56 -73h-38zM83 120q0 -74 48 -74 q45 0 94 77v189q-60 -36 -83 -54q-59 -50 -59 -138z" />
<glyph unicode="&#xe3;" horiz-adv-x="327" d="M23 112q0 117 101 182q4 3 101 58v56q0 85 -62 85q-65 0 -70 -91h-57q9 138 129 138q117 0 117 -137v-330q0 -35 6 -73h-57q0 2 -2 26t-3 47h-2q-59 -79 -117 -79q-39 0 -61.5 30t-22.5 88zM49 616q0 54 19 78.5t48 24.5q31 0 57 -32q26 -30 42 -30q29 0 29 58h34 q0 -53 -19.5 -77.5t-48.5 -24.5t-57 32q-26 30 -42 30q-28 0 -28 -59h-34zM83 120q0 -74 48 -74q45 0 94 77v189q-60 -36 -83 -54q-59 -50 -59 -138z" />
<glyph unicode="&#xe4;" horiz-adv-x="327" d="M23 112q0 117 101 182q4 3 101 58v56q0 85 -62 85q-65 0 -70 -91h-57q9 138 129 138q117 0 117 -137v-330q0 -35 6 -73h-57q0 2 -2 26t-3 47h-2q-59 -79 -117 -79q-39 0 -61.5 30t-22.5 88zM74 618v97h57v-97h-57zM83 120q0 -74 48 -74q45 0 94 77v189q-60 -36 -83 -54 q-59 -50 -59 -138zM198 618v97h56v-97h-56z" />
<glyph unicode="&#xe5;" horiz-adv-x="327" d="M23 112q0 117 101 182q4 3 101 58v56q0 85 -62 85q-65 0 -70 -91h-57q9 138 129 138q117 0 117 -137v-330q0 -35 6 -73h-57q0 2 -2 26t-3 47h-2q-59 -79 -117 -79q-39 0 -61.5 30t-22.5 88zM83 120q0 -74 48 -74q45 0 94 77v189q-60 -36 -83 -54q-59 -50 -59 -138z M83 677q0 32 22 55t60 23q37 0 58.5 -23.5t21.5 -54.5t-21.5 -53.5t-58.5 -22.5q-38 0 -60 22.5t-22 53.5zM118 677q0 -19 12 -32t35 -13q21 0 33.5 13.5t12.5 31.5q0 19 -12.5 33.5t-33.5 14.5q-23 0 -35 -14t-12 -34z" />
<glyph unicode="&#xe6;" horiz-adv-x="505" d="M23 112q0 117 101 182q4 3 101 58v56q0 85 -62 85q-65 0 -70 -91h-57q9 138 128 138q72 0 92 -57h1q20 57 94 57q51 0 79 -28q40 -40 40 -167v-82h-188v-87q0 -56 4.5 -81.5t17.5 -38.5q16 -16 44 -16t44 16q24 24 24 90v2h54v-2q0 -89 -40 -128q-28 -28 -82 -28 q-55 0 -84 29q-23 23 -31 67h-2q-55 -92 -125 -92q-39 0 -61 30t-22 88zM83 120q0 -74 48 -74q45 0 94 77v189q-60 -36 -83 -54q-59 -50 -59 -138zM282 306h131v49q0 35 -1 52.5t-7 40.5t-20 32.5t-37 9.5q-16 0 -27.5 -4.5t-19 -15t-11.5 -20.5t-5.5 -29t-2 -30.5 t-0.5 -35.5v-49z" />
<glyph unicode="&#xe7;" horiz-adv-x="310" d="M37 186v158q0 66 8.5 105t31.5 62q29 29 83 29q53 0 81 -28q39 -39 39 -137v-2h-55v2q0 23 -1 37t-6.5 35t-19.5 32t-37 11q-20 0 -33 -7.5t-19.5 -17t-10 -31t-4 -36t-0.5 -44.5v-178q0 -37 1 -54.5t7 -40t20 -32t37 -9.5q24 0 39 10t20.5 31.5t7 37t1.5 45.5v2h54v-2 q0 -108 -39 -146q-21 -21 -60 -27l-6 -38q29 -2 47.5 -16.5t18.5 -40.5q0 -28 -23.5 -43t-65.5 -15q-35 0 -63 13l3 31q30 -14 56 -14q44 0 44 30q0 31 -47 31h-13l10 62q-43 3 -66 27q-40 39 -40 168z" />
<glyph unicode="&#xe8;" horiz-adv-x="317" d="M37 186v159q0 66 8.5 104.5t31.5 61.5q29 29 82 29q55 0 83 -28q40 -40 40 -167v-82h-188v-87q0 -30 0.5 -44.5t4 -36t10 -31t19.5 -17t32 -7.5q24 0 39 10.5t20.5 30t7 32.5t1.5 33v2h54v-2q0 -90 -40 -128q-30 -28 -82 -28q-55 0 -83 28q-40 39 -40 168zM72 715h72 l63 -111h-43zM94 306h131v49q0 35 -1 52.5t-7 40.5t-20 32.5t-37 9.5q-16 0 -27.5 -4.5t-19 -15t-11.5 -20.5t-5.5 -29t-2 -30.5t-0.5 -35.5v-49z" />
<glyph unicode="&#xe9;" horiz-adv-x="317" d="M37 186v159q0 66 8.5 104.5t31.5 61.5q29 29 82 29q55 0 83 -28q40 -40 40 -167v-82h-188v-87q0 -30 0.5 -44.5t4 -36t10 -31t19.5 -17t32 -7.5q24 0 39 10.5t20.5 30t7 32.5t1.5 33v2h54v-2q0 -90 -40 -128q-30 -28 -82 -28q-55 0 -83 28q-40 39 -40 168zM94 306h131v49 q0 35 -1 52.5t-7 40.5t-20 32.5t-37 9.5q-16 0 -27.5 -4.5t-19 -15t-11.5 -20.5t-5.5 -29t-2 -30.5t-0.5 -35.5v-49zM112 604l64 111h70l-91 -111h-43z" />
<glyph unicode="&#xea;" horiz-adv-x="317" d="M37 186v159q0 66 8.5 104.5t31.5 61.5q29 29 82 29q55 0 83 -28q40 -40 40 -167v-82h-188v-87q0 -30 0.5 -44.5t4 -36t10 -31t19.5 -17t32 -7.5q24 0 39 10.5t20.5 30t7 32.5t1.5 33v2h54v-2q0 -90 -40 -128q-30 -28 -82 -28q-55 0 -83 28q-40 39 -40 168zM65 604l66 111 h55l67 -111h-38l-56 73l-56 -73h-38zM94 306h131v49q0 35 -1 52.5t-7 40.5t-20 32.5t-37 9.5q-16 0 -27.5 -4.5t-19 -15t-11.5 -20.5t-5.5 -29t-2 -30.5t-0.5 -35.5v-49z" />
<glyph unicode="&#xeb;" horiz-adv-x="317" d="M37 186v159q0 66 8.5 104.5t31.5 61.5q29 29 82 29q55 0 83 -28q40 -40 40 -167v-82h-188v-87q0 -30 0.5 -44.5t4 -36t10 -31t19.5 -17t32 -7.5q24 0 39 10.5t20.5 30t7 32.5t1.5 33v2h54v-2q0 -90 -40 -128q-30 -28 -82 -28q-55 0 -83 28q-40 39 -40 168zM69 618v97h57 v-97h-57zM94 306h131v49q0 35 -1 52.5t-7 40.5t-20 32.5t-37 9.5q-16 0 -27.5 -4.5t-19 -15t-11.5 -20.5t-5.5 -29t-2 -30.5t-0.5 -35.5v-49zM193 618v97h56v-97h-56z" />
<glyph unicode="&#xec;" horiz-adv-x="155" d="M-11 715h71l64 -111h-44zM48 0l1 73v384l-1 73h59l-1 -73v-384l1 -73h-59z" />
<glyph unicode="&#xed;" horiz-adv-x="155" d="M27 604l65 111h70l-91 -111h-44zM48 0l1 73v384l-1 73h59l-1 -73v-384l1 -73h-59z" />
<glyph unicode="&#xee;" horiz-adv-x="155" d="M-18 604l66 111h55l67 -111h-38l-56 73l-57 -73h-37zM48 0l1 73v384l-1 73h59l-1 -73v-384l1 -73h-59z" />
<glyph unicode="&#xef;" horiz-adv-x="155" d="M-14 618v97h56v-97h-56zM48 0l1 73v384l-1 73h59l-1 -73v-384l1 -73h-59zM109 618v97h56v-97h-56z" />
<glyph unicode="&#xf0;" horiz-adv-x="320" d="M37 186v159q0 67 8.5 105.5t31.5 61.5q28 28 77 28q38 0 55 -21h3q-16 52 -34 86l-109 -23v40l88 19q-19 29 -57 74l55 6q30 -32 52 -69l75 16v-41l-55 -12q55 -112 55 -252v-177q0 -128 -40 -167q-29 -29 -83 -29q-53 0 -82 29q-23 23 -31.5 62t-8.5 105zM94 175 q0 -29 0.5 -43.5t3.5 -35.5t10 -31t19.5 -17.5t31.5 -7.5t32 7.5t19.5 17.5t10 31t4 35.5t0.5 43.5v179q0 30 -0.5 44.5t-4 35.5t-10 31t-19.5 17.5t-32 7.5t-31.5 -7.5t-19.5 -17.5t-10 -31t-3.5 -35.5t-0.5 -44.5v-179z" />
<glyph unicode="&#xf1;" horiz-adv-x="337" d="M48 0l1 73v384l-1 73h56v-60h1q52 68 113 68q43 0 58.5 -32t15.5 -88v-345l1 -73h-59l1 73v327q0 25 -0.5 36t-4.5 25.5t-13 20t-24 5.5q-46 0 -87 -58v-356l1 -73h-59zM54 616q0 54 19 78.5t48 24.5q31 0 57 -32q26 -30 42 -30q29 0 29 58h34q0 -53 -19.5 -77.5 t-48.5 -24.5t-57 32q-26 30 -42 30q-28 0 -28 -59h-34z" />
<glyph unicode="&#xf2;" horiz-adv-x="319" d="M37 185v159q0 66 8.5 105t31.5 62q29 29 82 29q52 0 83 -29q23 -23 31.5 -62t8.5 -105v-159q0 -126 -40 -166q-29 -29 -83 -29q-55 0 -82 29q-40 41 -40 166zM72 715h72l63 -111h-43zM94 175q0 -29 0.5 -43.5t3.5 -35.5t10 -31t19.5 -17.5t31.5 -7.5t32 7.5t19.5 17.5 t10 31t4 35.5t0.5 43.5v179q0 30 -0.5 44.5t-4 35.5t-10 31t-19.5 17.5t-32 7.5t-31.5 -7.5t-19.5 -17.5t-10 -31t-3.5 -35.5t-0.5 -44.5v-179z" />
<glyph unicode="&#xf3;" horiz-adv-x="319" d="M37 185v159q0 66 8.5 105t31.5 62q29 29 82 29q52 0 83 -29q23 -23 31.5 -62t8.5 -105v-159q0 -126 -40 -166q-29 -29 -83 -29q-55 0 -82 29q-40 41 -40 166zM94 175q0 -29 0.5 -43.5t3.5 -35.5t10 -31t19.5 -17.5t31.5 -7.5t32 7.5t19.5 17.5t10 31t4 35.5t0.5 43.5v179 q0 30 -0.5 44.5t-4 35.5t-10 31t-19.5 17.5t-32 7.5t-31.5 -7.5t-19.5 -17.5t-10 -31t-3.5 -35.5t-0.5 -44.5v-179zM111 604l64 111h70l-91 -111h-43z" />
<glyph unicode="&#xf4;" horiz-adv-x="319" d="M37 185v159q0 66 8.5 105t31.5 62q29 29 82 29q52 0 83 -29q23 -23 31.5 -62t8.5 -105v-159q0 -126 -40 -166q-29 -29 -83 -29q-55 0 -82 29q-40 41 -40 166zM65 604l66 111h55l67 -111h-38l-56 73l-56 -73h-38zM94 175q0 -29 0.5 -43.5t3.5 -35.5t10 -31t19.5 -17.5 t31.5 -7.5t32 7.5t19.5 17.5t10 31t4 35.5t0.5 43.5v179q0 30 -0.5 44.5t-4 35.5t-10 31t-19.5 17.5t-32 7.5t-31.5 -7.5t-19.5 -17.5t-10 -31t-3.5 -35.5t-0.5 -44.5v-179z" />
<glyph unicode="&#xf5;" horiz-adv-x="319" d="M37 185v159q0 66 8.5 105t31.5 62q29 29 82 29q52 0 83 -29q23 -23 31.5 -62t8.5 -105v-159q0 -126 -40 -166q-29 -29 -83 -29q-55 0 -82 29q-40 41 -40 166zM43 616q0 54 19 78.5t48 24.5q31 0 57 -32q26 -30 42 -30q29 0 29 58h34q0 -53 -19.5 -77.5t-48.5 -24.5 t-57 32q-26 30 -42 30q-28 0 -28 -59h-34zM94 175q0 -29 0.5 -43.5t3.5 -35.5t10 -31t19.5 -17.5t31.5 -7.5t32 7.5t19.5 17.5t10 31t4 35.5t0.5 43.5v179q0 30 -0.5 44.5t-4 35.5t-10 31t-19.5 17.5t-32 7.5t-31.5 -7.5t-19.5 -17.5t-10 -31t-3.5 -35.5t-0.5 -44.5v-179z " />
<glyph unicode="&#xf6;" horiz-adv-x="319" d="M37 185v159q0 66 8.5 105t31.5 62q29 29 82 29q52 0 83 -29q23 -23 31.5 -62t8.5 -105v-159q0 -126 -40 -166q-29 -29 -83 -29q-55 0 -82 29q-40 41 -40 166zM69 618v97h57v-97h-57zM94 175q0 -29 0.5 -43.5t3.5 -35.5t10 -31t19.5 -17.5t31.5 -7.5t32 7.5t19.5 17.5 t10 31t4 35.5t0.5 43.5v179q0 30 -0.5 44.5t-4 35.5t-10 31t-19.5 17.5t-32 7.5t-31.5 -7.5t-19.5 -17.5t-10 -31t-3.5 -35.5t-0.5 -44.5v-179zM193 618v97h56v-97h-56z" />
<glyph unicode="&#xf7;" d="M40 272v54h427v-54h-427zM221 41v105h68v-105h-68zM221 453v105h68v-105h-68z" />
<glyph unicode="&#xf8;" horiz-adv-x="319" d="M37 185v159q0 66 8.5 105t31.5 62q29 29 82 29q27 0 43 -6l13 57h45l-19 -80q24 -23 32.5 -62t8.5 -105v-159q0 -126 -40 -166q-29 -29 -83 -29q-11 0 -29 2l-14 -67h-45l18 83q-24 18 -36.5 52t-14 58.5t-1.5 66.5zM94 175q0 -85 14 -110l84 417q-14 8 -33 8t-31.5 -7.5 t-19.5 -17.5t-10 -31t-3.5 -35.5t-0.5 -44.5v-179zM141 42q7 -2 18 -2q19 0 32 7.5t19.5 17.5t10 31t4 35.5t0.5 43.5v179q0 61 -5 84z" />
<glyph unicode="&#xf9;" horiz-adv-x="337" d="M44 530h59l-1 -73v-327q0 -25 0.5 -36t4.5 -25.5t13 -20t24 -5.5q46 0 87 58v356l-1 73h59l-1 -73v-384l1 -73h-56v60h-1q-52 -68 -113 -68q-43 0 -58.5 32t-15.5 88v345zM81 715h72l63 -111h-43z" />
<glyph unicode="&#xfa;" horiz-adv-x="337" d="M44 530h59l-1 -73v-327q0 -25 0.5 -36t4.5 -25.5t13 -20t24 -5.5q46 0 87 58v356l-1 73h59l-1 -73v-384l1 -73h-56v60h-1q-52 -68 -113 -68q-43 0 -58.5 32t-15.5 88v345zM120 604l64 111h70l-91 -111h-43z" />
<glyph unicode="&#xfb;" horiz-adv-x="337" d="M44 530h59l-1 -73v-327q0 -25 0.5 -36t4.5 -25.5t13 -20t24 -5.5q46 0 87 58v356l-1 73h59l-1 -73v-384l1 -73h-56v60h-1q-52 -68 -113 -68q-43 0 -58.5 32t-15.5 88v345zM74 604l66 111h55l67 -111h-38l-56 73l-56 -73h-38z" />
<glyph unicode="&#xfc;" horiz-adv-x="337" d="M44 530h59l-1 -73v-327q0 -25 0.5 -36t4.5 -25.5t13 -20t24 -5.5q46 0 87 58v356l-1 73h59l-1 -73v-384l1 -73h-56v60h-1q-52 -68 -113 -68q-43 0 -58.5 32t-15.5 88v345zM78 618v97h57v-97h-57zM202 618v97h56v-97h-56z" />
<glyph unicode="&#xfd;" horiz-adv-x="287" d="M15 -109q18 -2 33 -2q37 0 54 38t10 86l-97 517h56l61 -344l12 -80h3q2 19 11 78l59 346h55l-108 -582q-9 -53 -36 -82.5t-70 -29.5q-23 0 -43 4v51zM97 604l64 111h70l-91 -111h-43z" />
<glyph unicode="&#xfe;" horiz-adv-x="332" d="M48 -164l1 73v733l-1 73h59l-1 -73v-164h2q49 60 104 60q20 0 34.5 -6t23 -20.5t14 -27.5t7.5 -36.5t2.5 -38t0.5 -42.5v-202q0 -27 -0.5 -41.5t-2.5 -38.5t-7 -37.5t-13.5 -28t-23 -21t-34.5 -6.5q-58 0 -107 64v-147l1 -73h-59zM106 99q37 -58 82 -58q14 0 24 6.5 t14.5 15t7 26.5t3 30t0.5 36v221q0 30 -1 45.5t-5.5 33.5t-15 26t-28.5 8q-45 0 -81 -54v-336z" />
<glyph unicode="&#xff;" horiz-adv-x="287" d="M15 -109q18 -2 33 -2q37 0 54 38t10 86l-97 517h56l61 -344l12 -80h3q2 19 11 78l59 346h55l-108 -582q-9 -53 -36 -82.5t-70 -29.5q-23 0 -43 4v51zM55 618v97h57v-97h-57zM179 618v97h56v-97h-56z" />
<glyph unicode="&#x152;" horiz-adv-x="543" d="M47 218v279q0 79 10 125.5t38 71.5q31 28 82 28q67 0 91 -51h3v44h241v-55h-181v-259h150v-56h-150v-290h184v-55h-244v43h-3q-24 -50 -92 -50q-57 0 -88 33q-41 45 -41 192zM110 200q0 -30 0.5 -46t4.5 -40t12 -36.5t23.5 -22t38.5 -9.5t39 9.5t24 22t12 36.5t4.5 40 t0.5 46v315q0 30 -0.5 46t-4.5 40t-12 36.5t-24 22t-39 9.5t-38.5 -9.5t-23.5 -22t-12 -36.5t-4.5 -40t-0.5 -46v-315z" />
<glyph unicode="&#x153;" horiz-adv-x="505" d="M37 186v159q0 66 8.5 104.5t31.5 61.5q29 29 81 29q74 0 96 -63h1q21 63 96 63q51 0 79 -28q40 -40 40 -167v-82h-188v-88q0 -98 22 -119q16 -16 45 -16q27 0 43 16q24 24 24 90v2h54v-2q0 -89 -40 -128q-28 -28 -80 -28q-74 0 -95 63h-2q-19 -63 -96 -63q-51 0 -80 29 q-23 23 -31.5 62t-8.5 105zM94 175q0 -29 0.5 -43.5t3.5 -35.5t10 -31t19.5 -17.5t31.5 -7.5t32 7.5t19.5 17.5t10 31t4 35.5t0.5 43.5v179q0 30 -0.5 44.5t-4 35.5t-10 31t-19.5 17.5t-32 7.5t-31.5 -7.5t-19.5 -17.5t-10 -31t-3.5 -35.5t-0.5 -44.5v-179zM282 306h131v49 q0 35 -1 52.5t-7 40.5t-20 32.5t-37 9.5q-16 0 -27.5 -4.5t-19 -15t-11.5 -20.5t-5.5 -29t-2 -30.5t-0.5 -35.5v-49z" />
<glyph unicode="&#x178;" horiz-adv-x="340" d="M12 715h63l95 -336h2l94 336h62l-127 -423v-219l1 -73h-64l1 73v219zM81 759v97h57v-97h-57zM205 759v97h56v-97h-56z" />
<glyph unicode="&#x2c6;" horiz-adv-x="304" d="M58 604l66 111h55l67 -111h-38l-56 73l-56 -73h-38z" />
<glyph unicode="&#x2dc;" horiz-adv-x="304" d="M36 616q0 54 19 78.5t48 24.5q31 0 57 -32q26 -30 42 -30q29 0 29 58h34q0 -53 -19.5 -77.5t-48.5 -24.5t-57 32q-26 30 -42 30q-28 0 -28 -59h-34z" />
<glyph unicode="&#x2000;" horiz-adv-x="453" />
<glyph unicode="&#x2001;" horiz-adv-x="907" />
<glyph unicode="&#x2002;" horiz-adv-x="453" />
<glyph unicode="&#x2003;" horiz-adv-x="907" />
<glyph unicode="&#x2004;" horiz-adv-x="302" />
<glyph unicode="&#x2005;" horiz-adv-x="226" />
<glyph unicode="&#x2006;" horiz-adv-x="151" />
<glyph unicode="&#x2007;" horiz-adv-x="151" />
<glyph unicode="&#x2008;" horiz-adv-x="113" />
<glyph unicode="&#x2009;" horiz-adv-x="181" />
<glyph unicode="&#x200a;" horiz-adv-x="50" />
<glyph unicode="&#x2010;" horiz-adv-x="244" d="M40 269v60h164v-60h-164z" />
<glyph unicode="&#x2011;" horiz-adv-x="244" d="M40 269v60h164v-60h-164z" />
<glyph unicode="&#x2012;" horiz-adv-x="244" d="M40 269v60h164v-60h-164z" />
<glyph unicode="&#x2013;" horiz-adv-x="306" d="M40 272v54h226v-54h-226z" />
<glyph unicode="&#x2014;" horiz-adv-x="533" d="M40 272v54h452v-54h-452z" />
<glyph unicode="&#x2018;" horiz-adv-x="146" d="M37 474v115l48 126h31l-38 -128h19v-113h-60z" />
<glyph unicode="&#x2019;" horiz-adv-x="146" d="M31 474l38 128h-19v113h60v-115l-48 -126h-31z" />
<glyph unicode="&#x201a;" horiz-adv-x="143" d="M22 -126l39 128h-20v113h61v-115l-49 -126h-31z" />
<glyph unicode="&#x201c;" horiz-adv-x="259" d="M37 474v115l48 126h31l-39 -128h20v-113h-60zM150 474v115l48 126h31l-39 -128h20v-113h-60z" />
<glyph unicode="&#x201d;" horiz-adv-x="259" d="M31 474l38 128h-19v113h60v-115l-48 -126h-31zM144 474l38 128h-19v113h61v-115l-49 -126h-31z" />
<glyph unicode="&#x201e;" horiz-adv-x="256" d="M22 -126l39 128h-20v113h61v-115l-49 -126h-31zM135 -126l39 128h-20v113h61v-115l-48 -126h-32z" />
<glyph unicode="&#x2022;" horiz-adv-x="308" d="M52 300q0 44 29.5 74.5t72.5 30.5q42 0 72 -31t30 -74q0 -44 -30 -74t-72 -30q-43 0 -72.5 30t-29.5 74z" />
<glyph unicode="&#x2026;" horiz-adv-x="531" d="M68 0v115h58v-115h-58zM236 0v115h59v-115h-59zM405 0v115h58v-115h-58z" />
<glyph unicode="&#x202f;" horiz-adv-x="181" />
<glyph unicode="&#x2039;" horiz-adv-x="210" d="M22 297v12l102 167h49l-90 -173l90 -172h-47z" />
<glyph unicode="&#x203a;" horiz-adv-x="210" d="M38 131l89 172l-89 173h47l103 -167v-12l-104 -166h-46z" />
<glyph unicode="&#x205f;" horiz-adv-x="226" />
<glyph unicode="&#x20ac;" horiz-adv-x="405" d="M24 286v40h65v86h-65v40h65v50q0 146 44 190q35 35 96 35q60 0 95 -33q45 -44 45 -149v-2h-59v2q0 27 -1.5 42.5t-8.5 38t-25.5 34t-47.5 11.5q-22 0 -37.5 -8.5t-23 -19.5t-11.5 -35t-4.5 -40.5t-0.5 -50.5v-65h169v-40h-169v-86h169v-40h-169v-87q0 -33 0.5 -49.5 t4.5 -41t12 -35.5t23.5 -20t38.5 -9q29 0 46.5 11.5t24.5 36t8.5 42t1.5 50.5v4h59v-4q0 -119 -46 -163q-35 -33 -92 -33q-63 0 -98 35q-23 23 -33.5 65t-10.5 125v73h-65z" />
<glyph unicode="&#x2122;" horiz-adv-x="446" d="M44 684v31h140v-31h-52v-255h-36v255h-52zM209 429v286h46l42 -182q4 -20 6 -34h2q2 19 6 34l42 182h46v-286h-33v183q0 17 1 35h-2q0 -1 -2.5 -15t-4.5 -21l-43 -182h-25l-43 182l-6 36h-2q0 -5 0.5 -17.5t0.5 -17.5v-183h-31z" />
<glyph unicode="&#x25fc;" horiz-adv-x="530" d="M0 0v530h530v-530h-530z" />
</font>
</defs>
</svg>
