<?xml version="1.0" standalone="no"?>
<!DOCTYPE svg PUBLIC "-//W3C//DTD SVG 1.1//EN" "http://www.w3.org/Graphics/SVG/1.1/DTD/svg11.dtd" >
<svg xmlns="http://www.w3.org/2000/svg" xmlns:xlink="http://www.w3.org/1999/xlink" version="1.1">
<metadata></metadata>
<defs>
<font id="abril_displaybold_italic" horiz-adv-x="1024" >
<font-face units-per-em="2048" ascent="1536" descent="-512" />
<missing-glyph horiz-adv-x="409" />
<glyph unicode="&#xfb01;" horiz-adv-x="1282" d="M-422 -303q0 78 48 131t128 53q61 0 97 -35.5t36 -91.5q0 -37 -14 -71l-80 -11q-20 -35 -20 -61q0 -66 86 -66q33 0 58.5 10.5t45 35t32.5 49t25.5 73.5t19.5 85t19 104l183 1028h-154l10 53h152l18 107q84 494 602 493q123 0 215.5 -59.5t92.5 -161.5q0 -78 -47.5 -127 t-120.5 -49q-61 0 -99.5 34.5t-38.5 90.5q0 29 17 71l80 9q12 31 12 53q0 43 -34 65.5t-85 22.5q-117 0 -181.5 -78t-96.5 -252l-41 -219h639q-74 -326 -154 -752q-12 -68 -12 -104q0 -61 61 -61q55 0 127 98l47 -35q-100 -152 -270 -152q-236 0 -236 211q0 76 29 207 l115 535h-354l-173 -950q-88 -494 -505 -494q-115 0 -197 55.5t-82 155.5z" />
<glyph unicode="&#xfb02;" horiz-adv-x="1310" d="M-422 -303q0 78 48 131t128 53q61 0 97 -34.5t36 -92.5q0 -37 -14 -71l-80 -11q-18 -33 -18 -61q0 -66 88 -66q33 0 57.5 9.5t43 36t30.5 49t25.5 75t19.5 84t20 103.5l183 1028h-154l10 53h152l16 104q37 231 169 363.5t349 132.5q98 0 174 -45t101 -127l203 123l28 -2 l-200 -1102q-39 -209 -39 -280q0 -80 61 -80q57 0 129 94l45 -33q-59 -82 -121.5 -118t-150.5 -36q-240 0 -240 222q0 111 70 452l110 545q-68 0 -105.5 33t-37.5 88q0 37 14 67l76 7q16 31 17 61q0 37 -32 58.5t-75 21.5q-106 0 -156.5 -88t-83.5 -279l-30 -182h229 l-10 -53h-228l-172 -950q-43 -242 -163.5 -368t-339.5 -126q-115 0 -197 55.5t-82 155.5z" />
<glyph unicode="&#xfb03;" horiz-adv-x="1923" d="M-422 -303q0 78 48 131t128 53q61 0 97 -34.5t36 -92.5q0 -37 -14 -71l-80 -11q-18 -33 -18 -61q0 -66 88 -66q33 0 57.5 9.5t43 36t30.5 49t25.5 75t19.5 84t20 103.5l183 1028h-154l10 53h152l14 82q41 240 178.5 368t352.5 128q180 0 280 -144q70 72 188.5 119 t237.5 47q135 0 225.5 -59.5t90.5 -163.5q0 -78 -46.5 -127t-119.5 -49q-66 0 -102 34.5t-36 90.5q0 39 15 69l80 13q14 29 14 55q0 41 -33 63.5t-82 22.5q-113 0 -184.5 -87t-103.5 -280l-31 -182h635q-74 -326 -154 -752q-12 -68 -12 -104q0 -61 61 -61q55 0 127 98 l47 -35q-100 -152 -270 -152q-236 0 -236 211q0 76 29 207l115 535h-350l-166 -897q-43 -238 -175 -367t-347 -129q-94 0 -169 38t-112 95q-156 -184 -354 -184q-115 0 -197 55.5t-82 155.5zM336 -68q53 -6 83 -39.5t30 -85.5q0 -31 -15 -65l-80 -10q-16 -29 -16 -54 q0 -39 36 -60t89 -21q102 0 158.5 87t91.5 271l176 975h-357l-141 -783q-31 -152 -55 -215zM541 983h356l10 53q16 80 31 119q-45 10 -69.5 42t-24.5 73q0 37 14 67l80 9q18 37 18 65q0 45 -37.5 71.5t-95.5 26.5q-111 0 -165 -86t-89 -280z" />
<glyph unicode="&#xfb04;" horiz-adv-x="1959" d="M-422 -303q0 78 48 131t128 53q61 0 97 -34.5t36 -92.5q0 -37 -14 -71l-80 -11q-18 -33 -18 -61q0 -66 88 -66q33 0 57.5 9.5t43 36t30.5 49t25.5 75t19.5 84t20 103.5l183 1028h-154l10 53h152l14 82q41 240 178.5 368t352.5 128q182 0 280 -140q152 162 357 162 q100 0 175.5 -47t104.5 -127l201 123l29 -2l-201 -1102q-39 -209 -39 -281q0 -80 61 -79q57 0 129 94l45 -33q-59 -82 -121.5 -118t-150.5 -36q-240 0 -240 222q0 111 70 452l111 549q-72 0 -108 33t-36 84q0 37 15 67l75 9q16 33 17 65q0 37 -29 56.5t-74 19.5 q-111 0 -164 -88t-83 -279l-31 -182h237l-8 -53h-237l-166 -897q-43 -238 -175 -367t-347 -129q-94 0 -169 38t-112 95q-156 -184 -354 -184q-115 0 -197 55.5t-82 155.5zM336 -68q53 -6 83 -39.5t30 -85.5q0 -31 -15 -65l-80 -10q-16 -29 -16 -54q0 -39 36 -60t89 -21 q102 0 158.5 87t91.5 271l176 975h-357l-141 -783q-31 -152 -55 -215zM541 983h356l10 53q16 80 31 119q-45 10 -69.5 42t-24.5 73q0 37 14 67l80 9q18 37 18 65q0 45 -37.5 71.5t-95.5 26.5q-111 0 -165 -86t-89 -280z" />
<glyph horiz-adv-x="0" />
<glyph unicode="&#xd;" horiz-adv-x="681" />
<glyph unicode=" "  horiz-adv-x="409" />
<glyph unicode="&#x09;" horiz-adv-x="409" />
<glyph unicode="&#xa0;" horiz-adv-x="409" />
<glyph unicode="!" horiz-adv-x="784" d="M133 106q0 -53 31 -89.5t98 -36.5q80 0 130 52t50 130q0 57 -35 88t-94 31q-78 0 -129 -50.5t-51 -124.5zM299 379l20 119q33 184 34 312t-13 235.5t-14 164.5q0 246 200 246q76 0 109 -41t33 -98q0 -70 -35 -157t-79 -166t-95 -215t-76 -283l-21 -117h-63z" />
<glyph unicode="&#x22;" horiz-adv-x="765" d="M242 1077l18 449q70 49 125 49q80 0 80 -68q0 -49 -37 -127l-137 -303h-49zM545 1077l18 449q70 49 125 49q80 0 80 -68q0 -49 -37 -127l-137 -303h-49z" />
<glyph unicode="#" horiz-adv-x="1251" d="M8 285l33 86h240l122 362h-245l30 88h240l84 266h94l-86 -266h316l84 266h90l-86 -266h247l-28 -88h-244l-119 -362h244l-29 -86h-239l-94 -285h-93l95 285h-318l-96 -285h-92l94 285h-244zM373 371h317l119 362h-313z" />
<glyph unicode="$" horiz-adv-x="1128" d="M6 -6l62 461h45q43 -276 221 -369l92 508q-256 100 -256 340q0 164 105.5 291t289.5 164l33 176h64l-31 -168q68 4 123 -4l28 172h64l-33 -185q35 -8 90 -27.5t76 -19.5q29 0 57 47h33l-57 -401h-41q-47 246 -172 321l-84 -475q63 -27 105 -51t87 -64t67.5 -97.5 t22.5 -131.5q0 -193 -121.5 -321.5t-306.5 -159.5l-26 -152h-64l25 146q-47 -6 -121 4l-27 -150h-63l29 158q-45 8 -93.5 22.5t-78 22.5t-46.5 8q-18 0 -29.5 -13t-31.5 -52h-37zM360 1104q0 -123 121 -191l74 418q-86 -18 -140.5 -75.5t-54.5 -151.5zM393 61 q51 -10 121 -10l88 479l-115 43zM541 887l114 -41l86 483q-59 16 -120 10zM580 59q223 55 223 254q0 72 -35 114t-109 79z" />
<glyph unicode="%" horiz-adv-x="1579" d="M162 1024q0 188 111.5 310t291.5 122q125 0 200 -66.5t75 -197.5q0 -197 -122 -312.5t-280 -115.5q-135 0 -205.5 69.5t-70.5 190.5zM203 0l1093 1434h80l-1087 -1434h-86zM352 954q0 -143 97 -143q57 0 100 51t62.5 129t28.5 146.5t9 128.5q0 143 -94 143 q-57 0 -100 -51t-63.5 -130t-30 -147.5t-9.5 -126.5zM764 240q0 188 111.5 310t289.5 122q127 0 201 -66.5t74 -197.5q0 -197 -121 -312.5t-279 -115.5q-135 0 -205.5 69.5t-70.5 190.5zM952 170q0 -145 99 -145q57 0 99 51t62.5 130t28.5 147.5t8 127.5q0 76 -22.5 110 t-71.5 34q-57 0 -100 -51.5t-63.5 -130t-30 -147.5t-9.5 -126z" />
<glyph unicode="&#x26;" horiz-adv-x="1798" d="M143 365q0 178 135.5 281.5t356.5 141.5v5q-150 16 -241 89.5t-91 200.5q0 180 159 276.5t402 96.5q111 0 197 -25.5t145.5 -90t59.5 -162.5q0 -92 -51.5 -140.5t-122.5 -48.5q-68 0 -102 38t-34 91q0 51 23 86h92q20 43 21 84q0 115 -164 115q-129 0 -210 -85t-81 -245 q0 -174 74 -258q80 31 129 31q84 0 84 -64q0 -70 -99 -69q-59 0 -127 45q-197 -133 -196 -357q0 -330 319 -329q229 0 360.5 151.5t159.5 388.5l-247 -32q-39 -6 -53.5 -24.5t-24.5 -70.5l-43 2q6 164 45 244t125 94q39 6 243.5 35t251.5 39q29 6 43.5 24.5t20.5 67.5l45 -2 q0 -307 -162 -336l-168 -28q-10 -96 -34.5 -181.5t-78 -173.5t-129 -150.5t-195.5 -102.5t-271 -40q-262 0 -414 101.5t-152 286.5z" />
<glyph unicode="'" horiz-adv-x="462" d="M238 1077l18 449q70 49 123 49q80 0 80 -68q0 -45 -35 -127l-139 -303h-47z" />
<glyph unicode="(" horiz-adv-x="729" d="M88 406q0 135 25 270q57 322 279 589t470 310l2 -45q-63 -14 -113.5 -47t-89 -89.5t-67.5 -119t-54.5 -159.5t-44 -186t-42.5 -224q-68 -387 -68 -599q0 -174 34 -261t124 -130l-17 -39q-195 53 -316.5 265.5t-121.5 464.5z" />
<glyph unicode=")" horiz-adv-x="729" d="M-143 -268q76 20 133 69t95 109.5t73 170t57.5 208t54.5 264.5q68 348 68 598q0 176 -33 263t-125 128l17 39q195 -53 317.5 -265t122.5 -464q0 -162 -37 -322q-70 -317 -266.5 -552.5t-474.5 -294.5z" />
<glyph unicode="*" horiz-adv-x="1028" d="M201 1024q0 74 112 104l262 72l-329 74q0 78 29.5 125t78.5 47q27 0 44.5 -11.5t47.5 -43.5l150 -160l-18 332q70 49 122 49q33 0 52.5 -15.5t19.5 -40.5q0 -41 -37 -114l-104 -213l190 160q72 57 121 57q66 0 66 -76q-1 -41 -21 -96l-354 -74l235 -72q84 -25 84 -71 q0 -86 -137 -142l-199 254l13 -344q-66 -47 -123 -47q-33 0 -52.5 16.5t-19.5 41.5q0 37 31 102l117 233l-289 -256q-92 37 -92 109z" />
<glyph unicode="+" horiz-adv-x="1126" d="M90 612l14 74h418l70 399h82l-70 -399h430l-14 -74h-430l-74 -424h-82l74 424h-418z" />
<glyph unicode="," horiz-adv-x="573" d="M31 -274q236 158 235 292q0 49 -39 56l-92 -74q-35 12 -61.5 49t-26.5 84q0 76 54.5 123t127.5 47q78 0 120 -52t42 -130q0 -127 -81 -229t-249 -211z" />
<glyph unicode="-" horiz-adv-x="700" d="M78 512l20 119h492l-23 -119h-489z" />
<glyph unicode="." horiz-adv-x="550" d="M49 117q0 82 57.5 135t135.5 53q66 0 103.5 -33.5t37.5 -95.5q0 -88 -54.5 -142t-138.5 -54q-74 0 -107.5 39.5t-33.5 97.5z" />
<glyph unicode="/" horiz-adv-x="837" d="M-49 -199l907 1827h82l-905 -1827h-84z" />
<glyph unicode="0" horiz-adv-x="1224" d="M61 512q0 162 38 319.5t115 302t214 233.5t313 89q207 0 325 -125t118 -395q0 -127 -22.5 -255t-75 -256t-129 -225.5t-195.5 -158.5t-262 -61q-219 0 -329 142t-110 390zM346 319q0 -152 37 -214t129 -62q141 0 214 152.5t130 515.5q39 254 39 403q0 147 -37 213 t-127 66q-135 0 -211 -156t-131 -516q-43 -264 -43 -402z" />
<glyph unicode="1" horiz-adv-x="923" d="M23 0l8 59h225l186 1162q-66 -12 -153.5 -4t-141.5 22l15 49q152 -12 281.5 35t201.5 133h146l-228 -1397h201l-12 -59h-729z" />
<glyph unicode="2" horiz-adv-x="1069" d="M-25 0l31 188l287 283q219 217 306 370.5t87 309.5q0 127 -41 184.5t-131 57.5q-66 0 -111 -34t-45 -93q0 -29 9 -56h77q2 -16 2 -47q-6 -176 -167 -176q-72 0 -110 44t-38 114q0 139 139 225t338 86q213 0 313.5 -92t100.5 -236q0 -84 -30.5 -156.5t-110.5 -155.5 t-153 -143.5t-220 -172.5l-332 -254h436q135 0 190.5 41t94.5 143h45l-76 -430h-891z" />
<glyph unicode="3" horiz-adv-x="1132" d="M-4 219q0 88 53 148.5t144 60.5q70 0 102.5 -36t32.5 -91q0 -51 -23 -100h-82q-27 -39 -26 -74q0 -39 33.5 -61.5t95.5 -22.5q152 0 251 113.5t99 314.5q0 250 -172 250q-96 0 -205 -45l-10 59q207 68 314.5 171.5t107.5 275.5q0 98 -45 153.5t-127 55.5 q-63 0 -103.5 -30t-40.5 -85q0 -27 8 -53h74q4 -33 4 -47q-4 -168 -176 -168q-66 0 -101.5 42t-35.5 101q0 141 136 223t355 82q186 0 278.5 -72.5t92.5 -197.5q0 -74 -34.5 -133.5t-107.5 -106.5t-151 -81t-194 -72l-2 -9q76 10 123 11q170 -2 256 -88t86 -218 q0 -160 -100.5 -279.5t-248 -176t-311.5 -56.5q-172 0 -261 63.5t-89 178.5z" />
<glyph unicode="4" horiz-adv-x="1175" d="M23 367l12 77q322 317 472 536.5t150 330.5q0 57 -24 106l61 49q242 0 242 -168q0 -109 -101.5 -218t-508.5 -464l-209 -182h489l60 359l321 73l-78 -432h183l-11 -67h-182l-55 -308h190l-8 -59h-709l9 59h217l55 308h-575z" />
<glyph unicode="5" horiz-adv-x="1089" d="M-16 213q0 90 50 151.5t148 61.5q131 0 131 -119q0 -47 -24 -102h-82q-29 -37 -29 -76t35 -62.5t92 -23.5q160 0 249 146.5t89 365.5q0 127 -39 188.5t-125 61.5q-119 0 -252 -92l-49 22l182 690l31 17q188 -70 400 -70q109 0 172 35t88 115l43 -4q-37 -395 -457 -396 q-162 0 -268 45l-111 -372q178 106 377 106q172 0 257 -86t85 -229q0 -276 -191.5 -442.5t-474.5 -166.5q-156 0 -241.5 64.5t-85.5 171.5z" />
<glyph unicode="6" horiz-adv-x="1155" d="M78 455q0 166 44 334.5t131 321.5t238.5 249t342.5 96q137 0 215.5 -58.5t78.5 -166.5q0 -88 -48 -143.5t-132 -55.5q-131 0 -131 115q0 45 27 98l80 6q20 39 20 68q0 35 -26.5 54.5t-69.5 19.5q-150 0 -265.5 -175.5t-172.5 -480.5q53 72 142 120t196 48q143 0 232 -85 t89 -257q0 -268 -167 -427t-413 -159q-190 0 -300.5 117t-110.5 361zM356 258q0 -213 146 -213q119 0 198.5 150.5t79.5 416.5q0 205 -133 205q-59 0 -113.5 -39.5t-91.5 -107.5q-86 -162 -86 -412z" />
<glyph unicode="7" horiz-adv-x="1046" d="M125 981l123 477l31 12q66 -37 206 -36h650l12 -39q-78 -76 -221.5 -271.5t-225.5 -339.5h261l-17 -63h-272q-160 -295 -160 -483q0 -113 51 -197l-47 -61q-139 -12 -218 48t-79 154q0 100 60.5 207t232.5 332h-248l12 63h281q147 190 317 375h-464q-111 0 -149 -30.5 t-83 -149.5z" />
<glyph unicode="8" horiz-adv-x="1146" d="M25 332q0 168 129 287.5t352 134.5v6q-147 12 -232.5 91t-85.5 202q0 180 144.5 291.5t384.5 111.5q193 0 301 -80t108 -233q0 -152 -120.5 -260.5t-307.5 -122.5l-2 -6q354 -37 355 -322q0 -211 -164 -333t-412 -122q-211 0 -330.5 92.5t-119.5 262.5zM336 270 q0 -225 158 -225q115 0 182 124t67 310q1 236 -151 236q-117 0 -186.5 -132t-69.5 -313zM489 997q0 -207 121 -206q100 0 157.5 115.5t57.5 289.5q1 195 -120 195q-104 0 -160 -117t-56 -277z" />
<glyph unicode="9" horiz-adv-x="1157" d="M37 205q0 94 52 151.5t140 57.5q63 0 95 -35t32 -88q0 -51 -26 -98h-78q-35 -37 -35 -76q0 -74 107 -74q150 0 264 163t172 488q-49 -70 -134 -112.5t-188 -42.5q-141 0 -237.5 88t-96.5 268q0 266 159 413.5t405 147.5q422 0 422 -495q0 -123 -24 -250t-79 -261.5 t-138 -237.5t-213 -169t-288 -66t-234.5 62.5t-76.5 165.5zM395 838q0 -217 135 -217q131 0 208 155.5t77 378.5q0 123 -32.5 179.5t-110.5 56.5q-68 0 -122 -50.5t-87 -132.5t-50.5 -177t-17.5 -193z" />
<glyph unicode=":" horiz-adv-x="550" d="M53 117q0 84 56.5 136t134.5 52q66 0 104.5 -33.5t38.5 -95.5q0 -88 -55.5 -142t-138.5 -54q-74 0 -107 39.5t-33 97.5zM180 795q0 84 56.5 136t134.5 52q66 0 104.5 -34t38.5 -95q0 -88 -55.5 -142.5t-139.5 -54.5q-74 0 -106.5 40t-32.5 98z" />
<glyph unicode=";" horiz-adv-x="573" d="M29 -274q236 158 235 292q0 49 -39 56l-92 -74q-35 12 -61.5 49t-26.5 84q0 76 54.5 123t125.5 47q78 0 120 -52t42 -130q0 -127 -81 -229t-249 -211zM168 795q0 84 57 136t135 52q63 0 102.5 -34t39.5 -95q0 -88 -55.5 -142.5t-139.5 -54.5q-74 0 -106.5 40t-32.5 98z " />
<glyph unicode="&#x3c;" horiz-adv-x="1126" d="M61 571l11 58l993 389l-14 -84l-871 -338l752 -344l-14 -76z" />
<glyph unicode="=" horiz-adv-x="1126" d="M63 383l15 74h930l-15 -74h-930zM121 702l12 74h930l-12 -74h-930z" />
<glyph unicode="&#x3e;" horiz-adv-x="1126" d="M59 176l15 86l870 344l-751 338l14 74l858 -389l-10 -58z" />
<glyph unicode="?" horiz-adv-x="1089" d="M215 1174q0 98 76 164.5t171 92t197 25.5q195 0 296.5 -85t101.5 -214q0 -121 -63.5 -200.5t-154.5 -117.5t-182.5 -69t-155 -80t-63.5 -125q0 -57 37 -95t113 -38q178 0 237 219l47 -12q-27 -119 -108.5 -193.5t-212.5 -74.5q-150 0 -236 72.5t-86 189.5 q0 113 60.5 185.5t145.5 109.5t171 70.5t146.5 94t60.5 152.5q0 78 -51 120t-141 42q-88 0 -138.5 -36t-50.5 -95q0 -20 6 -45h68q4 -29 4 -45q0 -70 -39 -112t-117 -42q-70 0 -104.5 42t-34.5 100zM307 106q0 74 51 124.5t129 50.5q59 0 94 -31t35 -88q0 -78 -50 -130 t-130 -52q-68 0 -98.5 36.5t-30.5 89.5z" />
<glyph unicode="@" horiz-adv-x="1773" d="M98 229q0 412 260 677t668 265q276 0 446 -142t170 -402q0 -301 -148 -471t-331 -170q-197 0 -219 157q-111 -156 -266 -155q-121 0 -181.5 67.5t-60.5 182.5q0 135 57.5 266t172.5 223t260 92q119 0 186 -76l45 62h170l-133 -383q-70 -199 -70 -277q0 -53 21.5 -74.5 t71.5 -21.5q113 0 233.5 155.5t120.5 416.5q0 231 -143.5 361t-419.5 130q-373 0 -605.5 -252t-232.5 -627q0 -281 172 -415.5t438 -134.5q262 0 496 172l35 -48q-106 -86 -253 -134t-292 -48q-301 0 -484.5 159t-183.5 445zM655 213q0 -137 95 -137q126 0 192 186l145 436 q-53 59 -130.5 59.5t-139 -56t-94.5 -143.5t-50.5 -176t-17.5 -169z" />
<glyph unicode="A" horiz-adv-x="1288" d="M-125 0l8 59h121l715 1383h155l222 -1383h127l-9 -59h-587l8 59h139l-57 418h-420l-217 -418h162l-9 -59h-358zM326 537h383l-80 589z" />
<glyph unicode="B" horiz-adv-x="1280" d="M-16 0l10 59h135l219 1315h-141l10 60h506q254 0 385 -72t131 -242q0 -133 -109.5 -234.5t-312.5 -129.5v-4q176 -16 275.5 -91t99.5 -204q0 -104 -41 -185.5t-108.5 -131.5t-162 -82.5t-191.5 -45t-208 -12.5h-497zM424 59h72q168 0 270 104.5t102 295.5 q0 135 -61.5 194.5t-200.5 59.5h-69zM547 774h26q158 0 258.5 92t100.5 281q0 119 -61.5 173t-188.5 54h-39z" />
<glyph unicode="C" horiz-adv-x="1269" d="M74 537q0 133 31.5 264t97 249.5t158 209t223.5 143.5t284 53q90 0 207 -30.5t123 -30.5q31 0 57 43h41l-57 -428h-51q-17 387 -324 387q-100 0 -182 -59.5t-134 -151.5t-88 -210t-50.5 -230.5t-14.5 -217.5q0 -467 310 -467q139 0 255.5 93.5t182.5 289.5l55 -14 q-31 -109 -86 -191.5t-114.5 -131t-130 -79t-129 -41t-115.5 -10.5q-260 0 -404.5 141.5t-144.5 418.5z" />
<glyph unicode="D" horiz-adv-x="1439" d="M-16 0l10 59h135l221 1315h-141l8 60h508q664 0 664 -551q0 -408 -252 -645.5t-697 -237.5h-456zM424 59h53q166 0 289 84t187.5 222.5t94 287t29.5 308.5q0 129 -26.5 212.5t-83 126.5t-123 58.5t-164.5 15.5h-35z" />
<glyph unicode="E" horiz-adv-x="1232" d="M-12 0l10 59h131l219 1315h-137l10 60h1012l-45 -396h-51q-6 109 -28 175.5t-69 102.5t-106.5 47t-157.5 11h-133l-102 -612h77q109 0 171.5 57.5t111.5 204.5h45l-100 -606h-49q0 168 -43 223t-166 55h-58l-106 -637h133q219 0 328.5 84t189.5 293h51l-88 -436h-1050z " />
<glyph unicode="F" horiz-adv-x="1191" d="M-12 0l10 59h131l219 1315h-137l10 60h1012l-45 -398h-51q-12 209 -89 273.5t-274 64.5h-131l-104 -633h82q109 0 170 57.5t112 205.5h45l-102 -607h-49q0 170 -42 224.5t-165 54.5h-62l-104 -617h215l-12 -59h-639z" />
<glyph unicode="G" horiz-adv-x="1349" d="M72 539q0 125 30.5 252t96 246.5t158 212.5t225.5 149.5t288 56.5q90 0 203 -30.5t123 -30.5q31 0 57 43h39l-57 -428h-49q-10 203 -92 295t-234 92q-123 0 -218 -87t-146.5 -223.5t-76 -278.5t-24.5 -278q0 -246 71 -361.5t222 -115.5q111 0 166 37l70 434h-166l10 60 h573l-12 -60h-117l-73 -424q-92 -51 -234.5 -87t-277.5 -36q-268 0 -411.5 141.5t-143.5 420.5z" />
<glyph unicode="H" horiz-adv-x="1521" d="M-12 0l10 59h131l219 1315h-137l10 60h574l-11 -60h-141l-98 -602h499l99 602h-139l10 60h563l-10 -60h-129l-219 -1315h139l-10 -59h-574l10 59h140l108 639h-497l-111 -639h141l-10 -59h-567z" />
<glyph unicode="I" horiz-adv-x="741" d="M-10 0l10 59h127l223 1315h-137l10 60h568l-11 -60h-131l-223 -1315h137l-10 -59h-563z" />
<glyph unicode="J" horiz-adv-x="1015" d="M-10 197q0 88 51 139t131 51q131 0 131 -119q0 -55 -29 -116h-69q-18 -29 -19 -54q0 -65 85 -65h3q82 0 125 61.5t72 229.5l176 1050h-172l10 60h592l-10 -60h-125l-156 -934q-39 -236 -164.5 -348t-347.5 -112q-145 0 -214.5 60t-69.5 157z" />
<glyph unicode="K" horiz-adv-x="1370" d="M-10 0l12 59h129l219 1315h-135l10 60h566l-11 -60h-135l-106 -629l88 27l587 602h-131l9 60h346l-8 -60h-117l-449 -467l326 -848h110l-10 -59h-569l12 59h129l-229 646l-103 -29l-104 -617h133l-12 -59h-557z" />
<glyph unicode="L" horiz-adv-x="1179" d="M-12 0l10 59h131l219 1315h-137l10 60h631l-10 -60h-199l-219 -1315h108q219 0 330 88.5t199 321.5h47l-92 -469h-1028z" />
<glyph unicode="M" horiz-adv-x="1685" d="M-16 0l10 59h119l223 1315h-121l10 60h459l119 -979h6l446 979h484l-10 -60h-127l-220 -1315h136l-11 -59h-559l8 59h136l215 1309h-9l-626 -1368h-109l-153 1366h-9l-219 -1307h140l-11 -59h-327z" />
<glyph unicode="N" horiz-adv-x="1400" d="M-10 0l10 59h131l217 1315h-133l10 60h469l385 -1049h6l164 989h-129l10 60h328l-8 -60h-127l-231 -1378h-193l-481 1331h-4l-207 -1268h131l-8 -59h-340z" />
<glyph unicode="O" horiz-adv-x="1404" d="M72 528q0 172 49 334t142 296t247 216t344 82q250 0 378 -141t128 -412q0 -170 -46 -329.5t-137.5 -295t-244 -217t-344.5 -81.5q-254 0 -385 142t-131 406zM369 408q0 -180 53 -272.5t186 -92.5q123 0 216.5 99.5t143.5 256t74.5 319.5t24.5 318q0 186 -51 271.5 t-185 85.5q-125 0 -219 -94.5t-144 -247t-74.5 -315.5t-24.5 -328z" />
<glyph unicode="P" horiz-adv-x="1249" d="M-16 0l10 59h135l219 1315h-141l10 60h541q512 0 512 -336q0 -137 -55.5 -239.5t-152.5 -160t-217 -84t-265 -26.5h-66l-90 -529h248l-8 -59h-680zM524 645h60q178 0 272 142.5t94 330.5q0 150 -55 203t-184 53h-68z" />
<glyph unicode="Q" horiz-adv-x="1402" d="M72 528q0 172 49 334t142 296t247 216t344 82q250 0 378 -141t128 -412q0 -160 -42 -310.5t-124 -279.5t-218 -215t-308 -102v-12l45 -4q152 -14 217 -47t123 -138q8 -16 31.5 -59t34.5 -61.5t31.5 -45t41 -37t45.5 -10.5q63 0 139 96l43 -28q-57 -78 -117.5 -118 t-164.5 -40q-137 0 -221.5 58.5t-143.5 181.5q-35 70 -51 98.5t-50 72.5t-75 63.5t-96 27.5q-428 57 -428 534zM369 408q0 -180 53 -272.5t186 -92.5q123 0 216.5 99.5t143.5 256t74.5 319.5t24.5 318q0 186 -51 271.5t-185 85.5q-125 0 -219 -94.5t-144 -247t-74.5 -315.5 t-24.5 -328z" />
<glyph unicode="R" horiz-adv-x="1359" d="M-16 0l10 59h135l221 1315h-141l10 60h473q559 0 559 -295q0 -184 -141.5 -283t-374.5 -117v-6q160 -14 230.5 -75.5t83.5 -221.5l14 -178q6 -92 23.5 -136t62.5 -44q57 0 111 80l45 -29q-43 -72 -98.5 -112t-164.5 -40q-260 0 -280 271l-12 182q-10 156 -48 216.5 t-135 60.5h-32l-111 -648h160l-11 -59h-589zM545 764h28q152 0 254.5 95t102.5 280q0 125 -62.5 180t-191.5 55h-31z" />
<glyph unicode="S" horiz-adv-x="1120" d="M10 -20l70 481h47q12 -197 105.5 -309.5t275.5 -112.5q133 0 214 72.5t81 207.5q0 49 -18.5 89.5t-41 66t-72.5 52t-81 39t-98 36.5q-49 18 -82 33.5t-80 48.5t-76 72t-50.5 101.5t-21.5 139.5q0 205 138.5 332t345.5 127q102 0 207.5 -42t111.5 -42q29 0 62 66h43 l-62 -432h-47q-37 391 -305 391q-119 0 -200 -61.5t-81 -180.5q0 -109 64.5 -166t175.5 -96q74 -27 116 -44.5t102 -53t93 -74.5t57.5 -102.5t24.5 -143.5q0 -223 -149.5 -360.5t-364.5 -137.5q-92 0 -177 24t-140.5 47.5t-74 23.5t-30.5 -19.5t-37 -72.5h-45z" />
<glyph unicode="T" horiz-adv-x="1312" d="M106 971l99 463h1177l-55 -463h-53q-4 176 -40 263t-98.5 113.5t-187.5 26.5h-18l-219 -1315h186l-8 -59h-670l10 59h187l219 1315h-19q-186 0 -277 -77.5t-179 -325.5h-54z" />
<glyph unicode="U" horiz-adv-x="1406" d="M178 336q0 66 15 160l149 878h-135l10 60h567l-8 -60h-139l-154 -928q-14 -78 -14 -151q0 -238 248 -238q324 0 389 400l151 917h-149l8 60h359l-11 -60h-125l-151 -911q-41 -246 -167 -366t-392 -120q-215 0 -332 83t-119 276z" />
<glyph unicode="V" horiz-adv-x="1265" d="M90 1374l8 60h572l-8 -60h-156l172 -1083l557 1083h-156l8 60h349l-11 -60h-110l-715 -1380h-164l-233 1380h-113z" />
<glyph unicode="W" horiz-adv-x="1986" d="M90 1374l8 60h578l-8 -60h-146l168 -1061l365 699l-66 362h-131l10 60h594l-10 -60h-156l189 -1046l463 1046h-174l10 60h377l-11 -60h-120l-617 -1380h-170l-166 907l-481 -907h-162l-221 1380h-123z" />
<glyph unicode="X" horiz-adv-x="1294" d="M-111 0l9 59h133l477 641l-272 674h-121l8 60h618l-12 -60h-160l201 -516l393 516h-168l11 60h385l-11 -60h-131l-448 -592l297 -723h131l-10 -59h-639l10 59h172l-225 564l-420 -564h172l-8 -59h-392z" />
<glyph unicode="Y" horiz-adv-x="1183" d="M88 1374l10 60h609l-11 -60h-159l196 -629l426 629h-155l8 60h346l-8 -60h-111l-483 -717l-103 -598h166l-10 -59h-625l11 59h163l101 596l-244 719h-127z" />
<glyph unicode="Z" horiz-adv-x="1187" d="M-27 0l9 53l911 1321h-213q-98 0 -158.5 -11t-121 -50t-106.5 -114t-93 -198h-49l94 433h981l-10 -60l-885 -1315h233q342 0 484 420h53l-101 -479h-1028z" />
<glyph unicode="[" horiz-adv-x="716" d="M37 -348l340 1927h508l-8 -57h-113q-76 0 -100.5 -18.5t-36.5 -88.5l-285 -1599q-14 -76 2 -92.5t94 -16.5h115l-8 -55h-508z" />
<glyph unicode="\" horiz-adv-x="815" d="M233 1628h84l299 -1827h-86z" />
<glyph unicode="]" horiz-adv-x="716" d="M-131 -346l8 57h113q76 0 100.5 18.5t36.5 88.5l285 1599q14 76 -2.5 92.5t-94.5 16.5h-114l8 55h508l-340 -1927h-508z" />
<glyph unicode="^" horiz-adv-x="1146" d="M145 614l387 746h101l414 -746l-76 -30l-389 688l-359 -690z" />
<glyph unicode="_" horiz-adv-x="1036" d="M6 -141h1024v-76h-1024v76z" />
<glyph unicode="`" d="M561 1460q0 53 51.5 78t96.5 4l79 -35l74 -387l-37 -14l-231 270q-33 43 -33 84z" />
<glyph unicode="a" horiz-adv-x="1196" d="M43 350q0 121 31.5 234.5t92 209t160 153t222.5 57.5q174 0 244 -154l32 129q193 0 277 14q-109 -535 -148 -794q-4 -25 -4 -60q0 -43 13.5 -59.5t44.5 -16.5q61 1 127 95l43 -33q-94 -147 -252 -148q-211 0 -211 177q0 41 12 90l-10 2q-106 -268 -361 -269 q-313 0 -313 373zM330 287q0 -219 123 -219q119 0 211 194.5t92 439.5q0 113 -41 170.5t-113 57.5q-119 0 -195.5 -178.5t-76.5 -464.5z" />
<glyph unicode="b" horiz-adv-x="1144" d="M92 348q0 71 25 227l164 908h-166l8 53h461l-166 -756l10 -4q127 227 354 228q147 0 220 -92.5t73 -260.5q0 -125 -35.5 -241.5t-104.5 -215t-184.5 -158t-263.5 -59.5q-203 0 -299 98.5t-96 272.5zM360 246q0 -203 146 -203q96 0 162 107q64 106 90 256 q26 152 26.5 328.5t-112.5 176.5q-92 0 -185 -153q-127 -217 -127 -512z" />
<glyph unicode="c" horiz-adv-x="974" d="M43 369q0 274 158.5 454.5t441.5 180.5q152 0 227.5 -69t75.5 -173q0 -86 -44 -143.5t-132 -57.5q-66 0 -100.5 33t-34.5 82t33 104h77q16 41 17 78q0 94 -105 94q-82 0 -144 -56t-97 -147.5t-52.5 -188.5t-17.5 -193q0 -162 42 -233t138 -71q94 0 170 76t123 209l62 -20 q-18 -63 -49 -118.5t-82.5 -111t-132 -88.5t-181.5 -33q-190 0 -291.5 103.5t-101.5 288.5z" />
<glyph unicode="d" horiz-adv-x="1204" d="M41 340q0 119 28.5 231.5t86 212t158 160t227.5 60.5q182 0 250 -152l94 631h-154l8 53h447l-170 -995q-63 -356 -64 -412q0 -66 60 -66q61 0 125 95l45 -33q-92 -147 -252 -148q-211 0 -211 183q0 35 10 82l-10 2q-111 -266 -363 -267q-315 0 -315 363zM332 266 q0 -104 28.5 -151t96.5 -47q119 0 209 193.5t90 447.5q0 100 -38 160.5t-114 60.5q-92 0 -155.5 -99.5t-90 -245t-26.5 -319.5z" />
<glyph unicode="e" horiz-adv-x="970" d="M43 360q0 285 161 464.5t423 179.5q147 0 227 -62.5t80 -177.5q0 -240 -393 -307q-94 -14 -197 -19q-2 -45 -2 -88q0 -154 46 -217t144 -63q209 0 304 274l55 -18q-115 -348 -465 -349q-184 0 -283.5 100.5t-99.5 282.5zM348 496q76 8 126 21t104.5 45t82 92.5 t27.5 148.5q0 141 -92 141q-88 0 -157.5 -125t-90.5 -323z" />
<glyph unicode="f" horiz-adv-x="704" d="M-422 -303q0 78 48 131t128 53q61 0 97 -34.5t36 -92.5q0 -37 -14 -71l-80 -11q-18 -33 -18 -61q0 -66 88 -66q33 0 57.5 9.5t43 36t30.5 49t25.5 75t19.5 84t20 103.5l183 1028h-154l10 53h152l16 104q37 231 169 363.5t349 132.5q119 0 201 -57.5t82 -159.5 q0 -78 -46 -127t-120 -49q-66 0 -101.5 35t-35.5 90q0 37 14 67l80 9q16 33 16 65q0 76 -90 76q-92 0 -137 -90t-76 -277l-30 -182h266l-8 -53h-267l-172 -950q-43 -242 -163.5 -368t-339.5 -126q-115 0 -197 55.5t-82 155.5z" />
<glyph unicode="g" horiz-adv-x="1177" d="M-18 -295q0 82 48 130t124 48q63 0 105 -35.5t42 -111.5q0 -14 -4 -47l-102 -25q-6 -23 -7 -39q0 -78 119 -78q137 0 212 92.5t138 325.5q10 33 31 122t27 116l-10 4q-47 -92 -132.5 -153.5t-205.5 -61.5q-317 0 -318 358q0 92 16.5 181.5t55.5 175.5t94 151.5t142 105.5 t192 40q180 0 250 -156l32 131h43q152 0 236 14q-61 -295 -166 -923q-51 -297 -215 -439.5t-414 -142.5q-154 0 -243.5 55.5t-89.5 161.5zM342 279q0 -102 29.5 -149.5t95.5 -47.5q119 0 208 184.5t89 440.5q0 106 -39 164.5t-113 58.5q-80 0 -138 -73t-83.5 -184.5 t-37 -208.5t-11.5 -185z" />
<glyph unicode="h" horiz-adv-x="1210" d="M43 -14l86 381l172 1116h-154l7 53h446l-188 -899l12 -6q172 373 436 373q106 0 161.5 -57.5t55.5 -160.5q0 -59 -20 -141q-49 -178 -101 -418q-16 -82 -16 -102q0 -59 55 -59q59 0 131 96l45 -35q-100 -150 -272 -150q-109 0 -169 52.5t-60 156.5q0 61 21.5 157.5 t56 218.5t40.5 143q16 61 18 100q0 5 1 11q1 32 -13 50q-16 22 -51 23q-74 0 -147.5 -89t-124.5 -227q-80 -219 -117 -567h-26q-50 0 -134 -5q-110 -7 -151 -15z" />
<glyph unicode="i" horiz-adv-x="632" d="M80 930l8 53h449q-74 -326 -154 -752q-12 -82 -12 -104q0 -61 53 -61q55 0 127 98l45 -35q-100 -152 -268 -152q-229 0 -230 211q0 76 29 207l115 535h-162zM242 1282q0 82 57 132t147 50q150 0 150 -131q0 -82 -57.5 -132t-145.5 -50q-80 0 -115.5 37t-35.5 94z" />
<glyph unicode="j" horiz-adv-x="610" d="M-418 -295q0 78 48 129t130 51q57 0 94 -35.5t37 -93.5q0 -34 -14 -69l-82 -13q-12 -35 -12 -59q0 -70 84 -70q86 0 124 88t72 293l164 1004h-166l9 53h454l-162 -981q-84 -514 -501 -514q-115 0 -197 58.5t-82 158.5zM233 1282q0 82 58.5 132t148.5 50q150 0 150 -131 q0 -82 -57.5 -132t-145.5 -50q-80 0 -117 38t-37 93z" />
<glyph unicode="k" horiz-adv-x="1134" d="M43 -18l94 436l158 1065h-150l9 53h442l-174 -1028l141 76q244 133 238 221l-80 31q-2 10 -2 26q0 68 42 112t122 44q76 0 112.5 -41t36.5 -100q0 -117 -155 -197q-16 -8 -149.5 -74.5t-145.5 -73.5l4 -8q90 12 119 13q204 0 204 -154q0 -32 -10 -78q-35 -150 -35 -184 q0 -57 56 -58q61 1 133 101l45 -33q-100 -154 -269 -154q-104 0 -169.5 44.5t-65.5 136.5q0 29 10 73l25 105q8 31 8 59q0 80 -86 80q-63 0 -137 -35l-68 -432q-201 0 -303 -26z" />
<glyph unicode="l" horiz-adv-x="645" d="M100 199q0 86 72 452l162 830h-156l8 55h445l-242 -1303q-12 -74 -12 -96q0 -69 55 -69h2q59 0 133 96l45 -33q-59 -82 -121.5 -118t-150.5 -36q-240 0 -240 222z" />
<glyph unicode="m" horiz-adv-x="1746" d="M51 -14l84 381l78 563h-152l7 53h436l-86 -346l12 -6q33 74 66.5 130t85 116.5t122 93.5t154.5 33q82 0 126 -41t44 -113q0 -82 -35 -186l13 -7q78 168 168 257.5t225 89.5q104 0 160.5 -55.5t56.5 -145.5q0 -80 -21 -158l-104 -416q-16 -66 -16 -104q0 -59 55 -59 q57 0 131 96l45 -35q-100 -150 -270 -150q-233 0 -234 209q0 61 21.5 156.5t59.5 221.5t42 143q20 78 21 114q0 70 -62 70q-113 0 -244 -313q-84 -190 -131 -572q-186 0 -297 -20q139 604 168 721q16 78 17 114q0 70 -58 70q-72 0 -140.5 -89t-121.5 -229 q-80 -207 -115 -567q-215 0 -311 -20z" />
<glyph unicode="n" horiz-adv-x="1220" d="M51 -14l84 376l74 568h-148l7 53h436l-88 -346l14 -6q172 373 434 373q109 0 166 -57.5t57 -162.5q0 -57 -20 -135l-102 -411q-18 -70 -19 -113q0 -59 53 -59q59 0 136 96l45 -35q-103 -150 -273 -150q-109 0 -170 51.5t-61 153.5q0 59 22.5 156.5t56 215.5t42.5 155 q16 72 16 110q0 70 -61 70q-74 0 -150 -90t-127 -228q-78 -211 -113 -565h-26q-50 0 -134 -5q-110 -7 -151 -15z" />
<glyph unicode="o" horiz-adv-x="1075" d="M37 365q0 266 153.5 452.5t423.5 186.5q395 0 396 -383q0 -281 -156 -462.5t-418 -181.5q-199 0 -299 100.5t-100 287.5zM307 240q0 -211 144 -211q111 0 165 100t93 336q26 164 26 265v7q0 217 -139 217q-106 0 -163.5 -107.5t-96.5 -328.5q-29 -168 -29 -278z" />
<glyph unicode="p" horiz-adv-x="1200" d="M-139 -487l10 53h125l225 1364h-164l11 53h434l-66 -270l10 -4q143 295 400 295q141 0 215 -94.5t74 -264.5q0 -272 -147.5 -470t-364.5 -198q-201 0 -254 152l-93 -563h244l-10 -53h-649zM448.5 113.5q34.5 -52.5 118.5 -52.5q131 0 202 187.5t71 449.5q0 106 -26 154.5 t-87 48.5q-104 0 -195 -158q-118 -201 -118 -472q0 -105 34.5 -157.5z" />
<glyph unicode="q" horiz-adv-x="1150" d="M41 346q0 270 134 464t374 194q184 0 258 -173l133 152h143l-233 -1415h170l-8 -55h-633l8 55h197l125 629l-11 4q-119 -223 -340 -224q-317 0 -317 369zM330 266q0 -100 26.5 -149t89.5 -49q125 0 216.5 192.5t91.5 452.5q0 96 -38 156.5t-112 60.5q-82 0 -140 -76 t-85 -192.5t-38 -214t-11 -181.5z" />
<glyph unicode="r" horiz-adv-x="1019" d="M51 -16l90 419l74 527h-149l8 53h426l-92 -393l12 -6q39 88 72.5 149.5t85 130t118 104.5t144.5 36t130 -42t52 -128q0 -82 -48 -126t-122 -46q-51 0 -107 22l-8 150h-9q-95 0 -174 -126q-83 -132 -134 -337q-35 -135 -55 -361h-11q-153 0 -303 -26z" />
<glyph unicode="s" horiz-adv-x="942" d="M16 203q0 74 44 118t116 44q55 0 89 -32t34 -81q-4 -45 -25 -82h-71q-8 -25 -8 -38q0 -91 167 -91q113 0 171.5 45t58.5 125q0 39 -14.5 67.5t-48 50t-60.5 34t-78 30.5q-61 23 -95 39.5t-78 48t-64.5 78.5t-20.5 113q0 154 129 243t322 89q143 0 235 -51.5t92 -157.5 q0 -68 -40 -110t-113 -42q-51 0 -88 25.5t-37 66.5q0 53 31 90h63q10 27 10 43q0 76 -137 76q-109 0 -171 -44t-62 -118q0 -35 14 -61.5t47 -48t59.5 -33.5t75.5 -33q51 -20 69.5 -28.5t62.5 -29t62.5 -38.5t44 -46t36 -62.5t10.5 -75.5q0 -162 -134 -255.5t-343 -93.5 q-170 0 -262.5 60.5t-92.5 165.5z" />
<glyph unicode="t" horiz-adv-x="745" d="M80 930l8 53h148l36 221l238 66h63l-47 -287h215l-8 -53h-215l-86 -447q-43 -207 -43 -299q0 -96 84 -96q49 0 92 34t94 109l50 -34q-139 -219 -338 -220q-139 0 -204 67t-65 167q0 76 39 276l86 443h-147z" />
<glyph unicode="u" horiz-adv-x="1239" d="M82 930l8 53h436q-41 -178 -153 -739q-8 -53 -8 -70q0 -80 84 -80q94 0 176 139.5t135 354.5q45 184 61 383q217 0 314 20q-121 -563 -152 -813q-4 -37 -4 -49q0 -68 57 -68q59 0 129 97l43 -31q-102 -150 -262 -150q-217 0 -217 183q0 61 31 170l-12 4 q-31 -74 -65 -130.5t-84 -111.5t-119.5 -85t-153.5 -30q-117 0 -173.5 62.5t-56.5 169.5q0 45 8 86l125 635h-147z" />
<glyph unicode="v" horiz-adv-x="1099" d="M6 819q117 184 305 185q104 0 160.5 -49.5t56.5 -143.5q0 -29 -6 -61q-8 -45 -39.5 -204t-52.5 -270q-10 -61 -10 -96q0 -57 26.5 -83.5t88.5 -26.5q106 0 205.5 100t153.5 232.5t54 240.5q0 154 -100 158l-57 -82q-53 14 -84 51t-31 84q0 70 45 110t117 40 q100 0 151 -79t51 -182q0 -86 -20.5 -185t-69.5 -202.5t-116.5 -187.5t-174 -137.5t-231.5 -53.5q-133 0 -214 66t-81 199q0 35 6 77q25 147 94 492q8 41 9 57q0 45 -35 45q-59 0 -150 -127z" />
<glyph unicode="w" horiz-adv-x="1652" d="M6 819q70 109 142.5 147t173.5 38q96 0 150 -49.5t54 -141.5q0 -27 -6 -61q-8 -43 -47 -235.5t-51 -254.5q-10 -57 -10 -90q0 -100 88 -100q53 0 95 27.5t95 84.5v13q0 32 8 71q96 434 140 705q188 0 297 22q-103 -413 -160 -757q-6 -39 -6 -70q0 -53 25.5 -76.5 t84.5 -23.5q158 0 289 195.5t131 395.5q0 55 -24.5 97.5t-69.5 46.5l-59 -82q-53 14 -85 51t-32 84q0 68 40 108t117 40q102 0 154.5 -80t52.5 -187q0 -113 -37.5 -239.5t-107.5 -245.5t-190.5 -197t-266.5 -78q-207 0 -280 136q-131 -135 -326 -136q-119 0 -187.5 61.5 t-68.5 188.5q0 39 6 82q12 78 28.5 162t38 185.5t31.5 156.5q8 41 9 57q0 43 -33 43q-61 0 -152 -127z" />
<glyph unicode="x" horiz-adv-x="1271" d="M-10 127q0 72 46 112t114 42q37 0 67 -9l16 -116q20 -12 41 -13q41 0 95 76l153 221l-151 363q-20 51 -37 71.5t-41.5 20.5t-49 -24.5t-65.5 -90.5l-51 27q113 197 301 197q55 0 95 -15.5t70 -55.5t44 -69.5t43 -99.5l47 -115l88 133q39 57 59.5 85t57.5 66t80 54.5 t94 16.5q68 0 114 -41t46 -109q0 -72 -47.5 -113t-114.5 -43q-39 0 -68 11l-16 116q-25 10 -39 11q-45 0 -96 -76l-123 -185l162 -382q25 -57 45 -80t53 -23q61 0 115 117l53 -27q-82 -203 -295 -203q-104 0 -162.5 46.5t-101.5 150.5l-78 191l-115 -166q-51 -74 -77.5 -109 t-85 -74t-123.5 -39q-70 0 -116 41t-46 109z" />
<glyph unicode="y" horiz-adv-x="1107" d="M-188 -287q0 82 50 133.5t126 51.5q61 0 103 -37t42 -105q0 -32 -8 -63l-94 -12q-23 -33 -23 -64q0 -27 19.5 -45t56.5 -18q184 0 422 337q-131 496 -238 857q-18 63 -36.5 87.5t-45.5 24.5q-33 0 -56.5 -31.5t-57.5 -115.5l-62 24q55 129 117.5 194.5t183.5 65.5 q90 0 145.5 -48t86.5 -150q84 -289 172 -629q237 349 237 509q0 89 -69 95l-64 -86q-53 16 -87 58t-34 94q0 76 48.5 120t123.5 44q90 0 142.5 -61.5t52.5 -162.5q0 -231 -311 -674q-23 -33 -76 -108.5t-79 -112.5t-76 -101.5t-82.5 -97t-83 -77.5t-93.5 -66.5t-96 -38 t-109 -16.5q-119 0 -183 59.5t-64 165.5z" />
<glyph unicode="z" horiz-adv-x="1075" d="M12 82q0 61 64 104q59 39 140 39h15l469 471l-383 39q-17 2 -31 2q-50 1 -74 -21q-32 -28 -62 -118l-54 10q59 223 133 309.5t191 86.5q96 0 207 -76l180 -121q12 94 58 142t102 48q45 0 73.5 -23.5t28.5 -66.5q0 -57 -57.5 -101t-157.5 -50l-471 -471l414 -19h14 q53 0 83 26q34 30 64 128l52 -8q-92 -434 -330 -435q-94 0 -209 74l-190 123q-43 -192 -159 -192h-1q-55 0 -82 29.5t-27 70.5z" />
<glyph unicode="{" horiz-adv-x="802" d="M121 594l10 57q57 2 97 16.5t76 52.5t53.5 111.5t17.5 184.5q0 31 -2 90t-2 88q0 166 95 267.5t298 101.5q84 0 149 -27l-26 -51q-45 16 -84 16q-125 0 -135 -207q-2 -41 -2 -219q0 -88 -4.5 -137t-24 -105.5t-59 -90t-109.5 -64.5t-174 -53v-2q125 -27 193.5 -76 t68.5 -149.5t-70 -297.5q-72 -207 -71 -270q0 -115 102 -115q51 0 90 19l8 -56q-72 -31 -208 -30q-135 0 -206 58t-71 155q0 74 68 260q82 221 82 313q0 156 -160 160z" />
<glyph unicode="|" horiz-adv-x="665" d="M113 -260l317 1888h80l-317 -1888h-80z" />
<glyph unicode="}" horiz-adv-x="802" d="M-86 -326l27 52q45 -16 84 -17q125 0 135 207q2 41 2 219q0 88 4 137.5t23.5 105.5t59.5 90t109.5 64.5t173.5 53.5v2q-125 27 -193.5 76t-68.5 149t70 297q72 207 72 270q0 115 -103 115q-51 0 -90 -18l-8 55q72 31 209 31q135 0 205.5 -58.5t70.5 -154.5 q0 -74 -67 -260q-82 -221 -82 -314q0 -156 160 -160l-11 -57q-57 -2 -97 -16.5t-76 -52t-53 -111.5t-17 -184q0 -31 2 -90.5t2 -88.5q0 -166 -95.5 -267t-298.5 -101q-84 0 -149 26z" />
<glyph unicode="~" horiz-adv-x="1171" d="M190 551q92 264 259 264q84 0 239 -41q160 -41 254 -41q43 0 69.5 18.5t55.5 71.5l41 -12q-45 -147 -104.5 -208.5t-137.5 -61.5q-66 0 -276 45q-193 45 -228 45q-41 0 -71.5 -18.5t-65.5 -75.5z" />
<glyph unicode="&#xa1;" horiz-adv-x="784" d="M80 -340q0 70 33.5 155t78 161.5t95.5 213t78 289.5l20 117h66l-21 -119q-33 -193 -34 -316.5t13.5 -229t14.5 -175.5q0 -113 -51 -175t-152 -62q-141 0 -141 141zM307 813q0 78 50.5 130t129.5 52q68 0 98.5 -36.5t30.5 -90.5q0 -74 -52 -124t-128 -50q-59 0 -94 31 t-35 88z" />
<glyph unicode="&#xa2;" horiz-adv-x="1073" d="M113 526q0 238 147.5 393.5t407.5 163.5l59 228l64 -15l-56 -215q135 -8 203 -71.5t68 -149.5q0 -78 -44 -129t-131 -51q-121 0 -120 102q0 45 32 95h64q16 35 16 69q0 82 -100 88l-199 -778q31 -12 70 -12q94 0 169 67.5t122 186.5l59 -17q-18 -55 -49 -105t-81 -100.5 t-130 -79t-178 -28.5h-4l-56 -219l-63 14l53 209q-156 16 -239.5 110.5t-83.5 243.5zM412 526q0 -160 55 -231l186 731q-119 -31 -180 -181.5t-61 -318.5z" />
<glyph unicode="&#xa3;" horiz-adv-x="1191" d="M-61 166q0 115 75.5 176t173.5 61q80 0 152 -20q6 125 -37 281h-219l14 69h189q-49 156 -49 248q0 211 163.5 343t417.5 132q172 0 263.5 -66.5t91.5 -181.5q0 -94 -48.5 -147t-136.5 -53q-63 0 -99 31.5t-36 82.5q0 53 29 107h75q27 45 27 80q0 39 -30.5 61.5 t-82.5 22.5q-129 0 -194.5 -88t-104.5 -273l-61 -297h365l-13 -69h-368q-18 -82 -80 -299q63 -20 178 -63.5t196.5 -72t114.5 -28.5q59 0 88 39t49 147l54 -4q-41 -408 -265 -408q-51 0 -125.5 25t-122.5 48.5t-129 67.5t-94 50q-82 -176 -235 -176q-92 0 -139 48t-47 126z M25 150q0 -88 108 -89q51 0 94 34t66 98q-117 45 -160 45q-47 0 -77.5 -25t-30.5 -63z" />
<glyph unicode="&#xa4;" horiz-adv-x="1048" d="M104 1075l39 37l185 -145q94 63 213 63q123 0 200 -61l185 141l35 -33l-154 -174q57 -86 57 -201q0 -109 -61 -204l153 -201l-36 -35l-193 158q-76 -59 -192 -60q-123 0 -203 56l-182 -152l-37 37l147 182q-57 84 -57 213q0 106 59 197zM283 696q0 -123 60 -197.5 t194 -74.5q119 0 183 78t64 194q0 123 -62.5 199t-189.5 76q-123 0 -186 -78t-63 -197z" />
<glyph unicode="&#xa5;" horiz-adv-x="1226" d="M121 459l12 67h297l31 191h-299l14 67h277l-213 596h-111l8 54h592l-8 -54h-160l195 -569l364 569h-182l8 54h410l-8 -54h-140l-385 -596h285l-12 -67h-299l-31 -191h299l-12 -67h-299l-66 -400h170l-10 -59h-678l12 59h170l68 400h-299z" />
<glyph unicode="&#xa6;" horiz-adv-x="665" d="M113 -260l149 895h80l-149 -895h-80zM299 844l131 784h80l-131 -784h-80z" />
<glyph unicode="&#xa7;" horiz-adv-x="1269" d="M78 59q0 74 47 123t129 49q59 0 98 -37.5t39 -97.5q0 -47 -12 -73l-80 -15q-16 -37 -16 -69q0 -89 127 -89q125 0 216 83t128 223q-270 121 -419 316.5t-149 418.5q0 150 56.5 263.5t148.5 177t195.5 94t212.5 30.5q174 0 268 -66.5t94 -189.5q0 -74 -42 -121t-120 -47 q-66 0 -106.5 36t-40.5 93q0 43 14 74l78 14q12 33 12 66q0 96 -133 96q-262 0 -340 -270q260 -100 423 -288.5t163 -422.5q0 -150 -59.5 -272.5t-155.5 -198.5t-210 -116t-228 -40q-158 0 -248 68t-90 188zM457 938q0 -203 78.5 -398.5t234.5 -328.5q23 109 23 225 q0 418 -322 658q-14 -66 -14 -156z" />
<glyph unicode="&#xa8;" d="M387 1278q0 63 48 104t114 41q117 0 117 -102q0 -72 -45.5 -117t-116.5 -45q-117 0 -117 119zM797 1270q0 70 48 111.5t113 41.5q117 0 117 -102q0 -72 -46 -117t-116 -45q-116 0 -116 111z" />
<glyph unicode="&#xa9;" horiz-adv-x="1626" d="M139 627q0 309 194.5 492.5t485.5 183.5q311 0 492.5 -175.5t181.5 -472.5q0 -311 -186.5 -494.5t-491.5 -183.5q-326 0 -501 178.5t-175 471.5zM211 629q0 -276 160.5 -435t443.5 -159q281 0 445.5 163.5t164.5 444.5q0 287 -167.5 445.5t-438.5 158.5q-266 0 -437 -167 t-171 -451zM455 651q0 186 112.5 294t270.5 108q55 0 121.5 -20.5t70.5 -20.5q6 0 10 3t6.5 6t6.5 11t6 10h18l6 -243h-28q-23 104 -78 160.5t-133 56.5q-117 0 -174.5 -85t-57.5 -280q0 -365 236 -364q80 0 138 57t83 162h25l-9 -244h-20q-2 2 -5 8t-4 9.5t-4 6.5t-7.5 5 t-8.5 2l-71 -23q-72 -20 -136 -20q-166 0 -270 100.5t-104 300.5z" />
<glyph unicode="&#xaa;" horiz-adv-x="993" d="M131 860q0 190 99.5 331.5t271.5 141.5q135 0 166 -106l24 88q158 -4 240 10q-90 -393 -117 -557q-16 -82 39 -82q39 1 80 62l39 -29q-78 -117 -203 -117q-184 0 -143 203l-9 2q-76 -205 -258 -205q-229 0 -229 258zM360 795q0 -59 16.5 -89t59.5 -30q45 0 84 55 t62.5 133t37 152t13.5 119q0 127 -80 127q-59 0 -106.5 -94.5t-67 -198t-19.5 -174.5z" />
<glyph unicode="&#xab;" horiz-adv-x="1021" d="M59 455q1 49 58 102l405 258l29 -29l-264 -333l149 -322l-33 -25l-284 238q-59 53 -60 111zM440 455q1 51 60 102l405 258l29 -29l-266 -333l149 -322l-31 -25l-284 238q-61 51 -62 111z" />
<glyph unicode="&#xac;" horiz-adv-x="1228" d="M150 610v74h929v-348h-78v274h-851z" />
<glyph unicode="&#xad;" horiz-adv-x="690" d="M104 512l21 119h491l-22 -119h-490z" />
<glyph unicode="&#xae;" horiz-adv-x="966" d="M168 969q0 176 111.5 281.5t277.5 105.5q178 0 282.5 -101.5t104.5 -271.5q0 -172 -108.5 -278.5t-280.5 -106.5q-186 0 -286.5 103.5t-100.5 267.5zM231 971q0 -150 85 -235t241 -85q150 0 238 88t88 238q0 154 -91.5 241t-234.5 87q-145 0 -235.5 -90.5t-90.5 -243.5z M385 793v22h45v348h-45v23h147q82 0 127.5 -18.5t45.5 -73.5q0 -86 -123 -97v-2q59 -4 82.5 -25.5t23.5 -70.5v-47q0 -33 27 -33q16 0 23 11.5t12 48.5l22 -2q-2 -27 -7 -43.5t-23.5 -32t-49.5 -15.5q-82 0 -82 68v68q1 65 -73 65h-27v-172h57v-22h-182zM510 1008h6 q106 0 107 82q0 41 -22.5 57t-80.5 16h-10v-155z" />
<glyph unicode="&#xaf;" d="M444 1196l27 152h557l-27 -152h-557z" />
<glyph unicode="&#xb0;" horiz-adv-x="673" d="M156 1284q0 104 68.5 175t191.5 71q121 0 185.5 -65.5t64.5 -176.5q0 -109 -68 -180.5t-188 -71.5q-125 0 -189.5 68.5t-64.5 179.5zM238 1284q0 -82 45 -131t131 -49q78 0 125 50t47 130q0 84 -48.5 132t-129.5 48q-78 0 -124 -49t-46 -131z" />
<glyph unicode="&#xb1;" horiz-adv-x="1126" d="M37 0l12 74h930l-12 -74h-930zM143 612l15 74h415l62 358h82l-62 -358h432l-14 -74h-432l-68 -383h-81l67 383h-416z" />
<glyph unicode="&#xb2;" horiz-adv-x="692" d="M94 807l27 141l149 137q131 119 189.5 216.5t58.5 199.5q0 125 -110 125q-43 0 -66 -20.5t-23 -49.5q0 -16 7 -32h53q4 -25 4 -35q0 -51 -30.5 -81t-86.5 -30q-49 0 -73.5 30t-24.5 71q0 88 91 145t226 57q145 0 212 -57t67 -145q0 -109 -96.5 -199t-325.5 -231l-117 -72 h219q127 0 173.5 32.5t76.5 112.5h41l-55 -315h-586z" />
<glyph unicode="&#xb3;" horiz-adv-x="739" d="M102 961q0 55 38 96t102 41q94 0 94 -86q0 -29 -14 -66h-62q-18 -25 -18 -47q0 -47 75 -47q88 0 143.5 58.5t55.5 170.5q0 141 -115 142q-53 0 -104 -19l-8 64q137 43 200.5 96t63.5 145q0 115 -123 115q-31 0 -54.5 -14.5t-23.5 -36.5q0 -18 15 -39h47q2 -10 2 -31 q0 -51 -33 -82.5t-92 -31.5q-47 0 -72.5 28.5t-25.5 67.5q0 94 90 145t235 51q260 0 260 -163q0 -88 -85 -140.5t-238 -91.5l2 -8q41 4 63 4q102 0 173 -43t71 -143q0 -150 -129 -226.5t-303 -76.5q-119 0 -174.5 48t-55.5 120z" />
<glyph unicode="&#xb4;" d="M545 1126l180 383l102 23q39 8 74 -10.5t35 -61.5q0 -53 -62 -104l-299 -252z" />
<glyph unicode="&#xb5;" horiz-adv-x="1247" d="M2 -418l231 1411l304 19l-111 -664q-25 -109 -8.5 -176.5t94.5 -67.5q74 0 136.5 83t84.5 221l94 585l291 19l-137 -824q-16 -94 53 -94q66 0 113 152l49 -13q-55 -254 -281 -253q-217 0 -206 208h-4q-39 -88 -116 -149.5t-179 -61.5q-172 0 -234 226l-16 -8 q2 -8 40 -141.5t38 -139.5q41 -182 41 -252q0 -57 -44.5 -91t-103.5 -20z" />
<glyph unicode="&#xb6;" horiz-adv-x="1310" d="M162 -55q0 96 53 153.5t145 57.5q86 0 124 -63.5t5 -160.5l-96 -16q-37 -68 -1 -119t145 -51q340 0 417 453l203 1181h-172l-158 -907h-184q-195 0 -321.5 112.5t-126.5 307.5q0 264 176 402.5t467 138.5h540l-8 -56h-133l-199 -1153q-49 -283 -175 -413.5t-339 -130.5 q-182 0 -272 76.5t-90 187.5z" />
<glyph unicode="&#xb7;" horiz-adv-x="575" d="M127 629q0 84 57 135t135 51q66 0 104 -32.5t38 -94.5q0 -88 -55.5 -142t-139.5 -54q-74 0 -106.5 39.5t-32.5 97.5z" />
<glyph unicode="&#xb8;" d="M233 -350q0 39 23 63.5t63 24.5q74 0 76 -76l-51 -31q-14 -66 62 -65q47 0 80.5 40t33.5 118q0 119 -80 118q-33 0 -73 -12l-11 33l129 164h70l-119 -148q55 18 103 19q76 0 117.5 -41t41.5 -113q0 -92 -74.5 -154.5t-209.5 -62.5q-90 0 -135.5 37t-45.5 86z" />
<glyph unicode="&#xb9;" horiz-adv-x="610" d="M106 807l11 53h139l115 660q-39 -8 -98.5 -3t-90.5 13l13 47q96 -8 187 22.5t136 81.5h123l-143 -821h127l-13 -53h-506z" />
<glyph unicode="&#xba;" horiz-adv-x="960" d="M172 877q0 37 6 84q33 174 147.5 268t286.5 94q301 0 301 -262q0 -213 -118.5 -336t-315.5 -123q-152 0 -229.5 70.5t-77.5 204.5zM395 784q0 -133 99 -133q78 0 111.5 67t64.5 251q20 117 20 176q0 131 -92 131q-82 0 -118 -70.5t-62 -240.5q-23 -131 -23 -181z" />
<glyph unicode="&#xbb;" d="M59 135l267 338l-150 313l33 25l283 -233q61 -49 61 -111q0 -53 -59 -100l-406 -261zM442 135l267 338l-150 313l33 25l282 -233q59 -49 60 -111q0 -51 -57 -100l-406 -261z" />
<glyph unicode="&#xbc;" horiz-adv-x="1843" d="M164 586l10 53h139l115 659q-39 -8 -98.5 -3t-89.5 14l12 47q96 -8 187 22.5t136 81.5h123l-143 -821h127l-12 -53h-506zM385 -23l1135 1479h86l-1133 -1479h-88zM961 197l14 69q190 170 284.5 305.5t94.5 200.5q0 41 -15 68l35 28q180 4 180 -112q0 -74 -58 -139.5 t-236 -192.5l-236 -168h297l33 178l248 43l-43 -221h112l-10 -59h-113l-28 -156h122l-10 -53h-504l9 53h145l31 156h-352z" />
<glyph unicode="&#xbd;" horiz-adv-x="1843" d="M111 586l10 53h139l115 659q-39 -8 -98.5 -3t-90.5 14l13 47q96 -8 187 22.5t136 81.5h123l-143 -821h127l-13 -53h-505zM326 -23l1134 1479h86l-1132 -1479h-88zM1063 -12l27 141l149 137q131 119 189.5 216.5t58.5 199.5q0 125 -111 125q-43 0 -65.5 -20.5t-22.5 -49.5 q0 -18 6 -32h54q4 -25 4 -35q0 -51 -31 -81t-86 -30q-49 0 -73.5 29.5t-24.5 70.5q0 88 91 145.5t226 57.5q145 0 212 -57t67 -146q0 -109 -96.5 -198.5t-325.5 -231.5l-117 -71h219q127 0 173 32.5t77 112.5h41l-55 -315h-586z" />
<glyph unicode="&#xbe;" horiz-adv-x="1843" d="M180 739q0 55 38 96.5t101 41.5q94 0 95 -86q0 -31 -15 -66h-61q-18 -25 -19 -47q0 -47 76 -47q88 0 143.5 58.5t55.5 170.5q0 141 -115 141q-53 0 -104 -18l-8 64q137 43 200.5 96t63.5 145q0 115 -123 115q-31 0 -54.5 -14.5t-23.5 -36.5q0 -18 14 -39h48q2 -10 2 -31 q0 -51 -33 -83t-92 -32q-47 0 -73 29t-26 68q0 94 90.5 145t235.5 51q260 0 260 -164q0 -88 -85 -140t-239 -91l3 -8q41 4 63 4q102 0 173 -43t71 -144q0 -150 -129 -226.5t-303 -76.5q-119 0 -174.5 48.5t-55.5 119.5zM426 -23l1135 1479h86l-1133 -1479h-88zM981 197 l14 69q190 170 284.5 305.5t94.5 200.5q0 41 -14 68l35 28q180 4 180 -112q0 -74 -58.5 -139.5t-236.5 -192.5l-236 -168h297l33 178l248 43l-43 -221h113l-11 -59h-112l-29 -156h123l-10 -53h-504l8 53h146l30 156h-352z" />
<glyph unicode="&#xbf;" horiz-adv-x="1085" d="M16 -182q0 102 46.5 177t115 110.5t148.5 68.5t148.5 56.5t114.5 68.5t46 111q0 57 -37 96t-113 39q-178 0 -237 -219l-49 12q29 119 110.5 193.5t210.5 74.5q152 0 238 -72.5t86 -189.5q0 -82 -33 -143.5t-84 -97t-113.5 -64.5t-125 -54.5t-113.5 -55t-84 -80 t-33 -119.5q0 -78 51.5 -119t143.5 -41q90 0 139 34t49 95q0 23 -6 47h-68q-4 29 -4 45q0 70 39 112t115 42q70 0 105.5 -42t35.5 -102q0 -74 -43 -130t-111.5 -88t-143.5 -47t-148 -15q-195 0 -295.5 85t-100.5 212zM457 813q0 78 50 131t130 53q68 0 98.5 -36.5 t30.5 -90.5q0 -76 -51 -125t-129 -49q-57 0 -93 31t-36 86z" />
<glyph unicode="&#xc0;" horiz-adv-x="1288" d="M-125 0l8 59h121l715 1383h155l222 -1383h127l-9 -59h-587l8 59h139l-57 418h-420l-217 -418h162l-9 -59h-358zM326 537h383l-80 589zM573 1771.5q0 36.5 31 61.5t76 33l76 12l239 -344l-26 -27l-314 162q-45 25 -63.5 45.5t-18.5 57z" />
<glyph unicode="&#xc1;" horiz-adv-x="1288" d="M-125 0l8 59h121l715 1383h155l222 -1383h127l-9 -59h-587l8 59h139l-57 418h-420l-217 -418h162l-9 -59h-358zM326 537h383l-80 589zM637 1528l283 340l77 -21q47 -12 65.5 -30.5t18.5 -51.5q0 -68 -94 -110l-325 -156z" />
<glyph unicode="&#xc2;" horiz-adv-x="1288" d="M-125 0l8 59h121l715 1383h155l222 -1383h127l-9 -59h-587l8 59h139l-57 418h-420l-217 -418h162l-9 -59h-358zM326 537h383l-80 589zM494 1526l282 278q53 27 101 27q74 0 112 -74l129 -235l-26 -23l-244 150l-334 -152z" />
<glyph unicode="&#xc3;" horiz-adv-x="1288" d="M-125 0l8 59h121l715 1383h155l222 -1383h127l-9 -59h-587l8 59h139l-57 418h-420l-217 -418h162l-9 -59h-358zM326 537h383l-80 589zM504 1581q55 123 111.5 181.5t146.5 58.5q57 0 168 -49q74 -31 112 -31q78 0 123 86l41 -10q-105 -244 -250 -244q-74 0 -180 49 q-74 33 -117 33q-68 0 -118 -88z" />
<glyph unicode="&#xc4;" horiz-adv-x="1288" d="M-125 0l8 59h121l715 1383h155l222 -1383h127l-9 -59h-587l8 59h139l-57 418h-420l-217 -418h162l-9 -59h-358zM326 537h383l-80 589zM502 1649q0 70 49.5 111.5t112.5 41.5q53 0 85.5 -25.5t32.5 -74.5q0 -70 -46 -117t-118 -47q-61 0 -88.5 32t-27.5 79zM909 1645 q0 72 48 114.5t116 42.5q53 0 85 -25.5t32 -74.5q0 -70 -45 -117t-117 -47q-61 0 -90 30.5t-29 76.5z" />
<glyph unicode="&#xc5;" horiz-adv-x="1288" d="M-125 0l8 59h121l715 1383h155l222 -1383h127l-9 -59h-587l8 59h139l-57 418h-420l-217 -418h162l-9 -59h-358zM326 537h383l-80 589zM639 1634q0 90 62.5 149.5t162.5 59.5q76 0 116 -39t40 -102q0 -96 -61.5 -154.5t-161.5 -58.5q-80 0 -119 39.5t-39 105.5zM713 1649 q0 -41 23.5 -71t72.5 -30q59 0 97 39t38 96q0 43 -24.5 73t-71.5 30q-57 0 -96 -40t-39 -97z" />
<glyph unicode="&#xc6;" horiz-adv-x="1927" d="M-123 0l10 59h113l899 1315h-164l8 60h1182l-47 -396h-47q-16 203 -94 269.5t-271 66.5h-133l-104 -629h80q106 0 170.5 61.5t111.5 201.5h45l-100 -607h-49q-2 160 -46 219.5t-161 59.5h-61l-99 -621h137q201 0 320 92.5t192 284.5h50l-88 -436h-1061l10 59h139l103 619 h-418l-420 -619h162l-10 -59h-359zM549 743h383l106 631h-59z" />
<glyph unicode="&#xc7;" horiz-adv-x="1269" d="M74 537q0 133 31.5 264t97 249.5t158 209t223.5 143.5t284 53q90 0 207 -30.5t123 -30.5q31 0 57 43h41l-57 -428h-51q-17 387 -324 387q-100 0 -182 -59.5t-134 -151.5t-88 -210t-50.5 -230.5t-14.5 -217.5q0 -467 310 -467q139 0 255.5 93.5t182.5 289.5l55 -14 q-37 -123 -100.5 -214t-140 -138t-147.5 -69.5t-144 -28.5l-80 -101q55 18 102 19q76 0 118 -41t42 -113q0 -92 -75 -154.5t-210 -62.5q-90 0 -135 37t-45 86q0 39 22.5 63.5t63.5 24.5q74 0 76 -76l-51 -31q-14 -66 61 -65q47 0 81 40t34 118q0 119 -80 118q-33 0 -74 -12 l-10 33l90 114q-248 8 -385 148.5t-137 411.5z" />
<glyph unicode="&#xc8;" horiz-adv-x="1234" d="M-12 0l10 59h131l219 1315h-137l10 60h1012l-45 -396h-51q-6 109 -28 175.5t-69 102.5t-106.5 47t-157.5 11h-133l-102 -612h77q109 0 171.5 57.5t111.5 204.5h45l-100 -606h-49q0 168 -43 223t-166 55h-58l-106 -637h133q219 0 328.5 84t189.5 293h51l-88 -436h-1050z M543 1771.5q0 36.5 30.5 61.5t75.5 33l76 12l240 -344l-27 -27l-313 162q-45 25 -63.5 45.5t-18.5 57z" />
<glyph unicode="&#xc9;" horiz-adv-x="1234" d="M-12 0l10 59h131l219 1315h-137l10 60h1012l-45 -396h-51q-6 109 -28 175.5t-69 102.5t-106.5 47t-157.5 11h-133l-102 -612h77q109 0 171.5 57.5t111.5 204.5h45l-100 -606h-49q0 168 -43 223t-166 55h-58l-106 -637h133q219 0 328.5 84t189.5 293h51l-88 -436h-1050z M590 1528l282 340l78 -21q47 -12 65.5 -30.5t18.5 -51.5q0 -68 -94 -110l-326 -156z" />
<glyph unicode="&#xca;" horiz-adv-x="1234" d="M-12 0l10 59h131l219 1315h-137l10 60h1012l-45 -396h-51q-6 109 -28 175.5t-69 102.5t-106.5 47t-157.5 11h-133l-102 -612h77q109 0 171.5 57.5t111.5 204.5h45l-100 -606h-49q0 168 -43 223t-166 55h-58l-106 -637h133q219 0 328.5 84t189.5 293h51l-88 -436h-1050z M455 1526l282 278q53 27 101 27q74 0 112 -74l129 -235l-26 -23l-244 150l-334 -152z" />
<glyph unicode="&#xcb;" horiz-adv-x="1234" d="M-12 0l10 59h131l219 1315h-137l10 60h1012l-45 -396h-51q-6 109 -28 175.5t-69 102.5t-106.5 47t-157.5 11h-133l-102 -612h77q109 0 171.5 57.5t111.5 204.5h45l-100 -606h-49q0 168 -43 223t-166 55h-58l-106 -637h133q219 0 328.5 84t189.5 293h51l-88 -436h-1050z M459 1649q0 70 49.5 111.5t112.5 41.5q53 0 85.5 -25.5t32.5 -74.5q0 -70 -46 -117t-118 -47q-61 0 -88.5 32t-27.5 79zM866 1645q0 72 48 114.5t116 42.5q53 0 85 -25.5t32 -74.5q0 -70 -45 -117t-117 -47q-61 0 -90 30.5t-29 76.5z" />
<glyph unicode="&#xcc;" horiz-adv-x="741" d="M-10 0l10 59h127l223 1315h-137l10 60h568l-11 -60h-131l-223 -1315h137l-10 -59h-563zM289 1771.5q0 36.5 30.5 61.5t75.5 33l76 12l240 -344l-27 -27l-313 162q-45 25 -63.5 45.5t-18.5 57z" />
<glyph unicode="&#xcd;" horiz-adv-x="741" d="M-10 0l10 59h127l223 1315h-137l10 60h568l-11 -60h-131l-223 -1315h137l-10 -59h-563zM336 1528l282 340l78 -21q47 -12 65.5 -30.5t18.5 -51.5q0 -68 -94 -110l-326 -156z" />
<glyph unicode="&#xce;" horiz-adv-x="741" d="M-10 0l10 59h127l223 1315h-137l10 60h568l-11 -60h-131l-223 -1315h137l-10 -59h-563zM199 1526l282 278q53 27 101 27q74 0 112 -74l129 -235l-26 -23l-244 150l-334 -152z" />
<glyph unicode="&#xcf;" horiz-adv-x="741" d="M-10 0l10 59h127l223 1315h-137l10 60h568l-11 -60h-131l-223 -1315h137l-10 -59h-563zM207 1649q0 70 49.5 111.5t112.5 41.5q53 0 85.5 -25.5t32.5 -74.5q0 -70 -46 -117t-117 -47q-61 0 -89 32t-28 79zM614 1645q0 72 48 114.5t116 42.5q53 0 85 -25.5t32 -74.5 q0 -70 -45 -117t-117 -47q-61 0 -90 30.5t-29 76.5z" />
<glyph unicode="&#xd0;" horiz-adv-x="1439" d="M-16 0l10 59h135l113 670h-160l8 59h162l98 586h-141l8 60h508q664 0 664 -551q0 -408 -252 -645.5t-697 -237.5h-456zM424 59h53q166 0 289 84t187.5 222.5t94 287t29.5 308.5q0 129 -26.5 212.5t-83 126.5t-123 58.5t-164.5 15.5h-35l-98 -586h327l-8 -59h-329z" />
<glyph unicode="&#xd1;" horiz-adv-x="1400" d="M-10 0l10 59h131l217 1315h-133l10 60h469l385 -1049h6l164 989h-129l10 60h328l-8 -60h-127l-231 -1378h-193l-481 1331h-4l-207 -1268h131l-8 -59h-340zM563 1581q55 123 111.5 181.5t146.5 58.5q57 0 168 -49q74 -31 113 -31q78 0 123 86l41 -10q-105 -244 -250 -244 q-74 0 -180 49q-74 33 -117 33q-68 0 -119 -88z" />
<glyph unicode="&#xd2;" horiz-adv-x="1404" d="M72 528q0 172 49 334t142 296t247 216t344 82q250 0 378 -141t128 -412q0 -170 -46 -329.5t-137.5 -295t-244 -217t-344.5 -81.5q-254 0 -385 142t-131 406zM369 408q0 -180 53 -272.5t186 -92.5q123 0 216.5 99.5t143.5 256t74.5 319.5t24.5 318q0 186 -51 271.5 t-185 85.5q-125 0 -219 -94.5t-144 -247t-74.5 -315.5t-24.5 -328zM623 1771.5q0 36.5 30.5 61.5t75.5 33l76 12l239 -344l-26 -27l-313 162q-45 25 -63.5 45.5t-18.5 57z" />
<glyph unicode="&#xd3;" horiz-adv-x="1404" d="M72 528q0 172 49 334t142 296t247 216t344 82q250 0 378 -141t128 -412q0 -170 -46 -329.5t-137.5 -295t-244 -217t-344.5 -81.5q-254 0 -385 142t-131 406zM369 408q0 -180 53 -272.5t186 -92.5q123 0 216.5 99.5t143.5 256t74.5 319.5t24.5 318q0 186 -51 271.5 t-185 85.5q-125 0 -219 -94.5t-144 -247t-74.5 -315.5t-24.5 -328zM692 1528l283 340l78 -21q47 -12 65.5 -30.5t18.5 -51.5q0 -68 -95 -110l-325 -156z" />
<glyph unicode="&#xd4;" horiz-adv-x="1404" d="M72 528q0 172 49 334t142 296t247 216t344 82q250 0 378 -141t128 -412q0 -170 -46 -329.5t-137.5 -295t-244 -217t-344.5 -81.5q-254 0 -385 142t-131 406zM369 408q0 -180 53 -272.5t186 -92.5q123 0 216.5 99.5t143.5 256t74.5 319.5t24.5 318q0 186 -51 271.5 t-185 85.5q-125 0 -219 -94.5t-144 -247t-74.5 -315.5t-24.5 -328zM535 1526l282 278q53 27 101 27q74 0 112 -74l129 -235l-26 -23l-244 150l-334 -152z" />
<glyph unicode="&#xd5;" horiz-adv-x="1404" d="M72 528q0 172 49 334t142 296t247 216t344 82q250 0 378 -141t128 -412q0 -170 -46 -329.5t-137.5 -295t-244 -217t-344.5 -81.5q-254 0 -385 142t-131 406zM369 408q0 -180 53 -272.5t186 -92.5q123 0 216.5 99.5t143.5 256t74.5 319.5t24.5 318q0 186 -51 271.5 t-185 85.5q-125 0 -219 -94.5t-144 -247t-74.5 -315.5t-24.5 -328zM545 1581q55 123 111.5 181.5t146.5 58.5q57 0 168 -49q74 -31 112 -31q78 0 123 86l41 -10q-105 -244 -250 -244q-74 0 -180 49q-74 33 -117 33q-68 0 -118 -88z" />
<glyph unicode="&#xd6;" horiz-adv-x="1404" d="M72 528q0 172 49 334t142 296t247 216t344 82q250 0 378 -141t128 -412q0 -170 -46 -329.5t-137.5 -295t-244 -217t-344.5 -81.5q-254 0 -385 142t-131 406zM369 408q0 -180 53 -272.5t186 -92.5q123 0 216.5 99.5t143.5 256t74.5 319.5t24.5 318q0 186 -51 271.5 t-185 85.5q-125 0 -219 -94.5t-144 -247t-74.5 -315.5t-24.5 -328zM545 1649q0 70 49.5 111.5t112.5 41.5q53 0 85.5 -25.5t32.5 -74.5q0 -70 -46 -117t-117 -47q-61 0 -89 32t-28 79zM952 1645q0 72 48 114.5t116 42.5q53 0 85 -25.5t32 -74.5q0 -70 -45 -117t-117 -47 q-61 0 -90 30.5t-29 76.5z" />
<glyph unicode="&#xd7;" horiz-adv-x="1126" d="M156 342l352 301l-246 303l62 53l245 -303l359 303l43 -53l-359 -303l246 -301l-61 -49l-246 297l-352 -299z" />
<glyph unicode="&#xd8;" horiz-adv-x="1404" d="M72 528q0 172 49 334t142 296t247 216t344 82q96 0 182 -22l82 161l66 -32l-80 -156q256 -119 256 -504q0 -170 -46 -329.5t-137.5 -295t-244 -217t-344.5 -81.5q-109 0 -193 24l-88 -174l-67 33l86 170q-254 118 -254 495zM369 408q0 -145 30 -228l590 1159 q-57 53 -158 54q-125 0 -219 -94.5t-144 -247t-74.5 -315t-24.5 -328.5zM444 104q55 -61 164 -61q123 0 216.5 99.5t143.5 256t74.5 319.5t24.5 318q0 147 -33 232z" />
<glyph unicode="&#xd9;" horiz-adv-x="1406" d="M178 336q0 66 15 160l149 878h-135l10 60h567l-8 -60h-139l-154 -928q-14 -78 -14 -151q0 -238 248 -238q324 0 389 400l151 917h-149l8 60h359l-11 -60h-125l-151 -911q-41 -246 -167 -366t-392 -120q-215 0 -332 83t-119 276zM672 1771.5q0 36.5 30.5 61.5t75.5 33 l76 12l240 -344l-27 -27l-313 162q-45 25 -63.5 45.5t-18.5 57z" />
<glyph unicode="&#xda;" horiz-adv-x="1406" d="M178 336q2 -193 119 -276t332 -83q266 0 392 120t167 366l151 911h125l11 60h-359l-8 -60h149l-151 -917q-65 -400 -389 -400q-248 0 -248 238q0 74 14 151l154 928h139l8 60h-567l-10 -60h135l-149 -878q-14 -94 -15 -160zM741 1528l283 340l78 -21q47 -12 65.5 -30.5 t18.5 -51.5q0 -68 -94 -110l-326 -156z" />
<glyph unicode="&#xdb;" horiz-adv-x="1406" d="M178 336q2 -193 119 -276t332 -83q266 0 392 120t167 366l151 911h125l11 60h-359l-8 -60h149l-151 -917q-65 -400 -389 -400q-248 0 -248 238q0 74 14 151l154 928h139l8 60h-567l-10 -60h135l-149 -878q-14 -94 -15 -160zM588 1526l282 278q53 27 101 27q74 0 112 -74 l129 -235l-26 -23l-244 150l-334 -152z" />
<glyph unicode="&#xdc;" horiz-adv-x="1406" d="M178 336q0 66 15 160l149 878h-135l10 60h567l-8 -60h-139l-154 -928q-14 -78 -14 -151q0 -238 248 -238q324 0 389 400l151 917h-149l8 60h359l-11 -60h-125l-151 -911q-41 -246 -167 -366t-392 -120q-215 0 -332 83t-119 276zM594 1649q0 70 49.5 111.5t112.5 41.5 q53 0 85.5 -25.5t32.5 -74.5q0 -70 -46 -117t-117 -47q-61 0 -89 32t-28 79zM1001 1645q0 72 48 114.5t116 42.5q53 0 85 -25.5t32 -74.5q0 -70 -45 -117t-117 -47q-61 0 -90 30.5t-29 76.5z" />
<glyph unicode="&#xdd;" horiz-adv-x="1183" d="M88 1374l10 60h609l-11 -60h-159l196 -629l426 629h-155l8 60h346l-8 -60h-111l-483 -717l-103 -598h166l-10 -59h-625l11 59h163l101 596l-244 719h-127zM612 1528l283 340l78 -21q47 -12 65.5 -30.5t18.5 -51.5q0 -68 -94 -110l-326 -156z" />
<glyph unicode="&#xde;" horiz-adv-x="1249" d="M-31 0l11 59h149l219 1315h-149l10 60h698l-10 -60h-254l-35 -215h99q260 0 400 -76.5t140 -265.5q0 -141 -60.5 -242.5t-168 -155.5t-230 -79t-270.5 -25h-51l-43 -256h252l-10 -59h-697zM477 373h51q205 0 308.5 144.5t103.5 350.5q0 127 -64.5 179.5t-191.5 52.5h-86z " />
<glyph unicode="&#xdf;" horiz-adv-x="1404" d="M-420 -295q0 80 49 133t129 53t114 -58t3 -138l-82 -10q-18 -37 -18 -66q0 -35 23.5 -53.5t62.5 -18.5t69.5 18.5t50 46.5t37 80t27 96t23.5 120l211 1171q92 504 610 504q362 0 362 -217q0 -66 -40 -121t-95 -96t-111.5 -80t-96.5 -87t-40 -103q0 -53 42 -93.5 t122 -85.5q61 -33 82 -46t72 -49t71.5 -65.5t41 -77.5t20.5 -104q0 -170 -125 -275.5t-317 -105.5q-162 0 -245 61.5t-83 170.5q0 80 44 127t118 47q82 0 114.5 -62.5t-16.5 -140.5h-70q-23 -57 8 -99t133.5 -42t162 52t59.5 136q0 74 -45 120t-133 93q-135 74 -179 117 q-66 68 -65 164q0 84 39 152.5t95 117.5t112.5 98.5t95.5 119t39 155.5q0 170 -168 170q-129 0 -199.5 -86t-101.5 -254l-219 -1208q-92 -498 -518 -498q-113 0 -194 58.5t-81 158.5z" />
<glyph unicode="&#xe0;" horiz-adv-x="1196" d="M43 350q0 121 31.5 234.5t92 209t160 153t222.5 57.5q174 0 244 -154l32 129q193 0 277 14q-109 -535 -148 -794q-4 -25 -4 -60q0 -43 13.5 -59.5t44.5 -16.5q61 1 127 95l43 -33q-94 -147 -252 -148q-211 0 -211 177q0 41 12 90l-10 2q-106 -268 -361 -269 q-313 0 -313 373zM330 287q0 -219 123 -219q119 0 211 194.5t92 439.5q0 113 -41 170.5t-113 57.5q-119 0 -195.5 -178.5t-76.5 -464.5zM506 1460q0 53 51 78t96 4l80 -35l74 -387l-37 -14l-231 270q-33 43 -33 84z" />
<glyph unicode="&#xe1;" horiz-adv-x="1196" d="M43 350q0 121 31.5 234.5t92 209t160 153t222.5 57.5q174 0 244 -154l32 129q193 0 277 14q-109 -535 -148 -794q-4 -25 -4 -60q0 -43 13.5 -59.5t44.5 -16.5q61 1 127 95l43 -33q-94 -147 -252 -148q-211 0 -211 177q0 41 12 90l-10 2q-106 -268 -361 -269 q-313 0 -313 373zM330 287q0 -219 123 -219q119 0 211 194.5t92 439.5q0 113 -41 170.5t-113 57.5q-119 0 -195.5 -178.5t-76.5 -464.5zM518 1126l180 383l103 23q39 8 73.5 -10.5t34.5 -61.5q0 -53 -61 -104l-299 -252z" />
<glyph unicode="&#xe2;" horiz-adv-x="1196" d="M43 350q0 121 31.5 234.5t92 209t160 153t222.5 57.5q174 0 244 -154l32 129q193 0 277 14q-109 -535 -148 -794q-4 -25 -4 -60q0 -43 13.5 -59.5t44.5 -16.5q61 1 127 95l43 -33q-94 -147 -252 -148q-211 0 -211 177q0 41 12 90l-10 2q-106 -268 -361 -269 q-313 0 -313 373zM330 287q0 -219 123 -219q119 0 211 194.5t92 439.5q0 113 -41 170.5t-113 57.5q-119 0 -195.5 -178.5t-76.5 -464.5zM385 1130l231 347q53 33 117 32q45 0 68.5 -17t36.5 -62l86 -306l-33 -16l-189 213l-288 -217z" />
<glyph unicode="&#xe3;" horiz-adv-x="1196" d="M43 350q0 121 31.5 234.5t92 209t160 153t222.5 57.5q174 0 244 -154l32 129q193 0 277 14q-109 -535 -148 -794q-4 -25 -4 -60q0 -43 13.5 -59.5t44.5 -16.5q61 1 127 95l43 -33q-94 -147 -252 -148q-211 0 -211 177q0 41 12 90l-10 2q-106 -268 -361 -269 q-313 0 -313 373zM330 287q0 -219 123 -219q119 0 211 194.5t92 439.5q0 113 -41 170.5t-113 57.5q-119 0 -195.5 -178.5t-76.5 -464.5zM348 1194q59 125 114.5 183.5t143.5 58.5q55 0 170 -50q74 -31 113 -30q78 0 123 86l41 -10q-55 -131 -116.5 -187.5t-135.5 -56.5 q-72 0 -178 49q-76 33 -117 33q-70 0 -121 -88z" />
<glyph unicode="&#xe4;" horiz-adv-x="1196" d="M43 350q0 121 31.5 234.5t92 209t160 153t222.5 57.5q174 0 244 -154l32 129q193 0 277 14q-109 -535 -148 -794q-4 -25 -4 -60q0 -43 13.5 -59.5t44.5 -16.5q61 1 127 95l43 -33q-94 -147 -252 -148q-211 0 -211 177q0 41 12 90l-10 2q-106 -268 -361 -269 q-313 0 -313 373zM330 287q0 -219 123 -219q119 0 211 194.5t92 439.5q0 113 -41 170.5t-113 57.5q-119 0 -195.5 -178.5t-76.5 -464.5zM344 1278q0 63 48 104t114 41q117 0 117 -102q0 -72 -45.5 -117t-116.5 -45q-117 0 -117 119zM754 1270q0 70 48 111.5t113 41.5 q117 0 117 -102q0 -72 -45 -117t-117 -45q-116 0 -116 111z" />
<glyph unicode="&#xe5;" horiz-adv-x="1196" d="M43 350q0 121 31.5 234.5t92 209t160 153t222.5 57.5q174 0 244 -154l32 129q193 0 277 14q-109 -535 -148 -794q-4 -25 -4 -60q0 -43 13.5 -59.5t44.5 -16.5q61 1 127 95l43 -33q-94 -147 -252 -148q-211 0 -211 177q0 41 12 90l-10 2q-106 -268 -361 -269 q-313 0 -313 373zM330 287q0 -219 123 -219q119 0 211 194.5t92 439.5q0 113 -41 170.5t-113 57.5q-119 0 -195.5 -178.5t-76.5 -464.5zM504 1286q0 90 62.5 149.5t162.5 59.5q76 0 116 -39t40 -102q0 -96 -61.5 -154.5t-161.5 -58.5q-80 0 -119 39.5t-39 105.5zM578 1300 q0 -41 23.5 -70.5t72.5 -29.5q59 0 97 39t38 96q0 43 -24.5 73t-71.5 30q-57 0 -96 -40t-39 -98z" />
<glyph unicode="&#xe6;" horiz-adv-x="1646" d="M43 350q0 121 31.5 234.5t92 209t160 153t222.5 57.5q174 0 244 -154l32 125q53 0 211 16l-18 -86q127 98 297 99q133 0 210 -61.5t77 -172.5q0 -248 -392 -313q-96 -14 -200 -19q-2 -25 -2 -82q0 -156 44 -221t142 -65q209 0 303 274l55 -18q-111 -348 -462 -349 q-309 0 -353 283q-51 -123 -151.5 -203t-229.5 -80q-313 0 -313 373zM330 281q0 -111 28.5 -162t98.5 -51q119 0 209 182t90 436q0 244 -154 244q-86 0 -150.5 -103.5t-93 -248t-28.5 -297.5zM1014 496q74 10 104 16q113 27 175.5 91.5t62.5 193.5q0 147 -96 147 q-88 0 -156 -125t-90 -323z" />
<glyph unicode="&#xe7;" horiz-adv-x="974" d="M43 369q0 274 158.5 454.5t441.5 180.5q152 0 227.5 -69t75.5 -173q0 -86 -44 -143.5t-132 -57.5q-66 0 -100.5 33t-34.5 82t33 104h77q16 41 17 78q0 94 -105 94q-82 0 -144 -56t-97 -147.5t-52.5 -188.5t-17.5 -193q0 -162 42 -233t138 -71q94 0 170 76t123 209l62 -20 q-106 -336 -422 -351l-78 -98q55 18 102 19q76 0 118 -41t42 -113q0 -92 -74.5 -154.5t-210.5 -62.5q-90 0 -135 37t-45 86q0 39 22.5 63.5t63.5 24.5q74 0 76 -76l-51 -31q-14 -66 61 -65q47 0 81 40t34 118q0 119 -80 118q-33 0 -74 -12l-10 33l90 117q-170 12 -259 113.5 t-89 275.5z" />
<glyph unicode="&#xe8;" horiz-adv-x="970" d="M43 360q0 285 161 464.5t423 179.5q147 0 227 -62.5t80 -177.5q0 -240 -393 -307q-94 -14 -197 -19q-2 -45 -2 -88q0 -154 46 -217t144 -63q209 0 304 274l55 -18q-115 -348 -465 -349q-184 0 -283.5 100.5t-99.5 282.5zM348 496q76 8 126 21t104.5 45t82 92.5 t27.5 148.5q0 141 -92 141q-88 0 -157.5 -125t-90.5 -323zM469 1460q0 53 51 78t96 4l80 -35l74 -387l-37 -14l-231 270q-33 43 -33 84z" />
<glyph unicode="&#xe9;" horiz-adv-x="970" d="M43 360q0 285 161 464.5t423 179.5q147 0 227 -62.5t80 -177.5q0 -240 -393 -307q-94 -14 -197 -19q-2 -45 -2 -88q0 -154 46 -217t144 -63q209 0 304 274l55 -18q-115 -348 -465 -349q-184 0 -283.5 100.5t-99.5 282.5zM348 496q76 8 126 21t104.5 45t82 92.5 t27.5 148.5q0 141 -92 141q-88 0 -157.5 -125t-90.5 -323zM461 1126l180 383l102 23q39 8 74 -10.5t35 -61.5q0 -53 -61 -104l-299 -252z" />
<glyph unicode="&#xea;" horiz-adv-x="970" d="M43 360q0 285 161 464.5t423 179.5q147 0 227 -62.5t80 -177.5q0 -240 -393 -307q-94 -14 -197 -19q-2 -45 -2 -88q0 -154 46 -217t144 -63q209 0 304 274l55 -18q-115 -348 -465 -349q-184 0 -283.5 100.5t-99.5 282.5zM348 496q76 8 126 21t104.5 45t82 92.5 t27.5 148.5q0 141 -92 141q-88 0 -157.5 -125t-90.5 -323zM354 1130l232 347q53 33 116 32q45 0 69 -17t36 -62l86 -306l-33 -16l-188 213l-289 -217z" />
<glyph unicode="&#xeb;" horiz-adv-x="970" d="M43 360q0 285 161 464.5t423 179.5q147 0 227 -62.5t80 -177.5q0 -240 -393 -307q-94 -14 -197 -19q-2 -45 -2 -88q0 -154 46 -217t144 -63q209 0 304 274l55 -18q-115 -348 -465 -349q-184 0 -283.5 100.5t-99.5 282.5zM317 1278q0 63 48.5 104t113.5 41q117 0 117 -102 q0 -72 -45 -117t-117 -45q-117 0 -117 119zM348 496q76 8 126 21t104.5 45t82 92.5t27.5 148.5q0 141 -92 141q-88 0 -157.5 -125t-90.5 -323zM727 1270q0 70 48 111.5t114 41.5q117 0 117 -102q0 -72 -46.5 -117t-115.5 -45q-117 0 -117 111z" />
<glyph unicode="&#xec;" horiz-adv-x="632" d="M80 930l8 53h449q-74 -326 -154 -752q-12 -82 -12 -104q0 -61 53 -61q55 0 127 98l45 -35q-100 -152 -268 -152q-229 0 -230 211q0 76 29 207l115 535h-162zM203 1460q0 53 51 78t96 4l80 -35l74 -387l-37 -14l-231 270q-33 43 -33 84z" />
<glyph unicode="&#xed;" horiz-adv-x="632" d="M80 930l8 53h449q-74 -326 -154 -752q-12 -82 -12 -104q0 -61 53 -61q55 0 127 98l45 -35q-100 -152 -268 -152q-229 0 -230 211q0 76 29 207l115 535h-162zM221 1126l180 383l103 23q39 8 73.5 -10.5t34.5 -61.5q0 -53 -61 -104l-299 -252z" />
<glyph unicode="&#xee;" horiz-adv-x="632" d="M80 930l8 53h449q-74 -326 -154 -752q-12 -82 -12 -104q0 -61 53 -61q55 0 127 98l45 -35q-100 -152 -268 -152q-229 0 -230 211q0 76 29 207l115 535h-162zM98 1130l232 347q53 33 116 32q45 0 69 -17t36 -62l86 -306l-33 -16l-188 213l-289 -217z" />
<glyph unicode="&#xef;" horiz-adv-x="632" d="M49 1278q0 63 48 104t114 41q117 0 117 -102q0 -72 -45 -117t-117 -45q-117 0 -117 119zM80 930l8 53h449q-74 -326 -154 -752q-12 -82 -12 -104q0 -61 53 -61q55 0 127 98l45 -35q-100 -152 -268 -152q-229 0 -230 211q0 76 29 207l115 535h-162zM459 1270 q0 70 48 111.5t114 41.5q117 0 116 -102q0 -72 -45 -117t-117 -45q-116 0 -116 111z" />
<glyph unicode="&#xf0;" horiz-adv-x="1132" d="M45 379q0 289 150.5 452.5t369.5 163.5q102 0 162.5 -48t81.5 -124q10 102 10 185q0 176 -51 292l-205 -137l-14 56l190 129q-100 141 -325 186l12 37q299 0 465 -121l196 131l17 -53l-170 -115q152 -158 151 -491q0 -168 -33.5 -325t-104 -300t-201 -230t-304.5 -87 q-195 0 -296 105t-101 294zM315 264q0 -236 142 -235q96 0 166.5 104.5t101.5 247.5t31 295q0 268 -150 268q-84 0 -152.5 -105.5t-103.5 -259t-35 -315.5z" />
<glyph unicode="&#xf1;" horiz-adv-x="1220" d="M0 -14l84 376l74 568h-148l6 53h437l-88 -346l14 -6q172 373 434 373q109 0 166 -57.5t57 -162.5q0 -57 -20 -135l-103 -411q-18 -70 -18 -113q0 -59 53 -59q59 0 135 96l45 -35q-102 -150 -272 -150q-109 0 -170 51.5t-61 153.5q0 59 22.5 156.5t56 215.5t41.5 155 q16 72 17 110q0 70 -62 70q-74 0 -149.5 -90t-126.5 -228q-78 -211 -113 -565q-51 2 -160.5 -5t-150.5 -15zM358 1194q59 125 114.5 183.5t143.5 58.5q55 0 170 -50q74 -31 113 -30q78 0 123 86l41 -10q-55 -131 -116.5 -187.5t-135.5 -56.5q-72 0 -178 49q-76 33 -117 33 q-70 0 -121 -88z" />
<glyph unicode="&#xf2;" horiz-adv-x="1075" d="M37 365q0 266 153.5 452.5t423.5 186.5q395 0 396 -383q0 -281 -156 -462.5t-418 -181.5q-199 0 -299 100.5t-100 287.5zM307 240q0 -211 144 -211q111 0 165 100t93 336q27 170 26 272q0 217 -139 217q-106 0 -163.5 -107.5t-96.5 -328.5q-29 -168 -29 -278zM481 1460 q0 53 51.5 78t96.5 4l80 -35l73 -387l-37 -14l-231 270q-33 43 -33 84z" />
<glyph unicode="&#xf3;" horiz-adv-x="1075" d="M37 365q0 266 153.5 452.5t423.5 186.5q395 0 396 -383q0 -281 -156 -462.5t-418 -181.5q-199 0 -299 100.5t-100 287.5zM307 240q0 -211 144 -211q111 0 165 100t93 336q27 170 26 272q0 217 -139 217q-106 0 -163.5 -107.5t-96.5 -328.5q-29 -168 -29 -278zM467 1126 l180 383l103 23q39 8 73.5 -10.5t34.5 -61.5q0 -53 -61 -104l-299 -252z" />
<glyph unicode="&#xf4;" horiz-adv-x="1075" d="M37 365q0 266 153.5 452.5t423.5 186.5q395 0 396 -383q0 -281 -156 -462.5t-418 -181.5q-199 0 -299 100.5t-100 287.5zM307 240q0 -211 144 -211q111 0 165 100t93 336q27 170 26 272q0 217 -139 217q-106 0 -163.5 -107.5t-96.5 -328.5q-29 -168 -29 -278zM354 1130 l232 347q53 33 116 32q45 0 69 -17t36 -62l86 -306l-33 -16l-188 213l-289 -217z" />
<glyph unicode="&#xf5;" horiz-adv-x="1075" d="M37 365q0 266 153.5 452.5t423.5 186.5q395 0 396 -383q0 -281 -156 -462.5t-418 -181.5q-199 0 -299 100.5t-100 287.5zM307 240q0 -211 144 -211q111 0 165 100t93 336q27 170 26 272q0 217 -139 217q-106 0 -163.5 -107.5t-96.5 -328.5q-29 -168 -29 -278zM315 1194 q59 125 114.5 183.5t143.5 58.5q55 0 170 -50q74 -31 113 -30q78 0 123 86l41 -10q-55 -131 -116.5 -187.5t-135.5 -56.5q-72 0 -178 49q-76 33 -117 33q-70 0 -121 -88z" />
<glyph unicode="&#xf6;" horiz-adv-x="1075" d="M37 365q0 266 153.5 452.5t423.5 186.5q395 0 396 -383q0 -281 -156 -462.5t-418 -181.5q-199 0 -299 100.5t-100 287.5zM307 240q0 -211 144 -211q111 0 165 100t93 336q27 170 26 272q0 217 -139 217q-106 0 -163.5 -107.5t-96.5 -328.5q-29 -168 -29 -278zM326 1278 q0 63 48 104t113 41q117 0 117 -102q0 -72 -45 -117t-117 -45q-116 0 -116 119zM735 1270q0 70 48 111.5t114 41.5q117 0 117 -102q0 -72 -46 -117t-116 -45q-117 0 -117 111z" />
<glyph unicode="&#xf7;" horiz-adv-x="1126" d="M92 610l12 74h930l-12 -74h-930zM403 324q0 59 39.5 99t94.5 40q100 0 100 -86q0 -61 -38 -101t-97 -40q-98 0 -99 88zM508 924q0 59 40 99t95 40q98 0 98 -84q0 -63 -37.5 -103t-97.5 -40q-98 0 -98 88z" />
<glyph unicode="&#xf8;" horiz-adv-x="1075" d="M37 365q0 266 153.5 452.5t423.5 186.5q66 0 121 -13l86 174l56 -24l-82 -166q215 -78 215 -354q0 -281 -156 -462.5t-418 -181.5q-72 0 -127 13l-80 -162l-57 29l74 151q-209 80 -209 357zM307 240q0 -59 8 -95l379 764q-35 45 -98 45q-106 0 -163.5 -107.5 t-96.5 -328.5q-29 -167 -29 -278zM348 70q35 -41 103 -41q111 0 165 100t93 336q27 170 26 272q0 51 -10 99z" />
<glyph unicode="&#xf9;" horiz-adv-x="1239" d="M82 930l8 53h436q-41 -178 -153 -739q-8 -53 -8 -70q0 -80 84 -80q94 0 176 139.5t135 354.5q45 184 61 383q217 0 314 20q-121 -563 -152 -813q-4 -37 -4 -49q0 -68 57 -68q59 0 129 97l43 -31q-102 -150 -262 -150q-217 0 -217 183q0 61 31 170l-12 4 q-31 -74 -65 -130.5t-84 -111.5t-119.5 -85t-153.5 -30q-117 0 -173.5 62.5t-56.5 169.5q0 45 8 86l125 635h-147zM510 1460q0 53 51 78t96 4l80 -35l74 -387l-37 -14l-231 270q-33 43 -33 84z" />
<glyph unicode="&#xfa;" horiz-adv-x="1239" d="M82 930l8 53h436q-41 -178 -153 -739q-8 -53 -8 -70q0 -80 84 -80q94 0 176 139.5t135 354.5q45 184 61 383q217 0 314 20q-121 -563 -152 -813q-4 -37 -4 -49q0 -68 57 -68q59 0 129 97l43 -31q-102 -150 -262 -150q-217 0 -217 183q0 61 31 170l-12 4 q-31 -74 -65 -130.5t-84 -111.5t-119.5 -85t-153.5 -30q-117 0 -173.5 62.5t-56.5 169.5q0 45 8 86l125 635h-147zM541 1126l180 383l102 23q39 8 74 -10.5t35 -61.5q0 -53 -62 -104l-299 -252z" />
<glyph unicode="&#xfb;" horiz-adv-x="1239" d="M82 930l8 53h436q-41 -178 -153 -739q-8 -53 -8 -70q0 -80 84 -80q94 0 176 139.5t135 354.5q45 184 61 383q217 0 314 20q-121 -563 -152 -813q-4 -37 -4 -49q0 -68 57 -68q59 0 129 97l43 -31q-102 -150 -262 -150q-217 0 -217 183q0 61 31 170l-12 4 q-31 -74 -65 -130.5t-84 -111.5t-119.5 -85t-153.5 -30q-117 0 -173.5 62.5t-56.5 169.5q0 45 8 86l125 635h-147zM401 1130l232 347q53 33 117 32q45 0 68.5 -17t35.5 -62l86 -306l-33 -16l-188 213l-289 -217z" />
<glyph unicode="&#xfc;" horiz-adv-x="1239" d="M82 930l8 53h436q-41 -178 -153 -739q-8 -53 -8 -70q0 -80 84 -80q94 0 176 139.5t135 354.5q45 184 61 383q217 0 314 20q-121 -563 -152 -813q-4 -37 -4 -49q0 -68 57 -68q59 0 129 97l43 -31q-102 -150 -262 -150q-217 0 -217 183q0 61 31 170l-12 4 q-31 -74 -65 -130.5t-84 -111.5t-119.5 -85t-153.5 -30q-117 0 -173.5 62.5t-56.5 169.5q0 45 8 86l125 635h-147zM360 1278q0 63 48.5 104t113.5 41q117 0 117 -102q0 -72 -45 -117t-117 -45q-117 0 -117 119zM770 1270q0 70 48 111.5t114 41.5q117 0 117 -102 q0 -72 -45.5 -117t-116.5 -45q-117 0 -117 111z" />
<glyph unicode="&#xfd;" horiz-adv-x="1107" d="M-188 -287q0 82 50 133.5t126 51.5q61 0 103 -37t42 -105q0 -32 -8 -63l-94 -12q-23 -33 -23 -64q0 -27 19.5 -45t56.5 -18q184 0 422 337q-131 496 -238 857q-18 63 -36.5 87.5t-45.5 24.5q-33 0 -56.5 -31.5t-57.5 -115.5l-62 24q55 129 117.5 194.5t183.5 65.5 q90 0 145.5 -48t86.5 -150q84 -289 172 -629q238 350 237 510q0 88 -69 94l-64 -86q-53 16 -87 58t-34 94q0 76 48.5 120t123.5 44q90 0 142.5 -61.5t52.5 -162.5q0 -231 -311 -674q-23 -33 -76 -108.5t-79 -112.5t-76 -101.5t-82.5 -97t-83 -77.5t-93.5 -66.5t-96 -38 t-109 -16.5q-119 0 -183 59.5t-64 165.5zM487 1126l181 383l102 23q39 8 74 -10.5t35 -61.5q0 -53 -62 -104l-299 -252z" />
<glyph unicode="&#xfe;" horiz-adv-x="1200" d="M-141 -487l10 53h127l315 1915h-164l11 53h436l-158 -821l10 -4q72 145 166.5 220t233.5 75q143 0 215 -94.5t72 -264.5q0 -272 -146.5 -470t-363.5 -198q-203 0 -254 152l-93 -563h242l-10 -53h-649zM414 264q0 -203 153 -203q78 0 134.5 64.5t85 170t41 211t12.5 216.5 q0 178 -113 178q-111 0 -203 -174q-111 -205 -110 -463z" />
<glyph unicode="&#xff;" horiz-adv-x="1107" d="M-188 -287q0 82 50 133.5t126 51.5q61 0 103 -37t42 -105q0 -32 -8 -63l-94 -12q-23 -33 -23 -64q0 -27 19.5 -45t56.5 -18q184 0 422 337q-131 496 -238 857q-18 63 -36.5 87.5t-45.5 24.5q-33 0 -56.5 -31.5t-57.5 -115.5l-62 24q55 129 117.5 194.5t183.5 65.5 q90 0 145.5 -48t86.5 -150q84 -289 172 -629q238 350 237 510q0 88 -69 94l-64 -86q-53 16 -87 58t-34 94q0 76 48.5 120t123.5 44q90 0 142.5 -61.5t52.5 -162.5q0 -231 -311 -674q-23 -33 -76 -108.5t-79 -112.5t-76 -101.5t-82.5 -97t-83 -77.5t-93.5 -66.5t-96 -38 t-109 -16.5q-119 0 -183 59.5t-64 165.5zM315 1278q0 63 48.5 104t113.5 41q117 0 117 -102q0 -72 -45 -117t-117 -45q-117 0 -117 119zM725 1270q0 70 48 111.5t114 41.5q117 0 117 -102q0 -72 -45.5 -117t-116.5 -45q-117 0 -117 111z" />
<glyph unicode="&#x152;" horiz-adv-x="2064" d="M74 555q0 186 54 349t154.5 286t255 194.5t341.5 71.5q154 0 231 -22h952l-45 -396h-51q-6 109 -27.5 175.5t-68.5 102.5t-106.5 47t-157.5 11h-133l-103 -612h78q109 0 171 57.5t112 204.5h45l-101 -606h-49q0 168 -43 223t-166 55h-57l-107 -637h133q219 0 329 84 t190 293h51l-88 -436h-953q-145 -23 -276 -23q-565 0 -565 578zM369 485q0 -442 317 -442q160 0 279 53l206 1241q-110 56 -274 56q-125 0 -222 -64.5t-153.5 -162t-92.5 -225.5t-48 -237.5t-12 -218.5z" />
<glyph unicode="&#x153;" horiz-adv-x="1634" d="M37 365q0 266 152.5 452.5t418.5 186.5q217 0 305 -158q158 158 367 158q150 0 229.5 -61.5t79.5 -176.5q0 -236 -370 -305q-96 -18 -220 -23q-2 -25 -2 -82q0 -156 44 -221t143 -65q209 0 303 274l55 -18q-111 -348 -440 -349q-223 0 -307 162q-150 -162 -359 -162 q-199 0 -299 100.5t-100 287.5zM307 264q0 -121 34 -178t110 -57q98 0 165.5 110.5t93 259t25.5 314.5q0 125 -32.5 183t-106.5 58q-76 0 -134.5 -63.5t-90 -166.5t-48 -220t-16.5 -240zM1004 496q86 12 124 22q109 33 162 100.5t53 188.5q0 137 -94 137q-88 0 -155 -124.5 t-90 -323.5z" />
<glyph unicode="&#x178;" horiz-adv-x="1183" d="M88 1374l10 60h609l-11 -60h-159l196 -629l426 629h-155l8 60h346l-8 -60h-111l-483 -717l-103 -598h166l-10 -59h-625l11 59h163l101 596l-244 719h-127zM471 1649q0 70 49.5 111.5t112.5 41.5q53 0 86 -25.5t33 -74.5q0 -70 -46.5 -117t-117.5 -47q-61 0 -89 32t-28 79 zM879 1645q0 72 47.5 114.5t115.5 42.5q53 0 85 -25.5t32 -74.5q0 -70 -45 -117t-117 -47q-61 0 -89.5 30.5t-28.5 76.5z" />
<glyph unicode="&#x2c6;" d="M442 1130l232 347q53 33 117 32q45 0 68.5 -17t35.5 -62l86 -306l-33 -16l-188 213l-289 -217z" />
<glyph unicode="&#x2dc;" d="M389 1194q59 125 114.5 183.5t143.5 58.5q55 0 170 -50q74 -31 113 -30q78 0 123 86l41 -10q-55 -131 -116.5 -187.5t-135.5 -56.5q-72 0 -178 49q-76 33 -117 33q-70 0 -121 -88z" />
<glyph unicode="&#x2000;" horiz-adv-x="939" />
<glyph unicode="&#x2001;" horiz-adv-x="1878" />
<glyph unicode="&#x2002;" horiz-adv-x="939" />
<glyph unicode="&#x2003;" horiz-adv-x="1878" />
<glyph unicode="&#x2004;" horiz-adv-x="626" />
<glyph unicode="&#x2005;" horiz-adv-x="469" />
<glyph unicode="&#x2006;" horiz-adv-x="313" />
<glyph unicode="&#x2007;" horiz-adv-x="313" />
<glyph unicode="&#x2008;" horiz-adv-x="234" />
<glyph unicode="&#x2009;" horiz-adv-x="375" />
<glyph unicode="&#x200a;" horiz-adv-x="104" />
<glyph unicode="&#x2010;" horiz-adv-x="700" d="M78 512l20 119h492l-23 -119h-489z" />
<glyph unicode="&#x2011;" horiz-adv-x="700" d="M78 512l20 119h492l-23 -119h-489z" />
<glyph unicode="&#x2012;" horiz-adv-x="700" d="M78 512l20 119h492l-23 -119h-489z" />
<glyph unicode="&#x2013;" d="M-2 537l12 75h998l-13 -75h-997z" />
<glyph unicode="&#x2014;" horiz-adv-x="2048" d="M-2 537l12 75h2022l-15 -75h-2019z" />
<glyph unicode="&#x2018;" horiz-adv-x="493" d="M195 1169q0 119 85.5 210t243.5 175l23 -47q-90 -47 -153.5 -107.5t-63.5 -113.5q0 -35 37 -65l75 65q76 -35 76 -125q0 -70 -50 -112.5t-124 -42.5q-72 0 -110.5 48t-38.5 115z" />
<glyph unicode="&#x2019;" horiz-adv-x="481" d="M186 965q90 47 153.5 107.5t63.5 113.5q0 39 -36 65l-76 -65q-76 35 -76 125q0 70 50 112.5t124 42.5q72 0 112 -48t40 -115q0 -119 -86 -210t-244 -175z" />
<glyph unicode="&#x201a;" horiz-adv-x="524" d="M35 -256q90 47 153.5 107.5t63.5 113.5q0 39 -37 66l-76 -66q-76 35 -76 125q0 70 50.5 113t124.5 43q72 0 111.5 -48t39.5 -116q0 -119 -86 -210t-244 -175z" />
<glyph unicode="&#x201c;" horiz-adv-x="882" d="M195 1169q0 119 85.5 210t243.5 175l23 -47q-90 -47 -153.5 -107.5t-63.5 -113.5q0 -35 37 -65l75 65q76 -35 76 -125q0 -70 -50 -112.5t-124 -42.5q-72 0 -110.5 48t-38.5 115zM584 1169q0 119 85.5 210t243.5 175l23 -47q-90 -47 -153.5 -107.5t-63.5 -113.5 q0 -35 37 -65l75 65q76 -35 76 -125q0 -70 -50 -112.5t-124 -42.5q-72 0 -110.5 48t-38.5 115z" />
<glyph unicode="&#x201d;" horiz-adv-x="866" d="M186 965q90 47 153.5 107.5t63.5 113.5q0 39 -36 65l-76 -65q-76 35 -76 125q0 70 50 112.5t124 42.5q72 0 112 -48t40 -115q0 -119 -86 -210t-244 -175zM573 965q90 47 152.5 107.5t62.5 113.5q0 37 -34 65l-78 -65q-76 35 -76 125q0 70 50 112.5t124 42.5q72 0 112 -48 t40 -115q0 -119 -86 -210t-244 -175z" />
<glyph unicode="&#x201e;" horiz-adv-x="907" d="M35 -256q90 47 153.5 107.5t63.5 113.5q0 39 -37 66l-76 -66q-76 35 -76 125q0 70 50.5 113t124.5 43q72 0 111.5 -48t39.5 -116q0 -119 -86 -210t-244 -175zM418 -256q90 47 153.5 107.5t63.5 113.5q0 39 -37 66l-76 -66q-76 35 -76 125q0 70 50.5 113t124.5 43 q72 0 111.5 -48t39.5 -116q0 -119 -86 -210t-244 -175z" />
<glyph unicode="&#x2022;" horiz-adv-x="753" d="M152 598q0 26 6 57q18 106 93 174t191 68q96 0 151.5 -46t55.5 -136q0 -131 -81 -217t-208 -86q-109 0 -158.5 52t-49.5 134z" />
<glyph unicode="&#x2026;" horiz-adv-x="1597" d="M49 117q0 82 57.5 135t135.5 53q66 0 103.5 -33.5t37.5 -95.5q0 -88 -54.5 -142t-138.5 -54q-74 0 -107.5 39.5t-33.5 97.5zM569 117q0 84 57.5 136t135.5 52q63 0 102 -33.5t39 -95.5q0 -88 -55 -142t-139 -54q-74 0 -107 39.5t-33 97.5zM1096 117q0 84 57 136t135 52 q63 0 102.5 -33.5t39.5 -95.5q0 -88 -55.5 -142t-139.5 -54q-74 0 -106.5 39.5t-32.5 97.5z" />
<glyph unicode="&#x202f;" horiz-adv-x="375" />
<glyph unicode="&#x2039;" horiz-adv-x="641" d="M59 455q1 49 58 102l405 258l29 -29l-264 -333l149 -322l-33 -25l-284 238q-59 53 -60 111z" />
<glyph unicode="&#x203a;" horiz-adv-x="641" d="M59 135l267 338l-150 313l33 25l283 -233q61 -49 61 -111q0 -53 -59 -100l-406 -261z" />
<glyph unicode="&#x205f;" horiz-adv-x="469" />
<glyph unicode="&#x20ac;" horiz-adv-x="1269" d="M55 582l17 67h131q8 94 22 162h-123l15 68h123q72 262 258 419.5t436 157.5q166 0 251 -72.5t85 -179.5q0 -76 -41 -125t-121 -49q-57 0 -89 30t-32 77q4 53 29 92h65q18 43 19 74q0 45 -36 69.5t-93 24.5q-301 0 -424 -518h414l-15 -68h-414q-14 -78 -20 -162h385 l-16 -67h-373q0 -106 9 -187.5t36 -169.5t88 -137t152 -49q70 0 111.5 30.5t41.5 84.5q0 27 -12 61h-70q-10 35 -10 61q0 61 37 101.5t106 40.5q66 0 102 -40t36 -110q0 -102 -65.5 -171.5t-147.5 -94.5t-168 -25q-270 0 -408.5 160t-146.5 445h-144z" />
<glyph unicode="&#x2122;" horiz-adv-x="1935" d="M188 1094l13 233h641l10 -233h-33q-23 123 -67.5 160.5t-147.5 37.5h-14v-680h104v-43h-348v43h107v680h-15q-100 0 -146 -39t-69 -159h-35zM918 569v39h69v678h-69v41h262l217 -557l186 557h262v-41h-82v-678h82v-39h-301v39h80v676l-235 -715h-56l-286 701v-662h73v-39 h-202z" />
<glyph unicode="&#x25fc;" horiz-adv-x="1003" d="M0 0v1004h1004v-1004h-1004z" />
</font>
</defs>
</svg>
